<svg width="1281" height="924" viewBox="0 0 1281 924" fill="none" xmlns="http://www.w3.org/2000/svg">
<mask id="mask0_630_954" style="mask-type:alpha" maskUnits="userSpaceOnUse" x="0" y="0" width="1281" height="924">
<rect x="0.248047" y="0.000244141" width="1280" height="924" fill="#D9D9D9"/>
</mask>
<g mask="url(#mask0_630_954)">
<rect x="-2511.88" y="-1074.25" width="3334.19" height="4575.16" transform="rotate(-45 -2511.88 -1074.25)" fill="#569DFD" stroke="black" stroke-width="3"/>
<path d="M0.248047 889.5H-1.25195V891V1099V1101.06L0.711676 1100.43L640.486 892.5H1280.25H1281.75V891V683V680.935L1279.78 681.573L640.01 889.5H0.248047Z" fill="#FFE178" stroke="black" stroke-width="3"/>
<ellipse cx="639.43" cy="891.52" rx="23.5" ry="19.5" transform="rotate(-48.4272 639.43 891.52)" fill="#FFE178"/>
<path d="M622.497 910.025C612.289 901.039 613.009 886.752 622.391 876.093C631.774 865.434 645.789 862.983 655.997 871.969C666.28 881.022 665.551 895.168 656.169 905.827C646.786 916.485 632.78 919.078 622.497 910.025ZM624.281 907.999C633.589 916.192 645.895 912.503 653.692 903.646C661.422 894.864 663.52 882.189 654.213 873.996C644.98 865.869 632.599 869.491 624.868 878.273C617.071 887.131 615.049 899.871 624.281 907.999Z" fill="black"/>
</g>
</svg>
