<svg width="1280" height="885" viewBox="0 0 1280 885" fill="none" xmlns="http://www.w3.org/2000/svg">
<mask id="mask0_530_6" style="mask-type:alpha" maskUnits="userSpaceOnUse" x="0" y="0" width="1280" height="885">
<rect width="1280" height="885" fill="#D9D9D9"/>
</mask>
<g mask="url(#mask0_530_6)">
<rect x="-53" y="-18" width="575" height="453" fill="#D7D7D7" stroke="black" stroke-width="2"/>
<path d="M852.866 -18.7959C867.611 3.46803 866.186 35.1844 850.529 73.753C834.887 112.285 805.133 157.41 763.667 206.239C680.743 303.887 551.136 416.168 394.495 519.909C237.853 623.651 83.8981 699.169 -38.3662 737.414C-99.505 756.539 -152.663 766.326 -194.245 765.692C-235.865 765.057 -265.623 753.993 -280.368 731.729C-295.113 709.465 -293.688 677.749 -278.031 639.18C-262.39 600.648 -232.635 555.523 -191.169 506.694C-108.246 409.046 21.3613 296.765 178.003 193.024C334.645 89.2822 488.6 13.7644 610.864 -24.4812C672.003 -43.6061 725.161 -53.3929 766.742 -52.7587C808.363 -52.1238 838.121 -41.0598 852.866 -18.7959Z" stroke="black" stroke-width="2"/>
<path d="M554.192 72.5175C561.765 83.9527 561.088 100.332 552.926 120.439C544.779 140.509 529.265 164.047 507.612 189.545C464.314 240.531 396.62 299.179 314.788 353.375C232.956 407.572 152.542 447.013 88.7022 466.983C56.7756 476.97 29.0506 482.069 7.39222 481.738C-14.3053 481.407 -29.6507 475.639 -37.224 464.204C-44.7974 452.768 -44.1206 436.389 -35.9585 416.282C-27.8112 396.212 -12.2975 372.675 9.35602 347.176C52.6541 296.19 120.348 237.542 202.18 183.346C284.012 129.149 364.426 89.7082 428.266 69.7384C460.192 59.7514 487.917 54.6524 509.575 54.9827C531.273 55.3137 546.618 61.0822 554.192 72.5175Z" stroke="black" stroke-width="2"/>
<circle cx="249.675" cy="391.881" r="27" transform="rotate(-5.61452 249.675 391.881)" fill="#FA2B00" stroke="black" stroke-width="2"/>
<circle cx="214.593" cy="224.849" r="49" transform="rotate(-4.09168 214.593 224.849)" fill="#FFE178" stroke="black" stroke-width="2"/>
<rect x="520" y="431" width="909" height="453" fill="#D7D7D7" stroke="black" stroke-width="2"/>
<path fill-rule="evenodd" clip-rule="evenodd" d="M726 127.385V80H773.385V82H728V127.385H726ZM894 127.385V80H846.615V82H892V127.385H894ZM894 200.615H892V246H846.615V248H894V200.615ZM773.385 248V246H728V200.615H726V248H773.385Z" fill="black"/>
<circle cx="520" cy="433" r="101" fill="#569DFD" stroke="black" stroke-width="2"/>
<rect x="743" y="99" width="134" height="130" fill="#FFE178" stroke="black" stroke-width="2"/>
<mask id="mask1_530_6" style="mask-type:alpha" maskUnits="userSpaceOnUse" x="742" y="98" width="136" height="132">
<rect x="742" y="98" width="136" height="132" fill="#D9D9D9"/>
</mask>
<g mask="url(#mask1_530_6)">
<path d="M680.8 166H666.6V99.3H697.8C712.3 99.3 720.2 109.1 720.2 120.8C720.2 132.4 712.2 142.3 697.8 142.3H680.8V166ZM695.9 129.8C701.5 129.8 705.7 126.3 705.7 120.8C705.7 115.2 701.5 111.8 695.9 111.8H680.8V129.8H695.9ZM783.002 166H766.702L753.602 142.3H743.202V166H729.002V99.3H760.202C774.102 99.3 782.602 108.4 782.602 120.8C782.602 132.6 775.202 138.9 768.002 140.6L783.002 166ZM758.102 129.8C763.802 129.8 768.102 126.4 768.102 120.8C768.102 115.2 763.802 111.8 758.102 111.8H743.202V129.8H758.102ZM824.86 167.2C804.76 167.2 790.06 152.8 790.06 132.7C790.06 112.6 804.76 98.2 824.86 98.2C845.06 98.2 859.76 112.6 859.76 132.7C859.76 152.8 845.06 167.2 824.86 167.2ZM824.86 154.6C837.16 154.6 845.16 145.1 845.16 132.7C845.16 120.2 837.16 110.8 824.86 110.8C812.56 110.8 804.66 120.2 804.66 132.7C804.66 145.1 812.56 154.6 824.86 154.6ZM927.198 166H910.198L893.498 141.6L876.698 166H859.798L883.998 131.8L861.298 99.3H878.198L893.498 122.1L908.598 99.3H925.698L902.998 131.7L927.198 166ZM947.695 166H933.495V99.3H947.695V166ZM1033.24 166H1018.94V119.3L1000.14 166H993.936L975.136 119.3V166H960.936V99.3H980.836L997.036 139.6L1013.24 99.3H1033.24V166ZM1108.68 166H1092.48L1088.38 154.7H1059.78L1055.58 166H1039.38L1065.18 99.3H1082.98L1108.68 166ZM1084.48 142.2L1074.08 113.5L1063.68 142.2H1084.48ZM726.3 246H712.6L680.8 202.5V246H666.6V179.3H681.2L712.1 221.2V179.3H726.3V246ZM771.052 247.2C750.952 247.2 736.252 232.8 736.252 212.7C736.252 192.6 750.952 178.2 771.052 178.2C791.252 178.2 805.952 192.6 805.952 212.7C805.952 232.8 791.252 247.2 771.052 247.2ZM771.052 234.6C783.352 234.6 791.352 225.1 791.352 212.7C791.352 200.2 783.352 190.8 771.052 190.8C758.752 190.8 750.852 200.2 750.852 212.7C750.852 225.1 758.752 234.6 771.052 234.6ZM850.463 246H832.663L806.863 179.3H823.063L841.563 230.6L859.963 179.3H876.163L850.463 246ZM939.835 246H923.635L919.535 234.7H890.935L886.735 246H870.535L896.335 179.3H914.135L939.835 246ZM915.635 222.2L905.235 193.5L894.835 222.2H915.635ZM1070.87 227.2H993.566V216.4H1070.87V227.2Z" fill="white"/>
<path d="M680.8 166V167H681.8V166H680.8ZM666.6 166H665.6V167H666.6V166ZM666.6 99.3V98.3H665.6V99.3H666.6ZM680.8 142.3V141.3H679.8V142.3H680.8ZM680.8 111.8V110.8H679.8V111.8H680.8ZM680.8 129.8H679.8V130.8H680.8V129.8ZM680.8 165H666.6V167H680.8V165ZM667.6 166V99.3H665.6V166H667.6ZM666.6 100.3H697.8V98.3H666.6V100.3ZM697.8 100.3C704.814 100.3 710.143 102.664 713.719 106.358C717.303 110.06 719.2 115.174 719.2 120.8H721.2C721.2 114.726 719.147 109.09 715.156 104.967C711.157 100.836 705.286 98.3 697.8 98.3V100.3ZM719.2 120.8C719.2 126.371 717.281 131.487 713.682 135.204C710.09 138.914 704.76 141.3 697.8 141.3V143.3C705.24 143.3 711.11 140.736 715.118 136.596C719.119 132.463 721.2 126.829 721.2 120.8H719.2ZM697.8 141.3H680.8V143.3H697.8V141.3ZM679.8 142.3V166H681.8V142.3H679.8ZM695.9 130.8C698.905 130.8 701.605 129.86 703.566 128.108C705.538 126.347 706.7 123.821 706.7 120.8H704.7C704.7 123.279 703.762 125.253 702.234 126.617C700.695 127.99 698.495 128.8 695.9 128.8V130.8ZM706.7 120.8C706.7 117.732 705.541 115.203 703.563 113.451C701.598 111.711 698.898 110.8 695.9 110.8V112.8C698.502 112.8 700.702 113.589 702.237 114.949C703.759 116.297 704.7 118.268 704.7 120.8H706.7ZM695.9 110.8H680.8V112.8H695.9V110.8ZM679.8 111.8V129.8H681.8V111.8H679.8ZM680.8 130.8H695.9V128.8H680.8V130.8ZM783.002 166V167H784.754L783.863 165.491L783.002 166ZM766.702 166L765.827 166.484L766.112 167H766.702V166ZM753.602 142.3L754.478 141.816L754.192 141.3H753.602V142.3ZM743.202 142.3V141.3H742.202V142.3H743.202ZM743.202 166V167H744.202V166H743.202ZM729.002 166H728.002V167H729.002V166ZM729.002 99.3V98.3H728.002V99.3H729.002ZM768.002 140.6L767.773 139.627L766.451 139.939L767.141 141.108L768.002 140.6ZM743.202 111.8V110.8H742.202V111.8H743.202ZM743.202 129.8H742.202V130.8H743.202V129.8ZM783.002 165H766.702V167H783.002V165ZM767.578 165.516L754.478 141.816L752.727 142.784L765.827 166.484L767.578 165.516ZM753.602 141.3H743.202V143.3H753.602V141.3ZM742.202 142.3V166H744.202V142.3H742.202ZM743.202 165H729.002V167H743.202V165ZM730.002 166V99.3H728.002V166H730.002ZM729.002 100.3H760.202V98.3H729.002V100.3ZM760.202 100.3C766.929 100.3 772.262 102.497 775.911 106.111C779.561 109.725 781.602 114.833 781.602 120.8H783.602C783.602 114.367 781.393 108.725 777.318 104.689C773.242 100.653 767.376 98.3 760.202 98.3V100.3ZM781.602 120.8C781.602 132.085 774.573 138.021 767.773 139.627L768.232 141.573C775.831 139.779 783.602 133.115 783.602 120.8H781.602ZM767.141 141.108L782.141 166.509L783.863 165.491L768.863 140.091L767.141 141.108ZM758.102 130.8C761.146 130.8 763.893 129.892 765.895 128.156C767.912 126.406 769.102 123.876 769.102 120.8H767.102C767.102 123.324 766.143 125.294 764.585 126.644C763.012 128.008 760.759 128.8 758.102 128.8V130.8ZM769.102 120.8C769.102 117.724 767.912 115.194 765.895 113.444C763.893 111.708 761.146 110.8 758.102 110.8V112.8C760.759 112.8 763.012 113.592 764.585 114.956C766.143 116.306 767.102 118.276 767.102 120.8H769.102ZM758.102 110.8H743.202V112.8H758.102V110.8ZM742.202 111.8V129.8H744.202V111.8H742.202ZM743.202 130.8H758.102V128.8H743.202V130.8ZM824.86 166.2C805.301 166.2 791.06 152.236 791.06 132.7H789.06C789.06 153.364 804.219 168.2 824.86 168.2V166.2ZM791.06 132.7C791.06 113.164 805.301 99.2 824.86 99.2V97.2C804.219 97.2 789.06 112.036 789.06 132.7H791.06ZM824.86 99.2C844.521 99.2 858.76 113.166 858.76 132.7H860.76C860.76 112.034 845.599 97.2 824.86 97.2V99.2ZM858.76 132.7C858.76 152.234 844.521 166.2 824.86 166.2V168.2C845.599 168.2 860.76 153.366 860.76 132.7H858.76ZM824.86 155.6C831.284 155.6 836.632 153.112 840.365 148.969C844.09 144.837 846.16 139.113 846.16 132.7H844.16C844.16 138.687 842.23 143.913 838.88 147.631C835.538 151.338 830.736 153.6 824.86 153.6V155.6ZM846.16 132.7C846.16 126.238 844.091 120.513 840.364 116.392C836.629 112.261 831.281 109.8 824.86 109.8V111.8C830.74 111.8 835.541 114.039 838.881 117.733C842.229 121.437 844.16 126.662 844.16 132.7H846.16ZM824.86 109.8C818.439 109.8 813.114 112.261 809.404 116.394C805.702 120.517 803.66 126.242 803.66 132.7H805.66C805.66 126.658 807.568 121.433 810.892 117.731C814.206 114.039 818.981 111.8 824.86 111.8V109.8ZM803.66 132.7C803.66 139.11 805.703 144.833 809.402 148.967C813.111 153.111 818.436 155.6 824.86 155.6V153.6C818.985 153.6 814.209 151.339 810.893 147.633C807.567 143.917 805.66 138.69 805.66 132.7H803.66ZM927.198 166V167H929.127L928.015 165.424L927.198 166ZM910.198 166L909.372 166.565L909.67 167H910.198V166ZM893.498 141.6L894.323 141.035L893.5 139.833L892.674 141.033L893.498 141.6ZM876.698 166V167H877.223L877.521 166.567L876.698 166ZM859.798 166L858.981 165.422L857.865 167H859.798V166ZM883.998 131.8L884.814 132.378L885.22 131.804L884.817 131.227L883.998 131.8ZM861.298 99.3V98.3H859.379L860.478 99.8726L861.298 99.3ZM878.198 99.3L879.028 98.7428L878.731 98.3H878.198V99.3ZM893.498 122.1L892.667 122.657L893.503 123.903L894.331 122.652L893.498 122.1ZM908.598 99.3V98.3H908.061L907.764 98.7478L908.598 99.3ZM925.698 99.3L926.517 99.8738L927.619 98.3H925.698V99.3ZM902.998 131.7L902.179 131.126L901.775 131.702L902.181 132.276L902.998 131.7ZM927.198 165H910.198V167H927.198V165ZM911.023 165.435L894.323 141.035L892.672 142.165L909.372 166.565L911.023 165.435ZM892.674 141.033L875.874 165.433L877.521 166.567L894.321 142.167L892.674 141.033ZM876.698 165H859.798V167H876.698V165ZM860.614 166.578L884.814 132.378L883.181 131.222L858.981 165.422L860.614 166.578ZM884.817 131.227L862.117 98.7274L860.478 99.8726L883.178 132.373L884.817 131.227ZM861.298 100.3H878.198V98.3H861.298V100.3ZM877.367 99.8572L892.667 122.657L894.328 121.543L879.028 98.7428L877.367 99.8572ZM894.331 122.652L909.431 99.8522L907.764 98.7478L892.664 121.548L894.331 122.652ZM908.598 100.3H925.698V98.3H908.598V100.3ZM924.879 98.7262L902.179 131.126L903.817 132.274L926.517 99.8738L924.879 98.7262ZM902.181 132.276L926.381 166.576L928.015 165.424L903.815 131.124L902.181 132.276ZM947.695 166V167H948.695V166H947.695ZM933.495 166H932.495V167H933.495V166ZM933.495 99.3V98.3H932.495V99.3H933.495ZM947.695 99.3H948.695V98.3H947.695V99.3ZM947.695 165H933.495V167H947.695V165ZM934.495 166V99.3H932.495V166H934.495ZM933.495 100.3H947.695V98.3H933.495V100.3ZM946.695 99.3V166H948.695V99.3H946.695ZM1033.24 166V167H1034.24V166H1033.24ZM1018.94 166H1017.94V167H1018.94V166ZM1018.94 119.3H1019.94L1018.01 118.927L1018.94 119.3ZM1000.14 166V167H1000.81L1001.06 166.373L1000.14 166ZM993.936 166L993.008 166.373L993.261 167H993.936V166ZM975.136 119.3L976.064 118.927L974.136 119.3H975.136ZM975.136 166V167H976.136V166H975.136ZM960.936 166H959.936V167H960.936V166ZM960.936 99.3V98.3H959.936V99.3H960.936ZM980.836 99.3L981.764 98.927L981.512 98.3H980.836V99.3ZM997.036 139.6L996.108 139.973L997.036 142.281L997.964 139.973L997.036 139.6ZM1013.24 99.3V98.3H1012.56L1012.31 98.927L1013.24 99.3ZM1033.24 99.3H1034.24V98.3H1033.24V99.3ZM1033.24 165H1018.94V167H1033.24V165ZM1019.94 166V119.3H1017.94V166H1019.94ZM1018.01 118.927L999.208 165.627L1001.06 166.373L1019.86 119.673L1018.01 118.927ZM1000.14 165H993.936V167H1000.14V165ZM994.864 165.627L976.064 118.927L974.208 119.673L993.008 166.373L994.864 165.627ZM974.136 119.3V166H976.136V119.3H974.136ZM975.136 165H960.936V167H975.136V165ZM961.936 166V99.3H959.936V166H961.936ZM960.936 100.3H980.836V98.3H960.936V100.3ZM979.908 99.673L996.108 139.973L997.964 139.227L981.764 98.927L979.908 99.673ZM997.964 139.973L1014.16 99.673L1012.31 98.927L996.108 139.227L997.964 139.973ZM1013.24 100.3H1033.24V98.3H1013.24V100.3ZM1032.24 99.3V166H1034.24V99.3H1032.24ZM1108.68 166V167H1110.14L1109.62 165.64L1108.68 166ZM1092.48 166L1091.54 166.341L1091.78 167H1092.48V166ZM1088.38 154.7L1089.32 154.359L1089.08 153.7H1088.38V154.7ZM1059.78 154.7V153.7H1059.09L1058.85 154.352L1059.78 154.7ZM1055.58 166V167H1056.28L1056.52 166.348L1055.58 166ZM1039.38 166L1038.45 165.639L1037.92 167H1039.38V166ZM1065.18 99.3V98.3H1064.5L1064.25 98.9392L1065.18 99.3ZM1082.98 99.3L1083.92 98.9405L1083.67 98.3H1082.98V99.3ZM1084.48 142.2V143.2H1085.91L1085.42 141.859L1084.48 142.2ZM1074.08 113.5L1075.02 113.159L1074.08 110.565L1073.14 113.159L1074.08 113.5ZM1063.68 142.2L1062.74 141.859L1062.26 143.2H1063.68V142.2ZM1108.68 165H1092.48V167H1108.68V165ZM1093.42 165.659L1089.32 154.359L1087.44 155.041L1091.54 166.341L1093.42 165.659ZM1088.38 153.7H1059.78V155.7H1088.38V153.7ZM1058.85 154.352L1054.65 165.652L1056.52 166.348L1060.72 155.048L1058.85 154.352ZM1055.58 165H1039.38V167H1055.58V165ZM1040.32 166.361L1066.12 99.6608L1064.25 98.9392L1038.45 165.639L1040.32 166.361ZM1065.18 100.3H1082.98V98.3H1065.18V100.3ZM1082.05 99.6595L1107.75 166.36L1109.62 165.64L1083.92 98.9405L1082.05 99.6595ZM1085.42 141.859L1075.02 113.159L1073.14 113.841L1083.54 142.541L1085.42 141.859ZM1073.14 113.159L1062.74 141.859L1064.62 142.541L1075.02 113.841L1073.14 113.159ZM1063.68 143.2H1084.48V141.2H1063.68V143.2ZM726.3 246V247H727.3V246H726.3ZM712.6 246L711.793 246.59L712.092 247H712.6V246ZM680.8 202.5L681.607 201.91L679.8 199.438V202.5H680.8ZM680.8 246V247H681.8V246H680.8ZM666.6 246H665.6V247H666.6V246ZM666.6 179.3V178.3H665.6V179.3H666.6ZM681.2 179.3L682.005 178.706L681.705 178.3H681.2V179.3ZM712.1 221.2L711.295 221.794L713.1 224.241V221.2H712.1ZM712.1 179.3V178.3H711.1V179.3H712.1ZM726.3 179.3H727.3V178.3H726.3V179.3ZM726.3 245H712.6V247H726.3V245ZM713.407 245.41L681.607 201.91L679.993 203.09L711.793 246.59L713.407 245.41ZM679.8 202.5V246H681.8V202.5H679.8ZM680.8 245H666.6V247H680.8V245ZM667.6 246V179.3H665.6V246H667.6ZM666.6 180.3H681.2V178.3H666.6V180.3ZM680.395 179.894L711.295 221.794L712.905 220.606L682.005 178.706L680.395 179.894ZM713.1 221.2V179.3H711.1V221.2H713.1ZM712.1 180.3H726.3V178.3H712.1V180.3ZM725.3 179.3V246H727.3V179.3H725.3ZM771.052 246.2C751.492 246.2 737.252 232.236 737.252 212.7H735.252C735.252 233.364 750.411 248.2 771.052 248.2V246.2ZM737.252 212.7C737.252 193.164 751.492 179.2 771.052 179.2V177.2C750.411 177.2 735.252 192.036 735.252 212.7H737.252ZM771.052 179.2C790.713 179.2 804.952 193.166 804.952 212.7H806.952C806.952 192.034 791.79 177.2 771.052 177.2V179.2ZM804.952 212.7C804.952 232.234 790.713 246.2 771.052 246.2V248.2C791.79 248.2 806.952 233.366 806.952 212.7H804.952ZM771.052 235.6C777.475 235.6 782.824 233.112 786.557 228.969C790.282 224.837 792.352 219.113 792.352 212.7H790.352C790.352 218.687 788.422 223.913 785.071 227.631C781.73 231.338 776.928 233.6 771.052 233.6V235.6ZM792.352 212.7C792.352 206.238 790.282 200.513 786.556 196.392C782.821 192.261 777.472 189.8 771.052 189.8V191.8C776.931 191.8 781.732 194.039 785.072 197.733C788.421 201.437 790.352 206.662 790.352 212.7H792.352ZM771.052 189.8C764.63 189.8 759.305 192.261 755.595 196.394C751.894 200.517 749.852 206.242 749.852 212.7H751.852C751.852 206.658 753.759 201.433 757.083 197.731C760.398 194.039 765.173 191.8 771.052 191.8V189.8ZM749.852 212.7C749.852 219.11 751.895 224.833 755.594 228.967C759.303 233.111 764.627 235.6 771.052 235.6V233.6C765.176 233.6 760.401 231.339 757.084 227.633C753.759 223.917 751.852 218.69 751.852 212.7H749.852ZM850.463 246V247H851.15L851.396 246.36L850.463 246ZM832.663 246L831.731 246.361L831.978 247H832.663V246ZM806.863 179.3V178.3H805.404L805.931 179.661L806.863 179.3ZM823.063 179.3L824.004 178.961L823.766 178.3H823.063V179.3ZM841.563 230.6L840.623 230.939L841.566 233.555L842.505 230.938L841.563 230.6ZM859.963 179.3V178.3H859.26L859.022 178.962L859.963 179.3ZM876.163 179.3L877.096 179.66L877.62 178.3H876.163V179.3ZM850.463 245H832.663V247H850.463V245ZM833.596 245.639L807.796 178.939L805.931 179.661L831.731 246.361L833.596 245.639ZM806.863 180.3H823.063V178.3H806.863V180.3ZM822.123 179.639L840.623 230.939L842.504 230.261L824.004 178.961L822.123 179.639ZM842.505 230.938L860.905 179.638L859.022 178.962L840.622 230.262L842.505 230.938ZM859.963 180.3H876.163V178.3H859.963V180.3ZM875.23 178.94L849.53 245.64L851.396 246.36L877.096 179.66L875.23 178.94ZM939.835 246V247H941.292L940.768 245.64L939.835 246ZM923.635 246L922.695 246.341L922.934 247H923.635V246ZM919.535 234.7L920.475 234.359L920.236 233.7H919.535V234.7ZM890.935 234.7V233.7H890.24L889.998 234.352L890.935 234.7ZM886.735 246V247H887.43L887.673 246.348L886.735 246ZM870.535 246L869.602 245.639L869.076 247H870.535V246ZM896.335 179.3V178.3H895.65L895.402 178.939L896.335 179.3ZM914.135 179.3L915.068 178.94L914.822 178.3H914.135V179.3ZM915.635 222.2V223.2H917.061L916.575 221.859L915.635 222.2ZM905.235 193.5L906.175 193.159L905.235 190.565L904.295 193.159L905.235 193.5ZM894.835 222.2L893.895 221.859L893.409 223.2H894.835V222.2ZM939.835 245H923.635V247H939.835V245ZM924.575 245.659L920.475 234.359L918.595 235.041L922.695 246.341L924.575 245.659ZM919.535 233.7H890.935V235.7H919.535V233.7ZM889.998 234.352L885.798 245.652L887.673 246.348L891.873 235.048L889.998 234.352ZM886.735 245H870.535V247H886.735V245ZM871.468 246.361L897.268 179.661L895.402 178.939L869.602 245.639L871.468 246.361ZM896.335 180.3H914.135V178.3H896.335V180.3ZM913.202 179.66L938.902 246.36L940.768 245.64L915.068 178.94L913.202 179.66ZM916.575 221.859L906.175 193.159L904.295 193.841L914.695 222.541L916.575 221.859ZM904.295 193.159L893.895 221.859L895.775 222.541L906.175 193.841L904.295 193.159ZM894.835 223.2H915.635V221.2H894.835V223.2ZM1070.87 227.2V228.2H1071.87V227.2H1070.87ZM993.566 227.2H992.566V228.2H993.566V227.2ZM993.566 216.4V215.4H992.566V216.4H993.566ZM1070.87 216.4H1071.87V215.4H1070.87V216.4ZM1070.87 226.2H993.566V228.2H1070.87V226.2ZM994.566 227.2V216.4H992.566V227.2H994.566ZM993.566 217.4H1070.87V215.4H993.566V217.4ZM1069.87 216.4V227.2H1071.87V216.4H1069.87Z" fill="black"/>
</g>
<path d="M509.001 401.5C508.601 404.3 509.501 407 510.001 408C510.5 408.833 511.9 410.5 513.5 410.5C515.5 410.5 516 409.5 516.5 406.5C517 403.5 519.5 406 520.5 402.5C521.5 399 525 397.5 529 395C533 392.5 532 393 528.5 385C525 377 524.5 376 519 380C513.5 384 512.001 377 509.001 380C506.001 383 511.001 380.5 510.001 385.5C509.001 390.5 514.001 392.5 512.001 394C510.001 395.5 509.501 398 509.001 401.5Z" fill="#A5D912" stroke="black" stroke-width="2"/>
<path d="M489.501 357.5C482.701 361.9 483.001 368 484.001 370.5C487.502 374.5 484.001 379 487.5 381C490.999 383 495.5 373.5 495 382.5C494.5 391.5 493.5 381.5 482.5 387C471.5 392.5 480.5 395 476.5 400.5C472.5 406 480 418.5 480.5 411C481 403.5 487.5 404 486.5 400.5C485.5 397 488.5 390 490.5 397.5C492.5 405 512 425.5 493.5 424C475 422.5 493.5 435.5 485.5 431C477.5 426.5 479 434.5 476.5 433.5C474 432.5 470 432 470 436.5C470 441 469.5 438 464.5 438C459.5 438 462 445.5 458.5 449.5C455 453.5 455 449 455.5 444.5C456 440 450.5 430.5 443.5 433C436.5 435.5 438 451.5 443 449C448 446.5 449.5 449 446.5 453C443.5 457 450 458.5 449.5 461C449 463.5 449.5 476 458 474.5C466.5 473 469 484 482 487.5C495 491 490.5 501.5 503.5 502C516.5 502.5 529.5 517 522.5 517.5C515.5 518 516.5 526.5 510 525C503.5 523.5 502.5 533 492.5 530.5C484.5 528.5 472.5 522.333 467.5 519.5C468.833 515.667 469.6 507.3 462 504.5C452.5 501 456.5 494.5 451.5 490C446.5 485.5 460 485.5 455 479C450 472.5 444 476 442 463.5C440 451 438 457 433 442C428 427 437 426 435 417.5C433.4 410.7 435.667 406.333 437 405C436.5 396 444 389 450.5 387C457 385 465.001 379.5 464.501 372.5C464.001 365.5 476.502 363.5 475.502 358C474.502 352.5 475.002 350.5 482.502 349.5C490.002 348.5 498.001 352 489.501 357.5Z" fill="#A5D912" stroke="black" stroke-width="2"/>
<rect x="743" y="99" width="134" height="130" stroke="black" stroke-width="2"/>
<path d="M503 376.5C499.5 372 496.001 376 491.501 372C488.084 368.963 492.803 364.185 496 361.854C500.499 358.208 493 358.5 496.501 354C500.001 349.5 504 354.5 512 351C520 347.5 515.5 356.5 525.5 352C535.5 347.5 534 353 536 357.5C538 362 543.5 363.5 540 366.5C536.5 369.5 538.5 372.5 536 374.5C533.5 376.5 534 373.5 530.5 375.5C527 377.5 527 372.5 521.5 375.5C516 378.5 517.5 372.5 513.5 373.5C509.5 374.5 506.5 381 503 376.5Z" fill="white"/>
<path d="M496.501 361.5C496.339 361.611 496.172 361.729 496 361.854M496 361.854C492.803 364.185 488.084 368.963 491.501 372C496.001 376 499.5 372 503 376.5C506.5 381 509.5 374.5 513.5 373.5C517.5 372.5 516 378.5 521.5 375.5C527 372.5 527 377.5 530.5 375.5C534 373.5 533.5 376.5 536 374.5C538.5 372.5 536.5 369.5 540 366.5C543.5 363.5 538 362 536 357.5C534 353 535.5 347.5 525.5 352C515.5 356.5 520 347.5 512 351C504 354.5 500.001 349.5 496.501 354C493 358.5 500.499 358.208 496 361.854Z" stroke="black" stroke-width="2"/>
<path d="M492 343.5C490.8 340.7 494.5 341 496.5 341.5C498.5 341 502 339.6 500 338C497.5 336 505 331.5 507.5 333C510 334.5 505.5 337 504 337C502.5 337 501.5 342 509 337C516.5 332 515 339.5 519.5 336C523.1 333.2 525.667 332.5 526.5 332.5C581 335 612 384 609.5 387C607.5 389.4 612.333 402 615 408C616.5 414.5 618.9 427.5 616.5 427.5C613.5 427.5 608.5 417.5 605 419.5C601.5 421.5 604.5 425 610.5 427.5C615.3 429.5 619.167 433 620.5 434.5C622.5 465.7 603 493.5 593 503.5C588.5 499 597 494 595.5 488.5C594 483 591 486.5 593 481C595 475.5 589 480.5 586.5 481C584 481.5 572.5 495 567 490.5C561.5 486 549.5 486.5 553 479.5C556.5 472.5 551.5 474.5 553 466.5C554.5 458.5 556.5 460.5 559 451.5C561.5 442.5 561 448.5 569.5 442C578 435.5 575.5 427.5 581.5 432.5C587.5 437.5 591 434.5 592 427.5C593 420.5 604.5 421 602 410.5C599.5 400 598 418 592 413.5C586 409 598.5 401.5 592 396C585.5 390.5 584 397 585 402.5C586 408 589.5 405.5 587 412.5C584.5 419.5 594.5 415 588 418C581.5 421 588 415 579 415C570 415 574.5 418.5 580 419C585.5 419.5 584 427.5 576.5 422.5C569 417.5 567.5 423 568.5 427.5C569.5 432 566 429.5 567 434.5C568 439.5 560.5 446 555 436.5C549.5 427 569.5 429 560 422.5C550.5 416 563.5 420 560.5 413.5C557.5 407 570 400 569.5 395.5C569 391 561.5 391 558.5 386.5C555.5 382 554 387.5 562.5 394.5C571 401.5 552.5 408.5 552 395.5C551.5 382.5 543 381.5 549.5 376.5C556 371.5 558 383.5 561.5 381C565 378.5 555 370 555.5 366C556 362 553 359 545.5 357C538 355 537.5 354 537 349C536.5 344 530.5 347.5 529.5 343.5C528.5 339.5 520.5 346 518 344.5C515.5 343 516.5 341.5 502 345.5C487.5 349.5 493.5 347 492 343.5Z" fill="#A5D912" stroke="black" stroke-width="2"/>
<path d="M739 481C739 485.418 742.582 489 747 489C751.418 489 755 485.418 755 481C755 476.582 751.418 473 747 473C742.582 473 739 476.582 739 481ZM792 377C792 381.418 795.582 385 800 385C804.418 385 808 381.418 808 377C808 372.582 804.418 369 800 369C795.582 369 792 372.582 792 377ZM748.336 481.681L801.336 377.681L798.664 376.319L745.664 480.319L748.336 481.681Z" fill="black"/>
<path d="M922 346L1124 240" stroke="black" stroke-width="3" stroke-dasharray="8 8"/>
<path d="M916 345L1038 240" stroke="black" stroke-width="3" stroke-dasharray="8 8"/>
<path d="M910 345L1038 154" stroke="black" stroke-width="3" stroke-dasharray="8 8"/>
<rect x="1037.5" y="154" width="86" height="86" fill="#FFE178" stroke="black" stroke-width="2"/>
<mask id="mask2_530_6" style="mask-type:alpha" maskUnits="userSpaceOnUse" x="1036" y="153" width="89" height="88">
<rect x="1036.5" y="153" width="88" height="88" fill="#D9D9D9"/>
</mask>
<g mask="url(#mask2_530_6)">
<mask id="path-26-outside-1_530_6" maskUnits="userSpaceOnUse" x="1043.5" y="161" width="76" height="71" fill="black">
<rect fill="white" x="1043.5" y="161" width="76" height="71"/>
<path d="M1116.3 230H1100.1L1096 218.7H1067.4L1063.2 230H1047L1072.8 163.3H1090.6L1116.3 230ZM1092.1 206.2L1081.7 177.5L1071.3 206.2H1092.1Z"/>
</mask>
<path d="M1116.3 230H1100.1L1096 218.7H1067.4L1063.2 230H1047L1072.8 163.3H1090.6L1116.3 230ZM1092.1 206.2L1081.7 177.5L1071.3 206.2H1092.1Z" fill="white"/>
<path d="M1116.3 230V232H1119.21L1118.17 229.281L1116.3 230ZM1100.1 230L1098.22 230.682L1098.7 232H1100.1V230ZM1096 218.7L1097.88 218.018L1097.4 216.7H1096V218.7ZM1067.4 218.7V216.7H1066.01L1065.53 218.003L1067.4 218.7ZM1063.2 230V232H1064.59L1065.07 230.697L1063.2 230ZM1047 230L1045.13 229.278L1044.08 232H1047V230ZM1072.8 163.3V161.3H1071.43L1070.93 162.578L1072.8 163.3ZM1090.6 163.3L1092.47 162.581L1091.97 161.3H1090.6V163.3ZM1092.1 206.2V208.2H1094.95L1093.98 205.519L1092.1 206.2ZM1081.7 177.5L1083.58 176.819L1081.7 171.63L1079.82 176.819L1081.7 177.5ZM1071.3 206.2L1069.42 205.519L1068.45 208.2H1071.3V206.2ZM1116.3 228H1100.1V232H1116.3V228ZM1101.98 229.318L1097.88 218.018L1094.12 219.382L1098.22 230.682L1101.98 229.318ZM1096 216.7H1067.4V220.7H1096V216.7ZM1065.53 218.003L1061.33 229.303L1065.07 230.697L1069.27 219.397L1065.53 218.003ZM1063.2 228H1047V232H1063.2V228ZM1048.87 230.722L1074.67 164.022L1070.93 162.578L1045.13 229.278L1048.87 230.722ZM1072.8 165.3H1090.6V161.3H1072.8V165.3ZM1088.73 164.019L1114.43 230.719L1118.17 229.281L1092.47 162.581L1088.73 164.019ZM1093.98 205.519L1083.58 176.819L1079.82 178.181L1090.22 206.881L1093.98 205.519ZM1079.82 176.819L1069.42 205.519L1073.18 206.881L1083.58 178.181L1079.82 176.819ZM1071.3 208.2H1092.1V204.2H1071.3V208.2Z" fill="black" mask="url(#path-26-outside-1_530_6)"/>
</g>
<path d="M304.323 164.513C306.805 168.261 306.837 173.597 304.4 180.276C301.971 186.931 297.156 194.714 290.304 203.132C276.608 219.958 254.92 239.136 228.479 256.648C202.039 274.159 175.918 286.643 155.081 292.688C144.657 295.712 135.612 297.108 128.536 296.747C121.437 296.386 116.536 294.274 114.054 290.526C111.572 286.778 111.54 281.442 113.977 274.764C116.406 268.109 121.221 260.325 128.073 251.908C141.769 235.082 163.457 215.903 189.898 198.392C216.338 180.881 242.459 168.396 263.296 162.351C273.72 159.327 282.765 157.932 289.841 158.292C296.94 158.654 301.841 160.766 304.323 164.513Z" stroke="black" stroke-width="2"/>
<path d="M188.762 184.347C166.42 198.594 159.671 227.962 173.688 249.941L254.595 198.346C240.578 176.367 211.104 170.099 188.762 184.347Z" fill="#FFE178"/>
<circle cx="295.919" cy="196.682" r="11" transform="rotate(-5.61452 295.919 196.682)" fill="#FA2B00" stroke="black" stroke-width="2"/>
</g>
</svg>
