<svg width="1281" height="724" viewBox="0 0 1281 724" fill="none" xmlns="http://www.w3.org/2000/svg">
<mask id="mask0_543_62" style="mask-type:alpha" maskUnits="userSpaceOnUse" x="0" y="0" width="1281" height="724">
<rect x="0.101562" width="1280" height="724" fill="#D9D9D9"/>
</mask>
<g mask="url(#mask0_543_62)">
<mask id="path-2-inside-1_543_62" fill="white">
<path fill-rule="evenodd" clip-rule="evenodd" d="M-91.5131 -16.1387L638.302 138.988L1466.24 -7.00014L1504.79 211.588L1466.61 218.319L1484.33 318.817L1541.35 330.938L1450.6 757.913L642.016 586.044L-139.356 723.821L-177.899 505.233L-139.721 498.502L-154.124 416.819L-182.27 410.837L-167.462 341.173L-177.741 282.879L-154.188 278.726L-91.5131 -16.1387Z"/>
</mask>
<path fill-rule="evenodd" clip-rule="evenodd" d="M-91.5131 -16.1387L638.302 138.988L1466.24 -7.00014L1504.79 211.588L1466.61 218.319L1484.33 318.817L1541.35 330.938L1450.6 757.913L642.016 586.044L-139.356 723.821L-177.899 505.233L-139.721 498.502L-154.124 416.819L-182.27 410.837L-167.462 341.173L-177.741 282.879L-154.188 278.726L-91.5131 -16.1387Z" fill="#D7D7D7"/>
<path d="M638.302 138.988L637.678 141.923L638.249 142.044L638.823 141.943L638.302 138.988ZM-91.5131 -16.1387L-90.8894 -19.0731L-93.8238 -19.6968L-94.4475 -16.7624L-91.5131 -16.1387ZM1466.24 -7.00014L1469.2 -7.52108L1468.68 -10.4755L1465.72 -9.95456L1466.24 -7.00014ZM1504.79 211.588L1505.31 214.542L1508.26 214.021L1507.74 211.067L1504.79 211.588ZM1466.61 218.319L1466.09 215.365L1463.13 215.886L1463.65 218.84L1466.61 218.319ZM1484.33 318.817L1481.37 319.338L1481.73 321.331L1483.7 321.751L1484.33 318.817ZM1541.35 330.938L1544.29 331.562L1544.91 328.627L1541.98 328.003L1541.35 330.938ZM1450.6 757.913L1449.97 760.848L1452.91 761.471L1453.53 758.537L1450.6 757.913ZM642.016 586.044L642.64 583.11L642.069 582.988L641.495 583.09L642.016 586.044ZM-139.356 723.821L-142.311 724.342L-141.79 727.296L-138.835 726.775L-139.356 723.821ZM-177.899 505.233L-178.42 502.279L-181.375 502.8L-180.854 505.754L-177.899 505.233ZM-139.721 498.502L-139.2 501.456L-136.246 500.935L-136.766 497.981L-139.721 498.502ZM-154.124 416.819L-151.169 416.298L-151.521 414.306L-153.5 413.885L-154.124 416.819ZM-182.27 410.837L-185.204 410.213L-185.828 413.147L-182.893 413.771L-182.27 410.837ZM-167.462 341.173L-164.528 341.797L-164.406 341.227L-164.508 340.652L-167.462 341.173ZM-177.741 282.879L-178.262 279.924L-181.216 280.445L-180.695 283.4L-177.741 282.879ZM-154.188 278.726L-153.668 281.68L-151.675 281.329L-151.254 279.35L-154.188 278.726ZM638.926 136.054L-90.8894 -19.0731L-92.1368 -13.2042L637.678 141.923L638.926 136.054ZM1465.72 -9.95456L637.781 136.034L638.823 141.943L1466.76 -4.04572L1465.72 -9.95456ZM1507.74 211.067L1469.2 -7.52108L1463.29 -6.4792L1501.83 212.108L1507.74 211.067ZM1467.13 221.274L1505.31 214.542L1504.27 208.633L1466.09 215.365L1467.13 221.274ZM1463.65 218.84L1481.37 319.338L1487.28 318.296L1469.56 217.798L1463.65 218.84ZM1541.98 328.003L1484.95 315.882L1483.7 321.751L1540.73 333.872L1541.98 328.003ZM1453.53 758.537L1544.29 331.562L1538.42 330.314L1447.66 757.29L1453.53 758.537ZM641.392 588.979L1449.97 760.848L1451.22 754.979L642.64 583.11L641.392 588.979ZM641.495 583.09L-139.877 720.867L-138.835 726.775L642.537 588.998L641.495 583.09ZM-136.402 723.3L-174.945 504.712L-180.854 505.754L-142.311 724.342L-136.402 723.3ZM-177.378 508.188L-139.2 501.456L-140.242 495.547L-178.42 502.279L-177.378 508.188ZM-157.078 417.34L-142.675 499.022L-136.766 497.981L-151.169 416.298L-157.078 417.34ZM-182.893 413.771L-154.747 419.754L-153.5 413.885L-181.646 407.902L-182.893 413.771ZM-170.397 340.55L-185.204 410.213L-179.335 411.46L-164.528 341.797L-170.397 340.55ZM-180.695 283.4L-170.417 341.694L-164.508 340.652L-174.787 282.358L-180.695 283.4ZM-154.709 275.771L-178.262 279.924L-177.22 285.833L-153.668 281.68L-154.709 275.771ZM-94.4475 -16.7624L-157.123 278.102L-151.254 279.35L-88.5787 -15.5149L-94.4475 -16.7624Z" fill="black" mask="url(#path-2-inside-1_543_62)"/>
<rect x="-206.221" y="396.116" width="786.314" height="360.165" transform="rotate(-12 -206.221 396.116)" fill="#FFE178" stroke="black" stroke-width="3"/>
<rect x="641.881" y="140.373" width="825.323" height="358.89" transform="rotate(-12 641.881 140.373)" fill="#FFE178" stroke="black" stroke-width="3"/>
<rect x="-23.3984" y="141.53" width="220.666" height="221.711" fill="#569DFD" stroke="black" stroke-width="3"/>
<path d="M418.715 363.241V141.535C540.215 142.347 638.572 241.715 639.376 363.241H418.715Z" fill="#FFE178" stroke="black" stroke-width="3"/>
<path d="M860.812 363.241V141.535C982.898 142.338 1081.71 241.155 1082.52 363.241H860.812Z" fill="#569DFD" stroke="black" stroke-width="3"/>
<path d="M418.504 362.759V584.465C296.418 583.661 197.601 484.845 196.798 362.759H418.504Z" fill="#569DFD" stroke="black" stroke-width="3"/>
<path d="M861.648 362.759V584.465C739.562 583.661 640.746 484.845 639.942 362.759H861.648Z" fill="#FFE178" stroke="black" stroke-width="3"/>
<rect x="1081.39" y="362.759" width="220.666" height="221.711" fill="#569DFD" stroke="black" stroke-width="3"/>
<rect x="1081.6" y="584.5" width="221" height="221" transform="rotate(-180 1081.6 584.5)" fill="white" stroke="black" stroke-width="3"/>
<rect x="638.602" y="584.5" width="221" height="221" transform="rotate(-180 638.602 584.5)" fill="white" stroke="black" stroke-width="3"/>
<rect x="860.602" y="363.5" width="221" height="222" transform="rotate(-180 860.602 363.5)" fill="white" stroke="black" stroke-width="3"/>
<rect x="418.602" y="363.5" width="221" height="222" transform="rotate(-180 418.602 363.5)" fill="white" stroke="black" stroke-width="3"/>
<mask id="mask1_543_62" style="mask-type:alpha" maskUnits="userSpaceOnUse" x="862" y="137" width="225" height="225">
<path d="M863.602 360.211V138.505C985.688 139.308 1084.5 238.125 1085.31 360.211H863.602Z" fill="#569DFD" stroke="black" stroke-width="3"/>
</mask>
<g mask="url(#mask1_543_62)">
<path d="M768.911 356.85C768.911 382.037 777.673 405.278 793.757 422.233C809.853 439.2 833.206 449.79 862.211 449.79C891.393 449.79 914.835 439.202 930.977 422.234C947.108 405.279 955.871 382.037 955.871 356.85C955.871 331.841 947.106 308.689 930.976 291.78C914.834 274.859 891.393 264.27 862.211 264.27C804.072 264.27 768.911 306.773 768.911 356.85ZM905.351 356.85C905.351 370.248 901.383 382.583 894.036 391.539C886.714 400.464 875.978 406.11 862.211 406.11C848.445 406.11 837.803 400.466 830.571 391.546C823.313 382.592 819.431 370.256 819.431 356.85C819.431 343.629 823.31 331.382 830.569 322.473C837.801 313.595 848.445 307.95 862.211 307.95C875.978 307.95 886.715 313.597 894.038 322.479C901.385 331.392 905.351 343.637 905.351 356.85Z" fill="#FFE178" stroke="black" stroke-width="3"/>
<mask id="path-18-outside-2_543_62" maskUnits="userSpaceOnUse" x="979.668" y="282.01" width="73.2514" height="70.5275" fill="black">
<rect fill="white" x="979.668" y="282.01" width="73.2514" height="70.5275"/>
<path d="M996.948 347.436L993.038 333.993L1000.31 329.794L996.092 315.276L987.699 315.634L983.789 302.191L1039.43 302.423L1043.78 317.402L996.948 347.436ZM1010.43 324.186L1028.71 313.704L1007.64 314.584L1010.43 324.186Z"/>
</mask>
<path d="M996.948 347.436L993.038 333.993L1000.31 329.794L996.092 315.276L987.699 315.634L983.789 302.191L1039.43 302.423L1043.78 317.402L996.948 347.436ZM1010.43 324.186L1028.71 313.704L1007.64 314.584L1010.43 324.186Z" fill="#FFE178"/>
<path d="M996.948 347.436L994.067 348.274L995.188 352.128L998.567 349.962L996.948 347.436ZM993.038 333.993L991.538 331.395L989.5 332.571L990.157 334.831L993.038 333.993ZM1000.31 329.794L1001.81 332.392L1003.85 331.216L1003.2 328.956L1000.31 329.794ZM996.092 315.276L998.973 314.438L998.316 312.178L995.964 312.278L996.092 315.276ZM987.699 315.634L984.818 316.472L985.475 318.731L987.826 318.631L987.699 315.634ZM983.789 302.191L983.801 299.191L979.787 299.174L980.908 303.029L983.789 302.191ZM1039.43 302.423L1042.31 301.585L1041.68 299.432L1039.44 299.423L1039.43 302.423ZM1043.78 317.402L1045.4 319.927L1047.29 318.717L1046.66 316.564L1043.78 317.402ZM1010.43 324.186L1007.55 325.024L1008.62 328.685L1011.92 326.788L1010.43 324.186ZM1028.71 313.704L1030.2 316.306L1028.59 310.707L1028.71 313.704ZM1007.64 314.584L1007.51 311.586L1003.69 311.746L1004.76 315.421L1007.64 314.584ZM999.828 346.598L995.919 333.155L990.157 334.831L994.067 348.274L999.828 346.598ZM994.537 336.592L1001.81 332.392L998.815 327.196L991.538 331.395L994.537 336.592ZM1003.2 328.956L998.973 314.438L993.212 316.113L997.434 330.632L1003.2 328.956ZM995.964 312.278L987.571 312.637L987.826 318.631L996.22 318.273L995.964 312.278ZM990.579 314.796L986.67 301.353L980.908 303.029L984.818 316.472L990.579 314.796ZM983.776 305.191L1039.41 305.423L1039.44 299.423L983.801 299.191L983.776 305.191ZM1036.55 303.26L1040.9 318.24L1046.66 316.564L1042.31 301.585L1036.55 303.26ZM1042.16 314.877L995.328 344.911L998.567 349.962L1045.4 319.927L1042.16 314.877ZM1011.92 326.788L1030.2 316.306L1027.22 311.101L1008.94 321.583L1011.92 326.788ZM1028.59 310.707L1007.51 311.586L1007.76 317.581L1028.84 316.701L1028.59 310.707ZM1004.76 315.421L1007.55 325.024L1013.31 323.348L1010.52 313.746L1004.76 315.421Z" fill="black" mask="url(#path-18-outside-2_543_62)"/>
<mask id="path-20-outside-3_543_62" maskUnits="userSpaceOnUse" x="937.497" y="210.19" width="82.0322" height="81.6589" fill="black">
<rect fill="white" x="937.497" y="210.19" width="82.0322" height="81.6589"/>
<path d="M973.726 286.532L964.502 276.001L969.322 269.12L959.36 257.746L951.904 261.618L942.679 251.087L993.203 227.783L1003.48 239.518L973.726 286.532ZM976.121 259.762L988.258 242.536L969.532 252.239L976.121 259.762Z"/>
</mask>
<path d="M973.726 286.532L964.502 276.001L969.322 269.12L959.36 257.746L951.904 261.618L942.679 251.087L993.203 227.783L1003.48 239.518L973.726 286.532ZM976.121 259.762L988.258 242.536L969.532 252.239L976.121 259.762Z" fill="#FFE178"/>
<path d="M973.726 286.532L971.47 288.509L974.115 291.528L976.261 288.136L973.726 286.532ZM964.502 276.001L962.045 274.279L960.694 276.207L962.245 277.977L964.502 276.001ZM969.322 269.12L971.779 270.841L973.13 268.913L971.579 267.143L969.322 269.12ZM959.36 257.746L961.616 255.769L960.066 253.999L957.977 255.083L959.36 257.746ZM951.904 261.618L949.647 263.595L951.198 265.365L953.286 264.28L951.904 261.618ZM942.679 251.087L941.423 248.363L937.778 250.044L940.423 253.063L942.679 251.087ZM993.203 227.783L995.459 225.806L993.982 224.12L991.946 225.059L993.203 227.783ZM1003.48 239.518L1006.02 241.122L1007.22 239.228L1005.74 237.541L1003.48 239.518ZM976.121 259.762L973.864 261.738L976.377 264.607L978.573 261.49L976.121 259.762ZM988.258 242.536L990.711 244.264L986.878 239.873L988.258 242.536ZM969.532 252.239L968.152 249.576L964.753 251.336L967.275 254.216L969.532 252.239ZM975.983 284.555L966.759 274.024L962.245 277.977L971.47 288.509L975.983 284.555ZM966.959 277.722L971.779 270.841L966.865 267.398L962.045 274.279L966.959 277.722ZM971.579 267.143L961.616 255.769L957.103 259.723L967.066 271.096L971.579 267.143ZM957.977 255.083L950.521 258.956L953.286 264.28L960.742 260.408L957.977 255.083ZM954.16 259.641L944.936 249.11L940.423 253.063L949.647 263.595L954.16 259.641ZM943.936 253.811L994.459 230.507L991.946 225.059L941.423 248.363L943.936 253.811ZM990.946 229.76L1001.22 241.495L1005.74 237.541L995.459 225.806L990.946 229.76ZM1000.95 237.914L971.192 284.928L976.261 288.136L1006.02 241.122L1000.95 237.914ZM978.573 261.49L990.711 244.264L985.806 240.808L973.668 258.033L978.573 261.49ZM986.878 239.873L968.152 249.576L970.912 254.903L989.638 245.2L986.878 239.873ZM967.275 254.216L973.864 261.738L978.377 257.785L971.788 250.262L967.275 254.216Z" fill="black" mask="url(#path-20-outside-3_543_62)"/>
<mask id="path-22-outside-4_543_62" maskUnits="userSpaceOnUse" x="879.82" y="169.168" width="75.4415" height="77.4886" fill="black">
<rect fill="white" x="879.82" y="169.168" width="75.4415" height="77.4886"/>
<path d="M928.211 242.121L915.4 236.475L916.861 228.201L903.025 222.103L897.904 228.764L885.093 223.118L921.034 180.645L935.309 186.937L928.211 242.121ZM919.067 216.847L922.788 196.106L909.917 212.814L919.067 216.847Z"/>
</mask>
<path d="M928.211 242.121L915.4 236.475L916.861 228.201L903.025 222.103L897.904 228.764L885.093 223.118L921.034 180.645L935.309 186.937L928.211 242.121ZM919.067 216.847L922.788 196.106L909.917 212.814L919.067 216.847Z" fill="#FFE178"/>
<path d="M928.211 242.121L927.001 244.866L930.675 246.485L931.187 242.503L928.211 242.121ZM915.4 236.475L912.446 235.953L912.037 238.271L914.19 239.22L915.4 236.475ZM916.861 228.201L919.815 228.723L920.224 226.405L918.071 225.456L916.861 228.201ZM903.025 222.103L904.235 219.358L902.081 218.409L900.647 220.275L903.025 222.103ZM897.904 228.764L896.694 231.509L898.848 232.458L900.282 230.592L897.904 228.764ZM885.093 223.118L882.803 221.18L880.21 224.244L883.883 225.863L885.093 223.118ZM921.034 180.645L922.244 177.9L920.192 176.996L918.744 178.707L921.034 180.645ZM935.309 186.937L938.285 187.319L938.571 185.096L936.519 184.191L935.309 186.937ZM919.067 216.847L917.858 219.592L921.347 221.13L922.02 217.376L919.067 216.847ZM922.788 196.106L925.741 196.635L920.412 194.275L922.788 196.106ZM909.917 212.814L907.54 210.983L905.204 214.015L908.707 215.559L909.917 212.814ZM929.421 239.376L916.61 233.729L914.19 239.22L927.001 244.866L929.421 239.376ZM918.354 236.996L919.815 228.723L913.907 227.68L912.446 235.953L918.354 236.996ZM918.071 225.456L904.235 219.358L901.815 224.849L915.651 230.946L918.071 225.456ZM900.647 220.275L895.526 226.935L900.282 230.592L905.403 223.932L900.647 220.275ZM899.114 226.019L886.303 220.372L883.883 225.863L896.694 231.509L899.114 226.019ZM887.383 225.056L923.324 182.583L918.744 178.707L882.803 221.18L887.383 225.056ZM919.824 183.391L934.099 189.682L936.519 184.191L922.244 177.9L919.824 183.391ZM932.334 186.554L925.236 241.738L931.187 242.503L938.285 187.319L932.334 186.554ZM922.02 217.376L925.741 196.635L919.835 195.576L916.115 216.317L922.02 217.376ZM920.412 194.275L907.54 210.983L912.293 214.645L925.165 197.936L920.412 194.275ZM908.707 215.559L917.858 219.592L920.277 214.101L911.127 210.069L908.707 215.559Z" fill="black" mask="url(#path-22-outside-4_543_62)"/>
</g>
<mask id="path-24-outside-5_543_62" maskUnits="userSpaceOnUse" x="682.574" y="388.924" width="73.5742" height="78.3155" fill="black">
<rect fill="white" x="682.574" y="388.924" width="73.5742" height="78.3155"/>
<path d="M730.817 402.57C739.705 406.792 745.535 413.725 747.016 419.742L738.407 424.067C736.731 419.019 731.622 414.112 726.925 411.881C720.567 408.86 715.68 409.638 713.963 413.251C712.144 417.081 714.716 420.428 721.942 423.861L731.697 428.496L727.406 437.528L717.651 432.894C711.942 430.182 707.068 429.815 705.386 433.356C703.567 437.185 707.01 441.124 712.502 443.733C717.199 445.964 723.008 446.599 727.949 444.961L730.025 453.829C724.028 456.383 715.619 456.374 707.165 452.357C695.892 447.002 690.491 438.236 694.301 430.215C697.185 424.145 704.276 422.643 709.997 424.209C705.396 421.403 700.857 414.553 704.29 407.327C708.237 399.017 719.328 397.112 730.817 402.57Z"/>
</mask>
<path d="M730.817 402.57C739.705 406.792 745.535 413.725 747.016 419.742L738.407 424.067C736.731 419.019 731.622 414.112 726.925 411.881C720.567 408.86 715.68 409.638 713.963 413.251C712.144 417.081 714.716 420.428 721.942 423.861L731.697 428.496L727.406 437.528L717.651 432.894C711.942 430.182 707.068 429.815 705.386 433.356C703.567 437.185 707.01 441.124 712.502 443.733C717.199 445.964 723.008 446.599 727.949 444.961L730.025 453.829C724.028 456.383 715.619 456.374 707.165 452.357C695.892 447.002 690.491 438.236 694.301 430.215C697.185 424.145 704.276 422.643 709.997 424.209C705.396 421.403 700.857 414.553 704.29 407.327C708.237 399.017 719.328 397.112 730.817 402.57Z" fill="#FA2B00"/>
<path d="M747.016 419.742L748.362 422.423L750.501 421.349L749.929 419.025L747.016 419.742ZM738.407 424.067L735.56 425.012L736.653 428.305L739.754 426.747L738.407 424.067ZM731.697 428.496L734.407 429.783L735.694 427.073L732.985 425.786L731.697 428.496ZM727.406 437.528L726.119 440.238L728.829 441.525L730.116 438.816L727.406 437.528ZM727.949 444.961L730.871 444.277L730.122 441.08L727.005 442.113L727.949 444.961ZM730.025 453.829L731.2 456.589L733.52 455.601L732.946 453.146L730.025 453.829ZM709.997 424.209L709.205 427.103L711.559 421.648L709.997 424.209ZM729.53 405.28C737.842 409.228 742.893 415.543 744.103 420.459L749.929 419.025C748.177 411.906 741.569 404.356 732.105 399.86L729.53 405.28ZM745.669 417.062L737.06 421.386L739.754 426.747L748.362 422.423L745.669 417.062ZM741.254 423.121C739.26 417.116 733.456 411.662 728.213 409.171L725.638 414.59C729.789 416.562 734.202 420.922 735.56 425.012L741.254 423.121ZM728.213 409.171C724.722 407.512 721.325 406.741 718.345 407.1C715.253 407.472 712.619 409.09 711.254 411.964L716.673 414.538C717.024 413.799 717.692 413.222 719.062 413.057C720.544 412.878 722.77 413.228 725.638 414.59L728.213 409.171ZM711.254 411.964C710.603 413.333 710.276 414.817 710.444 416.365C710.611 417.909 711.246 419.295 712.168 420.514C713.935 422.852 716.927 424.8 720.655 426.571L723.23 421.152C719.731 419.49 717.825 418.048 716.954 416.896C716.556 416.37 716.438 415.987 716.409 415.719C716.38 415.455 716.414 415.084 716.673 414.538L711.254 411.964ZM720.655 426.571L730.41 431.206L732.985 425.786L723.23 421.152L720.655 426.571ZM728.988 427.209L724.696 436.241L730.116 438.816L734.407 429.783L728.988 427.209ZM728.693 434.819L718.938 430.184L716.364 435.604L726.119 440.238L728.693 434.819ZM718.938 430.184C715.902 428.742 712.782 427.765 709.992 427.78C707.061 427.796 704.151 428.965 702.677 432.068L708.096 434.643C708.304 434.205 708.672 433.787 710.025 433.78C711.521 433.772 713.692 434.334 716.364 435.604L718.938 430.184ZM702.677 432.068C701.172 435.236 701.997 438.355 703.788 440.783C705.508 443.115 708.219 445.02 711.214 446.443L713.789 441.023C711.292 439.837 709.536 438.468 708.617 437.221C707.768 436.07 707.781 435.305 708.096 434.643L702.677 432.068ZM711.214 446.443C716.506 448.957 723.117 449.723 728.894 447.808L727.005 442.113C722.9 443.474 717.891 442.972 713.789 441.023L711.214 446.443ZM725.028 445.644L727.103 454.513L732.946 453.146L730.871 444.277L725.028 445.644ZM728.849 451.069C723.749 453.242 716.24 453.347 708.452 449.647L705.877 455.067C714.998 459.4 724.308 459.525 731.2 456.589L728.849 451.069ZM708.452 449.647C703.179 447.142 699.552 443.962 697.66 440.759C695.82 437.647 695.585 434.505 697.011 431.502L691.592 428.928C689.208 433.946 689.767 439.197 692.494 443.812C695.167 448.336 699.877 452.216 705.877 455.067L708.452 449.647ZM697.011 431.502C699.038 427.236 704.288 425.756 709.205 427.103L710.79 421.316C704.264 419.529 695.332 421.054 691.592 428.928L697.011 431.502ZM711.559 421.648C707.694 419.291 704.479 413.919 706.999 408.614L701.58 406.039C697.234 415.187 703.098 423.516 708.435 426.771L711.559 421.648ZM706.999 408.614C708.495 405.466 711.35 403.43 715.249 402.739C719.206 402.038 724.216 402.755 729.53 405.28L732.105 399.86C725.929 396.926 719.649 395.867 714.202 396.831C708.696 397.806 704.032 400.878 701.58 406.039L706.999 408.614Z" fill="black" mask="url(#path-24-outside-5_543_62)"/>
<mask id="path-26-outside-6_543_62" maskUnits="userSpaceOnUse" x="709.26" y="456.196" width="74.7192" height="68.1698" fill="black">
<rect fill="white" x="709.26" y="456.196" width="74.7192" height="68.1698"/>
<path d="M719.761 482.487C722.706 473.098 728.759 466.36 734.512 464.056L739.992 471.979C735.227 474.342 731.079 480.083 729.523 485.045C727.416 491.763 728.867 496.493 732.684 497.69C736.73 498.959 739.687 495.946 742.081 488.313L745.312 478.007L754.854 481L751.622 491.305C749.731 497.335 750.046 502.213 753.786 503.386C757.832 504.655 761.253 500.697 763.073 494.896C764.629 489.934 764.448 484.092 762.138 479.427L770.632 476.138C773.995 481.72 775.156 490.049 772.356 498.981C768.621 510.889 760.692 517.457 752.219 514.8C745.807 512.789 743.332 505.976 744.088 500.093C741.949 505.04 735.797 510.488 728.164 508.095C719.385 505.342 715.955 494.624 719.761 482.487Z"/>
</mask>
<path d="M719.761 482.487C722.706 473.098 728.759 466.36 734.512 464.056L739.992 471.979C735.227 474.342 731.079 480.083 729.523 485.045C727.416 491.763 728.867 496.493 732.684 497.69C736.73 498.959 739.687 495.946 742.081 488.313L745.312 478.007L754.854 481L751.622 491.305C749.731 497.335 750.046 502.213 753.786 503.386C757.832 504.655 761.253 500.697 763.073 494.896C764.629 489.934 764.448 484.092 762.138 479.427L770.632 476.138C773.995 481.72 775.156 490.049 772.356 498.981C768.621 510.889 760.692 517.457 752.219 514.8C745.807 512.789 743.332 505.976 744.088 500.093C741.949 505.04 735.797 510.488 728.164 508.095C719.385 505.342 715.955 494.624 719.761 482.487Z" fill="#FA2B00"/>
<path d="M734.512 464.056L736.979 462.35L735.618 460.382L733.397 461.271L734.512 464.056ZM739.992 471.979L741.325 474.667L744.433 473.126L742.46 470.273L739.992 471.979ZM745.312 478.007L746.21 475.145L743.347 474.247L742.45 477.11L745.312 478.007ZM754.854 481L757.717 481.897L758.614 479.035L755.752 478.137L754.854 481ZM762.138 479.427L761.055 476.63L757.993 477.816L759.45 480.759L762.138 479.427ZM770.632 476.138L773.201 474.59L771.9 472.43L769.548 473.341L770.632 476.138ZM744.088 500.093L747.063 500.475L741.334 498.903L744.088 500.093ZM722.624 483.385C725.377 474.604 730.927 468.724 735.627 466.841L733.397 461.271C726.591 463.997 720.034 471.592 716.899 481.589L722.624 483.385ZM732.045 465.763L737.525 473.686L742.46 470.273L736.979 462.35L732.045 465.763ZM738.66 469.291C732.991 472.102 728.397 478.609 726.66 484.147L732.385 485.943C733.761 481.558 737.464 476.581 741.325 474.667L738.66 469.291ZM726.66 484.147C725.504 487.835 725.213 491.307 725.983 494.208C726.781 497.218 728.75 499.601 731.786 500.553L733.582 494.828C732.801 494.583 732.136 494.002 731.782 492.668C731.399 491.225 731.435 488.972 732.385 485.943L726.66 484.147ZM731.786 500.553C733.233 501.007 734.748 501.124 736.257 500.742C737.763 500.362 739.048 499.54 740.126 498.458C742.195 496.383 743.708 493.148 744.943 489.21L739.218 487.415C738.059 491.11 736.897 493.199 735.877 494.222C735.411 494.689 735.048 494.859 734.787 494.925C734.53 494.99 734.158 495.009 733.582 494.828L731.786 500.553ZM744.943 489.21L748.175 478.905L742.45 477.11L739.218 487.415L744.943 489.21ZM744.415 480.87L753.956 483.862L755.752 478.137L746.21 475.145L744.415 480.87ZM751.992 480.102L748.76 490.407L754.485 492.203L757.717 481.897L751.992 480.102ZM748.76 490.407C747.754 493.615 747.221 496.841 747.624 499.601C748.048 502.501 749.611 505.22 752.889 506.249L754.684 500.523C754.222 500.379 753.757 500.072 753.561 498.733C753.345 497.253 753.6 495.025 754.485 492.203L748.76 490.407ZM752.889 506.249C756.235 507.298 759.209 506.046 761.364 503.935C763.434 501.907 764.943 498.957 765.935 495.793L760.21 493.998C759.383 496.635 758.272 498.565 757.165 499.649C756.144 500.65 755.384 500.743 754.684 500.523L752.889 506.249ZM765.935 495.793C767.688 490.203 767.527 483.55 764.827 478.096L759.45 480.759C761.369 484.635 761.569 489.665 760.21 493.998L765.935 495.793ZM763.222 482.225L771.715 478.936L769.548 473.341L761.055 476.63L763.222 482.225ZM768.062 477.686C770.923 482.435 772.073 489.855 769.493 498.083L775.218 499.878C778.24 490.244 777.068 481.006 773.201 474.59L768.062 477.686ZM769.493 498.083C767.746 503.653 765.102 507.687 762.194 510.007C759.367 512.262 756.289 512.932 753.117 511.937L751.322 517.663C756.623 519.325 761.745 518.04 765.935 514.697C770.043 511.421 773.23 506.217 775.218 499.878L769.493 498.083ZM753.117 511.937C748.61 510.524 746.414 505.532 747.063 500.475L741.112 499.711C740.251 506.421 743.004 515.054 751.322 517.663L753.117 511.937ZM741.334 498.903C739.538 503.058 734.665 506.989 729.061 505.232L727.266 510.957C736.929 513.987 744.361 507.021 746.841 501.283L741.334 498.903ZM729.061 505.232C725.735 504.189 723.322 501.645 722.096 497.881C720.851 494.059 720.863 488.998 722.624 483.385L716.899 481.589C714.853 488.113 714.677 494.479 716.391 499.739C718.123 505.056 721.813 509.247 727.266 510.957L729.061 505.232Z" fill="black" mask="url(#path-26-outside-6_543_62)"/>
<mask id="path-28-outside-7_543_62" maskUnits="userSpaceOnUse" x="775.323" y="420.177" width="70.2903" height="76.1966" fill="black">
<rect fill="white" x="775.323" y="420.177" width="70.2903" height="76.1966"/>
<path d="M801.324 484.705C792.096 481.289 785.674 474.902 783.664 469.04L791.854 463.968C793.972 468.846 799.497 473.28 804.373 475.085C810.976 477.529 815.774 476.32 817.162 472.569C818.635 468.592 815.775 465.487 808.273 462.709L798.144 458.96L801.616 449.582L811.744 453.331C817.671 455.525 822.559 455.458 823.919 451.782C825.391 447.805 821.612 444.188 815.91 442.078C811.034 440.272 805.19 440.156 800.415 442.227L797.56 433.578C803.305 430.501 811.682 429.764 820.46 433.013C832.164 437.346 838.322 445.597 835.239 453.925C832.906 460.227 825.977 462.354 820.139 461.301C824.972 463.687 830.102 470.108 827.324 477.61C824.13 486.238 813.253 489.121 801.324 484.705Z"/>
</mask>
<path d="M801.324 484.705C792.096 481.289 785.674 474.902 783.664 469.04L791.854 463.968C793.972 468.846 799.497 473.28 804.373 475.085C810.976 477.529 815.774 476.32 817.162 472.569C818.635 468.592 815.775 465.487 808.273 462.709L798.144 458.96L801.616 449.582L811.744 453.331C817.671 455.525 822.559 455.458 823.919 451.782C825.391 447.805 821.612 444.188 815.91 442.078C811.034 440.272 805.19 440.156 800.415 442.227L797.56 433.578C803.305 430.501 811.682 429.764 820.46 433.013C832.164 437.346 838.322 445.597 835.239 453.925C832.906 460.227 825.977 462.354 820.139 461.301C824.972 463.687 830.102 470.108 827.324 477.61C824.13 486.238 813.253 489.121 801.324 484.705Z" fill="#FA2B00"/>
<path d="M783.664 469.04L782.085 466.489L780.05 467.749L780.826 470.012L783.664 469.04ZM791.854 463.968L794.606 462.773L793.225 459.59L790.275 461.417L791.854 463.968ZM798.144 458.96L795.331 457.918L794.289 460.732L797.103 461.773L798.144 458.96ZM801.616 449.582L802.657 446.768L799.844 445.727L798.803 448.54L801.616 449.582ZM800.415 442.227L797.566 443.167L798.595 446.286L801.608 444.98L800.415 442.227ZM797.56 433.578L796.143 430.933L793.92 432.124L794.711 434.518L797.56 433.578ZM820.139 461.301L820.671 458.349L818.811 463.991L820.139 461.301ZM802.366 481.892C793.736 478.697 788.144 472.856 786.502 468.067L780.826 470.012C783.204 476.948 790.456 483.881 800.283 487.518L802.366 481.892ZM785.244 471.59L793.434 466.518L790.275 461.417L782.085 466.489L785.244 471.59ZM789.103 465.162C791.622 470.967 797.888 475.884 803.332 477.899L805.415 472.272C801.105 470.676 796.322 466.726 794.606 462.773L789.103 465.162ZM803.332 477.899C806.957 479.241 810.408 479.707 813.345 479.085C816.391 478.44 818.871 476.594 819.976 473.61L814.349 471.527C814.065 472.295 813.451 472.929 812.101 473.215C810.641 473.525 808.392 473.374 805.415 472.272L803.332 477.899ZM819.976 473.61C820.502 472.188 820.696 470.682 820.391 469.154C820.088 467.631 819.332 466.307 818.306 465.175C816.338 463.003 813.185 461.329 809.314 459.896L807.231 465.523C810.863 466.867 812.89 468.134 813.86 469.204C814.303 469.693 814.455 470.064 814.507 470.328C814.559 470.588 814.559 470.961 814.349 471.527L819.976 473.61ZM809.314 459.896L799.186 456.146L797.103 461.773L807.231 465.523L809.314 459.896ZM800.958 460.001L804.429 450.623L798.803 448.54L795.331 457.918L800.958 460.001ZM800.574 452.395L810.703 456.145L812.786 450.518L802.657 446.768L800.574 452.395ZM810.703 456.145C813.855 457.312 817.05 458.008 819.827 457.744C822.745 457.468 825.54 456.045 826.733 452.823L821.106 450.74C820.938 451.194 820.609 451.643 819.261 451.771C817.772 451.912 815.56 451.545 812.786 450.518L810.703 456.145ZM826.733 452.823C827.95 449.534 826.851 446.501 824.852 444.242C822.931 442.072 820.061 440.415 816.952 439.264L814.869 444.891C817.461 445.851 819.332 447.058 820.358 448.218C821.306 449.289 821.361 450.053 821.106 450.74L826.733 452.823ZM816.952 439.264C811.457 437.23 804.805 437.054 799.221 439.475L801.608 444.98C805.576 443.259 810.61 443.314 814.869 444.891L816.952 439.264ZM803.263 441.287L800.408 432.638L794.711 434.518L797.566 443.167L803.263 441.287ZM798.976 436.223C803.863 433.606 811.332 432.833 819.419 435.827L821.502 430.2C812.032 426.694 802.747 427.397 796.143 430.933L798.976 436.223ZM819.419 435.827C824.893 437.853 828.788 440.698 830.958 443.721C833.066 446.657 833.58 449.766 832.426 452.883L838.053 454.966C839.982 449.756 838.958 444.575 835.832 440.221C832.767 435.953 827.731 432.506 821.502 430.2L819.419 435.827ZM832.426 452.883C830.786 457.313 825.689 459.253 820.671 458.349L819.607 464.254C826.265 465.454 835.027 463.141 838.053 454.966L832.426 452.883ZM818.811 463.991C822.87 465.996 826.55 471.061 824.511 476.569L830.138 478.652C833.654 469.154 827.073 461.379 821.468 458.611L818.811 463.991ZM824.511 476.569C823.301 479.837 820.638 482.119 816.816 483.153C812.936 484.203 807.883 483.934 802.366 481.892L800.283 487.518C806.694 489.892 813.044 490.39 818.383 488.945C823.781 487.484 828.154 484.011 830.138 478.652L824.511 476.569Z" fill="black" mask="url(#path-28-outside-7_543_62)"/>
<mask id="path-30-outside-8_543_62" maskUnits="userSpaceOnUse" x="760.402" y="490.606" width="65.515" height="73.2443" fill="black">
<rect fill="white" x="760.402" y="490.606" width="65.515" height="73.2443"/>
<path d="M805.047 552.04C800.366 554.65 795.192 555.886 790.008 554.471L790.093 544.44C792.884 545.174 796.156 545.456 799.37 543.664C803.772 541.21 805.001 536.678 802.468 532.136L785.094 500.973L795.016 495.441L812.468 526.744C818.624 537.784 814.62 546.703 805.047 552.04Z"/>
</mask>
<path d="M805.047 552.04C800.366 554.65 795.192 555.886 790.008 554.471L790.093 544.44C792.884 545.174 796.156 545.456 799.37 543.664C803.772 541.21 805.001 536.678 802.468 532.136L785.094 500.973L795.016 495.441L812.468 526.744C818.624 537.784 814.62 546.703 805.047 552.04Z" fill="#A5D912"/>
<path d="M790.008 554.471L787.008 554.446L786.988 556.757L789.218 557.366L790.008 554.471ZM790.093 544.44L790.856 541.539L787.127 540.558L787.094 544.414L790.093 544.44ZM785.094 500.973L783.633 498.352L781.013 499.813L782.473 502.433L785.094 500.973ZM795.016 495.441L797.636 493.98L796.175 491.36L793.555 492.82L795.016 495.441ZM803.586 549.42C799.355 551.779 794.999 552.723 790.797 551.577L789.218 557.366C795.386 559.048 801.377 557.521 806.508 554.66L803.586 549.42ZM793.007 554.497L793.093 544.466L787.094 544.414L787.008 554.446L793.007 554.497ZM789.33 547.341C792.472 548.167 796.649 548.616 800.831 546.285L797.909 541.044C795.662 542.297 793.296 542.18 790.856 541.539L789.33 547.341ZM800.831 546.285C803.631 544.724 805.634 542.365 806.416 539.464C807.195 536.572 806.665 533.503 805.089 530.675L799.848 533.597C800.804 535.312 800.926 536.779 800.623 537.903C800.323 539.016 799.511 540.151 797.909 541.044L800.831 546.285ZM805.089 530.675L787.714 499.512L782.473 502.433L799.848 533.597L805.089 530.675ZM786.555 503.593L796.477 498.061L793.555 492.82L783.633 498.352L786.555 503.593ZM792.395 496.902L809.848 528.205L815.089 525.283L797.636 493.98L792.395 496.902ZM809.848 528.205C812.613 533.164 812.914 537.276 811.81 540.58C810.687 543.944 807.934 546.996 803.586 549.42L806.508 554.66C811.733 551.747 815.768 547.671 817.501 542.481C819.254 537.232 818.479 531.364 815.089 525.283L809.848 528.205Z" fill="black" mask="url(#path-30-outside-8_543_62)"/>
<mask id="path-32-outside-9_543_62" maskUnits="userSpaceOnUse" x="803.362" y="495.578" width="50.0424" height="66.6655" fill="black">
<rect fill="white" x="803.362" y="495.578" width="50.0424" height="66.6655"/>
<path d="M834.361 502.055C839.655 502.894 844.486 505.117 847.69 509.432L841.427 517.268C839.685 514.967 837.287 512.724 833.652 512.148C828.674 511.359 824.909 514.165 824.095 519.301L818.51 554.541L807.29 552.763L812.9 517.364C814.878 504.88 823.536 500.339 834.361 502.055Z"/>
</mask>
<path d="M834.361 502.055C839.655 502.894 844.486 505.117 847.69 509.432L841.427 517.268C839.685 514.967 837.287 512.724 833.652 512.148C828.674 511.359 824.909 514.165 824.095 519.301L818.51 554.541L807.29 552.763L812.9 517.364C814.878 504.88 823.536 500.339 834.361 502.055Z" fill="#A5D912"/>
<path d="M847.69 509.432L850.034 511.305L851.477 509.499L850.099 507.643L847.69 509.432ZM841.427 517.268L839.034 519.079L841.362 522.154L843.77 519.141L841.427 517.268ZM818.51 554.541L818.041 557.504L821.004 557.973L821.473 555.01L818.51 554.541ZM807.29 552.763L804.327 552.293L803.858 555.256L806.821 555.726L807.29 552.763ZM833.891 505.018C838.676 505.776 842.685 507.724 845.282 511.221L850.099 507.643C846.288 502.511 840.633 500.011 834.83 499.092L833.891 505.018ZM845.347 507.559L839.083 515.395L843.77 519.141L850.034 511.305L845.347 507.559ZM843.819 515.458C841.858 512.868 838.85 509.935 834.122 509.185L833.183 515.111C835.723 515.514 837.512 517.067 839.034 519.079L843.819 515.458ZM834.122 509.185C830.956 508.684 827.923 509.3 825.516 511.1C823.118 512.892 821.639 515.634 821.132 518.831L827.058 519.77C827.365 517.831 828.176 516.602 829.108 515.906C830.032 515.215 831.371 514.824 833.183 515.111L834.122 509.185ZM821.132 518.831L815.547 554.071L821.473 555.01L827.058 519.77L821.132 518.831ZM818.98 551.578L807.76 549.8L806.821 555.726L818.041 557.504L818.98 551.578ZM810.253 553.232L815.863 517.834L809.937 516.895L804.327 552.293L810.253 553.232ZM815.863 517.834C816.752 512.226 819.055 508.807 821.964 506.89C824.925 504.938 828.975 504.239 833.891 505.018L834.83 499.092C828.922 498.155 823.231 498.869 818.662 501.88C814.041 504.925 811.027 510.018 809.937 516.895L815.863 517.834Z" fill="black" mask="url(#path-32-outside-9_543_62)"/>
<mask id="path-34-outside-10_543_62" maskUnits="userSpaceOnUse" x="743.463" y="365.964" width="73.5896" height="66.6066" fill="black">
<rect fill="white" x="743.463" y="365.964" width="73.5896" height="66.6066"/>
<path d="M807.372 406.119C804.757 415.605 798.942 422.55 793.273 425.053L787.519 417.326C792.199 414.799 796.145 408.916 797.527 403.903C799.397 397.116 797.782 392.439 793.926 391.376C789.839 390.249 786.988 393.363 784.862 401.076L781.992 411.487L772.352 408.83L775.222 398.418C776.902 392.326 776.417 387.462 772.638 386.42C768.55 385.293 765.269 389.368 763.654 395.229C762.272 400.242 762.656 406.074 765.127 410.656L756.754 414.239C753.197 408.778 751.746 400.494 754.234 391.471C757.55 379.44 765.245 372.598 773.806 374.958C780.284 376.744 782.995 383.466 782.446 389.373C784.41 384.354 790.368 378.694 798.081 380.82C806.95 383.265 810.752 393.856 807.372 406.119Z"/>
</mask>
<path d="M807.372 406.119C804.757 415.605 798.942 422.55 793.273 425.053L787.519 417.326C792.199 414.799 796.145 408.916 797.527 403.903C799.397 397.116 797.782 392.439 793.926 391.376C789.839 390.249 786.988 393.363 784.862 401.076L781.992 411.487L772.352 408.83L775.222 398.418C776.902 392.326 776.417 387.462 772.638 386.42C768.55 385.293 765.269 389.368 763.654 395.229C762.272 400.242 762.656 406.074 765.127 410.656L756.754 414.239C753.197 408.778 751.746 400.494 754.234 391.471C757.55 379.44 765.245 372.598 773.806 374.958C780.284 376.744 782.995 383.466 782.446 389.373C784.41 384.354 790.368 378.694 798.081 380.82C806.95 383.265 810.752 393.856 807.372 406.119Z" fill="#FA2B00"/>
<path d="M793.273 425.053L790.867 426.845L792.296 428.764L794.485 427.797L793.273 425.053ZM787.519 417.326L786.094 414.687L783.041 416.335L785.113 419.118L787.519 417.326ZM781.992 411.487L781.195 414.38L784.087 415.177L784.884 412.285L781.992 411.487ZM772.352 408.83L769.46 408.033L768.663 410.925L771.555 411.722L772.352 408.83ZM765.127 410.656L766.307 413.414L769.326 412.122L767.767 409.231L765.127 410.656ZM756.754 414.239L754.24 415.876L755.616 417.989L757.934 416.997L756.754 414.239ZM782.446 389.373L779.459 389.095L785.239 390.466L782.446 389.373ZM804.48 405.322C802.034 414.193 796.693 420.264 792.061 422.309L794.485 427.797C801.192 424.836 807.479 417.017 810.264 406.916L804.48 405.322ZM795.679 423.261L789.926 415.535L785.113 419.118L790.867 426.845L795.679 423.261ZM788.945 419.966C794.513 416.959 798.876 410.296 800.419 404.7L794.634 403.106C793.413 407.536 789.886 412.639 786.094 414.687L788.945 419.966ZM800.419 404.7C801.446 400.974 801.616 397.495 800.745 394.623C799.841 391.642 797.791 389.329 794.723 388.484L793.129 394.268C793.918 394.485 794.603 395.042 795.003 396.363C795.436 397.792 795.478 400.045 794.634 403.106L800.419 404.7ZM794.723 388.484C793.262 388.081 791.744 388.016 790.248 388.45C788.757 388.883 787.502 389.75 786.462 390.868C784.466 393.015 783.067 396.3 781.97 400.279L787.755 401.873C788.784 398.14 789.873 396.011 790.856 394.954C791.305 394.471 791.662 394.288 791.921 394.213C792.176 394.139 792.547 394.107 793.129 394.268L794.723 388.484ZM781.97 400.279L779.1 410.69L784.884 412.285L787.755 401.873L781.97 400.279ZM782.79 408.595L773.149 405.938L771.555 411.722L781.195 414.38L782.79 408.595ZM775.244 409.627L778.114 399.216L772.33 397.621L769.46 408.033L775.244 409.627ZM778.114 399.216C779.008 395.975 779.428 392.732 778.928 389.988C778.403 387.104 776.747 384.441 773.435 383.528L771.84 389.312C772.307 389.441 772.783 389.731 773.025 391.062C773.293 392.533 773.116 394.769 772.33 397.621L778.114 399.216ZM773.435 383.528C770.054 382.596 767.126 383.95 765.046 386.136C763.048 388.235 761.643 391.235 760.761 394.432L766.546 396.027C767.28 393.362 768.323 391.395 769.392 390.273C770.377 389.237 771.134 389.117 771.84 389.312L773.435 383.528ZM760.761 394.432C759.204 400.08 759.597 406.724 762.487 412.08L767.767 409.231C765.714 405.425 765.339 400.405 766.546 396.027L760.761 394.432ZM763.947 407.898L755.573 411.481L757.934 416.997L766.307 413.414L763.947 407.898ZM759.268 412.602C756.242 407.957 754.834 400.581 757.126 392.268L751.341 390.674C748.658 400.408 750.152 409.599 754.24 415.876L759.268 412.602ZM757.126 392.268C758.677 386.641 761.179 382.517 764.005 380.096C766.75 377.745 769.804 376.967 773.008 377.85L774.603 372.066C769.247 370.59 764.172 372.053 760.102 375.539C756.111 378.958 753.107 384.27 751.341 390.674L757.126 392.268ZM773.008 377.85C777.562 379.106 779.931 384.018 779.459 389.095L785.433 389.651C786.059 382.914 783.006 374.383 774.603 372.066L773.008 377.85ZM785.239 390.466C786.889 386.251 791.622 382.152 797.283 383.712L798.878 377.928C789.115 375.237 781.931 382.458 779.652 388.279L785.239 390.466ZM797.283 383.712C800.644 384.639 803.145 387.097 804.501 390.816C805.879 394.592 806.043 399.65 804.48 405.322L810.264 406.916C812.081 400.325 812.034 393.956 810.138 388.76C808.222 383.506 804.387 379.447 798.878 377.928L797.283 383.712Z" fill="black" mask="url(#path-34-outside-10_543_62)"/>
<mask id="mask2_543_62" style="mask-type:alpha" maskUnits="userSpaceOnUse" x="191" y="365" width="225" height="225">
<path d="M414.312 366.5V588.206C292.226 587.402 193.41 488.586 192.606 366.5H414.312Z" fill="#569DFD" stroke="black" stroke-width="3"/>
</mask>
<g mask="url(#mask2_543_62)">
<path d="M382.672 479.478L364.344 461.15L372.49 443.727L340.133 411.369L322.597 419.402L304.268 401.074L408.92 354.801L429.059 374.939L382.672 479.478ZM382.22 425.172L402.924 380.936L358.687 401.64L382.22 425.172Z" fill="white"/>
<path d="M382.672 479.478L381.612 480.539L383.157 482.084L384.043 480.086L382.672 479.478ZM364.344 461.15L362.985 460.514L362.54 461.467L363.283 462.21L364.344 461.15ZM372.49 443.727L373.849 444.362L374.294 443.409L373.551 442.666L372.49 443.727ZM340.133 411.369L341.193 410.309L340.456 409.571L339.508 410.006L340.133 411.369ZM322.597 419.402L321.536 420.463L322.273 421.2L323.221 420.766L322.597 419.402ZM304.268 401.074L303.662 399.702L301.66 400.587L303.208 402.135L304.268 401.074ZM408.92 354.801L409.981 353.74L409.254 353.013L408.314 353.429L408.92 354.801ZM429.059 374.939L430.43 375.548L430.847 374.607L430.119 373.879L429.059 374.939ZM382.22 425.172L381.159 426.233L382.672 427.745L383.578 425.808L382.22 425.172ZM402.924 380.936L404.282 381.571L406.037 377.822L402.288 379.577L402.924 380.936ZM358.687 401.64L358.051 400.281L356.114 401.188L357.627 402.7L358.687 401.64ZM383.733 478.417L365.405 460.089L363.283 462.21L381.612 480.539L383.733 478.417ZM365.703 461.785L373.849 444.362L371.131 443.091L362.985 460.514L365.703 461.785ZM373.551 442.666L341.193 410.309L339.072 412.43L371.429 444.787L373.551 442.666ZM339.508 410.006L321.972 418.038L323.221 420.766L340.757 412.733L339.508 410.006ZM323.657 418.341L305.329 400.013L303.208 402.135L321.536 420.463L323.657 418.341ZM304.875 402.446L409.527 356.173L408.314 353.429L303.662 399.702L304.875 402.446ZM407.859 355.862L427.998 376L430.119 373.879L409.981 353.74L407.859 355.862ZM427.687 374.331L381.301 478.87L384.043 480.086L430.43 375.548L427.687 374.331ZM383.578 425.808L404.282 381.571L401.565 380.3L380.861 424.536L383.578 425.808ZM402.288 379.577L358.051 400.281L359.323 402.998L403.56 382.294L402.288 379.577ZM357.627 402.7L381.159 426.233L383.28 424.111L359.748 400.579L357.627 402.7Z" fill="black"/>
<mask id="path-39-outside-11_543_62" maskUnits="userSpaceOnUse" x="238.377" y="364.299" width="89.711" height="97.7836" fill="black">
<rect fill="white" x="238.377" y="364.299" width="89.711" height="97.7836"/>
<path d="M250.647 409.08L243.625 395.599L277.017 398.23L291.429 371.869L298.378 385.208L286.558 403.904L303.515 395.07L309.503 406.564L292.475 415.434L314.677 416.497L321.626 429.836L291.765 426.539L274.782 455.411L267.76 441.93L280.119 423.404L277.433 423.27L262.179 431.216L256.191 419.723L271.446 411.776L272.875 409.498L250.647 409.08Z"/>
</mask>
<path d="M250.647 409.08L243.625 395.599L277.017 398.23L291.429 371.869L298.378 385.208L286.558 403.904L303.515 395.07L309.503 406.564L292.475 415.434L314.677 416.497L321.626 429.836L291.765 426.539L274.782 455.411L267.76 441.93L280.119 423.404L277.433 423.27L262.179 431.216L256.191 419.723L271.446 411.776L272.875 409.498L250.647 409.08Z" fill="white"/>
<path d="M250.647 409.08L247.987 410.466L248.81 412.046L250.591 412.079L250.647 409.08ZM243.625 395.599L243.86 392.609L238.463 392.184L240.964 396.985L243.625 395.599ZM277.017 398.23L276.782 401.22L278.718 401.373L279.65 399.669L277.017 398.23ZM291.429 371.869L294.09 370.483L291.493 365.499L288.797 370.43L291.429 371.869ZM298.378 385.208L300.913 386.811L301.836 385.352L301.038 383.822L298.378 385.208ZM286.558 403.904L284.022 402.3L278.077 411.704L287.944 406.564L286.558 403.904ZM303.515 395.07L306.176 393.684L304.79 391.023L302.129 392.409L303.515 395.07ZM309.503 406.564L310.889 409.225L313.549 407.839L312.163 405.178L309.503 406.564ZM292.475 415.434L291.089 412.774L281.247 417.901L292.331 418.431L292.475 415.434ZM314.677 416.497L317.338 415.111L316.542 413.583L314.821 413.5L314.677 416.497ZM321.626 429.836L321.296 432.818L326.883 433.434L324.286 428.45L321.626 429.836ZM291.765 426.539L292.094 423.557L290.163 423.344L289.179 425.018L291.765 426.539ZM274.782 455.411L272.122 456.797L274.623 461.598L277.368 456.932L274.782 455.411ZM267.76 441.93L265.264 440.265L264.279 441.742L265.099 443.316L267.76 441.93ZM280.119 423.404L282.615 425.069L285.548 420.672L280.269 420.408L280.119 423.404ZM277.433 423.27L277.583 420.274L276.77 420.233L276.047 420.609L277.433 423.27ZM262.179 431.216L259.518 432.603L260.904 435.263L263.565 433.877L262.179 431.216ZM256.191 419.723L254.805 417.062L252.145 418.448L253.531 421.109L256.191 419.723ZM271.446 411.776L272.832 414.437L273.554 414.06L273.987 413.37L271.446 411.776ZM272.875 409.498L275.416 411.092L278.236 406.598L272.931 406.499L272.875 409.498ZM253.308 407.694L246.285 394.213L240.964 396.985L247.987 410.466L253.308 407.694ZM243.389 398.59L276.782 401.22L277.253 395.239L243.86 392.609L243.389 398.59ZM279.65 399.669L294.061 373.308L288.797 370.43L274.385 396.79L279.65 399.669ZM288.769 373.255L295.717 386.594L301.038 383.822L294.09 370.483L288.769 373.255ZM295.842 383.605L284.022 402.3L289.094 405.507L300.913 386.811L295.842 383.605ZM287.944 406.564L304.901 397.731L302.129 392.409L285.172 401.243L287.944 406.564ZM300.855 396.456L306.842 407.95L312.163 405.178L306.176 393.684L300.855 396.456ZM308.117 403.903L291.089 412.774L293.861 418.095L310.889 409.225L308.117 403.903ZM292.331 418.431L314.534 419.494L314.821 413.5L292.618 412.438L292.331 418.431ZM312.017 417.883L318.965 431.222L324.286 428.45L317.338 415.111L312.017 417.883ZM321.955 426.854L292.094 423.557L291.435 429.521L321.296 432.818L321.955 426.854ZM289.179 425.018L272.196 453.89L277.368 456.932L294.35 428.06L289.179 425.018ZM277.443 454.025L270.421 440.544L265.099 443.316L272.122 456.797L277.443 454.025ZM270.255 443.595L282.615 425.069L277.623 421.739L265.264 440.265L270.255 443.595ZM280.269 420.408L277.583 420.274L277.283 426.266L279.969 426.401L280.269 420.408ZM276.047 420.609L260.793 428.556L263.565 433.877L278.819 425.931L276.047 420.609ZM264.84 429.83L258.852 418.337L253.531 421.109L259.518 432.603L264.84 429.83ZM257.577 422.383L272.832 414.437L270.06 409.115L254.805 417.062L257.577 422.383ZM273.987 413.37L275.416 411.092L270.334 407.904L268.904 410.182L273.987 413.37ZM272.931 406.499L250.704 406.081L250.591 412.079L272.818 412.498L272.931 406.499Z" fill="black" mask="url(#path-39-outside-11_543_62)"/>
<mask id="path-41-outside-12_543_62" maskUnits="userSpaceOnUse" x="316.239" y="452.104" width="98.0331" height="90.3626" fill="black">
<rect fill="white" x="316.239" y="452.104" width="98.0331" height="90.3626"/>
<path d="M335.961 512.134L322.592 504.902L351.726 488.374L348.896 458.465L362.125 465.621L362.807 487.729L371.905 470.912L383.304 477.079L374.168 493.966L393.155 482.408L406.383 489.564L379.801 503.562L381.908 536.992L368.539 529.759L368.398 507.49L366.098 508.883L357.914 524.011L346.515 517.844L354.699 502.716L354.607 500.029L335.961 512.134Z"/>
</mask>
<path d="M335.961 512.134L322.592 504.902L351.726 488.374L348.896 458.465L362.125 465.621L362.807 487.729L371.905 470.912L383.304 477.079L374.168 493.966L393.155 482.408L406.383 489.564L379.801 503.562L381.908 536.992L368.539 529.759L368.398 507.49L366.098 508.883L357.914 524.011L346.515 517.844L354.699 502.716L354.607 500.029L335.961 512.134Z" fill="white"/>
<path d="M335.961 512.134L334.533 514.773L336.1 515.621L337.594 514.651L335.961 512.134ZM322.592 504.902L321.111 502.293L316.402 504.964L321.164 507.541L322.592 504.902ZM351.726 488.374L353.206 490.983L354.895 490.025L354.712 488.091L351.726 488.374ZM348.896 458.465L350.324 455.826L345.38 453.152L345.91 458.747L348.896 458.465ZM362.125 465.621L365.123 465.528L365.07 463.803L363.552 462.982L362.125 465.621ZM362.807 487.729L359.809 487.822L360.152 498.942L365.446 489.156L362.807 487.729ZM371.905 470.912L373.333 468.273L370.694 466.846L369.267 469.485L371.905 470.912ZM383.304 477.079L385.943 478.506L387.37 475.868L384.731 474.44L383.304 477.079ZM374.168 493.966L371.53 492.538L366.249 502.299L375.728 496.529L374.168 493.966ZM393.155 482.408L394.582 479.769L393.067 478.95L391.595 479.845L393.155 482.408ZM406.383 489.564L407.781 492.219L412.754 489.6L407.811 486.926L406.383 489.564ZM379.801 503.562L378.403 500.907L376.684 501.812L376.807 503.751L379.801 503.562ZM381.908 536.992L380.48 539.63L385.243 542.206L384.902 536.803L381.908 536.992ZM368.539 529.759L365.539 529.778L365.55 531.553L367.111 532.398L368.539 529.759ZM368.398 507.49L371.398 507.471L371.365 502.185L366.844 504.924L368.398 507.49ZM366.098 508.883L364.544 506.317L363.847 506.739L363.46 507.455L366.098 508.883ZM357.914 524.011L356.487 526.65L359.125 528.077L360.553 525.439L357.914 524.011ZM346.515 517.844L343.877 516.417L342.449 519.056L345.088 520.483L346.515 517.844ZM354.699 502.716L357.338 504.144L357.726 503.427L357.698 502.613L354.699 502.716ZM354.607 500.029L357.605 499.926L357.423 494.623L352.973 497.512L354.607 500.029ZM337.388 509.496L324.019 502.263L321.164 507.541L334.533 514.773L337.388 509.496ZM324.072 507.511L353.206 490.983L350.245 485.764L321.111 502.293L324.072 507.511ZM354.712 488.091L351.883 458.182L345.91 458.747L348.739 488.656L354.712 488.091ZM347.469 461.103L360.697 468.26L363.552 462.982L350.324 455.826L347.469 461.103ZM359.126 465.714L359.809 487.822L365.806 487.636L365.123 465.528L359.126 465.714ZM365.446 489.156L374.544 472.34L369.267 469.485L360.169 486.301L365.446 489.156ZM370.478 473.551L381.877 479.717L384.731 474.44L373.333 468.273L370.478 473.551ZM380.665 475.651L371.53 492.538L376.807 495.393L385.943 478.506L380.665 475.651ZM375.728 496.529L394.715 484.971L391.595 479.845L372.608 491.403L375.728 496.529ZM391.727 485.047L404.956 492.203L407.811 486.926L394.582 479.769L391.727 485.047ZM404.985 486.91L378.403 500.907L381.198 506.216L407.781 492.219L404.985 486.91ZM376.807 503.751L378.914 537.18L384.902 536.803L382.795 503.373L376.807 503.751ZM383.335 534.353L369.966 527.12L367.111 532.398L380.48 539.63L383.335 534.353ZM371.539 529.74L371.398 507.471L365.398 507.508L365.539 529.778L371.539 529.74ZM366.844 504.924L364.544 506.317L367.653 511.449L369.953 510.055L366.844 504.924ZM363.46 507.455L355.275 522.584L360.553 525.439L368.737 510.31L363.46 507.455ZM359.341 521.372L347.943 515.206L345.088 520.483L356.487 526.65L359.341 521.372ZM349.154 519.272L357.338 504.144L352.061 501.289L343.877 516.417L349.154 519.272ZM357.698 502.613L357.605 499.926L351.609 500.132L351.701 502.819L357.698 502.613ZM352.973 497.512L334.327 509.618L337.594 514.651L356.241 502.545L352.973 497.512Z" fill="black" mask="url(#path-41-outside-12_543_62)"/>
</g>
<mask id="mask3_543_62" style="mask-type:alpha" maskUnits="userSpaceOnUse" x="420" y="137" width="225" height="225">
<path d="M421.602 360.211V138.505C543.688 139.308 642.504 238.125 643.307 360.211H421.602Z" fill="#569DFD" stroke="black" stroke-width="3"/>
</mask>
<g mask="url(#mask3_543_62)">
<path d="M502.374 429.045L492.492 401.611L509.127 387.775L491.681 339.341L469.983 339.121L460.101 311.687L588.794 314.692L599.652 344.836L502.374 429.045ZM527.917 373.545L570.176 338.426L515.229 338.32L527.917 373.545Z" fill="#FA2B00"/>
<path d="M502.374 429.045L500.963 429.554L501.703 431.61L503.356 430.179L502.374 429.045ZM492.492 401.611L491.533 400.458L490.724 401.13L491.081 402.119L492.492 401.611ZM509.127 387.775L510.086 388.928L510.895 388.255L510.539 387.266L509.127 387.775ZM491.681 339.341L493.092 338.832L492.739 337.851L491.696 337.841L491.681 339.341ZM469.983 339.121L468.572 339.63L468.925 340.611L469.968 340.621L469.983 339.121ZM460.101 311.687L460.136 310.187L457.948 310.136L458.69 312.195L460.101 311.687ZM588.794 314.692L590.206 314.183L589.857 313.216L588.829 313.192L588.794 314.692ZM599.652 344.836L600.634 345.97L601.413 345.296L601.064 344.327L599.652 344.836ZM527.917 373.545L526.506 374.053L527.23 376.066L528.876 374.699L527.917 373.545ZM570.176 338.426L571.135 339.579L574.318 336.934L570.179 336.926L570.176 338.426ZM515.229 338.32L515.232 336.82L513.093 336.816L513.818 338.829L515.229 338.32ZM503.785 428.537L493.903 401.103L491.081 402.119L500.963 429.554L503.785 428.537ZM493.451 402.764L510.086 388.928L508.168 386.621L491.533 400.458L493.451 402.764ZM510.539 387.266L493.092 338.832L490.27 339.849L507.716 388.283L510.539 387.266ZM491.696 337.841L469.998 337.621L469.968 340.621L491.666 340.841L491.696 337.841ZM471.394 338.613L461.512 311.178L458.69 312.195L468.572 339.63L471.394 338.613ZM460.066 313.186L588.759 316.191L588.829 313.192L460.136 310.187L460.066 313.186ZM587.383 315.2L598.241 345.344L601.064 344.327L590.206 314.183L587.383 315.2ZM598.671 343.702L501.392 427.911L503.356 430.179L600.634 345.97L598.671 343.702ZM528.876 374.699L571.135 339.579L569.217 337.272L526.958 372.391L528.876 374.699ZM570.179 336.926L515.232 336.82L515.226 339.82L570.173 339.926L570.179 336.926ZM513.818 338.829L526.506 374.053L529.328 373.037L516.64 337.812L513.818 338.829Z" fill="black"/>
<mask id="path-46-outside-13_543_62" maskUnits="userSpaceOnUse" x="405.803" y="181" width="56" height="60" fill="black">
<rect fill="white" x="405.803" y="181" width="56" height="60"/>
<path d="M457.363 238H443.363L441.363 229.84H426.243L424.243 238H410.243L426.003 184.64H441.603L457.363 238ZM438.803 218.56L433.843 198.08L428.803 218.56H438.803Z"/>
</mask>
<path d="M457.363 238H443.363L441.363 229.84H426.243L424.243 238H410.243L426.003 184.64H441.603L457.363 238ZM438.803 218.56L433.843 198.08L428.803 218.56H438.803Z" fill="#FA2B00"/>
<path d="M457.363 238V241H461.377L460.24 237.15L457.363 238ZM443.363 238L440.449 238.714L441.009 241H443.363V238ZM441.363 229.84L444.276 229.126L443.716 226.84H441.363V229.84ZM426.243 229.84V226.84H423.889L423.329 229.126L426.243 229.84ZM424.243 238V241H426.596L427.156 238.714L424.243 238ZM410.243 238L407.366 237.15L406.229 241H410.243V238ZM426.003 184.64V181.64H423.761L423.126 183.79L426.003 184.64ZM441.603 184.64L444.48 183.79L443.845 181.64H441.603V184.64ZM438.803 218.56V221.56H442.616L441.718 217.854L438.803 218.56ZM433.843 198.08L436.758 197.374L430.93 197.363L433.843 198.08ZM428.803 218.56L425.89 217.843L424.975 221.56H428.803V218.56ZM457.363 235H443.363V241H457.363V235ZM446.276 237.286L444.276 229.126L438.449 230.554L440.449 238.714L446.276 237.286ZM441.363 226.84H426.243V232.84H441.363V226.84ZM423.329 229.126L421.329 237.286L427.156 238.714L429.156 230.554L423.329 229.126ZM424.243 235H410.243V241H424.243V235ZM413.12 238.85L428.88 185.49L423.126 183.79L407.366 237.15L413.12 238.85ZM426.003 187.64H441.603V181.64H426.003V187.64ZM438.726 185.49L454.486 238.85L460.24 237.15L444.48 183.79L438.726 185.49ZM441.718 217.854L436.758 197.374L430.927 198.786L435.887 219.266L441.718 217.854ZM430.93 197.363L425.89 217.843L431.716 219.277L436.756 198.797L430.93 197.363ZM428.803 221.56H438.803V215.56H428.803V221.56Z" fill="black" mask="url(#path-46-outside-13_543_62)"/>
<mask id="path-48-outside-14_543_62" maskUnits="userSpaceOnUse" x="468.854" y="242.162" width="61.0162" height="64.6524" fill="black">
<rect fill="white" x="468.854" y="242.162" width="61.0162" height="64.6524"/>
<path d="M473.539 249.645L487.486 248.425L490.189 256.379L505.252 255.061L506.533 246.758L520.48 245.538L509.43 300.068L493.89 301.428L473.539 249.645ZM493.723 267.393L500.449 287.363L503.685 266.522L493.723 267.393Z"/>
</mask>
<path d="M473.539 249.645L487.486 248.425L490.189 256.379L505.252 255.061L506.533 246.758L520.48 245.538L509.43 300.068L493.89 301.428L473.539 249.645ZM493.723 267.393L500.449 287.363L503.685 266.522L493.723 267.393Z" fill="#FA2B00"/>
<path d="M473.539 249.645L473.278 246.656L469.279 247.006L470.747 250.742L473.539 249.645ZM487.486 248.425L490.326 247.459L489.569 245.231L487.224 245.436L487.486 248.425ZM490.189 256.379L487.349 257.345L488.106 259.573L490.451 259.368L490.189 256.379ZM505.252 255.061L505.513 258.05L507.858 257.845L508.217 255.519L505.252 255.061ZM506.533 246.758L506.271 243.77L503.927 243.975L503.568 246.301L506.533 246.758ZM520.48 245.538L523.42 246.134L524.217 242.199L520.218 242.549L520.48 245.538ZM509.43 300.068L509.692 303.057L511.925 302.862L512.371 300.664L509.43 300.068ZM493.89 301.428L491.098 302.525L491.918 304.612L494.151 304.417L493.89 301.428ZM493.723 267.393L493.461 264.405L489.662 264.737L490.88 268.351L493.723 267.393ZM500.449 287.363L497.606 288.32L503.413 287.823L500.449 287.363ZM503.685 266.522L506.649 266.982L507.236 263.199L503.423 263.533L503.685 266.522ZM473.8 252.633L487.747 251.413L487.224 245.436L473.278 246.656L473.8 252.633ZM484.645 249.39L487.349 257.345L493.03 255.414L490.326 247.459L484.645 249.39ZM490.451 259.368L505.513 258.05L504.99 252.073L489.928 253.391L490.451 259.368ZM508.217 255.519L509.498 247.216L503.568 246.301L502.287 254.604L508.217 255.519ZM506.794 249.747L520.741 248.527L520.218 242.549L506.271 243.77L506.794 249.747ZM517.539 244.942L506.49 299.473L512.371 300.664L523.42 246.134L517.539 244.942ZM509.169 297.08L493.628 298.44L494.151 304.417L509.692 303.057L509.169 297.08ZM496.682 300.331L476.331 248.547L470.747 250.742L491.098 302.525L496.682 300.331ZM490.88 268.351L497.606 288.32L503.292 286.405L496.566 266.436L490.88 268.351ZM503.413 287.823L506.649 266.982L500.72 266.061L497.484 286.903L503.413 287.823ZM503.423 263.533L493.461 264.405L493.984 270.382L503.946 269.51L503.423 263.533Z" fill="black" mask="url(#path-48-outside-14_543_62)"/>
<path d="M506.942 369H477.782L470.402 348.66H418.922L411.362 369H382.202L428.642 248.94H460.682L506.942 369ZM463.382 326.16L444.662 274.5L425.942 326.16H463.382Z" fill="#FA2B00"/>
<path d="M506.942 369V370.5H509.127L508.341 368.461L506.942 369ZM477.782 369L476.372 369.512L476.73 370.5H477.782V369ZM470.402 348.66L471.812 348.148L471.453 347.16H470.402V348.66ZM418.922 348.66V347.16H417.879L417.516 348.137L418.922 348.66ZM411.362 369V370.5H412.404L412.768 369.523L411.362 369ZM382.202 369L380.803 368.459L380.013 370.5H382.202V369ZM428.642 248.94V247.44H427.613L427.243 248.399L428.642 248.94ZM460.682 248.94L462.081 248.401L461.711 247.44H460.682V248.94ZM463.382 326.16V327.66H465.521L464.792 325.649L463.382 326.16ZM444.662 274.5L446.072 273.989L444.662 270.097L443.251 273.989L444.662 274.5ZM425.942 326.16L424.531 325.649L423.803 327.66H425.942V326.16ZM506.942 367.5H477.782V370.5H506.942V367.5ZM479.192 368.488L471.812 348.148L468.992 349.172L476.372 369.512L479.192 368.488ZM470.402 347.16H418.922V350.16H470.402V347.16ZM417.516 348.137L409.956 368.477L412.768 369.523L420.328 349.183L417.516 348.137ZM411.362 367.5H382.202V370.5H411.362V367.5ZM383.601 369.541L430.041 249.481L427.243 248.399L380.803 368.459L383.601 369.541ZM428.642 250.44H460.682V247.44H428.642V250.44ZM459.282 249.479L505.542 369.539L508.341 368.461L462.081 248.401L459.282 249.479ZM464.792 325.649L446.072 273.989L443.251 275.011L461.971 326.671L464.792 325.649ZM443.251 273.989L424.531 325.649L427.352 326.671L446.072 275.011L443.251 273.989ZM425.942 327.66H463.382V324.66H425.942V327.66Z" fill="black"/>
</g>
</g>
</svg>
