<svg width="1280" height="756" viewBox="0 0 1280 756" fill="none" xmlns="http://www.w3.org/2000/svg">
<mask id="mask0_571_191" style="mask-type:alpha" maskUnits="userSpaceOnUse" x="0" y="0" width="1280" height="756">
<rect width="1280" height="756" fill="#D9D9D9"/>
</mask>
<g mask="url(#mask0_571_191)">
<path d="M18.04 335H-30.2L22.72 94.88H70.96L18.04 335ZM130.703 335H82.4631L126.023 137.36H72.7431L82.1031 94.88H236.903L227.543 137.36H174.263L130.703 335ZM360.22 335H309.82L308.02 292.52H233.86L213.7 335H159.34L283.54 94.88H341.86L360.22 335ZM307.3 250.04L303.34 145.64L252.94 250.04H307.3ZM491.516 335H362.636L415.556 94.88H463.796L420.236 292.52H500.876L491.516 335ZM552.837 335H504.597L557.517 94.88H605.757L552.837 335ZM678.82 339.32C625.9 339.32 588.82 304.04 588.82 247.52C588.82 170.12 635.26 90.92 709.78 90.92C760.18 90.92 784.3 124.4 792.22 159.32L746.5 171.56C741.1 148.52 727.42 133.76 706.9 133.76C667.66 133.76 638.5 194.96 638.5 246.44C638.5 277.4 655.06 296.48 681.7 296.48C697.54 296.48 713.38 285.68 724.9 268.04L762.7 288.92C741.1 323.48 710.5 339.32 678.82 339.32Z" fill="#D7D7D7"/>
<path d="M18.04 335V336.5H19.2454L19.5049 335.323L18.04 335ZM-30.2 335L-31.6648 334.677L-32.0666 336.5H-30.2V335ZM22.72 94.88V93.38H21.5146L21.2552 94.5571L22.72 94.88ZM70.96 94.88L72.4249 95.2028L72.8266 93.38H70.96V94.88ZM18.04 333.5H-30.2V336.5H18.04V333.5ZM-28.7352 335.323L24.1849 95.2028L21.2552 94.5571L-31.6648 334.677L-28.7352 335.323ZM22.72 96.38H70.96V93.38H22.72V96.38ZM69.4952 94.5571L16.5752 334.677L19.5049 335.323L72.4249 95.2028L69.4952 94.5571ZM130.703 335V336.5H131.909L132.168 335.323L130.703 335ZM82.4631 335L80.9983 334.677L80.5965 336.5H82.4631V335ZM126.023 137.36L127.488 137.683L127.89 135.86H126.023V137.36ZM72.7431 137.36L71.2783 137.037L70.8766 138.86H72.7431V137.36ZM82.1031 94.88V93.38H80.8977L80.6383 94.5572L82.1031 94.88ZM236.903 94.88L238.368 95.2027L238.77 93.38H236.903V94.88ZM227.543 137.36V138.86H228.749L229.008 137.683L227.543 137.36ZM174.263 137.36V135.86H173.058L172.798 137.037L174.263 137.36ZM130.703 333.5H82.4631V336.5H130.703V333.5ZM83.928 335.323L127.488 137.683L124.558 137.037L80.9983 334.677L83.928 335.323ZM126.023 135.86H72.7431V138.86H126.023V135.86ZM74.208 137.683L83.568 95.2027L80.6383 94.5572L71.2783 137.037L74.208 137.683ZM82.1031 96.38H236.903V93.38H82.1031V96.38ZM235.438 94.5572L226.078 137.037L229.008 137.683L238.368 95.2027L235.438 94.5572ZM227.543 135.86H174.263V138.86H227.543V135.86ZM172.798 137.037L129.238 334.677L132.168 335.323L175.728 137.683L172.798 137.037ZM360.22 335V336.5H361.839L361.716 334.886L360.22 335ZM309.82 335L308.321 335.064L308.382 336.5H309.82V335ZM308.02 292.52L309.519 292.456L309.458 291.02H308.02V292.52ZM233.86 292.52V291.02H232.912L232.505 291.877L233.86 292.52ZM213.7 335V336.5H214.648L215.055 335.643L213.7 335ZM159.34 335L158.008 334.311L156.875 336.5H159.34V335ZM283.54 94.88V93.38H282.627L282.208 94.1908L283.54 94.88ZM341.86 94.88L343.356 94.7656L343.25 93.38H341.86V94.88ZM307.3 250.04V251.54H308.858L308.799 249.983L307.3 250.04ZM303.34 145.64L304.839 145.583L301.989 144.988L303.34 145.64ZM252.94 250.04L251.589 249.388L250.55 251.54H252.94V250.04ZM360.22 333.5H309.82V336.5H360.22V333.5ZM311.319 334.936L309.519 292.456L306.521 292.583L308.321 335.064L311.319 334.936ZM308.02 291.02H233.86V294.02H308.02V291.02ZM232.505 291.877L212.345 334.357L215.055 335.643L235.215 293.163L232.505 291.877ZM213.7 333.5H159.34V336.5H213.7V333.5ZM160.672 335.689L284.872 95.5691L282.208 94.1908L158.008 334.311L160.672 335.689ZM283.54 96.38H341.86V93.38H283.54V96.38ZM340.364 94.9943L358.724 335.114L361.716 334.886L343.356 94.7656L340.364 94.9943ZM308.799 249.983L304.839 145.583L301.841 145.697L305.801 250.097L308.799 249.983ZM301.989 144.988L251.589 249.388L254.291 250.692L304.691 146.292L301.989 144.988ZM252.94 251.54H307.3V248.54H252.94V251.54ZM491.516 335V336.5H492.721L492.981 335.323L491.516 335ZM362.636 335L361.171 334.677L360.769 336.5H362.636V335ZM415.556 94.88V93.38H414.351L414.091 94.5571L415.556 94.88ZM463.796 94.88L465.261 95.2028L465.663 93.38H463.796V94.88ZM420.236 292.52L418.771 292.197L418.369 294.02H420.236V292.52ZM500.876 292.52L502.341 292.843L502.742 291.02H500.876V292.52ZM491.516 333.5H362.636V336.5H491.516V333.5ZM364.101 335.323L417.021 95.2028L414.091 94.5571L361.171 334.677L364.101 335.323ZM415.556 96.38H463.796V93.38H415.556V96.38ZM462.331 94.5571L418.771 292.197L421.701 292.843L465.261 95.2028L462.331 94.5571ZM420.236 294.02H500.876V291.02H420.236V294.02ZM499.411 292.197L490.051 334.677L492.981 335.323L502.341 292.843L499.411 292.197ZM552.837 335V336.5H554.042L554.302 335.323L552.837 335ZM504.597 335L503.132 334.677L502.73 336.5H504.597V335ZM557.517 94.88V93.38H556.311L556.052 94.5571L557.517 94.88ZM605.757 94.88L607.222 95.2028L607.623 93.38H605.757V94.88ZM552.837 333.5H504.597V336.5H552.837V333.5ZM506.062 335.323L558.982 95.2028L556.052 94.5571L503.132 334.677L506.062 335.323ZM557.517 96.38H605.757V93.38H557.517V96.38ZM604.292 94.5571L551.372 334.677L554.302 335.323L607.222 95.2028L604.292 94.5571ZM792.22 159.32L792.608 160.769L794.002 160.396L793.683 158.988L792.22 159.32ZM746.5 171.56L745.04 171.902L745.393 173.409L746.888 173.009L746.5 171.56ZM724.9 268.04L725.625 266.727L724.406 266.053L723.644 267.22L724.9 268.04ZM762.7 288.92L763.972 289.715L764.811 288.372L763.425 287.607L762.7 288.92ZM678.82 337.82C652.699 337.82 630.601 329.119 615.036 313.554C599.473 297.991 590.32 275.444 590.32 247.52H587.32C587.32 276.116 596.707 299.469 612.914 315.676C629.119 331.881 652.021 340.82 678.82 340.82V337.82ZM590.32 247.52C590.32 209.097 601.852 170.258 622.578 141.063C643.291 111.888 673.114 92.42 709.78 92.42V89.42C671.926 89.42 641.269 109.552 620.132 139.327C599.008 169.082 587.32 208.543 587.32 247.52H590.32ZM709.78 92.42C734.617 92.42 752.869 100.657 765.893 113.109C778.947 125.589 786.844 142.396 790.757 159.652L793.683 158.988C789.676 141.324 781.553 123.931 767.967 110.941C754.351 97.9235 735.343 89.42 709.78 89.42V92.42ZM791.832 157.871L746.112 170.111L746.888 173.009L792.608 160.769L791.832 157.871ZM747.96 171.218C745.216 159.506 740.338 149.774 733.423 142.952C726.482 136.105 717.554 132.26 706.9 132.26V135.26C716.766 135.26 724.938 138.795 731.317 145.088C737.722 151.406 742.384 160.574 745.04 171.902L747.96 171.218ZM706.9 132.26C686.452 132.26 668.959 148.17 656.677 170.061C644.353 192.026 637 220.45 637 246.44H640C640 220.95 647.227 193.034 659.293 171.529C671.401 149.95 688.108 135.26 706.9 135.26V132.26ZM637 246.44C637 262.175 641.209 275.068 648.975 284.051C656.764 293.059 667.998 297.98 681.7 297.98V294.98C668.762 294.98 658.396 290.361 651.245 282.089C644.071 273.792 640 261.665 640 246.44H637ZM681.7 297.98C698.235 297.98 714.481 286.738 726.156 268.86L723.644 267.22C712.279 284.622 696.845 294.98 681.7 294.98V297.98ZM724.175 269.353L761.975 290.233L763.425 287.607L725.625 266.727L724.175 269.353ZM761.428 288.125C740.079 322.283 709.941 337.82 678.82 337.82V340.82C711.059 340.82 742.121 324.677 763.972 289.715L761.428 288.125Z" fill="black"/>
<path d="M18.04 335H-30.2L22.72 94.88H70.96L18.04 335ZM130.703 335H82.4631L126.023 137.36H72.7431L82.1031 94.88H236.903L227.543 137.36H174.263L130.703 335ZM360.22 335H309.82L308.02 292.52H233.86L213.7 335H159.34L283.54 94.88H341.86L360.22 335ZM307.3 250.04L303.34 145.64L252.94 250.04H307.3ZM491.516 335H362.636L415.556 94.88H463.796L420.236 292.52H500.876L491.516 335ZM552.837 335H504.597L557.517 94.88H605.757L552.837 335ZM678.82 339.32C625.9 339.32 588.82 304.04 588.82 247.52C588.82 170.12 635.26 90.92 709.78 90.92C760.18 90.92 784.3 124.4 792.22 159.32L746.5 171.56C741.1 148.52 727.42 133.76 706.9 133.76C667.66 133.76 638.5 194.96 638.5 246.44C638.5 277.4 655.06 296.48 681.7 296.48C697.54 296.48 713.38 285.68 724.9 268.04L762.7 288.92C741.1 323.48 710.5 339.32 678.82 339.32Z" fill="#D7D7D7"/>
<path d="M18.04 335V336.5H19.2454L19.5049 335.323L18.04 335ZM-30.2 335L-31.6648 334.677L-32.0666 336.5H-30.2V335ZM22.72 94.88V93.38H21.5146L21.2552 94.5571L22.72 94.88ZM70.96 94.88L72.4249 95.2028L72.8266 93.38H70.96V94.88ZM18.04 333.5H-30.2V336.5H18.04V333.5ZM-28.7352 335.323L24.1849 95.2028L21.2552 94.5571L-31.6648 334.677L-28.7352 335.323ZM22.72 96.38H70.96V93.38H22.72V96.38ZM69.4952 94.5571L16.5752 334.677L19.5049 335.323L72.4249 95.2028L69.4952 94.5571ZM130.703 335V336.5H131.909L132.168 335.323L130.703 335ZM82.4631 335L80.9983 334.677L80.5965 336.5H82.4631V335ZM126.023 137.36L127.488 137.683L127.89 135.86H126.023V137.36ZM72.7431 137.36L71.2783 137.037L70.8766 138.86H72.7431V137.36ZM82.1031 94.88V93.38H80.8977L80.6383 94.5572L82.1031 94.88ZM236.903 94.88L238.368 95.2027L238.77 93.38H236.903V94.88ZM227.543 137.36V138.86H228.749L229.008 137.683L227.543 137.36ZM174.263 137.36V135.86H173.058L172.798 137.037L174.263 137.36ZM130.703 333.5H82.4631V336.5H130.703V333.5ZM83.928 335.323L127.488 137.683L124.558 137.037L80.9983 334.677L83.928 335.323ZM126.023 135.86H72.7431V138.86H126.023V135.86ZM74.208 137.683L83.568 95.2027L80.6383 94.5572L71.2783 137.037L74.208 137.683ZM82.1031 96.38H236.903V93.38H82.1031V96.38ZM235.438 94.5572L226.078 137.037L229.008 137.683L238.368 95.2027L235.438 94.5572ZM227.543 135.86H174.263V138.86H227.543V135.86ZM172.798 137.037L129.238 334.677L132.168 335.323L175.728 137.683L172.798 137.037ZM360.22 335V336.5H361.839L361.716 334.886L360.22 335ZM309.82 335L308.321 335.064L308.382 336.5H309.82V335ZM308.02 292.52L309.519 292.456L309.458 291.02H308.02V292.52ZM233.86 292.52V291.02H232.912L232.505 291.877L233.86 292.52ZM213.7 335V336.5H214.648L215.055 335.643L213.7 335ZM159.34 335L158.008 334.311L156.875 336.5H159.34V335ZM283.54 94.88V93.38H282.627L282.208 94.1908L283.54 94.88ZM341.86 94.88L343.356 94.7656L343.25 93.38H341.86V94.88ZM307.3 250.04V251.54H308.858L308.799 249.983L307.3 250.04ZM303.34 145.64L304.839 145.583L301.989 144.988L303.34 145.64ZM252.94 250.04L251.589 249.388L250.55 251.54H252.94V250.04ZM360.22 333.5H309.82V336.5H360.22V333.5ZM311.319 334.936L309.519 292.456L306.521 292.583L308.321 335.064L311.319 334.936ZM308.02 291.02H233.86V294.02H308.02V291.02ZM232.505 291.877L212.345 334.357L215.055 335.643L235.215 293.163L232.505 291.877ZM213.7 333.5H159.34V336.5H213.7V333.5ZM160.672 335.689L284.872 95.5691L282.208 94.1908L158.008 334.311L160.672 335.689ZM283.54 96.38H341.86V93.38H283.54V96.38ZM340.364 94.9943L358.724 335.114L361.716 334.886L343.356 94.7656L340.364 94.9943ZM308.799 249.983L304.839 145.583L301.841 145.697L305.801 250.097L308.799 249.983ZM301.989 144.988L251.589 249.388L254.291 250.692L304.691 146.292L301.989 144.988ZM252.94 251.54H307.3V248.54H252.94V251.54ZM491.516 335V336.5H492.721L492.981 335.323L491.516 335ZM362.636 335L361.171 334.677L360.769 336.5H362.636V335ZM415.556 94.88V93.38H414.351L414.091 94.5571L415.556 94.88ZM463.796 94.88L465.261 95.2028L465.663 93.38H463.796V94.88ZM420.236 292.52L418.771 292.197L418.369 294.02H420.236V292.52ZM500.876 292.52L502.341 292.843L502.742 291.02H500.876V292.52ZM491.516 333.5H362.636V336.5H491.516V333.5ZM364.101 335.323L417.021 95.2028L414.091 94.5571L361.171 334.677L364.101 335.323ZM415.556 96.38H463.796V93.38H415.556V96.38ZM462.331 94.5571L418.771 292.197L421.701 292.843L465.261 95.2028L462.331 94.5571ZM420.236 294.02H500.876V291.02H420.236V294.02ZM499.411 292.197L490.051 334.677L492.981 335.323L502.341 292.843L499.411 292.197ZM552.837 335V336.5H554.042L554.302 335.323L552.837 335ZM504.597 335L503.132 334.677L502.73 336.5H504.597V335ZM557.517 94.88V93.38H556.311L556.052 94.5571L557.517 94.88ZM605.757 94.88L607.222 95.2028L607.623 93.38H605.757V94.88ZM552.837 333.5H504.597V336.5H552.837V333.5ZM506.062 335.323L558.982 95.2028L556.052 94.5571L503.132 334.677L506.062 335.323ZM557.517 96.38H605.757V93.38H557.517V96.38ZM604.292 94.5571L551.372 334.677L554.302 335.323L607.222 95.2028L604.292 94.5571ZM792.22 159.32L792.608 160.769L794.002 160.396L793.683 158.988L792.22 159.32ZM746.5 171.56L745.04 171.902L745.393 173.409L746.888 173.009L746.5 171.56ZM724.9 268.04L725.625 266.727L724.406 266.053L723.644 267.22L724.9 268.04ZM762.7 288.92L763.972 289.715L764.811 288.372L763.425 287.607L762.7 288.92ZM678.82 337.82C652.699 337.82 630.601 329.119 615.036 313.554C599.473 297.991 590.32 275.444 590.32 247.52H587.32C587.32 276.116 596.707 299.469 612.914 315.676C629.119 331.881 652.021 340.82 678.82 340.82V337.82ZM590.32 247.52C590.32 209.097 601.852 170.258 622.578 141.063C643.291 111.888 673.114 92.42 709.78 92.42V89.42C671.926 89.42 641.269 109.552 620.132 139.327C599.008 169.082 587.32 208.543 587.32 247.52H590.32ZM709.78 92.42C734.617 92.42 752.869 100.657 765.893 113.109C778.947 125.589 786.844 142.396 790.757 159.652L793.683 158.988C789.676 141.324 781.553 123.931 767.967 110.941C754.351 97.9235 735.343 89.42 709.78 89.42V92.42ZM791.832 157.871L746.112 170.111L746.888 173.009L792.608 160.769L791.832 157.871ZM747.96 171.218C745.216 159.506 740.338 149.774 733.423 142.952C726.482 136.105 717.554 132.26 706.9 132.26V135.26C716.766 135.26 724.938 138.795 731.317 145.088C737.722 151.406 742.384 160.574 745.04 171.902L747.96 171.218ZM706.9 132.26C686.452 132.26 668.959 148.17 656.677 170.061C644.353 192.026 637 220.45 637 246.44H640C640 220.95 647.227 193.034 659.293 171.529C671.401 149.95 688.108 135.26 706.9 135.26V132.26ZM637 246.44C637 262.175 641.209 275.068 648.975 284.051C656.764 293.059 667.998 297.98 681.7 297.98V294.98C668.762 294.98 658.396 290.361 651.245 282.089C644.071 273.792 640 261.665 640 246.44H637ZM681.7 297.98C698.235 297.98 714.481 286.738 726.156 268.86L723.644 267.22C712.279 284.622 696.845 294.98 681.7 294.98V297.98ZM724.175 269.353L761.975 290.233L763.425 287.607L725.625 266.727L724.175 269.353ZM761.428 288.125C740.079 322.283 709.941 337.82 678.82 337.82V340.82C711.059 340.82 742.121 324.677 763.972 289.715L761.428 288.125Z" fill="black"/>
<path d="M42.04 335H-6.2L46.72 94.88H94.96L42.04 335ZM154.703 335H106.463L150.023 137.36H96.7431L106.103 94.88H260.903L251.543 137.36H198.263L154.703 335ZM384.22 335H333.82L332.02 292.52H257.86L237.7 335H183.34L307.54 94.88H365.86L384.22 335ZM331.3 250.04L327.34 145.64L276.94 250.04H331.3ZM515.516 335H386.636L439.556 94.88H487.796L444.236 292.52H524.876L515.516 335ZM576.837 335H528.597L581.517 94.88H629.757L576.837 335ZM702.82 339.32C649.9 339.32 612.82 304.04 612.82 247.52C612.82 170.12 659.26 90.92 733.78 90.92C784.18 90.92 808.3 124.4 816.22 159.32L770.5 171.56C765.1 148.52 751.42 133.76 730.9 133.76C691.66 133.76 662.5 194.96 662.5 246.44C662.5 277.4 679.06 296.48 705.7 296.48C721.54 296.48 737.38 285.68 748.9 268.04L786.7 288.92C765.1 323.48 734.5 339.32 702.82 339.32Z" fill="#569DFD"/>
<path d="M42.04 335V336.5H43.2454L43.5049 335.323L42.04 335ZM-6.2 335L-7.66485 334.677L-8.06658 336.5H-6.2V335ZM46.72 94.88V93.38H45.5146L45.2552 94.5571L46.72 94.88ZM94.96 94.88L96.4249 95.2028L96.8266 93.38H94.96V94.88ZM42.04 333.5H-6.2V336.5H42.04V333.5ZM-4.73515 335.323L48.1849 95.2028L45.2552 94.5571L-7.66485 334.677L-4.73515 335.323ZM46.72 96.38H94.96V93.38H46.72V96.38ZM93.4952 94.5571L40.5752 334.677L43.5049 335.323L96.4249 95.2028L93.4952 94.5571ZM154.703 335V336.5H155.909L156.168 335.323L154.703 335ZM106.463 335L104.998 334.677L104.597 336.5H106.463V335ZM150.023 137.36L151.488 137.683L151.89 135.86H150.023V137.36ZM96.7431 137.36L95.2783 137.037L94.8766 138.86H96.7431V137.36ZM106.103 94.88V93.38H104.898L104.638 94.5572L106.103 94.88ZM260.903 94.88L262.368 95.2027L262.77 93.38H260.903V94.88ZM251.543 137.36V138.86H252.749L253.008 137.683L251.543 137.36ZM198.263 137.36V135.86H197.058L196.798 137.037L198.263 137.36ZM154.703 333.5H106.463V336.5H154.703V333.5ZM107.928 335.323L151.488 137.683L148.558 137.037L104.998 334.677L107.928 335.323ZM150.023 135.86H96.7431V138.86H150.023V135.86ZM98.208 137.683L107.568 95.2027L104.638 94.5572L95.2783 137.037L98.208 137.683ZM106.103 96.38H260.903V93.38H106.103V96.38ZM259.438 94.5572L250.078 137.037L253.008 137.683L262.368 95.2027L259.438 94.5572ZM251.543 135.86H198.263V138.86H251.543V135.86ZM196.798 137.037L153.238 334.677L156.168 335.323L199.728 137.683L196.798 137.037ZM384.22 335V336.5H385.839L385.716 334.886L384.22 335ZM333.82 335L332.321 335.064L332.382 336.5H333.82V335ZM332.02 292.52L333.519 292.456L333.458 291.02H332.02V292.52ZM257.86 292.52V291.02H256.912L256.505 291.877L257.86 292.52ZM237.7 335V336.5H238.648L239.055 335.643L237.7 335ZM183.34 335L182.008 334.311L180.875 336.5H183.34V335ZM307.54 94.88V93.38H306.627L306.208 94.1908L307.54 94.88ZM365.86 94.88L367.356 94.7656L367.25 93.38H365.86V94.88ZM331.3 250.04V251.54H332.858L332.799 249.983L331.3 250.04ZM327.34 145.64L328.839 145.583L325.989 144.988L327.34 145.64ZM276.94 250.04L275.589 249.388L274.55 251.54H276.94V250.04ZM384.22 333.5H333.82V336.5H384.22V333.5ZM335.319 334.936L333.519 292.456L330.521 292.583L332.321 335.064L335.319 334.936ZM332.02 291.02H257.86V294.02H332.02V291.02ZM256.505 291.877L236.345 334.357L239.055 335.643L259.215 293.163L256.505 291.877ZM237.7 333.5H183.34V336.5H237.7V333.5ZM184.672 335.689L308.872 95.5691L306.208 94.1908L182.008 334.311L184.672 335.689ZM307.54 96.38H365.86V93.38H307.54V96.38ZM364.364 94.9943L382.724 335.114L385.716 334.886L367.356 94.7656L364.364 94.9943ZM332.799 249.983L328.839 145.583L325.841 145.697L329.801 250.097L332.799 249.983ZM325.989 144.988L275.589 249.388L278.291 250.692L328.691 146.292L325.989 144.988ZM276.94 251.54H331.3V248.54H276.94V251.54ZM515.516 335V336.5H516.721L516.981 335.323L515.516 335ZM386.636 335L385.171 334.677L384.769 336.5H386.636V335ZM439.556 94.88V93.38H438.351L438.091 94.5571L439.556 94.88ZM487.796 94.88L489.261 95.2028L489.663 93.38H487.796V94.88ZM444.236 292.52L442.771 292.197L442.369 294.02H444.236V292.52ZM524.876 292.52L526.341 292.843L526.742 291.02H524.876V292.52ZM515.516 333.5H386.636V336.5H515.516V333.5ZM388.101 335.323L441.021 95.2028L438.091 94.5571L385.171 334.677L388.101 335.323ZM439.556 96.38H487.796V93.38H439.556V96.38ZM486.331 94.5571L442.771 292.197L445.701 292.843L489.261 95.2028L486.331 94.5571ZM444.236 294.02H524.876V291.02H444.236V294.02ZM523.411 292.197L514.051 334.677L516.981 335.323L526.341 292.843L523.411 292.197ZM576.837 335V336.5H578.042L578.302 335.323L576.837 335ZM528.597 335L527.132 334.677L526.73 336.5H528.597V335ZM581.517 94.88V93.38H580.311L580.052 94.5571L581.517 94.88ZM629.757 94.88L631.222 95.2028L631.623 93.38H629.757V94.88ZM576.837 333.5H528.597V336.5H576.837V333.5ZM530.062 335.323L582.982 95.2028L580.052 94.5571L527.132 334.677L530.062 335.323ZM581.517 96.38H629.757V93.38H581.517V96.38ZM628.292 94.5571L575.372 334.677L578.302 335.323L631.222 95.2028L628.292 94.5571ZM816.22 159.32L816.608 160.769L818.002 160.396L817.683 158.988L816.22 159.32ZM770.5 171.56L769.04 171.902L769.393 173.409L770.888 173.009L770.5 171.56ZM748.9 268.04L749.625 266.727L748.406 266.053L747.644 267.22L748.9 268.04ZM786.7 288.92L787.972 289.715L788.811 288.372L787.425 287.607L786.7 288.92ZM702.82 337.82C676.699 337.82 654.601 329.119 639.036 313.554C623.473 297.991 614.32 275.444 614.32 247.52H611.32C611.32 276.116 620.707 299.469 636.914 315.676C653.119 331.881 676.021 340.82 702.82 340.82V337.82ZM614.32 247.52C614.32 209.097 625.852 170.258 646.578 141.063C667.291 111.888 697.114 92.42 733.78 92.42V89.42C695.926 89.42 665.269 109.552 644.132 139.327C623.008 169.082 611.32 208.543 611.32 247.52H614.32ZM733.78 92.42C758.617 92.42 776.869 100.657 789.893 113.109C802.947 125.589 810.844 142.396 814.757 159.652L817.683 158.988C813.676 141.324 805.553 123.931 791.967 110.941C778.351 97.9235 759.343 89.42 733.78 89.42V92.42ZM815.832 157.871L770.112 170.111L770.888 173.009L816.608 160.769L815.832 157.871ZM771.96 171.218C769.216 159.506 764.338 149.774 757.423 142.952C750.482 136.105 741.554 132.26 730.9 132.26V135.26C740.766 135.26 748.938 138.795 755.317 145.088C761.722 151.406 766.384 160.574 769.04 171.902L771.96 171.218ZM730.9 132.26C710.452 132.26 692.959 148.17 680.677 170.061C668.353 192.026 661 220.45 661 246.44H664C664 220.95 671.227 193.034 683.293 171.529C695.401 149.95 712.108 135.26 730.9 135.26V132.26ZM661 246.44C661 262.175 665.209 275.068 672.975 284.051C680.764 293.059 691.998 297.98 705.7 297.98V294.98C692.762 294.98 682.396 290.361 675.245 282.089C668.071 273.792 664 261.665 664 246.44H661ZM705.7 297.98C722.235 297.98 738.481 286.738 750.156 268.86L747.644 267.22C736.279 284.622 720.845 294.98 705.7 294.98V297.98ZM748.175 269.353L785.975 290.233L787.425 287.607L749.625 266.727L748.175 269.353ZM785.428 288.125C764.079 322.283 733.941 337.82 702.82 337.82V340.82C735.059 340.82 766.121 324.677 787.972 289.715L785.428 288.125Z" fill="black"/>
<path d="M551.04 659H502.8L555.72 418.88H603.96L551.04 659ZM663.703 659H615.463L659.023 461.36H605.743L615.103 418.88H769.903L760.543 461.36H707.263L663.703 659ZM893.22 659H842.82L841.02 616.52H766.86L746.7 659H692.34L816.54 418.88H874.86L893.22 659ZM840.3 574.04L836.34 469.64L785.94 574.04H840.3ZM1024.52 659H895.636L948.556 418.88H996.796L953.236 616.52H1033.88L1024.52 659ZM1085.84 659H1037.6L1090.52 418.88H1138.76L1085.84 659ZM1211.82 663.32C1158.9 663.32 1121.82 628.04 1121.82 571.52C1121.82 494.12 1168.26 414.92 1242.78 414.92C1293.18 414.92 1317.3 448.4 1325.22 483.32L1279.5 495.56C1274.1 472.52 1260.42 457.76 1239.9 457.76C1200.66 457.76 1171.5 518.96 1171.5 570.44C1171.5 601.4 1188.06 620.48 1214.7 620.48C1230.54 620.48 1246.38 609.68 1257.9 592.04L1295.7 612.92C1274.1 647.48 1243.5 663.32 1211.82 663.32Z" fill="#D7D7D7"/>
<path d="M551.04 659V660.5H552.245L552.505 659.323L551.04 659ZM502.8 659L501.335 658.677L500.933 660.5H502.8V659ZM555.72 418.88V417.38H554.515L554.255 418.557L555.72 418.88ZM603.96 418.88L605.425 419.203L605.827 417.38H603.96V418.88ZM551.04 657.5H502.8V660.5H551.04V657.5ZM504.265 659.323L557.185 419.203L554.255 418.557L501.335 658.677L504.265 659.323ZM555.72 420.38H603.96V417.38H555.72V420.38ZM602.495 418.557L549.575 658.677L552.505 659.323L605.425 419.203L602.495 418.557ZM663.703 659V660.5H664.909L665.168 659.323L663.703 659ZM615.463 659L613.998 658.677L613.597 660.5H615.463V659ZM659.023 461.36L660.488 461.683L660.89 459.86H659.023V461.36ZM605.743 461.36L604.278 461.037L603.877 462.86H605.743V461.36ZM615.103 418.88V417.38H613.898L613.638 418.557L615.103 418.88ZM769.903 418.88L771.368 419.203L771.77 417.38H769.903V418.88ZM760.543 461.36V462.86H761.749L762.008 461.683L760.543 461.36ZM707.263 461.36V459.86H706.058L705.798 461.037L707.263 461.36ZM663.703 657.5H615.463V660.5H663.703V657.5ZM616.928 659.323L660.488 461.683L657.558 461.037L613.998 658.677L616.928 659.323ZM659.023 459.86H605.743V462.86H659.023V459.86ZM607.208 461.683L616.568 419.203L613.638 418.557L604.278 461.037L607.208 461.683ZM615.103 420.38H769.903V417.38H615.103V420.38ZM768.438 418.557L759.078 461.037L762.008 461.683L771.368 419.203L768.438 418.557ZM760.543 459.86H707.263V462.86H760.543V459.86ZM705.798 461.037L662.238 658.677L665.168 659.323L708.728 461.683L705.798 461.037ZM893.22 659V660.5H894.839L894.716 658.886L893.22 659ZM842.82 659L841.321 659.064L841.382 660.5H842.82V659ZM841.02 616.52L842.519 616.456L842.458 615.02H841.02V616.52ZM766.86 616.52V615.02H765.912L765.505 615.877L766.86 616.52ZM746.7 659V660.5H747.648L748.055 659.643L746.7 659ZM692.34 659L691.008 658.311L689.875 660.5H692.34V659ZM816.54 418.88V417.38H815.627L815.208 418.191L816.54 418.88ZM874.86 418.88L876.356 418.766L876.25 417.38H874.86V418.88ZM840.3 574.04V575.54H841.858L841.799 573.983L840.3 574.04ZM836.34 469.64L837.839 469.583L834.989 468.988L836.34 469.64ZM785.94 574.04L784.589 573.388L783.55 575.54H785.94V574.04ZM893.22 657.5H842.82V660.5H893.22V657.5ZM844.319 658.936L842.519 616.456L839.521 616.583L841.321 659.064L844.319 658.936ZM841.02 615.02H766.86V618.02H841.02V615.02ZM765.505 615.877L745.345 658.357L748.055 659.643L768.215 617.163L765.505 615.877ZM746.7 657.5H692.34V660.5H746.7V657.5ZM693.672 659.689L817.872 419.569L815.208 418.191L691.008 658.311L693.672 659.689ZM816.54 420.38H874.86V417.38H816.54V420.38ZM873.364 418.994L891.724 659.114L894.716 658.886L876.356 418.766L873.364 418.994ZM841.799 573.983L837.839 469.583L834.841 469.697L838.801 574.097L841.799 573.983ZM834.989 468.988L784.589 573.388L787.291 574.692L837.691 470.292L834.989 468.988ZM785.94 575.54H840.3V572.54H785.94V575.54ZM1024.52 659V660.5H1025.72L1025.98 659.323L1024.52 659ZM895.636 659L894.171 658.677L893.769 660.5H895.636V659ZM948.556 418.88V417.38H947.351L947.091 418.557L948.556 418.88ZM996.796 418.88L998.261 419.203L998.663 417.38H996.796V418.88ZM953.236 616.52L951.771 616.197L951.369 618.02H953.236V616.52ZM1033.88 616.52L1035.34 616.843L1035.74 615.02H1033.88V616.52ZM1024.52 657.5H895.636V660.5H1024.52V657.5ZM897.101 659.323L950.021 419.203L947.091 418.557L894.171 658.677L897.101 659.323ZM948.556 420.38H996.796V417.38H948.556V420.38ZM995.331 418.557L951.771 616.197L954.701 616.843L998.261 419.203L995.331 418.557ZM953.236 618.02H1033.88V615.02H953.236V618.02ZM1032.41 616.197L1023.05 658.677L1025.98 659.323L1035.34 616.843L1032.41 616.197ZM1085.84 659V660.5H1087.04L1087.3 659.323L1085.84 659ZM1037.6 659L1036.13 658.677L1035.73 660.5H1037.6V659ZM1090.52 418.88V417.38H1089.31L1089.05 418.557L1090.52 418.88ZM1138.76 418.88L1140.22 419.203L1140.62 417.38H1138.76V418.88ZM1085.84 657.5H1037.6V660.5H1085.84V657.5ZM1039.06 659.323L1091.98 419.203L1089.05 418.557L1036.13 658.677L1039.06 659.323ZM1090.52 420.38H1138.76V417.38H1090.52V420.38ZM1137.29 418.557L1084.37 658.677L1087.3 659.323L1140.22 419.203L1137.29 418.557ZM1325.22 483.32L1325.61 484.769L1327 484.396L1326.68 482.988L1325.22 483.32ZM1279.5 495.56L1278.04 495.902L1278.39 497.409L1279.89 497.009L1279.5 495.56ZM1257.9 592.04L1258.63 590.727L1257.41 590.053L1256.64 591.22L1257.9 592.04ZM1295.7 612.92L1296.97 613.715L1297.81 612.372L1296.43 611.607L1295.7 612.92ZM1211.82 661.82C1185.7 661.82 1163.6 653.119 1148.04 637.554C1132.47 621.991 1123.32 599.444 1123.32 571.52H1120.32C1120.32 600.116 1129.71 623.469 1145.91 639.676C1162.12 655.881 1185.02 664.82 1211.82 664.82V661.82ZM1123.32 571.52C1123.32 533.097 1134.85 494.258 1155.58 465.063C1176.29 435.888 1206.11 416.42 1242.78 416.42V413.42C1204.93 413.42 1174.27 433.552 1153.13 463.327C1132.01 493.082 1120.32 532.543 1120.32 571.52H1123.32ZM1242.78 416.42C1267.62 416.42 1285.87 424.657 1298.89 437.109C1311.95 449.589 1319.84 466.396 1323.76 483.652L1326.68 482.988C1322.68 465.324 1314.55 447.931 1300.97 434.941C1287.35 421.923 1268.34 413.42 1242.78 413.42V416.42ZM1324.83 481.871L1279.11 494.111L1279.89 497.009L1325.61 484.769L1324.83 481.871ZM1280.96 495.218C1278.22 483.506 1273.34 473.774 1266.42 466.952C1259.48 460.105 1250.55 456.26 1239.9 456.26V459.26C1249.77 459.26 1257.94 462.795 1264.32 469.088C1270.72 475.406 1275.38 484.574 1278.04 495.902L1280.96 495.218ZM1239.9 456.26C1219.45 456.26 1201.96 472.17 1189.68 494.061C1177.35 516.026 1170 544.45 1170 570.44H1173C1173 544.95 1180.23 517.034 1192.29 495.529C1204.4 473.95 1221.11 459.26 1239.9 459.26V456.26ZM1170 570.44C1170 586.175 1174.21 599.068 1181.98 608.051C1189.76 617.059 1201 621.98 1214.7 621.98V618.98C1201.76 618.98 1191.4 614.361 1184.24 606.089C1177.07 597.792 1173 585.665 1173 570.44H1170ZM1214.7 621.98C1231.23 621.98 1247.48 610.738 1259.16 592.86L1256.64 591.22C1245.28 608.622 1229.85 618.98 1214.7 618.98V621.98ZM1257.17 593.353L1294.97 614.233L1296.43 611.607L1258.63 590.727L1257.17 593.353ZM1294.43 612.125C1273.08 646.283 1242.94 661.82 1211.82 661.82V664.82C1244.06 664.82 1275.12 648.677 1296.97 613.715L1294.43 612.125Z" fill="black"/>
<path d="M580.04 659H531.8L584.72 418.88H632.96L580.04 659ZM692.703 659H644.463L688.023 461.36H634.743L644.103 418.88H798.903L789.543 461.36H736.263L692.703 659ZM922.22 659H871.82L870.02 616.52H795.86L775.7 659H721.34L845.54 418.88H903.86L922.22 659ZM869.3 574.04L865.34 469.64L814.94 574.04H869.3ZM1053.52 659H924.636L977.556 418.88H1025.8L982.236 616.52H1062.88L1053.52 659ZM1114.84 659H1066.6L1119.52 418.88H1167.76L1114.84 659ZM1240.82 663.32C1187.9 663.32 1150.82 628.04 1150.82 571.52C1150.82 494.12 1197.26 414.92 1271.78 414.92C1322.18 414.92 1346.3 448.4 1354.22 483.32L1308.5 495.56C1303.1 472.52 1289.42 457.76 1268.9 457.76C1229.66 457.76 1200.5 518.96 1200.5 570.44C1200.5 601.4 1217.06 620.48 1243.7 620.48C1259.54 620.48 1275.38 609.68 1286.9 592.04L1324.7 612.92C1303.1 647.48 1272.5 663.32 1240.82 663.32Z" fill="#569DFD"/>
<path d="M580.04 659V660.5H581.245L581.505 659.323L580.04 659ZM531.8 659L530.335 658.677L529.933 660.5H531.8V659ZM584.72 418.88V417.38H583.515L583.255 418.557L584.72 418.88ZM632.96 418.88L634.425 419.203L634.827 417.38H632.96V418.88ZM580.04 657.5H531.8V660.5H580.04V657.5ZM533.265 659.323L586.185 419.203L583.255 418.557L530.335 658.677L533.265 659.323ZM584.72 420.38H632.96V417.38H584.72V420.38ZM631.495 418.557L578.575 658.677L581.505 659.323L634.425 419.203L631.495 418.557ZM692.703 659V660.5H693.909L694.168 659.323L692.703 659ZM644.463 659L642.998 658.677L642.597 660.5H644.463V659ZM688.023 461.36L689.488 461.683L689.89 459.86H688.023V461.36ZM634.743 461.36L633.278 461.037L632.877 462.86H634.743V461.36ZM644.103 418.88V417.38H642.898L642.638 418.557L644.103 418.88ZM798.903 418.88L800.368 419.203L800.77 417.38H798.903V418.88ZM789.543 461.36V462.86H790.749L791.008 461.683L789.543 461.36ZM736.263 461.36V459.86H735.058L734.798 461.037L736.263 461.36ZM692.703 657.5H644.463V660.5H692.703V657.5ZM645.928 659.323L689.488 461.683L686.558 461.037L642.998 658.677L645.928 659.323ZM688.023 459.86H634.743V462.86H688.023V459.86ZM636.208 461.683L645.568 419.203L642.638 418.557L633.278 461.037L636.208 461.683ZM644.103 420.38H798.903V417.38H644.103V420.38ZM797.438 418.557L788.078 461.037L791.008 461.683L800.368 419.203L797.438 418.557ZM789.543 459.86H736.263V462.86H789.543V459.86ZM734.798 461.037L691.238 658.677L694.168 659.323L737.728 461.683L734.798 461.037ZM922.22 659V660.5H923.839L923.716 658.886L922.22 659ZM871.82 659L870.321 659.064L870.382 660.5H871.82V659ZM870.02 616.52L871.519 616.456L871.458 615.02H870.02V616.52ZM795.86 616.52V615.02H794.912L794.505 615.877L795.86 616.52ZM775.7 659V660.5H776.648L777.055 659.643L775.7 659ZM721.34 659L720.008 658.311L718.875 660.5H721.34V659ZM845.54 418.88V417.38H844.627L844.208 418.191L845.54 418.88ZM903.86 418.88L905.356 418.766L905.25 417.38H903.86V418.88ZM869.3 574.04V575.54H870.858L870.799 573.983L869.3 574.04ZM865.34 469.64L866.839 469.583L863.989 468.988L865.34 469.64ZM814.94 574.04L813.589 573.388L812.55 575.54H814.94V574.04ZM922.22 657.5H871.82V660.5H922.22V657.5ZM873.319 658.936L871.519 616.456L868.521 616.583L870.321 659.064L873.319 658.936ZM870.02 615.02H795.86V618.02H870.02V615.02ZM794.505 615.877L774.345 658.357L777.055 659.643L797.215 617.163L794.505 615.877ZM775.7 657.5H721.34V660.5H775.7V657.5ZM722.672 659.689L846.872 419.569L844.208 418.191L720.008 658.311L722.672 659.689ZM845.54 420.38H903.86V417.38H845.54V420.38ZM902.364 418.994L920.724 659.114L923.716 658.886L905.356 418.766L902.364 418.994ZM870.799 573.983L866.839 469.583L863.841 469.697L867.801 574.097L870.799 573.983ZM863.989 468.988L813.589 573.388L816.291 574.692L866.691 470.292L863.989 468.988ZM814.94 575.54H869.3V572.54H814.94V575.54ZM1053.52 659V660.5H1054.72L1054.98 659.323L1053.52 659ZM924.636 659L923.171 658.677L922.769 660.5H924.636V659ZM977.556 418.88V417.38H976.351L976.091 418.557L977.556 418.88ZM1025.8 418.88L1027.26 419.203L1027.66 417.38H1025.8V418.88ZM982.236 616.52L980.771 616.197L980.369 618.02H982.236V616.52ZM1062.88 616.52L1064.34 616.843L1064.74 615.02H1062.88V616.52ZM1053.52 657.5H924.636V660.5H1053.52V657.5ZM926.101 659.323L979.021 419.203L976.091 418.557L923.171 658.677L926.101 659.323ZM977.556 420.38H1025.8V417.38H977.556V420.38ZM1024.33 418.557L980.771 616.197L983.701 616.843L1027.26 419.203L1024.33 418.557ZM982.236 618.02H1062.88V615.02H982.236V618.02ZM1061.41 616.197L1052.05 658.677L1054.98 659.323L1064.34 616.843L1061.41 616.197ZM1114.84 659V660.5H1116.04L1116.3 659.323L1114.84 659ZM1066.6 659L1065.13 658.677L1064.73 660.5H1066.6V659ZM1119.52 418.88V417.38H1118.31L1118.05 418.557L1119.52 418.88ZM1167.76 418.88L1169.22 419.203L1169.62 417.38H1167.76V418.88ZM1114.84 657.5H1066.6V660.5H1114.84V657.5ZM1068.06 659.323L1120.98 419.203L1118.05 418.557L1065.13 658.677L1068.06 659.323ZM1119.52 420.38H1167.76V417.38H1119.52V420.38ZM1166.29 418.557L1113.37 658.677L1116.3 659.323L1169.22 419.203L1166.29 418.557ZM1354.22 483.32L1354.61 484.769L1356 484.396L1355.68 482.988L1354.22 483.32ZM1308.5 495.56L1307.04 495.902L1307.39 497.409L1308.89 497.009L1308.5 495.56ZM1286.9 592.04L1287.63 590.727L1286.41 590.053L1285.64 591.22L1286.9 592.04ZM1324.7 612.92L1325.97 613.715L1326.81 612.372L1325.43 611.607L1324.7 612.92ZM1240.82 661.82C1214.7 661.82 1192.6 653.119 1177.04 637.554C1161.47 621.991 1152.32 599.444 1152.32 571.52H1149.32C1149.32 600.116 1158.71 623.469 1174.91 639.676C1191.12 655.881 1214.02 664.82 1240.82 664.82V661.82ZM1152.32 571.52C1152.32 533.097 1163.85 494.258 1184.58 465.063C1205.29 435.888 1235.11 416.42 1271.78 416.42V413.42C1233.93 413.42 1203.27 433.552 1182.13 463.327C1161.01 493.082 1149.32 532.543 1149.32 571.52H1152.32ZM1271.78 416.42C1296.62 416.42 1314.87 424.657 1327.89 437.109C1340.95 449.589 1348.84 466.396 1352.76 483.652L1355.68 482.988C1351.68 465.324 1343.55 447.931 1329.97 434.941C1316.35 421.923 1297.34 413.42 1271.78 413.42V416.42ZM1353.83 481.871L1308.11 494.111L1308.89 497.009L1354.61 484.769L1353.83 481.871ZM1309.96 495.218C1307.22 483.506 1302.34 473.774 1295.42 466.952C1288.48 460.105 1279.55 456.26 1268.9 456.26V459.26C1278.77 459.26 1286.94 462.795 1293.32 469.088C1299.72 475.406 1304.38 484.574 1307.04 495.902L1309.96 495.218ZM1268.9 456.26C1248.45 456.26 1230.96 472.17 1218.68 494.061C1206.35 516.026 1199 544.45 1199 570.44H1202C1202 544.95 1209.23 517.034 1221.29 495.529C1233.4 473.95 1250.11 459.26 1268.9 459.26V456.26ZM1199 570.44C1199 586.175 1203.21 599.068 1210.98 608.051C1218.76 617.059 1230 621.98 1243.7 621.98V618.98C1230.76 618.98 1220.4 614.361 1213.24 606.089C1206.07 597.792 1202 585.665 1202 570.44H1199ZM1243.7 621.98C1260.23 621.98 1276.48 610.738 1288.16 592.86L1285.64 591.22C1274.28 608.622 1258.85 618.98 1243.7 618.98V621.98ZM1286.17 593.353L1323.97 614.233L1325.43 611.607L1287.63 590.727L1286.17 593.353ZM1323.43 612.125C1302.08 646.283 1271.94 661.82 1240.82 661.82V664.82C1273.06 664.82 1304.12 648.677 1325.97 613.715L1323.43 612.125Z" fill="black"/>
<path d="M580.04 659H531.8L584.72 418.88H632.96L580.04 659ZM692.703 659H644.463L688.023 461.36H634.743L644.103 418.88H798.903L789.543 461.36H736.263L692.703 659ZM922.22 659H871.82L870.02 616.52H795.86L775.7 659H721.34L845.54 418.88H903.86L922.22 659ZM869.3 574.04L865.34 469.64L814.94 574.04H869.3ZM1053.52 659H924.636L977.556 418.88H1025.8L982.236 616.52H1062.88L1053.52 659ZM1114.84 659H1066.6L1119.52 418.88H1167.76L1114.84 659ZM1240.82 663.32C1187.9 663.32 1150.82 628.04 1150.82 571.52C1150.82 494.12 1197.26 414.92 1271.78 414.92C1322.18 414.92 1346.3 448.4 1354.22 483.32L1308.5 495.56C1303.1 472.52 1289.42 457.76 1268.9 457.76C1229.66 457.76 1200.5 518.96 1200.5 570.44C1200.5 601.4 1217.06 620.48 1243.7 620.48C1259.54 620.48 1275.38 609.68 1286.9 592.04L1324.7 612.92C1303.1 647.48 1272.5 663.32 1240.82 663.32Z" fill="#569DFD"/>
<path d="M580.04 659V660.5H581.245L581.505 659.323L580.04 659ZM531.8 659L530.335 658.677L529.933 660.5H531.8V659ZM584.72 418.88V417.38H583.515L583.255 418.557L584.72 418.88ZM632.96 418.88L634.425 419.203L634.827 417.38H632.96V418.88ZM580.04 657.5H531.8V660.5H580.04V657.5ZM533.265 659.323L586.185 419.203L583.255 418.557L530.335 658.677L533.265 659.323ZM584.72 420.38H632.96V417.38H584.72V420.38ZM631.495 418.557L578.575 658.677L581.505 659.323L634.425 419.203L631.495 418.557ZM692.703 659V660.5H693.909L694.168 659.323L692.703 659ZM644.463 659L642.998 658.677L642.597 660.5H644.463V659ZM688.023 461.36L689.488 461.683L689.89 459.86H688.023V461.36ZM634.743 461.36L633.278 461.037L632.877 462.86H634.743V461.36ZM644.103 418.88V417.38H642.898L642.638 418.557L644.103 418.88ZM798.903 418.88L800.368 419.203L800.77 417.38H798.903V418.88ZM789.543 461.36V462.86H790.749L791.008 461.683L789.543 461.36ZM736.263 461.36V459.86H735.058L734.798 461.037L736.263 461.36ZM692.703 657.5H644.463V660.5H692.703V657.5ZM645.928 659.323L689.488 461.683L686.558 461.037L642.998 658.677L645.928 659.323ZM688.023 459.86H634.743V462.86H688.023V459.86ZM636.208 461.683L645.568 419.203L642.638 418.557L633.278 461.037L636.208 461.683ZM644.103 420.38H798.903V417.38H644.103V420.38ZM797.438 418.557L788.078 461.037L791.008 461.683L800.368 419.203L797.438 418.557ZM789.543 459.86H736.263V462.86H789.543V459.86ZM734.798 461.037L691.238 658.677L694.168 659.323L737.728 461.683L734.798 461.037ZM922.22 659V660.5H923.839L923.716 658.886L922.22 659ZM871.82 659L870.321 659.064L870.382 660.5H871.82V659ZM870.02 616.52L871.519 616.456L871.458 615.02H870.02V616.52ZM795.86 616.52V615.02H794.912L794.505 615.877L795.86 616.52ZM775.7 659V660.5H776.648L777.055 659.643L775.7 659ZM721.34 659L720.008 658.311L718.875 660.5H721.34V659ZM845.54 418.88V417.38H844.627L844.208 418.191L845.54 418.88ZM903.86 418.88L905.356 418.766L905.25 417.38H903.86V418.88ZM869.3 574.04V575.54H870.858L870.799 573.983L869.3 574.04ZM865.34 469.64L866.839 469.583L863.989 468.988L865.34 469.64ZM814.94 574.04L813.589 573.388L812.55 575.54H814.94V574.04ZM922.22 657.5H871.82V660.5H922.22V657.5ZM873.319 658.936L871.519 616.456L868.521 616.583L870.321 659.064L873.319 658.936ZM870.02 615.02H795.86V618.02H870.02V615.02ZM794.505 615.877L774.345 658.357L777.055 659.643L797.215 617.163L794.505 615.877ZM775.7 657.5H721.34V660.5H775.7V657.5ZM722.672 659.689L846.872 419.569L844.208 418.191L720.008 658.311L722.672 659.689ZM845.54 420.38H903.86V417.38H845.54V420.38ZM902.364 418.994L920.724 659.114L923.716 658.886L905.356 418.766L902.364 418.994ZM870.799 573.983L866.839 469.583L863.841 469.697L867.801 574.097L870.799 573.983ZM863.989 468.988L813.589 573.388L816.291 574.692L866.691 470.292L863.989 468.988ZM814.94 575.54H869.3V572.54H814.94V575.54ZM1053.52 659V660.5H1054.72L1054.98 659.323L1053.52 659ZM924.636 659L923.171 658.677L922.769 660.5H924.636V659ZM977.556 418.88V417.38H976.351L976.091 418.557L977.556 418.88ZM1025.8 418.88L1027.26 419.203L1027.66 417.38H1025.8V418.88ZM982.236 616.52L980.771 616.197L980.369 618.02H982.236V616.52ZM1062.88 616.52L1064.34 616.843L1064.74 615.02H1062.88V616.52ZM1053.52 657.5H924.636V660.5H1053.52V657.5ZM926.101 659.323L979.021 419.203L976.091 418.557L923.171 658.677L926.101 659.323ZM977.556 420.38H1025.8V417.38H977.556V420.38ZM1024.33 418.557L980.771 616.197L983.701 616.843L1027.26 419.203L1024.33 418.557ZM982.236 618.02H1062.88V615.02H982.236V618.02ZM1061.41 616.197L1052.05 658.677L1054.98 659.323L1064.34 616.843L1061.41 616.197ZM1114.84 659V660.5H1116.04L1116.3 659.323L1114.84 659ZM1066.6 659L1065.13 658.677L1064.73 660.5H1066.6V659ZM1119.52 418.88V417.38H1118.31L1118.05 418.557L1119.52 418.88ZM1167.76 418.88L1169.22 419.203L1169.62 417.38H1167.76V418.88ZM1114.84 657.5H1066.6V660.5H1114.84V657.5ZM1068.06 659.323L1120.98 419.203L1118.05 418.557L1065.13 658.677L1068.06 659.323ZM1119.52 420.38H1167.76V417.38H1119.52V420.38ZM1166.29 418.557L1113.37 658.677L1116.3 659.323L1169.22 419.203L1166.29 418.557ZM1354.22 483.32L1354.61 484.769L1356 484.396L1355.68 482.988L1354.22 483.32ZM1308.5 495.56L1307.04 495.902L1307.39 497.409L1308.89 497.009L1308.5 495.56ZM1286.9 592.04L1287.63 590.727L1286.41 590.053L1285.64 591.22L1286.9 592.04ZM1324.7 612.92L1325.97 613.715L1326.81 612.372L1325.43 611.607L1324.7 612.92ZM1240.82 661.82C1214.7 661.82 1192.6 653.119 1177.04 637.554C1161.47 621.991 1152.32 599.444 1152.32 571.52H1149.32C1149.32 600.116 1158.71 623.469 1174.91 639.676C1191.12 655.881 1214.02 664.82 1240.82 664.82V661.82ZM1152.32 571.52C1152.32 533.097 1163.85 494.258 1184.58 465.063C1205.29 435.888 1235.11 416.42 1271.78 416.42V413.42C1233.93 413.42 1203.27 433.552 1182.13 463.327C1161.01 493.082 1149.32 532.543 1149.32 571.52H1152.32ZM1271.78 416.42C1296.62 416.42 1314.87 424.657 1327.89 437.109C1340.95 449.589 1348.84 466.396 1352.76 483.652L1355.68 482.988C1351.68 465.324 1343.55 447.931 1329.97 434.941C1316.35 421.923 1297.34 413.42 1271.78 413.42V416.42ZM1353.83 481.871L1308.11 494.111L1308.89 497.009L1354.61 484.769L1353.83 481.871ZM1309.96 495.218C1307.22 483.506 1302.34 473.774 1295.42 466.952C1288.48 460.105 1279.55 456.26 1268.9 456.26V459.26C1278.77 459.26 1286.94 462.795 1293.32 469.088C1299.72 475.406 1304.38 484.574 1307.04 495.902L1309.96 495.218ZM1268.9 456.26C1248.45 456.26 1230.96 472.17 1218.68 494.061C1206.35 516.026 1199 544.45 1199 570.44H1202C1202 544.95 1209.23 517.034 1221.29 495.529C1233.4 473.95 1250.11 459.26 1268.9 459.26V456.26ZM1199 570.44C1199 586.175 1203.21 599.068 1210.98 608.051C1218.76 617.059 1230 621.98 1243.7 621.98V618.98C1230.76 618.98 1220.4 614.361 1213.24 606.089C1206.07 597.792 1202 585.665 1202 570.44H1199ZM1243.7 621.98C1260.23 621.98 1276.48 610.738 1288.16 592.86L1285.64 591.22C1274.28 608.622 1258.85 618.98 1243.7 618.98V621.98ZM1286.17 593.353L1323.97 614.233L1325.43 611.607L1287.63 590.727L1286.17 593.353ZM1323.43 612.125C1302.08 646.283 1271.94 661.82 1240.82 661.82V664.82C1273.06 664.82 1304.12 648.677 1325.97 613.715L1323.43 612.125Z" fill="black"/>
<path d="M638.478 301.673L622.618 304.979L623.399 236.683L639.258 233.377L638.478 301.673ZM675.441 293.969L659.582 297.274L660.205 243.414L646.205 246.332L646.363 231.896L690.123 222.775L689.965 237.211L675.966 240.129L675.441 293.969ZM744.577 279.558L728.033 283.007L725.755 273.062L707.155 276.939L704.635 287.883L686.916 291.577L706.982 219.261L726.072 215.282L744.577 279.558ZM722.78 259.279L716.969 234.34L710.543 261.83L722.78 259.279ZM786.006 270.923L749.099 278.615L749.88 210.319L765.739 207.014L765.116 260.874L786.164 256.487L786.006 270.923ZM809.509 266.024L793.65 269.329L794.43 201.033L810.289 197.728L809.509 266.024ZM849.066 259.004C833.795 262.187 821.141 254.406 817.855 238.645C813.468 217.597 821.869 194.19 842.916 189.803C858.188 186.62 867.008 195.609 870.929 205.109L856.767 212.147C854.543 206.379 850.338 202.864 845.051 203.966C835.164 206.026 831.413 222.335 834.024 234.866C835.575 242.306 840.568 246.168 847.03 244.821C851.043 243.985 854.739 240.15 856.402 234.9L870.321 238.945C866.316 250.608 858.269 257.086 849.066 259.004Z" fill="black"/>
<mask id="path-15-inside-1_571_191" fill="white">
<path d="M-112.109 389.097L1520.76 42.0205L1581.05 325.683L-51.815 672.76L-112.109 389.097Z"/>
</mask>
<path d="M-112.109 389.097L1520.76 42.0205L1581.05 325.683L-51.815 672.76L-112.109 389.097Z" fill="#D7D7D7"/>
<path d="M-112.109 389.097L-112.733 386.163L-115.668 386.786L-115.044 389.721L-112.109 389.097ZM1520.76 42.0205L1523.69 41.3968L1523.07 38.4623L1520.13 39.0861L1520.76 42.0205ZM1581.05 325.683L1581.68 328.618L1584.61 327.994L1583.99 325.06L1581.05 325.683ZM-51.815 672.76L-54.7494 673.384L-54.1257 676.318L-51.1913 675.694L-51.815 672.76ZM-111.486 392.031L1521.38 44.955L1520.13 39.0861L-112.733 386.163L-111.486 392.031ZM1517.82 42.6442L1578.12 326.307L1583.99 325.06L1523.69 41.3968L1517.82 42.6442ZM1580.43 322.749L-52.4387 669.825L-51.1913 675.694L1581.68 328.618L1580.43 322.749ZM-48.8805 672.136L-109.175 388.473L-115.044 389.721L-54.7494 673.384L-48.8805 672.136Z" fill="black" mask="url(#path-15-inside-1_571_191)"/>
<path d="M-243.258 637.581C-243.709 638.276 -243.512 639.205 -242.817 639.656L-231.495 647.009C-230.8 647.46 -229.871 647.263 -229.42 646.568C-228.969 645.873 -229.166 644.944 -229.861 644.493L-239.925 637.957L-233.389 627.893C-232.938 627.199 -233.136 626.27 -233.83 625.818C-234.525 625.367 -235.454 625.565 -235.905 626.259L-243.258 637.581ZM575.033 465.817C575.484 465.122 575.287 464.193 574.592 463.742L563.27 456.389C562.575 455.938 561.646 456.136 561.195 456.831C560.744 457.525 560.941 458.454 561.636 458.905L571.7 465.441L565.164 475.505C564.713 476.2 564.911 477.129 565.605 477.58C566.3 478.031 567.229 477.834 567.68 477.139L575.033 465.817ZM-241.688 639.866L-237.803 639.04L-238.427 636.106L-242.312 636.931L-241.688 639.866ZM-233.919 638.214L-226.15 636.563L-226.773 633.628L-234.543 635.28L-233.919 638.214ZM-222.265 635.737L-214.496 634.086L-215.119 631.151L-222.889 632.803L-222.265 635.737ZM-210.611 633.26L-202.842 631.609L-203.465 628.674L-211.235 630.326L-210.611 633.26ZM-198.957 630.783L-191.188 629.131L-191.812 626.197L-199.581 627.848L-198.957 630.783ZM-187.303 628.306L-179.534 626.654L-180.158 623.72L-187.927 625.371L-187.303 628.306ZM-175.649 625.829L-167.88 624.177L-168.504 621.243L-176.273 622.894L-175.649 625.829ZM-163.995 623.352L-156.226 621.7L-156.85 618.766L-164.619 620.417L-163.995 623.352ZM-152.341 620.874L-144.572 619.223L-145.196 616.289L-152.965 617.94L-152.341 620.874ZM-140.687 618.397L-132.918 616.746L-133.542 613.811L-141.311 615.463L-140.687 618.397ZM-129.033 615.92L-121.264 614.269L-121.888 611.334L-129.657 612.986L-129.033 615.92ZM-117.38 613.443L-109.61 611.792L-110.234 608.857L-118.003 610.509L-117.38 613.443ZM-105.726 610.966L-97.9563 609.315L-98.5801 606.38L-106.349 608.031L-105.726 610.966ZM-94.0717 608.489L-86.3024 606.837L-86.9261 603.903L-94.6954 605.554L-94.0717 608.489ZM-82.4177 606.012L-74.6485 604.36L-75.2722 601.426L-83.0415 603.077L-82.4177 606.012ZM-70.7638 603.535L-62.9945 601.883L-63.6183 598.949L-71.3876 600.6L-70.7638 603.535ZM-59.1099 601.057L-51.3406 599.406L-51.9643 596.472L-59.7336 598.123L-59.1099 601.057ZM-47.4559 598.58L-39.6867 596.929L-40.3104 593.994L-48.0797 595.646L-47.4559 598.58ZM-35.802 596.103L-28.0327 594.452L-28.6565 591.517L-36.4257 593.169L-35.802 596.103ZM-24.1481 593.626L-16.3788 591.975L-17.0025 589.04L-24.7718 590.692L-24.1481 593.626ZM-12.4941 591.149L-4.72486 589.498L-5.3486 586.563L-13.1179 588.215L-12.4941 591.149ZM-0.840196 588.672L6.92909 587.02L6.30535 584.086L-1.46393 585.737L-0.840196 588.672ZM10.8137 586.195L18.583 584.543L17.9593 581.609L10.19 583.26L10.8137 586.195ZM22.4677 583.718L30.237 582.066L29.6132 579.132L21.844 580.783L22.4677 583.718ZM34.1216 581.24L41.8909 579.589L41.2672 576.655L33.4979 578.306L34.1216 581.24ZM45.7756 578.763L53.5449 577.112L52.9211 574.178L45.1519 575.829L45.7756 578.763ZM57.4295 576.286L65.1988 574.635L64.5751 571.7L56.8058 573.352L57.4295 576.286ZM69.0835 573.809L76.8528 572.158L76.229 569.223L68.4597 570.875L69.0835 573.809ZM80.7374 571.332L88.5067 569.681L87.883 566.746L80.1137 568.398L80.7374 571.332ZM92.3914 568.855L100.161 567.203L99.537 564.269L91.7676 565.92L92.3914 568.855ZM104.045 566.378L111.815 564.726L111.191 561.792L103.422 563.443L104.045 566.378ZM115.699 563.901L123.469 562.249L122.845 559.315L115.076 560.966L115.699 563.901ZM127.353 561.423L135.123 559.772L134.499 556.838L126.73 558.489L127.353 561.423ZM139.007 558.946L146.776 557.295L146.153 554.361L138.383 556.012L139.007 558.946ZM150.661 556.469L158.43 554.818L157.807 551.883L150.037 553.535L150.661 556.469ZM162.315 553.992L170.084 552.341L169.461 549.406L161.691 551.058L162.315 553.992ZM173.969 551.515L181.738 549.864L181.115 546.929L173.345 548.581L173.969 551.515ZM185.623 549.038L193.392 547.386L192.769 544.452L184.999 546.103L185.623 549.038ZM197.277 546.561L205.046 544.909L204.422 541.975L196.653 543.626L197.277 546.561ZM208.931 544.084L216.7 542.432L216.076 539.498L208.307 541.149L208.931 544.084ZM220.585 541.607L228.354 539.955L227.73 537.021L219.961 538.672L220.585 541.607ZM232.239 539.129L240.008 537.478L239.384 534.544L231.615 536.195L232.239 539.129ZM243.893 536.652L251.662 535.001L251.038 532.066L243.269 533.718L243.893 536.652ZM255.547 534.175L263.316 532.524L262.692 529.589L254.923 531.241L255.547 534.175ZM267.201 531.698L274.97 530.047L274.346 527.112L266.577 528.764L267.201 531.698ZM278.855 529.221L286.624 527.569L286 524.635L278.231 526.286L278.855 529.221ZM290.509 526.744L298.278 525.092L297.654 522.158L289.885 523.809L290.509 526.744ZM302.162 524.267L309.932 522.615L309.308 519.681L301.539 521.332L302.162 524.267ZM313.816 521.79L321.586 520.138L320.962 517.204L313.193 518.855L313.816 521.79ZM325.47 519.312L333.24 517.661L332.616 514.727L324.847 516.378L325.47 519.312ZM337.124 516.835L344.894 515.184L344.27 512.249L336.501 513.901L337.124 516.835ZM348.778 514.358L356.548 512.707L355.924 509.772L348.154 511.424L348.778 514.358ZM360.432 511.881L368.202 510.23L367.578 507.295L359.808 508.947L360.432 511.881ZM372.086 509.404L379.855 507.752L379.232 504.818L371.462 506.469L372.086 509.404ZM383.74 506.927L391.509 505.275L390.886 502.341L383.116 503.992L383.74 506.927ZM395.394 504.45L403.163 502.798L402.54 499.864L394.77 501.515L395.394 504.45ZM407.048 501.973L414.817 500.321L414.194 497.387L406.424 499.038L407.048 501.973ZM418.702 499.495L426.471 497.844L425.847 494.91L418.078 496.561L418.702 499.495ZM430.356 497.018L438.125 495.367L437.501 492.432L429.732 494.084L430.356 497.018ZM442.01 494.541L449.779 492.89L449.155 489.955L441.386 491.607L442.01 494.541ZM453.664 492.064L461.433 490.413L460.809 487.478L453.04 489.13L453.664 492.064ZM465.318 489.587L473.087 487.936L472.463 485.001L464.694 486.652L465.318 489.587ZM476.972 487.11L484.741 485.458L484.117 482.524L476.348 484.175L476.972 487.11ZM488.626 484.633L496.395 482.981L495.771 480.047L488.002 481.698L488.626 484.633ZM500.28 482.156L508.049 480.504L507.425 477.57L499.656 479.221L500.28 482.156ZM511.934 479.678L519.703 478.027L519.079 475.093L511.31 476.744L511.934 479.678ZM523.587 477.201L531.357 475.55L530.733 472.615L522.964 474.267L523.587 477.201ZM535.241 474.724L543.011 473.073L542.387 470.138L534.618 471.79L535.241 474.724ZM546.895 472.247L554.665 470.596L554.041 467.661L546.272 469.313L546.895 472.247ZM558.549 469.77L566.319 468.119L565.695 465.184L557.926 466.835L558.549 469.77ZM570.203 467.293L574.087 466.467L573.463 463.533L569.58 464.358L570.203 467.293Z" fill="black"/>
<path d="M-341.258 575.581C-341.709 576.276 -341.512 577.205 -340.817 577.656L-329.495 585.009C-328.8 585.46 -327.871 585.263 -327.42 584.568C-326.969 583.873 -327.166 582.944 -327.861 582.493L-337.925 575.957L-331.389 565.893C-330.938 565.199 -331.136 564.27 -331.83 563.818C-332.525 563.367 -333.454 563.565 -333.905 564.259L-341.258 575.581ZM477.033 403.817C477.484 403.122 477.287 402.193 476.592 401.742L465.27 394.389C464.575 393.938 463.646 394.136 463.195 394.831C462.744 395.525 462.941 396.454 463.636 396.905L473.7 403.441L467.164 413.505C466.713 414.2 466.911 415.129 467.605 415.58C468.3 416.031 469.229 415.834 469.68 415.139L477.033 403.817ZM-339.688 577.866L476.087 404.467L475.463 401.533L-340.312 574.931L-339.688 577.866Z" fill="black"/>
<path d="M-243.258 670.581C-243.709 671.276 -243.512 672.205 -242.817 672.656L-231.495 680.009C-230.8 680.46 -229.871 680.263 -229.42 679.568C-228.969 678.873 -229.166 677.944 -229.861 677.493L-239.925 670.957L-233.389 660.893C-232.938 660.199 -233.136 659.27 -233.83 658.818C-234.525 658.367 -235.454 658.565 -235.905 659.259L-243.258 670.581ZM575.033 498.817C575.484 498.122 575.287 497.193 574.592 496.742L563.27 489.389C562.575 488.938 561.646 489.136 561.195 489.831C560.744 490.525 560.941 491.454 561.636 491.905L571.7 498.441L565.164 508.505C564.713 509.2 564.911 510.129 565.605 510.58C566.3 511.031 567.229 510.834 567.68 510.139L575.033 498.817ZM-241.688 672.866L-237.803 672.04L-238.427 669.106L-242.312 669.931L-241.688 672.866ZM-233.919 671.214L-226.15 669.563L-226.773 666.628L-234.543 668.28L-233.919 671.214ZM-222.265 668.737L-214.496 667.086L-215.119 664.151L-222.889 665.803L-222.265 668.737ZM-210.611 666.26L-202.842 664.609L-203.465 661.674L-211.235 663.326L-210.611 666.26ZM-198.957 663.783L-191.188 662.131L-191.812 659.197L-199.581 660.848L-198.957 663.783ZM-187.303 661.306L-179.534 659.654L-180.158 656.72L-187.927 658.371L-187.303 661.306ZM-175.649 658.829L-167.88 657.177L-168.504 654.243L-176.273 655.894L-175.649 658.829ZM-163.995 656.352L-156.226 654.7L-156.85 651.766L-164.619 653.417L-163.995 656.352ZM-152.341 653.874L-144.572 652.223L-145.196 649.289L-152.965 650.94L-152.341 653.874ZM-140.687 651.397L-132.918 649.746L-133.542 646.811L-141.311 648.463L-140.687 651.397ZM-129.033 648.92L-121.264 647.269L-121.888 644.334L-129.657 645.986L-129.033 648.92ZM-117.38 646.443L-109.61 644.792L-110.234 641.857L-118.003 643.509L-117.38 646.443ZM-105.726 643.966L-97.9563 642.315L-98.5801 639.38L-106.349 641.031L-105.726 643.966ZM-94.0717 641.489L-86.3024 639.837L-86.9261 636.903L-94.6954 638.554L-94.0717 641.489ZM-82.4177 639.012L-74.6485 637.36L-75.2722 634.426L-83.0415 636.077L-82.4177 639.012ZM-70.7638 636.535L-62.9945 634.883L-63.6183 631.949L-71.3876 633.6L-70.7638 636.535ZM-59.1099 634.057L-51.3406 632.406L-51.9643 629.472L-59.7336 631.123L-59.1099 634.057ZM-47.4559 631.58L-39.6867 629.929L-40.3104 626.994L-48.0797 628.646L-47.4559 631.58ZM-35.802 629.103L-28.0327 627.452L-28.6565 624.517L-36.4257 626.169L-35.802 629.103ZM-24.1481 626.626L-16.3788 624.975L-17.0025 622.04L-24.7718 623.692L-24.1481 626.626ZM-12.4941 624.149L-4.72486 622.498L-5.3486 619.563L-13.1179 621.215L-12.4941 624.149ZM-0.840196 621.672L6.92909 620.02L6.30535 617.086L-1.46393 618.737L-0.840196 621.672ZM10.8137 619.195L18.583 617.543L17.9593 614.609L10.19 616.26L10.8137 619.195ZM22.4677 616.718L30.237 615.066L29.6132 612.132L21.844 613.783L22.4677 616.718ZM34.1216 614.24L41.8909 612.589L41.2672 609.655L33.4979 611.306L34.1216 614.24ZM45.7756 611.763L53.5449 610.112L52.9211 607.178L45.1519 608.829L45.7756 611.763ZM57.4295 609.286L65.1988 607.635L64.5751 604.7L56.8058 606.352L57.4295 609.286ZM69.0835 606.809L76.8528 605.158L76.229 602.223L68.4597 603.875L69.0835 606.809ZM80.7374 604.332L88.5067 602.681L87.883 599.746L80.1137 601.398L80.7374 604.332ZM92.3914 601.855L100.161 600.203L99.537 597.269L91.7676 598.92L92.3914 601.855ZM104.045 599.378L111.815 597.726L111.191 594.792L103.422 596.443L104.045 599.378ZM115.699 596.901L123.469 595.249L122.845 592.315L115.076 593.966L115.699 596.901ZM127.353 594.423L135.123 592.772L134.499 589.838L126.73 591.489L127.353 594.423ZM139.007 591.946L146.776 590.295L146.153 587.361L138.383 589.012L139.007 591.946ZM150.661 589.469L158.43 587.818L157.807 584.883L150.037 586.535L150.661 589.469ZM162.315 586.992L170.084 585.341L169.461 582.406L161.691 584.058L162.315 586.992ZM173.969 584.515L181.738 582.864L181.115 579.929L173.345 581.581L173.969 584.515ZM185.623 582.038L193.392 580.386L192.769 577.452L184.999 579.103L185.623 582.038ZM197.277 579.561L205.046 577.909L204.422 574.975L196.653 576.626L197.277 579.561ZM208.931 577.084L216.7 575.432L216.076 572.498L208.307 574.149L208.931 577.084ZM220.585 574.607L228.354 572.955L227.73 570.021L219.961 571.672L220.585 574.607ZM232.239 572.129L240.008 570.478L239.384 567.544L231.615 569.195L232.239 572.129ZM243.893 569.652L251.662 568.001L251.038 565.066L243.269 566.718L243.893 569.652ZM255.547 567.175L263.316 565.524L262.692 562.589L254.923 564.241L255.547 567.175ZM267.201 564.698L274.97 563.047L274.346 560.112L266.577 561.764L267.201 564.698ZM278.855 562.221L286.624 560.569L286 557.635L278.231 559.286L278.855 562.221ZM290.509 559.744L298.278 558.092L297.654 555.158L289.885 556.809L290.509 559.744ZM302.162 557.267L309.932 555.615L309.308 552.681L301.539 554.332L302.162 557.267ZM313.816 554.79L321.586 553.138L320.962 550.204L313.193 551.855L313.816 554.79ZM325.47 552.312L333.24 550.661L332.616 547.727L324.847 549.378L325.47 552.312ZM337.124 549.835L344.894 548.184L344.27 545.249L336.501 546.901L337.124 549.835ZM348.778 547.358L356.548 545.707L355.924 542.772L348.154 544.424L348.778 547.358ZM360.432 544.881L368.202 543.23L367.578 540.295L359.808 541.947L360.432 544.881ZM372.086 542.404L379.855 540.752L379.232 537.818L371.462 539.469L372.086 542.404ZM383.74 539.927L391.509 538.275L390.886 535.341L383.116 536.992L383.74 539.927ZM395.394 537.45L403.163 535.798L402.54 532.864L394.77 534.515L395.394 537.45ZM407.048 534.973L414.817 533.321L414.194 530.387L406.424 532.038L407.048 534.973ZM418.702 532.495L426.471 530.844L425.847 527.91L418.078 529.561L418.702 532.495ZM430.356 530.018L438.125 528.367L437.501 525.432L429.732 527.084L430.356 530.018ZM442.01 527.541L449.779 525.89L449.155 522.955L441.386 524.607L442.01 527.541ZM453.664 525.064L461.433 523.413L460.809 520.478L453.04 522.13L453.664 525.064ZM465.318 522.587L473.087 520.936L472.463 518.001L464.694 519.652L465.318 522.587ZM476.972 520.11L484.741 518.458L484.117 515.524L476.348 517.175L476.972 520.11ZM488.626 517.633L496.395 515.981L495.771 513.047L488.002 514.698L488.626 517.633ZM500.28 515.156L508.049 513.504L507.425 510.57L499.656 512.221L500.28 515.156ZM511.934 512.678L519.703 511.027L519.079 508.093L511.31 509.744L511.934 512.678ZM523.587 510.201L531.357 508.55L530.733 505.615L522.964 507.267L523.587 510.201ZM535.241 507.724L543.011 506.073L542.387 503.138L534.618 504.79L535.241 507.724ZM546.895 505.247L554.665 503.596L554.041 500.661L546.272 502.313L546.895 505.247ZM558.549 502.77L566.319 501.119L565.695 498.184L557.926 499.835L558.549 502.77ZM570.203 500.293L574.087 499.467L573.463 496.533L569.58 497.358L570.203 500.293Z" fill="black"/>
<path d="M-341.258 616.581C-341.709 617.276 -341.512 618.205 -340.817 618.656L-329.495 626.009C-328.8 626.46 -327.871 626.263 -327.42 625.568C-326.969 624.873 -327.166 623.944 -327.861 623.493L-337.925 616.957L-331.389 606.893C-330.938 606.199 -331.136 605.27 -331.83 604.818C-332.525 604.367 -333.454 604.565 -333.905 605.259L-341.258 616.581ZM477.033 444.817C477.484 444.122 477.287 443.193 476.592 442.742L465.27 435.389C464.575 434.938 463.646 435.136 463.195 435.831C462.744 436.525 462.941 437.454 463.636 437.905L473.7 444.441L467.164 454.505C466.713 455.2 466.911 456.129 467.605 456.58C468.3 457.031 469.229 456.834 469.68 456.139L477.033 444.817ZM-339.688 618.866L476.087 445.467L475.463 442.533L-340.312 615.931L-339.688 618.866Z" fill="black"/>
<path d="M-643.258 544.581C-643.709 545.276 -643.512 546.205 -642.817 546.656L-631.495 554.009C-630.8 554.46 -629.871 554.263 -629.42 553.568C-628.969 552.873 -629.166 551.944 -629.861 551.493L-639.925 544.957L-633.389 534.893C-632.938 534.199 -633.136 533.27 -633.83 532.818C-634.525 532.367 -635.454 532.565 -635.905 533.259L-643.258 544.581ZM175.033 372.817C175.484 372.122 175.287 371.193 174.592 370.742L163.27 363.389C162.575 362.938 161.646 363.136 161.195 363.831C160.744 364.525 160.941 365.454 161.636 365.905L171.7 372.441L165.164 382.505C164.713 383.2 164.911 384.129 165.605 384.58C166.3 385.031 167.229 384.834 167.68 384.139L175.033 372.817ZM-641.688 546.866L174.087 373.467L173.463 370.533L-642.312 543.931L-641.688 546.866Z" fill="black"/>
<path d="M-643.258 585.581C-643.709 586.276 -643.512 587.205 -642.817 587.656L-631.495 595.009C-630.8 595.46 -629.871 595.263 -629.42 594.568C-628.969 593.873 -629.166 592.944 -629.861 592.493L-639.925 585.957L-633.389 575.893C-632.938 575.199 -633.136 574.27 -633.83 573.818C-634.525 573.367 -635.454 573.565 -635.905 574.259L-643.258 585.581ZM175.033 413.817C175.484 413.122 175.287 412.193 174.592 411.742L163.27 404.389C162.575 403.938 161.646 404.136 161.195 404.831C160.744 405.525 160.941 406.454 161.636 406.905L171.7 413.441L165.164 423.505C164.713 424.2 164.911 425.129 165.605 425.58C166.3 426.031 167.229 425.834 167.68 425.139L175.033 413.817ZM-641.688 587.866L174.087 414.467L173.463 411.533L-642.312 584.931L-641.688 587.866Z" fill="black"/>
<path d="M894 213.398L1709.78 40.0001" stroke="black" stroke-width="3"/>
<path d="M894 254.398L1709.78 81.0001" stroke="black" stroke-width="3"/>
<path d="M1117 261.398L1932.78 88.0001" stroke="black" stroke-width="3"/>
<path d="M1117 302.398L1932.78 129" stroke="black" stroke-width="3"/>
<path d="M1064 361.398L1879.78 188" stroke="black" stroke-width="3" stroke-dasharray="8 4"/>
<path d="M1017 406.398L1832.78 233" stroke="black" stroke-width="3" stroke-dasharray="8 4"/>
</g>
</svg>
