<svg width="1280" height="1158" viewBox="0 0 1280 1158" fill="none" xmlns="http://www.w3.org/2000/svg">
<mask id="mask0_656_1222" style="mask-type:alpha" maskUnits="userSpaceOnUse" x="0" y="0" width="1280" height="1158">
<rect width="1280" height="1158" fill="#D9D9D9"/>
</mask>
<g mask="url(#mask0_656_1222)">
<mask id="path-2-inside-1_656_1222" fill="white">
<path fill-rule="evenodd" clip-rule="evenodd" d="M1299.71 632.507C1337.02 628.223 1366 596.553 1366 558.12C1366 516.765 1332.45 483.24 1291.07 483.24C1274.31 483.24 1258.84 488.736 1246.36 498.022C1234.37 451.43 1192.05 417 1141.68 417C1086.19 417 1040.47 458.78 1034.31 512.574C1022.95 503.812 1008.71 498.6 993.249 498.6C956.108 498.6 926 528.687 926 565.8C926 601.949 954.563 631.431 990.367 632.939V633H993.249H1299.71V632.507Z"/>
</mask>
<path fill-rule="evenodd" clip-rule="evenodd" d="M1299.71 632.507C1337.02 628.223 1366 596.553 1366 558.12C1366 516.765 1332.45 483.24 1291.07 483.24C1274.31 483.24 1258.84 488.736 1246.36 498.022C1234.37 451.43 1192.05 417 1141.68 417C1086.19 417 1040.47 458.78 1034.31 512.574C1022.95 503.812 1008.71 498.6 993.249 498.6C956.108 498.6 926 528.687 926 565.8C926 601.949 954.563 631.431 990.367 632.939V633H993.249H1299.71V632.507Z" fill="white"/>
<path d="M1299.71 632.507L1299.37 629.526L1296.71 629.832V632.507H1299.71ZM1246.36 498.022L1243.45 498.77L1244.56 503.095L1248.15 500.429L1246.36 498.022ZM1034.31 512.574L1032.47 514.949L1036.68 518.195L1037.29 512.915L1034.31 512.574ZM990.367 632.939H993.367V630.063L990.493 629.942L990.367 632.939ZM990.367 633H987.367V636H990.367V633ZM1299.71 633V636H1302.71V633H1299.71ZM1300.05 635.487C1338.86 631.032 1369 598.097 1369 558.12H1363C1363 595.009 1335.19 625.414 1299.37 629.526L1300.05 635.487ZM1369 558.12C1369 515.106 1334.11 480.24 1291.07 480.24V486.24C1330.8 486.24 1363 518.424 1363 558.12H1369ZM1291.07 480.24C1273.64 480.24 1257.55 485.957 1244.57 495.616L1248.15 500.429C1260.13 491.515 1274.98 486.24 1291.07 486.24V480.24ZM1249.26 497.275C1236.94 449.388 1193.45 414 1141.68 414V420C1190.64 420 1231.79 453.472 1243.45 498.77L1249.26 497.275ZM1141.68 414C1084.65 414 1037.66 456.939 1031.33 512.232L1037.29 512.915C1043.28 460.62 1087.73 420 1141.68 420V414ZM1036.14 510.198C1024.27 501.046 1009.39 495.6 993.249 495.6V501.6C1008.02 501.6 1021.62 506.578 1032.47 514.949L1036.14 510.198ZM993.249 495.6C954.454 495.6 923 527.028 923 565.8H929C929 530.345 957.763 501.6 993.249 501.6V495.6ZM923 565.8C923 603.565 952.839 634.361 990.24 635.937L990.493 629.942C956.287 628.501 929 600.332 929 565.8H923ZM993.367 633V632.939H987.367V633H993.367ZM993.249 630H990.367V636H993.249V630ZM1299.71 630H993.249V636H1299.71V630ZM1296.71 632.507V633H1302.71V632.507H1296.71Z" fill="black" mask="url(#path-2-inside-1_656_1222)"/>
<mask id="path-4-inside-2_656_1222" fill="white">
<path fill-rule="evenodd" clip-rule="evenodd" d="M541.712 788.507C579.024 784.223 608 752.553 608 714.12C608 672.765 574.451 639.24 533.065 639.24C516.309 639.24 500.837 644.736 488.356 654.022C476.366 607.43 434.045 573 383.677 573C328.192 573 282.473 614.78 276.306 668.574C264.948 659.812 250.707 654.6 235.249 654.6C198.108 654.6 168 684.687 168 721.8C168 757.949 196.563 787.431 232.367 788.939V789H235.249H541.712V788.507Z"/>
</mask>
<path fill-rule="evenodd" clip-rule="evenodd" d="M541.712 788.507C579.024 784.223 608 752.553 608 714.12C608 672.765 574.451 639.24 533.065 639.24C516.309 639.24 500.837 644.736 488.356 654.022C476.366 607.43 434.045 573 383.677 573C328.192 573 282.473 614.78 276.306 668.574C264.948 659.812 250.707 654.6 235.249 654.6C198.108 654.6 168 684.687 168 721.8C168 757.949 196.563 787.431 232.367 788.939V789H235.249H541.712V788.507Z" fill="white"/>
<path d="M541.712 788.507L541.369 785.526L538.712 785.832V788.507H541.712ZM488.356 654.022L485.451 654.77L486.564 659.095L490.147 656.429L488.356 654.022ZM276.306 668.574L274.474 670.949L278.681 674.195L279.286 668.915L276.306 668.574ZM232.367 788.939H235.367V786.063L232.493 785.942L232.367 788.939ZM232.367 789H229.367V792H232.367V789ZM541.712 789V792H544.712V789H541.712ZM542.054 791.487C580.862 787.032 611 754.097 611 714.12H605C605 751.009 577.187 781.414 541.369 785.526L542.054 791.487ZM611 714.12C611 671.106 576.105 636.24 533.065 636.24V642.24C572.796 642.24 605 674.424 605 714.12H611ZM533.065 636.24C515.642 636.24 499.546 641.957 486.565 651.616L490.147 656.429C502.128 647.515 516.976 642.24 533.065 642.24V636.24ZM491.262 653.275C478.938 605.388 435.446 570 383.677 570V576C432.645 576 473.794 609.472 485.451 654.77L491.262 653.275ZM383.677 570C326.652 570 279.664 612.939 273.325 668.232L279.286 668.915C285.282 616.62 329.733 576 383.677 576V570ZM278.138 666.198C266.273 657.046 251.393 651.6 235.249 651.6V657.6C250.022 657.6 263.622 662.578 274.474 670.949L278.138 666.198ZM235.249 651.6C196.454 651.6 165 683.028 165 721.8H171C171 686.345 199.763 657.6 235.249 657.6V651.6ZM165 721.8C165 759.565 194.839 790.361 232.24 791.937L232.493 785.942C198.287 784.501 171 756.332 171 721.8H165ZM235.367 789V788.939H229.367V789H235.367ZM235.249 786H232.367V792H235.249V786ZM541.712 786H235.249V792H541.712V786ZM538.712 788.507V789H544.712V788.507H538.712Z" fill="black" mask="url(#path-4-inside-2_656_1222)"/>
<mask id="path-6-inside-3_656_1222" fill="white">
<path fill-rule="evenodd" clip-rule="evenodd" d="M208.712 511.507C246.024 507.223 275 475.553 275 437.12C275 395.765 241.451 362.24 200.065 362.24C183.309 362.24 167.837 367.736 155.356 377.022C143.366 330.43 101.045 296 50.6768 296C-4.80772 296 -50.527 337.78 -56.6941 391.574C-68.0523 382.812 -82.2926 377.6 -97.7511 377.6C-134.892 377.6 -165 407.687 -165 444.8C-165 480.949 -136.437 510.431 -100.633 511.939V512H-97.7511H208.712V511.507Z"/>
</mask>
<path fill-rule="evenodd" clip-rule="evenodd" d="M208.712 511.507C246.024 507.223 275 475.553 275 437.12C275 395.765 241.451 362.24 200.065 362.24C183.309 362.24 167.837 367.736 155.356 377.022C143.366 330.43 101.045 296 50.6768 296C-4.80772 296 -50.527 337.78 -56.6941 391.574C-68.0523 382.812 -82.2926 377.6 -97.7511 377.6C-134.892 377.6 -165 407.687 -165 444.8C-165 480.949 -136.437 510.431 -100.633 511.939V512H-97.7511H208.712V511.507Z" fill="white"/>
<path d="M208.712 511.507L208.369 508.526L205.712 508.832V511.507H208.712ZM155.356 377.022L152.451 377.77L153.564 382.095L157.147 379.429L155.356 377.022ZM-56.6941 391.574L-58.5264 393.949L-54.3189 397.195L-53.7136 391.915L-56.6941 391.574ZM-100.633 511.939H-97.6333V509.063L-100.507 508.942L-100.633 511.939ZM-100.633 512H-103.633V515H-100.633V512ZM208.712 512V515H211.712V512H208.712ZM209.054 514.487C247.862 510.032 278 477.097 278 437.12H272C272 474.009 244.187 504.414 208.369 508.526L209.054 514.487ZM278 437.12C278 394.106 243.105 359.24 200.065 359.24V365.24C239.796 365.24 272 397.424 272 437.12H278ZM200.065 359.24C182.642 359.24 166.546 364.957 153.565 374.616L157.147 379.429C169.128 370.515 183.976 365.24 200.065 365.24V359.24ZM158.262 376.275C145.938 328.388 102.446 293 50.6768 293V299C99.6445 299 140.794 332.472 152.451 377.77L158.262 376.275ZM50.6768 293C-6.34812 293 -53.3357 335.939 -59.6746 391.232L-53.7136 391.915C-47.7184 339.62 -3.26733 299 50.6768 299V293ZM-54.8618 389.198C-66.7266 380.046 -81.6068 374.6 -97.7511 374.6V380.6C-82.9784 380.6 -69.378 385.578 -58.5264 393.949L-54.8618 389.198ZM-97.7511 374.6C-136.546 374.6 -168 406.028 -168 444.8H-162C-162 409.345 -133.237 380.6 -97.7511 380.6V374.6ZM-168 444.8C-168 482.565 -138.161 513.361 -100.76 514.937L-100.507 508.942C-134.713 507.501 -162 479.332 -162 444.8H-168ZM-97.6333 512V511.939H-103.633V512H-97.6333ZM-97.7511 509H-100.633V515H-97.7511V509ZM208.712 509H-97.7511V515H208.712V509ZM205.712 511.507V512H211.712V511.507H205.712Z" fill="black" mask="url(#path-6-inside-3_656_1222)"/>
<mask id="path-8-inside-4_656_1222" fill="white">
<path fill-rule="evenodd" clip-rule="evenodd" d="M1161.71 237.507C1199.02 233.223 1228 201.553 1228 163.12C1228 121.765 1194.45 88.2399 1153.07 88.2399C1136.31 88.2399 1120.84 93.7359 1108.36 103.022C1096.37 56.4299 1054.05 22 1003.68 22C948.192 22 902.473 63.7796 896.306 117.574C884.948 108.812 870.707 103.6 855.249 103.6C818.108 103.6 788 133.687 788 170.8C788 206.949 816.563 236.431 852.367 237.939V238H855.249H1161.71V237.507Z"/>
</mask>
<path fill-rule="evenodd" clip-rule="evenodd" d="M1161.71 237.507C1199.02 233.223 1228 201.553 1228 163.12C1228 121.765 1194.45 88.2399 1153.07 88.2399C1136.31 88.2399 1120.84 93.7359 1108.36 103.022C1096.37 56.4299 1054.05 22 1003.68 22C948.192 22 902.473 63.7796 896.306 117.574C884.948 108.812 870.707 103.6 855.249 103.6C818.108 103.6 788 133.687 788 170.8C788 206.949 816.563 236.431 852.367 237.939V238H855.249H1161.71V237.507Z" fill="white"/>
<path d="M1161.71 237.507L1161.37 234.526L1158.71 234.832V237.507H1161.71ZM1108.36 103.022L1105.45 103.77L1106.56 108.095L1110.15 105.429L1108.36 103.022ZM896.306 117.574L894.474 119.949L898.681 123.195L899.286 117.915L896.306 117.574ZM852.367 237.939H855.367V235.063L852.493 234.942L852.367 237.939ZM852.367 238H849.367V241H852.367V238ZM1161.71 238V241H1164.71V238H1161.71ZM1162.05 240.487C1200.86 236.032 1231 203.097 1231 163.12H1225C1225 200.009 1197.19 230.414 1161.37 234.526L1162.05 240.487ZM1231 163.12C1231 120.106 1196.11 85.2399 1153.07 85.2399V91.2399C1192.8 91.2399 1225 123.424 1225 163.12H1231ZM1153.07 85.2399C1135.64 85.2399 1119.55 90.957 1106.57 100.616L1110.15 105.429C1122.13 96.5148 1136.98 91.2399 1153.07 91.2399V85.2399ZM1111.26 102.275C1098.94 54.3876 1055.45 19 1003.68 19V25C1052.64 25 1093.79 58.4722 1105.45 103.77L1111.26 102.275ZM1003.68 19C946.652 19 899.664 61.9389 893.325 117.232L899.286 117.915C905.282 65.6204 949.733 25 1003.68 25V19ZM898.138 115.198C886.273 106.046 871.393 100.6 855.249 100.6V106.6C870.022 106.6 883.622 111.578 894.474 119.949L898.138 115.198ZM855.249 100.6C816.454 100.6 785 132.028 785 170.8H791C791 135.345 819.763 106.6 855.249 106.6V100.6ZM785 170.8C785 208.565 814.839 239.361 852.24 240.937L852.493 234.942C818.287 233.501 791 205.332 791 170.8H785ZM855.367 238V237.939H849.367V238H855.367ZM855.249 235H852.367V241H855.249V235ZM1161.71 235H855.249V241H1161.71V235ZM1158.71 237.507V238H1164.71V237.507H1158.71Z" fill="black" mask="url(#path-8-inside-4_656_1222)"/>
</g>
</svg>
