<svg width="41" height="41" viewBox="0 0 41 41" fill="none" xmlns="http://www.w3.org/2000/svg">
<circle cx="20.5" cy="20.5" r="20.5" fill="#A5D912"/>
<path d="M22.5 8C22.5 7.17157 21.8284 6.5 21 6.5C20.1716 6.5 19.5 7.17157 19.5 8H22.5ZM19.9393 34.0607C20.5251 34.6464 21.4749 34.6464 22.0607 34.0607L31.6066 24.5147C32.1924 23.9289 32.1924 22.9792 31.6066 22.3934C31.0208 21.8076 30.0711 21.8076 29.4853 22.3934L21 30.8787L12.5147 22.3934C11.9289 21.8076 10.9792 21.8076 10.3934 22.3934C9.80761 22.9792 9.80761 23.9289 10.3934 24.5147L19.9393 34.0607ZM19.5 8V33H22.5V8H19.5Z" fill="black"/>
</svg>
