<svg width="889" height="234" viewBox="0 0 889 234" fill="none" xmlns="http://www.w3.org/2000/svg">
<path d="M459.653 84.9741L447.812 117.109" stroke="black" stroke-width="2" stroke-linecap="round" stroke-dasharray="4 4"/>
<path d="M464.93 86.9143L451.1 124.447" stroke="black" stroke-width="2" stroke-linecap="round" stroke-dasharray="4 4"/>
<path d="M470.191 88.8564L458.35 120.992" stroke="black" stroke-width="2" stroke-linecap="round" stroke-dasharray="4 4"/>
<rect x="2" y="174" width="886" height="31" fill="#D7D7D7" stroke="black" stroke-width="2"/>
<rect x="2" y="1" width="126" height="232" stroke="black" stroke-width="2"/>
<rect x="128" y="1" width="128" height="232" stroke="black" stroke-width="2"/>
<rect x="256" y="1" width="126" height="232" stroke="black" stroke-width="2"/>
<rect x="382" y="1" width="126" height="232" stroke="black" stroke-width="2"/>
<rect x="508" y="1" width="126" height="232" stroke="black" stroke-width="2"/>
<rect x="634" y="1" width="128" height="232" stroke="black" stroke-width="2"/>
<rect x="762" y="1" width="126" height="232" stroke="black" stroke-width="2"/>
<mask id="path-12-outside-1_550_64" maskUnits="userSpaceOnUse" x="148" y="59" width="82" height="80" fill="black">
<rect fill="white" x="148" y="59" width="82" height="80"/>
<path d="M189.52 136.296C167.488 136.296 150.964 120.96 150.964 99.036C150.964 77.112 167.488 61.776 189.52 61.776C211.552 61.776 227.968 77.112 227.968 99.036C227.968 120.96 211.552 136.296 189.52 136.296ZM189.52 119.88C201.4 119.88 209.068 110.7 209.068 99.036C209.068 87.264 201.4 78.192 189.52 78.192C177.532 78.192 169.864 87.264 169.864 99.036C169.864 110.7 177.532 119.88 189.52 119.88Z"/>
</mask>
<path d="M189.52 136.296C167.488 136.296 150.964 120.96 150.964 99.036C150.964 77.112 167.488 61.776 189.52 61.776C211.552 61.776 227.968 77.112 227.968 99.036C227.968 120.96 211.552 136.296 189.52 136.296ZM189.52 119.88C201.4 119.88 209.068 110.7 209.068 99.036C209.068 87.264 201.4 78.192 189.52 78.192C177.532 78.192 169.864 87.264 169.864 99.036C169.864 110.7 177.532 119.88 189.52 119.88Z" fill="#569DFD"/>
<path d="M189.52 134.296C168.505 134.296 152.964 119.769 152.964 99.036H148.964C148.964 122.151 166.472 138.296 189.52 138.296V134.296ZM152.964 99.036C152.964 78.3025 168.505 63.776 189.52 63.776V59.776C166.472 59.776 148.964 75.9215 148.964 99.036H152.964ZM189.52 63.776C210.528 63.776 225.968 78.2953 225.968 99.036H229.968C229.968 75.9287 212.576 59.776 189.52 59.776V63.776ZM225.968 99.036C225.968 119.777 210.528 134.296 189.52 134.296V138.296C212.576 138.296 229.968 122.143 229.968 99.036H225.968ZM189.52 121.88C202.685 121.88 211.068 111.615 211.068 99.036H207.068C207.068 109.785 200.115 117.88 189.52 117.88V121.88ZM211.068 99.036C211.068 92.719 209.008 87.0079 205.229 82.8536C201.433 78.6809 196.001 76.192 189.52 76.192V80.192C194.92 80.192 199.262 82.2391 202.27 85.5454C205.294 88.8701 207.068 93.581 207.068 99.036H211.068ZM189.52 76.192C182.991 76.192 177.532 78.677 173.72 82.8507C169.925 87.0061 167.864 92.7189 167.864 99.036H171.864C171.864 93.5811 173.638 88.8719 176.673 85.5483C179.692 82.243 184.061 80.192 189.52 80.192V76.192ZM167.864 99.036C167.864 105.303 169.927 111.013 173.718 115.178C177.526 119.363 182.984 121.88 189.52 121.88V117.88C184.069 117.88 179.699 115.807 176.676 112.486C173.636 109.145 171.864 104.433 171.864 99.036H167.864Z" fill="black" mask="url(#path-12-outside-1_550_64)"/>
<mask id="path-14-outside-2_550_64" maskUnits="userSpaceOnUse" x="30" y="60" width="70" height="77" fill="black">
<rect fill="white" x="30" y="60" width="70" height="77"/>
<path d="M54.2008 135L54.3088 79.056L32.4928 79.164L34.3288 62.964H94.7008L97.2928 79.164L74.1808 79.056V135H54.2008Z"/>
</mask>
<path d="M54.2008 135L54.3088 79.056L32.4928 79.164L34.3288 62.964H94.7008L97.2928 79.164L74.1808 79.056V135H54.2008Z" fill="#569DFD"/>
<path d="M54.2008 135L52.2008 134.996L52.1969 137H54.2008V135ZM54.3088 79.056L56.3088 79.0599L56.3127 77.0461L54.2989 77.056L54.3088 79.056ZM32.4928 79.164L30.5055 78.9388L30.252 81.1751L32.5027 81.164L32.4928 79.164ZM34.3288 62.964V60.964H32.5426L32.3415 62.7388L34.3288 62.964ZM94.7008 62.964L96.6756 62.648L96.4062 60.964H94.7008V62.964ZM97.2928 79.164L97.2834 81.164L99.64 81.175L99.2676 78.848L97.2928 79.164ZM74.1808 79.056L74.1901 77.056L72.1808 77.0466V79.056H74.1808ZM74.1808 135V137H76.1808V135H74.1808ZM56.2008 135.004L56.3088 79.0599L52.3088 79.0521L52.2008 134.996L56.2008 135.004ZM54.2989 77.056L32.4829 77.164L32.5027 81.164L54.3187 81.056L54.2989 77.056ZM34.48 79.3892L36.316 63.1892L32.3415 62.7388L30.5055 78.9388L34.48 79.3892ZM34.3288 64.964H94.7008V60.964H34.3288V64.964ZM92.7259 63.28L95.3179 79.48L99.2676 78.848L96.6756 62.648L92.7259 63.28ZM97.3021 77.164L74.1901 77.056L74.1714 81.056L97.2834 81.164L97.3021 77.164ZM72.1808 79.056V135H76.1808V79.056H72.1808ZM74.1808 133H54.2008V137H74.1808V133Z" fill="black" mask="url(#path-14-outside-2_550_64)"/>
<mask id="path-16-outside-3_550_64" maskUnits="userSpaceOnUse" x="277" y="60" width="74" height="79" fill="black">
<rect fill="white" x="277" y="60" width="74" height="79"/>
<path d="M279.31 136.296V122.688C286.546 122.688 290.758 118.8 293.026 99.792L297.238 62.964H348.43V135H332.986V76.464H311.062L308.254 100.872C304.798 130.788 293.998 136.296 279.31 136.296Z"/>
</mask>
<path d="M279.31 136.296V122.688C286.546 122.688 290.758 118.8 293.026 99.792L297.238 62.964H348.43V135H332.986V76.464H311.062L308.254 100.872C304.798 130.788 293.998 136.296 279.31 136.296Z" fill="#569DFD"/>
<path d="M279.31 136.296H277.31V138.296H279.31V136.296ZM279.31 122.688V120.688H277.31V122.688H279.31ZM293.026 99.792L295.012 100.029L295.013 100.019L293.026 99.792ZM297.238 62.964V60.964H295.454L295.251 62.7367L297.238 62.964ZM348.43 62.964H350.43V60.964H348.43V62.964ZM348.43 135V137H350.43V135H348.43ZM332.986 135H330.986V137H332.986V135ZM332.986 76.464H334.986V74.464H332.986V76.464ZM311.062 76.464V74.464H309.279L309.075 76.2354L311.062 76.464ZM308.254 100.872L310.241 101.102L310.241 101.101L308.254 100.872ZM281.31 136.296V122.688H277.31V136.296H281.31ZM279.31 124.688C281.288 124.688 283.22 124.424 285.018 123.603C286.842 122.769 288.391 121.425 289.693 119.48C292.219 115.706 293.875 109.561 295.012 100.029L291.04 99.555C289.909 109.031 288.324 114.334 286.369 117.256C285.43 118.659 284.428 119.475 283.356 119.964C282.258 120.466 280.95 120.688 279.31 120.688V124.688ZM295.013 100.019L299.225 63.1913L295.251 62.7367L291.039 99.5647L295.013 100.019ZM297.238 64.964H348.43V60.964H297.238V64.964ZM346.43 62.964V135H350.43V62.964H346.43ZM348.43 133H332.986V137H348.43V133ZM334.986 135V76.464H330.986V135H334.986ZM332.986 74.464H311.062V78.464H332.986V74.464ZM309.075 76.2354L306.267 100.643L310.241 101.101L313.049 76.6926L309.075 76.2354ZM306.267 100.642C304.556 115.455 301.064 123.77 296.559 128.409C292.139 132.962 286.421 134.296 279.31 134.296V138.296C286.887 138.296 293.913 136.876 299.429 131.196C304.86 125.602 308.496 116.205 310.241 101.102L306.267 100.642Z" fill="black" mask="url(#path-16-outside-3_550_64)"/>
<mask id="path-18-outside-4_550_64" maskUnits="userSpaceOnUse" x="395" y="60" width="99" height="91" fill="black">
<rect fill="white" x="395" y="60" width="99" height="91"/>
<path d="M472.177 62.964H484.813V123.876H491.509V148.284H478.873V135H397.225V62.964H409.861V123.876H434.701V62.964H447.337V123.876H472.177V62.964Z"/>
</mask>
<path d="M472.177 62.964H484.813V123.876H491.509V148.284H478.873V135H397.225V62.964H409.861V123.876H434.701V62.964H447.337V123.876H472.177V62.964Z" fill="#569DFD"/>
<path d="M472.177 62.964V60.964H470.177V62.964H472.177ZM484.813 62.964H486.813V60.964H484.813V62.964ZM484.813 123.876H482.813V125.876H484.813V123.876ZM491.509 123.876H493.509V121.876H491.509V123.876ZM491.509 148.284V150.284H493.509V148.284H491.509ZM478.873 148.284H476.873V150.284H478.873V148.284ZM478.873 135H480.873V133H478.873V135ZM397.225 135H395.225V137H397.225V135ZM397.225 62.964V60.964H395.225V62.964H397.225ZM409.861 62.964H411.861V60.964H409.861V62.964ZM409.861 123.876H407.861V125.876H409.861V123.876ZM434.701 123.876V125.876H436.701V123.876H434.701ZM434.701 62.964V60.964H432.701V62.964H434.701ZM447.337 62.964H449.337V60.964H447.337V62.964ZM447.337 123.876H445.337V125.876H447.337V123.876ZM472.177 123.876V125.876H474.177V123.876H472.177ZM472.177 64.964H484.813V60.964H472.177V64.964ZM482.813 62.964V123.876H486.813V62.964H482.813ZM484.813 125.876H491.509V121.876H484.813V125.876ZM489.509 123.876V148.284H493.509V123.876H489.509ZM491.509 146.284H478.873V150.284H491.509V146.284ZM480.873 148.284V135H476.873V148.284H480.873ZM478.873 133H397.225V137H478.873V133ZM399.225 135V62.964H395.225V135H399.225ZM397.225 64.964H409.861V60.964H397.225V64.964ZM407.861 62.964V123.876H411.861V62.964H407.861ZM409.861 125.876H434.701V121.876H409.861V125.876ZM436.701 123.876V62.964H432.701V123.876H436.701ZM434.701 64.964H447.337V60.964H434.701V64.964ZM445.337 62.964V123.876H449.337V62.964H445.337ZM447.337 125.876H472.177V121.876H447.337V125.876ZM474.177 123.876V62.964H470.177V123.876H474.177Z" fill="black" mask="url(#path-18-outside-4_550_64)"/>
<mask id="path-20-outside-5_550_64" maskUnits="userSpaceOnUse" x="665" y="60" width="63" height="77" fill="black">
<rect fill="white" x="665" y="60" width="63" height="77"/>
<path d="M725.599 135H719.335V100.764H673.651V135H667.495V62.964H673.651V95.148H719.335V62.964H725.599V135Z"/>
</mask>
<path d="M725.599 135H719.335V100.764H673.651V135H667.495V62.964H673.651V95.148H719.335V62.964H725.599V135Z" fill="#569DFD"/>
<path d="M725.599 135V137H727.599V135H725.599ZM719.335 135H717.335V137H719.335V135ZM719.335 100.764H721.335V98.764H719.335V100.764ZM673.651 100.764V98.764H671.651V100.764H673.651ZM673.651 135V137H675.651V135H673.651ZM667.495 135H665.495V137H667.495V135ZM667.495 62.964V60.964H665.495V62.964H667.495ZM673.651 62.964H675.651V60.964H673.651V62.964ZM673.651 95.148H671.651V97.148H673.651V95.148ZM719.335 95.148V97.148H721.335V95.148H719.335ZM719.335 62.964V60.964H717.335V62.964H719.335ZM725.599 62.964H727.599V60.964H725.599V62.964ZM725.599 133H719.335V137H725.599V133ZM721.335 135V100.764H717.335V135H721.335ZM719.335 98.764H673.651V102.764H719.335V98.764ZM671.651 100.764V135H675.651V100.764H671.651ZM673.651 133H667.495V137H673.651V133ZM669.495 135V62.964H665.495V135H669.495ZM667.495 64.964H673.651V60.964H667.495V64.964ZM671.651 62.964V95.148H675.651V62.964H671.651ZM673.651 97.148H719.335V93.148H673.651V97.148ZM721.335 95.148V62.964H717.335V95.148H721.335ZM719.335 64.964H725.599V60.964H719.335V64.964ZM723.599 62.964V135H727.599V62.964H723.599Z" fill="black" mask="url(#path-20-outside-5_550_64)"/>
<mask id="path-22-outside-6_550_64" maskUnits="userSpaceOnUse" x="537" y="60" width="64" height="77" fill="black">
<rect fill="white" x="537" y="60" width="64" height="77"/>
<path d="M547.832 135H539.192V62.964H548.156V119.232L589.628 62.964H598.808V135H589.844V77.544L547.832 135Z"/>
</mask>
<path d="M547.832 135H539.192V62.964H548.156V119.232L589.628 62.964H598.808V135H589.844V77.544L547.832 135Z" fill="#569DFD"/>
<path d="M547.832 135V137H548.847L549.446 136.18L547.832 135ZM539.192 135H537.192V137H539.192V135ZM539.192 62.964V60.964H537.192V62.964H539.192ZM548.156 62.964H550.156V60.964H548.156V62.964ZM548.156 119.232H546.156V125.316L549.766 120.419L548.156 119.232ZM589.628 62.964V60.964H588.617L588.018 61.7774L589.628 62.964ZM598.808 62.964H600.808V60.964H598.808V62.964ZM598.808 135V137H600.808V135H598.808ZM589.844 135H587.844V137H589.844V135ZM589.844 77.544H591.844V71.4204L588.229 76.3635L589.844 77.544ZM547.832 133H539.192V137H547.832V133ZM541.192 135V62.964H537.192V135H541.192ZM539.192 64.964H548.156V60.964H539.192V64.964ZM546.156 62.964V119.232H550.156V62.964H546.156ZM549.766 120.419L591.238 64.1506L588.018 61.7774L546.546 118.045L549.766 120.419ZM589.628 64.964H598.808V60.964H589.628V64.964ZM596.808 62.964V135H600.808V62.964H596.808ZM598.808 133H589.844V137H598.808V133ZM591.844 135V77.544H587.844V135H591.844ZM588.229 76.3635L546.217 133.82L549.446 136.18L591.458 78.7245L588.229 76.3635Z" fill="black" mask="url(#path-22-outside-6_550_64)"/>
<mask id="path-24-outside-7_550_64" maskUnits="userSpaceOnUse" x="789" y="60" width="70" height="79" fill="black">
<rect fill="white" x="789" y="60" width="70" height="79"/>
<path d="M805.837 136.296C800.329 136.296 795.901 134.028 792.769 129.384L795.577 127.116C797.953 130.572 801.085 133.056 805.837 133.056C811.237 133.056 813.613 130.14 818.257 121.716L821.929 114.912L793.309 62.964H797.305L823.981 111.348L850.657 62.964H854.653L821.281 123.336C816.637 131.868 812.965 136.296 805.837 136.296Z"/>
</mask>
<path d="M805.837 136.296C800.329 136.296 795.901 134.028 792.769 129.384L795.577 127.116C797.953 130.572 801.085 133.056 805.837 133.056C811.237 133.056 813.613 130.14 818.257 121.716L821.929 114.912L793.309 62.964H797.305L823.981 111.348L850.657 62.964H854.653L821.281 123.336C816.637 131.868 812.965 136.296 805.837 136.296Z" fill="#569DFD"/>
<path d="M792.769 129.384L791.512 127.828L790.085 128.981L791.111 130.502L792.769 129.384ZM795.577 127.116L797.225 125.983L796.001 124.203L794.32 125.56L795.577 127.116ZM818.257 121.716L820.008 122.682L820.013 122.674L820.017 122.666L818.257 121.716ZM821.929 114.912L823.689 115.862L824.207 114.902L823.681 113.947L821.929 114.912ZM793.309 62.964V60.964H789.924L791.557 63.9291L793.309 62.964ZM797.305 62.964L799.056 61.9984L798.486 60.964H797.305V62.964ZM823.981 111.348L822.23 112.314L823.981 115.49L825.732 112.314L823.981 111.348ZM850.657 62.964V60.964H849.476L848.906 61.9984L850.657 62.964ZM854.653 62.964L856.403 63.9316L858.044 60.964H854.653V62.964ZM821.281 123.336L819.531 122.368L819.524 122.38L821.281 123.336ZM805.837 134.296C800.977 134.296 797.178 132.345 794.427 128.266L791.111 130.502C794.624 135.711 799.681 138.296 805.837 138.296V134.296ZM794.026 130.94L796.834 128.672L794.32 125.56L791.512 127.828L794.026 130.94ZM793.929 128.249C796.537 132.042 800.211 135.056 805.837 135.056V131.056C801.959 131.056 799.369 129.102 797.225 125.983L793.929 128.249ZM805.837 135.056C809.005 135.056 811.462 134.159 813.718 131.985C815.818 129.962 817.705 126.86 820.008 122.682L816.506 120.75C814.165 124.996 812.542 127.564 810.943 129.105C809.5 130.495 808.069 131.056 805.837 131.056V135.056ZM820.017 122.666L823.689 115.862L820.169 113.962L816.497 120.766L820.017 122.666ZM823.681 113.947L795.061 61.9989L791.557 63.9291L820.177 115.877L823.681 113.947ZM793.309 64.964H797.305V60.964H793.309V64.964ZM795.554 63.9296L822.23 112.314L825.732 110.382L799.056 61.9984L795.554 63.9296ZM825.732 112.314L852.408 63.9296L848.906 61.9984L822.23 110.382L825.732 112.314ZM850.657 64.964H854.653V60.964H850.657V64.964ZM852.903 61.9964L819.531 122.368L823.031 124.304L856.403 63.9316L852.903 61.9964ZM819.524 122.38C817.211 126.63 815.265 129.607 813.145 131.536C811.124 133.374 808.904 134.296 805.837 134.296V138.296C809.898 138.296 813.078 137.004 815.836 134.495C818.495 132.077 820.707 128.574 823.038 124.292L819.524 122.38Z" fill="black" mask="url(#path-24-outside-7_550_64)"/>
<path d="M55.9213 24H52.6453V10.14L46.9053 24H45.5053L39.7933 10.14V24H36.5173V5.324H41.1373L46.2053 17.616L51.3013 5.324H55.9213V24ZM75.4642 21.62C73.6722 23.4307 71.3855 24.336 68.6042 24.336C65.8229 24.336 63.5362 23.4307 61.7442 21.62C59.9522 19.7907 59.0562 17.476 59.0562 14.676C59.0562 11.876 59.9522 9.57067 61.7442 7.76C63.5362 5.93067 65.8229 5.016 68.6042 5.016C71.3855 5.016 73.6722 5.93067 75.4642 7.76C77.2562 9.57067 78.1522 11.876 78.1522 14.676C78.1522 17.476 77.2562 19.7907 75.4642 21.62ZM68.6042 21.424C70.4522 21.424 71.9455 20.7893 73.0842 19.52C74.2229 18.232 74.7922 16.6173 74.7922 14.676C74.7922 12.716 74.2229 11.1013 73.0842 9.832C71.9455 8.56267 70.4522 7.928 68.6042 7.928C66.7375 7.928 65.2349 8.56267 64.0962 9.832C62.9762 11.1013 62.4162 12.716 62.4162 14.676C62.4162 16.636 62.9762 18.2507 64.0962 19.52C65.2349 20.7893 66.7375 21.424 68.6042 21.424ZM97.4904 24H94.3264L84.5824 10.672V24H81.3064V5.324H84.6664L94.2144 18.288V5.324H97.4904V24Z" fill="black"/>
<path d="M305.602 24H302.102L298.462 10.224L294.85 24H291.35L286.002 5.324H289.67L293.31 19.716L297.174 5.324H299.778L303.642 19.716L307.254 5.324H310.922L305.602 24ZM325.911 24H313.115V5.324H325.911V8.208H316.391V13.052H325.715V15.936H316.391V21.116H325.911V24ZM336.219 24H329.275V5.324H336.219C339.112 5.324 341.464 6.192 343.275 7.928C345.086 9.664 345.991 11.9133 345.991 14.676C345.991 17.42 345.086 19.66 343.275 21.396C341.483 23.132 339.131 24 336.219 24ZM336.219 21.116C338.179 21.116 339.738 20.5 340.895 19.268C342.052 18.036 342.631 16.5053 342.631 14.676C342.631 12.7907 342.062 11.2413 340.923 10.028C339.803 8.81467 338.235 8.208 336.219 8.208H332.551V21.116H336.219Z" fill="black"/>
<path d="M173.493 24H170.217V8.208H164.561V5.324H179.149V8.208H173.493V24ZM190.018 24.336C187.367 24.336 185.351 23.6453 183.97 22.264C182.607 20.8827 181.926 19.0067 181.926 16.636V5.324H185.23V16.524C185.23 18.036 185.64 19.2307 186.462 20.108C187.302 20.9853 188.487 21.424 190.018 21.424C191.548 21.424 192.724 20.9853 193.546 20.108C194.367 19.2307 194.778 18.036 194.778 16.524V5.324H198.082V16.608C198.082 18.9973 197.391 20.8827 196.01 22.264C194.647 23.6453 192.65 24.336 190.018 24.336ZM214.846 24H202.051V5.324H214.846V8.208H205.327V13.052H214.651V15.936H205.327V21.116H214.846V24Z" fill="black"/>
<path d="M424.456 24H421.18V8.208H415.524V5.324H430.112V8.208H424.456V24ZM449.156 24H445.88V15.852H436.164V24H432.888V5.324H436.164V12.968H445.88V5.324H449.156V24ZM461.215 24.336C458.564 24.336 456.548 23.6453 455.167 22.264C453.804 20.8827 453.123 19.0067 453.123 16.636V5.324H456.427V16.524C456.427 18.036 456.837 19.2307 457.659 20.108C458.499 20.9853 459.684 21.424 461.215 21.424C462.745 21.424 463.921 20.9853 464.743 20.108C465.564 19.2307 465.975 18.036 465.975 16.524V5.324H469.279V16.608C469.279 18.9973 468.588 20.8827 467.207 22.264C465.844 23.6453 463.847 24.336 461.215 24.336Z" fill="black"/>
<path d="M678.917 24.336C675.706 24.336 673.177 23.3467 671.329 21.368L673.149 18.848C674.754 20.5653 676.724 21.424 679.057 21.424C680.308 21.424 681.241 21.172 681.857 20.668C682.492 20.164 682.809 19.5667 682.809 18.876C682.809 18.1667 682.436 17.6067 681.689 17.196C680.942 16.7667 680.037 16.4307 678.973 16.188C677.909 15.9453 676.836 15.656 675.753 15.32C674.689 14.984 673.784 14.4147 673.037 13.612C672.29 12.8093 671.917 11.7733 671.917 10.504C671.917 8.936 672.542 7.63867 673.793 6.612C675.062 5.56667 676.705 5.044 678.721 5.044C681.596 5.044 683.929 5.912 685.721 7.648L683.845 10.084C682.426 8.66533 680.625 7.956 678.441 7.956C677.47 7.956 676.696 8.17067 676.117 8.6C675.557 9.01067 675.277 9.57067 675.277 10.28C675.277 10.7467 675.473 11.1387 675.865 11.456C676.276 11.7733 676.798 12.0347 677.433 12.24C678.068 12.4267 678.768 12.6133 679.533 12.8C680.317 12.9867 681.092 13.22 681.857 13.5C682.641 13.7613 683.35 14.088 683.985 14.48C684.62 14.872 685.133 15.4133 685.525 16.104C685.936 16.7947 686.141 17.616 686.141 18.568C686.141 20.248 685.534 21.6293 684.321 22.712C683.108 23.7947 681.306 24.336 678.917 24.336ZM697.25 24.336C694.599 24.336 692.583 23.6453 691.202 22.264C689.839 20.8827 689.158 19.0067 689.158 16.636V5.324H692.462V16.524C692.462 18.036 692.873 19.2307 693.694 20.108C694.534 20.9853 695.719 21.424 697.25 21.424C698.781 21.424 699.957 20.9853 700.778 20.108C701.599 19.2307 702.01 18.036 702.01 16.524V5.324H705.314V16.608C705.314 18.9973 704.623 20.8827 703.242 22.264C701.879 23.6453 699.882 24.336 697.25 24.336ZM717.011 24H713.735V8.208H708.079V5.324H722.667V8.208H717.011V24Z" fill="black"/>
<path d="M555.489 24H552.213V5.324H565.009V8.208H555.489V13.052H564.813V15.936H555.489V24ZM582.383 24H578.603L574.459 17.028H571.211V24H567.935V5.324H576.139C577.969 5.324 579.443 5.86533 580.563 6.948C581.683 8.03067 582.243 9.44 582.243 11.176C582.243 12.744 581.814 14.004 580.955 14.956C580.097 15.8893 579.051 16.4587 577.819 16.664L582.383 24ZM575.691 14.144C576.625 14.144 577.39 13.8733 577.987 13.332C578.585 12.7907 578.883 12.072 578.883 11.176C578.883 10.28 578.585 9.56133 577.987 9.02C577.39 8.47867 576.625 8.208 575.691 8.208H571.211V14.144H575.691ZM588.793 24H585.517V5.324H588.793V24Z" fill="black"/>
<path d="M803.421 24.336C800.21 24.336 797.681 23.3467 795.833 21.368L797.653 18.848C799.258 20.5653 801.227 21.424 803.561 21.424C804.811 21.424 805.745 21.172 806.361 20.668C806.995 20.164 807.313 19.5667 807.313 18.876C807.313 18.1667 806.939 17.6067 806.193 17.196C805.446 16.7667 804.541 16.4307 803.477 16.188C802.413 15.9453 801.339 15.656 800.257 15.32C799.193 14.984 798.287 14.4147 797.541 13.612C796.794 12.8093 796.421 11.7733 796.421 10.504C796.421 8.936 797.046 7.63867 798.297 6.612C799.566 5.56667 801.209 5.044 803.225 5.044C806.099 5.044 808.433 5.912 810.225 7.648L808.349 10.084C806.93 8.66533 805.129 7.956 802.945 7.956C801.974 7.956 801.199 8.17067 800.621 8.6C800.061 9.01067 799.781 9.57067 799.781 10.28C799.781 10.7467 799.977 11.1387 800.369 11.456C800.779 11.7733 801.302 12.0347 801.937 12.24C802.571 12.4267 803.271 12.6133 804.037 12.8C804.821 12.9867 805.595 13.22 806.361 13.5C807.145 13.7613 807.854 14.088 808.489 14.48C809.123 14.872 809.637 15.4133 810.029 16.104C810.439 16.7947 810.645 17.616 810.645 18.568C810.645 20.248 810.038 21.6293 808.825 22.712C807.611 23.7947 805.81 24.336 803.421 24.336ZM821.754 24.336C819.103 24.336 817.087 23.6453 815.706 22.264C814.343 20.8827 813.662 19.0067 813.662 16.636V5.324H816.966V16.524C816.966 18.036 817.376 19.2307 818.198 20.108C819.038 20.9853 820.223 21.424 821.754 21.424C823.284 21.424 824.46 20.9853 825.282 20.108C826.103 19.2307 826.514 18.036 826.514 16.524V5.324H829.818V16.608C829.818 18.9973 829.127 20.8827 827.746 22.264C826.383 23.6453 824.386 24.336 821.754 24.336ZM849.971 24H846.807L837.063 10.672V24H833.787V5.324H837.147L846.695 18.288V5.324H849.971V24Z" fill="black"/>
<rect x="2" y="1" width="886" height="28" stroke="black" stroke-width="2"/>
<path d="M36.1086 199H28.1286V180.324H35.8566C39.1886 180.324 40.7846 182.536 40.7846 185.084C40.7846 187.436 39.4966 188.948 37.7886 189.368C39.6926 189.676 41.0926 191.636 41.0926 193.96C41.0926 196.788 39.4966 199 36.1086 199ZM34.9606 187.884C36.3046 187.884 36.9486 187.016 36.9486 185.728C36.9486 184.468 36.3046 183.6 34.9606 183.6H31.8806V187.884H34.9606ZM35.1006 195.724C36.5006 195.724 37.2566 194.884 37.2566 193.428C37.2566 192.14 36.5286 191.132 35.1006 191.132H31.8806V195.724H35.1006ZM53.7658 199H43.7418V180.324H47.4938V195.696H53.7658V199ZM70.0993 199H66.0113L65.1433 195.696H59.4033L58.5353 199H54.4752L60.0193 180.324H64.5553L70.0993 199ZM64.4153 192.392L62.2873 184.272L60.1593 192.392H64.4153ZM78.2256 199.336C73.3816 199.336 70.3296 195.332 70.3296 189.676C70.3296 184.02 73.3816 180.016 78.2256 180.016C81.8096 180.016 83.5176 182.34 84.4696 184.496L81.3616 185.868C80.8016 184.384 79.7096 183.348 78.2256 183.348C75.7056 183.348 74.1936 186.008 74.1936 189.676C74.1936 193.344 75.7056 196.004 78.2256 196.004C79.7656 196.004 80.8576 194.828 81.3896 193.288L84.4976 194.632C83.5736 196.872 81.8656 199.336 78.2256 199.336ZM100.503 199H96.0789L91.7669 191.692L90.4509 193.764V199H86.6989V180.324H90.4509V188.808L95.7149 180.324H100.083L94.1189 189.116L100.503 199Z" fill="black"/>
<path d="M297.042 199H289.062V180.324H296.79C300.122 180.324 301.718 182.536 301.718 185.084C301.718 187.436 300.43 188.948 298.722 189.368C300.626 189.676 302.026 191.636 302.026 193.96C302.026 196.788 300.43 199 297.042 199ZM295.894 187.884C297.238 187.884 297.882 187.016 297.882 185.728C297.882 184.468 297.238 183.6 295.894 183.6H292.814V187.884H295.894ZM296.034 195.724C297.434 195.724 298.19 194.884 298.19 193.428C298.19 192.14 297.462 191.132 296.034 191.132H292.814V195.724H296.034ZM311.703 199.336C306.831 199.336 303.919 195.248 303.919 189.676C303.919 184.132 306.831 180.016 311.703 180.016C316.603 180.016 319.515 184.132 319.515 189.676C319.515 195.248 316.603 199.336 311.703 199.336ZM311.703 196.004C314.279 196.004 315.679 193.232 315.679 189.676C315.679 186.064 314.279 183.348 311.703 183.348C309.155 183.348 307.783 186.064 307.783 189.676C307.783 193.232 309.155 196.004 311.703 196.004ZM332.117 199H322.093V180.324H325.845V195.696H332.117V199ZM340.555 199H334.535V180.324H340.555C345.707 180.324 348.675 184.188 348.675 189.676C348.675 195.164 345.735 199 340.555 199ZM340.555 195.696C343.327 195.696 344.839 193.232 344.839 189.676C344.839 185.98 343.383 183.628 340.555 183.628H338.287V195.696H340.555Z" fill="black"/>
<path d="M147.943 199H139.767V180.324H147.943V183.432H143.295V187.94H147.747V191.048H143.295V195.892H147.943V199ZM161.213 199H157.321L155.025 192.56L152.757 199H148.865L152.981 189.48L149.089 180.324H152.981L155.025 186.428L157.069 180.324H160.989L157.069 189.452L161.213 199ZM168.03 199H164.502V183.432H161.674V180.324H170.858V183.432H168.03V199ZM183.297 199H179.517L177.501 192.14H176.353V199H172.825V180.324H178.033C181.001 180.324 183.129 182.704 183.129 186.12C183.129 189.284 181.785 190.712 180.721 191.272L183.297 199ZM177.501 189.032C178.817 189.032 179.545 187.912 179.545 186.232C179.545 184.524 178.817 183.432 177.501 183.432H176.353V189.032H177.501ZM196.12 199H192.48L191.92 195.556H188.448L187.888 199H184.248L188.14 180.324H192.2L196.12 199ZM191.528 192.448L190.184 184.272L188.84 192.448H191.528ZM203.395 199H197.571V180.324H203.199C206.307 180.324 207.679 182.508 207.679 185.084C207.679 187.436 206.559 188.892 204.935 189.368C206.699 189.648 207.931 191.664 207.931 193.96C207.931 196.816 206.615 199 203.395 199ZM202.275 187.94C203.591 187.94 204.067 187.044 204.067 185.7C204.067 184.356 203.591 183.432 202.275 183.432H201.099V187.94H202.275ZM202.387 195.892C203.703 195.892 204.319 195.052 204.319 193.456C204.319 192.084 203.703 191.048 202.387 191.048H201.099V195.892H202.387ZM215.467 199.336C211.351 199.336 209.643 195.164 209.643 189.676C209.643 184.188 211.351 180.016 215.467 180.016C219.555 180.016 221.291 184.188 221.291 189.676C221.291 195.164 219.555 199.336 215.467 199.336ZM215.467 196.2C217.119 196.2 217.679 193.344 217.679 189.676C217.679 185.952 217.119 183.152 215.467 183.152C213.815 183.152 213.255 185.952 213.255 189.676C213.255 193.344 213.815 196.2 215.467 196.2ZM231.778 199H223.602V180.324H227.13V195.892H231.778V199ZM238.505 199H233.829V180.324H238.477C242.985 180.324 244.833 184.356 244.833 189.676C244.833 195.052 243.013 199 238.505 199ZM238.477 195.892C240.353 195.892 241.221 193.652 241.221 189.676C241.221 185.56 240.325 183.432 238.477 183.432H237.357V195.892H238.477Z" fill="black"/>
<path d="M401.67 199.336C399.626 199.336 398.058 198.692 396.854 197.488L398.394 194.716C399.15 195.696 400.354 196.2 401.446 196.2C402.566 196.2 403.322 195.36 403.322 194.156C403.322 190.852 397.386 190.852 397.386 185.224C397.386 182.424 399.29 180.016 402.594 180.016C404.162 180.016 405.618 180.548 406.654 181.528L405.282 184.244C404.554 183.488 403.686 183.152 402.706 183.152C401.698 183.152 400.97 183.908 400.97 185.028C400.97 187.94 406.906 188.332 406.906 193.932C406.906 197.068 404.862 199.336 401.67 199.336ZM417.251 199H409.075V180.324H417.251V183.432H412.603V187.94H417.055V191.048H412.603V195.892H417.251V199ZM433.993 199H430.521V187.968L427.413 199H426.237L423.185 187.968V199H419.657V180.324H424.137L426.825 189.872L429.597 180.324H433.993V199ZM440.439 199H436.911V180.324H440.439V199ZM449.188 199H443.364V180.324H448.992C452.1 180.324 453.472 182.508 453.472 185.084C453.472 187.436 452.352 188.892 450.728 189.368C452.492 189.648 453.724 191.664 453.724 193.96C453.724 196.816 452.408 199 449.188 199ZM448.068 187.94C449.384 187.94 449.86 187.044 449.86 185.7C449.86 184.356 449.384 183.432 448.068 183.432H446.892V187.94H448.068ZM448.18 195.892C449.496 195.892 450.112 195.052 450.112 193.456C450.112 192.084 449.496 191.048 448.18 191.048H446.892V195.892H448.18ZM461.26 199.336C457.144 199.336 455.436 195.164 455.436 189.676C455.436 184.188 457.144 180.016 461.26 180.016C465.348 180.016 467.084 184.188 467.084 189.676C467.084 195.164 465.348 199.336 461.26 199.336ZM461.26 196.2C462.912 196.2 463.472 193.344 463.472 189.676C463.472 185.952 462.912 183.152 461.26 183.152C459.608 183.152 459.048 185.952 459.048 189.676C459.048 193.344 459.608 196.2 461.26 196.2ZM477.571 199H469.395V180.324H472.923V195.892H477.571V199ZM484.298 199H479.622V180.324H484.27C488.778 180.324 490.626 184.356 490.626 189.676C490.626 195.052 488.806 199 484.298 199ZM484.27 195.892C486.146 195.892 487.014 193.652 487.014 189.676C487.014 185.56 486.118 183.432 484.27 183.432H483.15V195.892H484.27Z" fill="black"/>
<path d="M673.59 199H663.566V180.324H667.318V195.696H673.59V199ZM679.759 199H676.007V180.324H679.759V199ZM690.202 199.336C685.47 199.336 682.306 195.472 682.306 189.676C682.306 183.852 685.47 180.016 690.202 180.016C693.45 180.016 695.41 182.004 696.418 184.3L693.366 185.728C692.778 184.412 691.742 183.348 690.202 183.348C687.822 183.348 686.17 185.672 686.17 189.676C686.17 193.68 687.822 196.004 690.202 196.004C691.434 196.004 692.47 195.5 693.03 194.884V192.056H689.53V188.752H696.586V196.368C695.018 198.216 692.946 199.336 690.202 199.336ZM713.188 199H709.408V191.048H703.22V199H699.468V180.324H703.22V187.744H709.408V180.324H713.188V199ZM723.364 199H719.612V183.628H715.468V180.324H727.508V183.628H723.364V199Z" fill="black"/>
<path d="M532.079 199H527.907L525.051 192.252H523.035V199H519.283V180.324H526.255C529.671 180.324 531.939 182.788 531.939 186.232C531.939 189.452 530.231 191.076 528.691 191.58L532.079 199ZM525.695 188.948C527.151 188.948 528.103 187.912 528.103 186.288C528.103 184.664 527.151 183.628 525.695 183.628H523.035V188.948H525.695ZM545.401 199H534.705V180.324H545.401V183.628H538.457V187.856H545.205V191.16H538.457V195.696H545.401V199ZM555.325 199.336C550.593 199.336 547.429 195.472 547.429 189.676C547.429 183.852 550.593 180.016 555.325 180.016C558.573 180.016 560.533 182.004 561.541 184.3L558.489 185.728C557.901 184.412 556.865 183.348 555.325 183.348C552.945 183.348 551.293 185.672 551.293 189.676C551.293 193.68 552.945 196.004 555.325 196.004C556.557 196.004 557.593 195.5 558.153 194.884V192.056H554.653V188.752H561.709V196.368C560.141 198.216 558.069 199.336 555.325 199.336ZM571.479 199.336C567.251 199.336 564.591 196.872 564.591 192.56V180.324H568.371V192.588C568.371 194.8 569.491 196.032 571.479 196.032C573.439 196.032 574.559 194.8 574.559 192.588V180.324H578.339V192.56C578.339 196.872 575.679 199.336 571.479 199.336ZM591.678 199H581.654V180.324H585.406V195.696H591.678V199ZM608.011 199H603.923L603.055 195.696H597.315L596.447 199H592.387L597.931 180.324H602.467L608.011 199ZM602.327 192.392L600.199 184.272L598.071 192.392H602.327ZM622.395 199H618.223L615.367 192.252H613.351V199H609.599V180.324H616.571C619.987 180.324 622.255 182.788 622.255 186.232C622.255 189.452 620.547 191.076 619.007 191.58L622.395 199ZM616.011 188.948C617.467 188.948 618.419 187.912 618.419 186.288C618.419 184.664 617.467 183.628 616.011 183.628H613.351V188.948H616.011Z" fill="black"/>
<path d="M802.86 199H799.108V183.628H794.964V180.324H807.004V183.628H802.86V199ZM822.954 199H819.174V191.048H812.986V199H809.234V180.324H812.986V187.744H819.174V180.324H822.954V199ZM830.021 199H826.269V180.324H830.021V199ZM847.016 199H843.432L837.076 187.968V199H833.324V180.324H837.132L843.236 190.964V180.324H847.016V199Z" fill="black"/>
<path d="M189.088 89.4463C189.088 95.1043 184.707 99.6162 179.392 99.6162C174.078 99.6162 169.696 95.1043 169.696 89.4463C169.696 83.7883 174.078 79.2764 179.392 79.2764C184.707 79.2764 189.088 83.7883 189.088 89.4463Z" fill="#FFE178" stroke="black" stroke-width="2"/>
<path d="M148.834 108.418C148.953 108.466 149.079 108.49 149.207 108.49H178.293C178.348 108.49 178.404 108.485 178.458 108.476C179.986 108.22 182.145 107.398 183.53 105.663C184.99 103.833 185.42 101.206 183.815 97.7751C182.985 96.0003 181.793 94.8535 180.369 94.2437C178.965 93.6432 177.435 93.605 175.976 93.8568C174.029 94.1927 172.09 95.0647 170.493 96.0168C170.696 94.3171 170.662 92.429 170.077 90.8581C169.617 89.6207 168.788 88.5186 167.424 87.9332C166.083 87.358 164.386 87.3521 162.32 87.9463C158.252 89.1156 156.227 91.0774 155.607 93.3087C155.318 94.3503 155.359 95.372 155.576 96.2891C154.75 96.0561 153.824 95.9018 152.847 95.898C150.655 95.8892 148.217 96.6422 146.157 98.9221C145.141 100.047 144.565 101.164 144.389 102.263C144.212 103.373 144.46 104.371 144.929 105.212C145.836 106.842 147.575 107.911 148.834 108.418Z" fill="white" stroke="black" stroke-width="2" stroke-linejoin="round"/>
<path d="M193.756 127.407C193.874 127.455 194.001 127.479 194.129 127.479H223.215C223.27 127.479 223.326 127.475 223.38 127.465C224.908 127.209 227.067 126.387 228.452 124.652C229.912 122.822 230.342 120.195 228.737 116.764C227.907 114.989 226.715 113.842 225.29 113.233C223.887 112.632 222.357 112.594 220.898 112.846C218.951 113.182 217.012 114.054 215.415 115.006C215.618 113.306 215.584 111.418 214.999 109.847C214.539 108.61 213.71 107.508 212.346 106.922C211.005 106.347 209.308 106.341 207.241 106.935C203.174 108.105 201.149 110.066 200.529 112.298C200.24 113.339 200.281 114.361 200.498 115.278C199.672 115.045 198.745 114.891 197.769 114.887C195.577 114.878 193.138 115.631 191.079 117.911C190.063 119.036 189.486 120.153 189.311 121.252C189.134 122.362 189.382 123.36 189.851 124.201C190.758 125.831 192.497 126.9 193.756 127.407Z" fill="white" stroke="black" stroke-width="2" stroke-linejoin="round"/>
<path d="M446.502 92.9165C446.621 92.9643 446.747 92.9889 446.875 92.9889H475.961C476.016 92.9889 476.072 92.9843 476.126 92.9751C477.654 92.7188 479.813 91.8965 481.198 90.1621C482.658 88.3319 483.088 85.7045 481.483 82.2739C480.653 80.499 479.461 79.3522 478.037 78.7425C476.633 78.1419 475.103 78.1038 473.644 78.3556C471.697 78.6915 469.758 79.5635 468.161 80.5156C468.364 78.8159 468.33 76.9277 467.745 75.3569C467.285 74.1195 466.456 73.0174 465.092 72.432C463.751 71.8568 462.054 71.8509 459.988 72.4451C455.92 73.6144 453.895 75.5762 453.275 77.8074C452.986 78.849 453.027 79.8708 453.244 80.7878C452.418 80.5549 451.492 80.4006 450.515 80.3967C448.323 80.388 445.885 81.141 443.825 83.4209C442.809 84.5454 442.232 85.6631 442.057 86.7618C441.88 87.8719 442.128 88.8693 442.597 89.7112C443.504 91.3405 445.243 92.4098 446.502 92.9165Z" fill="white" stroke="black" stroke-width="2" stroke-linejoin="round"/>
<path d="M837 111L850.5 86H863L850.5 104H863L840.5 138L852 111H837Z" fill="#FFE178" stroke="black" stroke-width="2"/>
<path d="M837 111L850.5 86H863L850.5 104H863L840.5 138L852 111H837Z" fill="#FFE178" stroke="black" stroke-width="2"/>
</svg>
