<svg width="544" height="240" viewBox="0 0 544 240" fill="none" xmlns="http://www.w3.org/2000/svg">
<rect width="544" height="240" fill="#A5D912"/>
<path d="M37.4081 195.352V194.536C37.4081 193.608 37.3121 192.824 37.1201 192.184C36.9281 191.512 36.5601 190.84 36.0161 190.168C35.4721 189.496 34.6561 188.712 33.5681 187.816C32.4161 186.856 31.4081 185.96 30.5441 185.128C29.7121 184.264 29.0561 183.336 28.5761 182.344C28.1281 181.32 27.9041 180.088 27.9041 178.648C27.9041 176.056 28.7361 174.008 30.4001 172.504C32.0641 171 34.4161 170.248 37.4561 170.248C39.3761 170.248 41.1041 170.472 42.6401 170.92C44.2081 171.368 45.6321 171.928 46.9121 172.6L45.4241 175.96C44.3361 175.416 43.1841 174.952 41.9681 174.568C40.7521 174.152 39.3441 173.944 37.7441 173.944C35.8881 173.944 34.4481 174.36 33.4241 175.192C32.4321 176.024 31.9361 177.208 31.9361 178.744C31.9361 179.704 32.0801 180.52 32.3681 181.192C32.6561 181.864 33.1521 182.552 33.8561 183.256C34.5601 183.96 35.5201 184.84 36.7361 185.896C37.7921 186.76 38.6081 187.592 39.1841 188.392C39.7601 189.192 40.1601 190.04 40.3841 190.936C40.6401 191.8 40.7681 192.84 40.7681 194.056V195.352H37.4081ZM38.8961 205.672C38.0961 205.672 37.4081 205.416 36.8321 204.904C36.2561 204.392 35.9681 203.56 35.9681 202.408C35.9681 201.224 36.2561 200.392 36.8321 199.912C37.4081 199.432 38.0961 199.192 38.8961 199.192C39.7601 199.192 40.4641 199.432 41.0081 199.912C41.5841 200.392 41.8721 201.224 41.8721 202.408C41.8721 203.56 41.5841 204.392 41.0081 204.904C40.4641 205.416 39.7601 205.672 38.8961 205.672ZM51.6926 223.864C51.1486 221.752 50.6686 219.688 50.2526 217.672C49.8686 215.656 49.5806 213.8 49.3886 212.104C49.1966 210.408 49.1006 209.016 49.1006 207.928C49.1006 205.976 49.4526 204.36 50.1566 203.08C50.8606 201.768 51.8046 200.76 52.9886 200.056C54.1726 199.32 55.4846 198.824 56.9246 198.568C58.3966 198.312 59.9006 198.232 61.4366 198.328C63.0046 198.392 64.4766 198.584 65.8526 198.904C65.9486 197.816 65.8846 196.776 65.6606 195.784C65.4686 194.76 65.1326 193.864 64.6526 193.096C64.2046 192.296 63.6286 191.672 62.9246 191.224C62.2206 190.776 61.4206 190.552 60.5246 190.552C59.7246 190.552 58.9726 190.728 58.2686 191.08C57.5646 191.432 56.8926 191.976 56.2526 192.712C55.6446 193.416 55.0526 194.296 54.4766 195.352L51.5006 193.72C52.3326 191.992 53.2446 190.616 54.2366 189.592C55.2606 188.568 56.3326 187.832 57.4526 187.384C58.5726 186.904 59.6766 186.664 60.7646 186.664C62.3966 186.664 63.7726 187.016 64.8926 187.72C66.0126 188.392 66.8926 189.288 67.5326 190.408C68.2046 191.496 68.6846 192.68 68.9726 193.96C69.2926 195.208 69.4526 196.408 69.4526 197.56C69.4526 198.36 69.3566 199.16 69.1646 199.96C68.9726 200.76 68.7326 201.48 68.4446 202.12C68.1886 202.76 67.9326 203.256 67.6766 203.608C65.9486 203.096 64.3326 202.728 62.8286 202.504C61.3246 202.28 59.9646 202.216 58.7486 202.312C57.5646 202.376 56.5406 202.632 55.6766 203.08C54.8126 203.528 54.1566 204.168 53.7086 205C53.2606 205.832 53.0366 206.888 53.0366 208.168C53.0366 209.352 53.1326 210.76 53.3246 212.392C53.5166 214.024 53.7886 215.736 54.1406 217.528C54.4926 219.352 54.9086 221.144 55.3886 222.904L51.6926 223.864ZM74.1746 216.04L73.3106 212.104C75.2306 211.848 76.9906 211.48 78.5906 211C80.2226 210.552 81.6146 209.896 82.7666 209.032C83.9506 208.168 84.8626 207.032 85.5026 205.624C86.1426 204.216 86.4626 202.456 86.4626 200.344C86.4626 198.168 86.0626 196.36 85.2626 194.92C84.4626 193.48 83.4226 192.76 82.1426 192.76C81.4706 192.76 80.8466 193.016 80.2706 193.528C79.6946 194.04 79.2146 194.728 78.8306 195.592C78.4786 196.456 78.3026 197.4 78.3026 198.424C78.3026 199 78.4306 199.48 78.6866 199.864C78.9426 200.216 79.3106 200.504 79.7906 200.728C80.3026 200.92 80.9426 201.064 81.7106 201.16C82.4786 201.256 83.3746 201.304 84.3986 201.304H94.5266C95.1986 201.304 95.6786 201.496 95.9666 201.88C96.2866 202.232 96.4466 202.664 96.4466 203.176C96.4466 203.688 96.2226 204.168 95.7746 204.616C95.3266 205.032 94.7506 205.24 94.0466 205.24H82.5746C81.1346 205.24 79.7906 205.032 78.5426 204.616C77.3266 204.2 76.3346 203.56 75.5666 202.696C74.8306 201.8 74.4626 200.632 74.4626 199.192C74.4626 197.848 74.6706 196.568 75.0866 195.352C75.5026 194.104 76.0626 193 76.7666 192.04C77.5026 191.048 78.3506 190.264 79.3106 189.688C80.3026 189.112 81.3746 188.824 82.5266 188.824C83.9986 188.824 85.3106 189.256 86.4626 190.12C87.6146 190.984 88.5266 192.296 89.1986 194.056C89.8706 195.784 90.2066 197.976 90.2066 200.632C90.2066 203.608 89.5986 206.168 88.3826 208.312C87.1986 210.488 85.4066 212.216 83.0066 213.496C80.6386 214.776 77.6946 215.624 74.1746 216.04ZM94.0312 205.24L94.5113 201.304C96.1113 201.304 97.3593 201.192 98.2553 200.968C99.1513 200.712 99.8233 200.248 100.271 199.576C100.751 198.872 101.135 197.864 101.423 196.552C101.711 195.24 102.063 193.528 102.479 191.416L106.223 192.136C106.095 192.712 105.951 193.352 105.791 194.056C105.631 194.76 105.487 195.464 105.359 196.168C105.263 196.84 105.215 197.432 105.215 197.944C105.215 198.424 105.247 198.872 105.311 199.288C105.375 199.704 105.615 200.056 106.031 200.344C106.447 200.632 107.151 200.872 108.143 201.064C109.135 201.224 110.559 201.304 112.415 201.304C113.087 201.304 113.567 201.496 113.855 201.88C114.175 202.232 114.335 202.664 114.335 203.176C114.335 203.688 114.111 204.168 113.663 204.616C113.215 205.032 112.639 205.24 111.935 205.24C109.983 205.24 108.431 205.144 107.279 204.952C106.127 204.728 105.247 204.408 104.639 203.992C104.063 203.576 103.647 203.064 103.391 202.456C103.167 201.816 102.991 201.08 102.863 200.248L104.303 200.344C103.791 201.368 103.231 202.2 102.623 202.84C102.047 203.48 101.375 203.976 100.607 204.328C99.8393 204.68 98.9113 204.92 97.8233 205.048C96.7673 205.176 95.5033 205.24 94.0312 205.24ZM106.127 214.312C105.455 214.312 104.879 214.072 104.399 213.592C103.951 213.144 103.727 212.6 103.727 211.96C103.727 211.32 103.951 210.76 104.399 210.28C104.879 209.8 105.455 209.56 106.127 209.56C106.767 209.56 107.311 209.8 107.759 210.28C108.239 210.76 108.479 211.32 108.479 211.96C108.479 212.6 108.239 213.144 107.759 213.592C107.311 214.072 106.767 214.312 106.127 214.312ZM99.5513 214.312C98.8793 214.312 98.3033 214.072 97.8233 213.592C97.3753 213.144 97.1513 212.6 97.1513 211.96C97.1513 211.32 97.3753 210.76 97.8233 210.28C98.3033 209.8 98.8793 209.56 99.5513 209.56C100.191 209.56 100.735 209.8 101.183 210.28C101.663 210.76 101.903 211.32 101.903 211.96C101.903 212.6 101.663 213.144 101.183 213.592C100.735 214.072 100.191 214.312 99.5513 214.312ZM111.938 205.24L112.37 201.304C114.193 201.304 115.474 201.128 116.21 200.776C116.946 200.424 117.362 199.8 117.458 198.904C117.586 198.008 117.618 196.76 117.554 195.16L116.642 170.728H120.53L121.49 194.728C121.554 196.424 121.49 197.928 121.298 199.24C121.138 200.552 120.722 201.656 120.05 202.552C119.41 203.448 118.434 204.12 117.122 204.568C115.842 205.016 114.114 205.24 111.938 205.24ZM128.822 205L127.862 170.728H131.75L132.71 205H128.822ZM163.243 216.136C161.419 216.136 159.691 215.88 158.059 215.368C156.427 214.888 154.971 214.168 153.691 213.208C152.443 212.248 151.451 211.08 150.715 209.704C150.011 208.36 149.659 206.808 149.659 205.048C149.659 204.28 149.723 203.464 149.851 202.6C150.011 201.704 150.235 200.76 150.523 199.768C150.843 198.744 151.227 197.672 151.675 196.552L155.131 197.896C154.811 198.792 154.523 199.64 154.267 200.44C154.043 201.24 153.867 201.992 153.739 202.696C153.643 203.4 153.595 204.072 153.595 204.712C153.595 206.344 154.027 207.72 154.891 208.84C155.787 209.96 156.971 210.792 158.443 211.336C159.947 211.912 161.595 212.2 163.387 212.2C165.563 212.2 167.387 211.944 168.859 211.432C170.331 210.952 171.499 210.296 172.363 209.464C173.227 208.664 173.835 207.752 174.187 206.728C174.571 205.736 174.763 204.744 174.763 203.752C174.763 202.344 174.651 201.016 174.427 199.768C174.235 198.52 173.963 197.304 173.611 196.12C173.291 194.904 172.939 193.672 172.555 192.424L176.443 191.368C176.955 193.192 177.307 194.52 177.499 195.352C177.723 196.152 177.899 196.808 178.027 197.32C178.379 198.504 178.779 199.384 179.227 199.96C179.707 200.504 180.251 200.872 180.859 201.064C181.499 201.224 182.219 201.304 183.019 201.304C183.659 201.304 184.219 201.224 184.699 201.064C185.211 200.904 185.675 200.52 186.091 199.912C186.539 199.304 186.923 198.328 187.243 196.984C187.595 195.64 187.915 193.8 188.203 191.464L191.851 192.136C191.755 192.712 191.643 193.416 191.515 194.248C191.387 195.08 191.259 195.912 191.131 196.744C191.035 197.544 190.987 198.216 190.987 198.76C190.987 199.208 191.083 199.64 191.275 200.056C191.499 200.44 191.915 200.744 192.523 200.968C193.163 201.192 194.107 201.304 195.355 201.304C196.955 201.304 198.107 200.968 198.811 200.296C199.547 199.624 199.915 198.6 199.915 197.224C199.915 196.488 199.899 195.72 199.867 194.92C199.835 194.088 199.771 193.176 199.675 192.184C199.611 191.16 199.499 189.992 199.339 188.68L202.843 188.44C203.035 191.032 203.243 193.16 203.467 194.824C203.723 196.488 204.075 197.8 204.523 198.76C205.003 199.688 205.643 200.344 206.443 200.728C207.243 201.112 208.299 201.304 209.611 201.304C210.283 201.304 210.763 201.496 211.051 201.88C211.371 202.232 211.531 202.664 211.531 203.176C211.531 203.688 211.307 204.168 210.859 204.616C210.411 205.032 209.835 205.24 209.131 205.24C207.691 205.24 206.443 204.984 205.387 204.472C204.363 203.96 203.531 203.272 202.891 202.408C202.283 201.512 201.867 200.552 201.643 199.528L202.507 199.816C202.155 201.256 201.595 202.376 200.827 203.176C200.091 203.944 199.211 204.488 198.187 204.808C197.163 205.096 196.075 205.24 194.923 205.24C193.515 205.24 192.363 205.064 191.467 204.712C190.571 204.36 189.867 203.832 189.355 203.128C188.875 202.392 188.555 201.464 188.395 200.344H190.027C189.515 201.496 188.939 202.44 188.299 203.176C187.659 203.88 186.891 204.408 185.995 204.76C185.131 205.08 184.059 205.24 182.779 205.24C181.787 205.24 180.939 205.112 180.235 204.856C179.531 204.568 178.939 204.216 178.459 203.8C178.011 203.352 177.659 202.856 177.403 202.312C177.147 201.736 176.955 201.16 176.827 200.584L178.795 203.032C178.667 204.632 178.331 206.2 177.787 207.736C177.275 209.304 176.443 210.712 175.291 211.96C174.139 213.24 172.587 214.248 170.635 214.984C168.683 215.752 166.219 216.136 163.243 216.136ZM209.109 205.24L209.589 201.304C210.389 201.304 211.205 201.304 212.037 201.304C212.901 201.272 213.749 201.224 214.581 201.16C215.413 201.096 216.213 201.016 216.981 200.92C217.749 200.824 218.437 200.68 219.045 200.488C220.165 200.136 221.189 199.672 222.117 199.096C223.077 198.52 223.845 197.816 224.421 196.984C225.029 196.152 225.333 195.192 225.333 194.104C225.333 193.368 225.157 192.616 224.805 191.848C224.453 191.048 223.973 190.376 223.365 189.832C222.757 189.288 222.053 189.016 221.253 189.016C220.485 189.016 219.765 189.272 219.093 189.784C218.453 190.296 217.925 190.968 217.509 191.8C217.125 192.6 216.933 193.432 216.933 194.296C216.933 195.32 217.189 196.248 217.701 197.08C218.245 197.88 218.901 198.568 219.669 199.144C220.437 199.72 221.205 200.184 221.973 200.536L217.413 201.88C216.901 201.496 216.293 200.968 215.589 200.296C214.917 199.592 214.309 198.728 213.765 197.704C213.253 196.68 212.997 195.512 212.997 194.2C212.997 192.92 213.221 191.736 213.669 190.648C214.149 189.528 214.773 188.552 215.541 187.72C216.341 186.888 217.237 186.248 218.229 185.8C219.253 185.32 220.309 185.08 221.397 185.08C222.965 185.08 224.341 185.512 225.525 186.376C226.709 187.24 227.621 188.344 228.261 189.688C228.933 191 229.269 192.376 229.269 193.816C229.269 195.192 229.013 196.44 228.501 197.56C227.989 198.648 227.285 199.624 226.389 200.488C225.525 201.352 224.501 202.088 223.317 202.696C222.165 203.304 220.933 203.8 219.621 204.184C218.885 204.408 218.085 204.584 217.221 204.712C216.389 204.84 215.509 204.936 214.581 205C213.653 205.096 212.725 205.16 211.797 205.192C210.869 205.224 209.973 205.24 209.109 205.24ZM232.869 205.24C231.269 205.24 229.605 205.144 227.877 204.952C226.181 204.728 224.565 204.456 223.029 204.136C221.525 203.784 220.277 203.4 219.285 202.984L222.597 200.584C223.557 200.712 224.693 200.84 226.005 200.968C227.317 201.064 228.629 201.144 229.941 201.208C231.253 201.272 232.389 201.304 233.349 201.304C234.021 201.304 234.501 201.496 234.789 201.88C235.109 202.232 235.269 202.664 235.269 203.176C235.269 203.688 235.045 204.168 234.597 204.616C234.149 205.032 233.573 205.24 232.869 205.24ZM224.325 180.136C223.653 180.136 223.077 179.912 222.597 179.464C222.149 178.984 221.925 178.424 221.925 177.784C221.925 177.144 222.149 176.584 222.597 176.104C223.077 175.624 223.653 175.384 224.325 175.384C224.965 175.384 225.509 175.624 225.957 176.104C226.437 176.584 226.677 177.144 226.677 177.784C226.677 178.424 226.437 178.984 225.957 179.464C225.509 179.912 224.965 180.136 224.325 180.136ZM217.749 180.136C217.077 180.136 216.501 179.912 216.021 179.464C215.573 178.984 215.349 178.424 215.349 177.784C215.349 177.144 215.573 176.584 216.021 176.104C216.501 175.624 217.077 175.384 217.749 175.384C218.389 175.384 218.933 175.624 219.381 176.104C219.861 176.584 220.101 177.144 220.101 177.784C220.101 178.424 219.861 178.984 219.381 179.464C218.933 179.912 218.389 180.136 217.749 180.136ZM266.955 205.24C266.123 205.24 265.067 205.16 263.787 205C262.539 204.808 261.259 204.488 259.947 204.04C258.667 203.592 257.579 202.968 256.683 202.168L260.619 200.2C261.739 200.648 262.891 200.952 264.075 201.112C265.291 201.24 266.411 201.304 267.435 201.304C268.107 201.304 268.587 201.496 268.875 201.88C269.195 202.232 269.355 202.664 269.355 203.176C269.355 203.688 269.131 204.168 268.683 204.616C268.235 205.032 267.659 205.24 266.955 205.24ZM232.875 205.24L233.355 201.304H243.387C246.171 201.304 248.571 201.192 250.587 200.968C252.635 200.712 254.315 200.344 255.627 199.864C256.939 199.384 257.915 198.776 258.555 198.04C259.195 197.272 259.515 196.376 259.515 195.352C259.515 194.808 259.339 194.216 258.987 193.576C258.635 192.936 258.091 192.392 257.355 191.944C256.619 191.464 255.643 191.224 254.427 191.224C252.891 191.224 251.355 191.624 249.819 192.424C248.315 193.224 246.875 194.232 245.499 195.448C244.155 196.632 242.955 197.848 241.899 199.096C240.843 200.344 239.995 201.432 239.355 202.36L235.179 202.216C236.203 200.552 237.419 198.856 238.827 197.128C240.267 195.368 241.835 193.752 243.531 192.28C245.259 190.776 247.067 189.576 248.955 188.68C250.843 187.752 252.763 187.288 254.715 187.288C256.475 187.288 257.979 187.656 259.227 188.392C260.507 189.096 261.483 190.056 262.155 191.272C262.859 192.488 263.211 193.864 263.211 195.4C263.211 196.904 262.667 198.424 261.579 199.96C260.491 201.464 258.619 202.648 255.963 203.512C254.619 203.96 253.083 204.312 251.355 204.568C249.627 204.824 247.659 205 245.451 205.096C243.243 205.192 240.731 205.24 237.915 205.24H232.875ZM237.435 200.488L236.475 170.728H240.363L241.323 197.128L237.435 200.488ZM266.953 205.24L267.385 201.304C269.209 201.304 270.489 201.128 271.225 200.776C271.961 200.424 272.377 199.8 272.473 198.904C272.601 198.008 272.633 196.76 272.569 195.16L271.657 170.728H275.545L276.505 194.728C276.569 196.424 276.505 197.928 276.313 199.24C276.153 200.552 275.737 201.656 275.065 202.552C274.425 203.448 273.449 204.12 272.137 204.568C270.857 205.016 269.129 205.24 266.953 205.24ZM283.838 205L282.878 170.728H286.766L287.726 205H283.838ZM306.018 216.04L305.154 212.104C307.074 211.848 308.834 211.48 310.434 211C312.066 210.552 313.458 209.896 314.61 209.032C315.794 208.168 316.706 207.032 317.346 205.624C317.986 204.216 318.306 202.456 318.306 200.344C318.306 198.168 317.906 196.36 317.106 194.92C316.306 193.48 315.266 192.76 313.986 192.76C313.314 192.76 312.69 193.016 312.114 193.528C311.538 194.04 311.058 194.728 310.674 195.592C310.322 196.456 310.146 197.4 310.146 198.424C310.146 199 310.274 199.48 310.53 199.864C310.786 200.216 311.154 200.504 311.634 200.728C312.146 200.92 312.786 201.064 313.554 201.16C314.322 201.256 315.218 201.304 316.242 201.304H326.37C327.042 201.304 327.522 201.496 327.81 201.88C328.13 202.232 328.29 202.664 328.29 203.176C328.29 203.688 328.066 204.168 327.618 204.616C327.17 205.032 326.594 205.24 325.89 205.24H314.418C312.978 205.24 311.634 205.032 310.386 204.616C309.17 204.2 308.178 203.56 307.41 202.696C306.674 201.8 306.306 200.632 306.306 199.192C306.306 197.848 306.514 196.568 306.93 195.352C307.346 194.104 307.906 193 308.61 192.04C309.346 191.048 310.194 190.264 311.154 189.688C312.146 189.112 313.218 188.824 314.37 188.824C315.842 188.824 317.154 189.256 318.306 190.12C319.458 190.984 320.37 192.296 321.042 194.056C321.714 195.784 322.05 197.976 322.05 200.632C322.05 203.608 321.442 206.168 320.226 208.312C319.042 210.488 317.25 212.216 314.85 213.496C312.482 214.776 309.538 215.624 306.018 216.04ZM344.355 205.384C343.043 205.384 341.699 205.208 340.323 204.856C338.947 204.472 337.619 203.944 336.339 203.272C335.091 202.6 333.955 201.784 332.931 200.824C331.939 199.832 331.139 198.728 330.531 197.512C329.955 196.296 329.667 194.984 329.667 193.576C329.667 192.136 329.955 190.808 330.531 189.592C331.139 188.376 331.987 187.4 333.075 186.664C334.195 185.896 335.491 185.512 336.963 185.512C338.403 185.512 339.635 185.912 340.659 186.712C341.683 187.48 342.467 188.488 343.011 189.736C343.587 190.952 343.875 192.232 343.875 193.576C343.875 195.432 343.347 197.096 342.291 198.568C341.267 200.008 339.875 201.224 338.115 202.216C336.355 203.208 334.419 203.96 332.307 204.472C330.195 204.984 328.051 205.24 325.875 205.24L326.355 201.304C328.083 201.304 329.619 201.192 330.963 200.968C332.339 200.712 333.523 200.376 334.515 199.96C335.987 199.384 337.139 198.696 337.971 197.896C338.835 197.064 339.443 196.216 339.795 195.352C340.147 194.488 340.323 193.704 340.323 193C340.323 192.328 340.179 191.688 339.891 191.08C339.635 190.44 339.251 189.928 338.739 189.544C338.259 189.128 337.667 188.92 336.963 188.92C336.259 188.92 335.619 189.128 335.043 189.544C334.499 189.928 334.067 190.44 333.747 191.08C333.427 191.72 333.267 192.392 333.267 193.096C333.267 194.44 333.603 195.64 334.275 196.696C334.979 197.72 335.875 198.6 336.963 199.336C338.083 200.072 339.267 200.632 340.515 201.016C341.795 201.4 343.011 201.592 344.163 201.592C345.251 201.592 346.051 201.416 346.563 201.064C347.075 200.68 347.331 200.056 347.331 199.192C347.331 199.032 347.283 198.744 347.187 198.328C347.123 197.88 346.867 197.272 346.419 196.504C346.003 195.736 345.283 194.792 344.259 193.672C343.235 192.52 341.795 191.16 339.939 189.592C338.083 187.992 335.683 186.136 332.739 184.024L334.995 181.048C338.067 183.288 340.595 185.272 342.579 187C344.595 188.696 346.179 190.184 347.331 191.464C348.515 192.712 349.379 193.816 349.923 194.776C350.499 195.704 350.867 196.536 351.027 197.272C351.187 197.976 351.267 198.648 351.267 199.288C351.267 200.344 351.027 201.336 350.547 202.264C350.099 203.192 349.363 203.944 348.339 204.52C347.347 205.096 346.019 205.384 344.355 205.384ZM379.781 205.24C377.221 205.24 375.253 204.952 373.877 204.376C372.533 203.8 371.605 202.904 371.093 201.688C370.581 200.472 370.293 198.904 370.229 196.984L369.269 170.728H373.205L374.165 195.448C374.229 197.016 374.373 198.232 374.597 199.096C374.853 199.928 375.397 200.504 376.229 200.824C377.093 201.144 378.437 201.304 380.261 201.304C380.933 201.304 381.413 201.496 381.701 201.88C382.021 202.232 382.181 202.664 382.181 203.176C382.181 203.688 381.957 204.168 381.509 204.616C381.061 205.032 380.485 205.24 379.781 205.24ZM379.781 205.24L380.261 201.304C381.157 201.304 381.909 201.112 382.517 200.728C383.125 200.344 383.717 199.704 384.293 198.808C384.869 197.912 385.493 196.712 386.165 195.208C387.093 193.16 388.005 191.608 388.901 190.552C389.829 189.496 390.741 188.776 391.637 188.392C392.565 188.008 393.477 187.816 394.373 187.816C395.461 187.816 396.469 188.104 397.397 188.68C398.325 189.224 399.141 189.96 399.845 190.888C400.549 191.816 401.093 192.84 401.477 193.96C401.893 195.048 402.101 196.136 402.101 197.224C402.101 199.144 401.765 200.68 401.093 201.832C400.421 202.952 399.557 203.768 398.501 204.28C397.477 204.76 396.405 205 395.285 205C394.293 205 393.013 204.808 391.445 204.424C389.909 204.04 387.957 203.064 385.589 201.496L387.461 198.472C389.029 199.464 390.437 200.152 391.685 200.536C392.965 200.888 394.021 201.064 394.853 201.064C395.781 201.064 396.517 200.936 397.061 200.68C397.605 200.392 398.005 199.992 398.261 199.48C398.517 198.968 398.645 198.392 398.645 197.752C398.645 196.824 398.421 195.896 397.973 194.968C397.525 194.04 396.949 193.272 396.245 192.664C395.573 192.056 394.853 191.752 394.085 191.752C393.509 191.752 392.949 191.912 392.405 192.232C391.861 192.552 391.301 193.144 390.725 194.008C390.149 194.872 389.493 196.12 388.757 197.752C387.989 199.48 387.253 200.856 386.549 201.88C385.877 202.872 385.189 203.608 384.485 204.088C383.781 204.568 383.045 204.872 382.277 205C381.541 205.16 380.709 205.24 379.781 205.24Z" fill="black"/>
<path d="M42.296 56V38.48C42.296 36.4 41.816 34.928 40.856 34.064C39.928 33.168 38.36 32.72 36.152 32.72C34.552 32.72 33.016 32.944 31.544 33.392C30.104 33.808 28.728 34.4 27.416 35.168V31.184C28.344 30.704 29.592 30.256 31.16 29.84C32.76 29.424 34.552 29.216 36.536 29.216C38.232 29.216 39.672 29.408 40.856 29.792C42.072 30.176 42.968 30.88 43.544 31.904C44.664 32.416 45.432 33.216 45.848 34.304C46.296 35.392 46.52 36.704 46.52 38.24V56H42.296ZM34.04 56.48C31.224 56.48 29.064 55.84 27.56 54.56C26.088 53.248 25.352 51.376 25.352 48.944C25.352 46.288 26.312 44.24 28.232 42.8C30.184 41.36 33.336 40.512 37.688 40.256L43.16 39.92V43.472L38.264 43.808C35 44.032 32.744 44.544 31.496 45.344C30.28 46.144 29.672 47.312 29.672 48.848C29.672 50.288 30.12 51.344 31.016 52.016C31.944 52.688 33.224 53.024 34.856 53.024C35.4 53.024 35.896 52.992 36.344 52.928C36.792 52.832 37.224 52.72 37.64 52.592L38.312 55.808C37.704 56.032 37.032 56.192 36.296 56.288C35.592 56.416 34.84 56.48 34.04 56.48ZM43.4 33.392L41 31.136C41.832 31.008 42.616 30.688 43.352 30.176C44.088 29.664 44.456 28.928 44.456 27.968H48.632C48.632 28.96 48.392 29.84 47.912 30.608C47.464 31.344 46.84 31.952 46.04 32.432C45.24 32.88 44.36 33.2 43.4 33.392ZM54.6928 56.48C54.1168 56.48 53.5568 56.416 53.0128 56.288C52.4688 56.192 51.9248 56.016 51.3808 55.76L51.8608 52.784C52.0848 52.848 52.3408 52.912 52.6288 52.976C52.9168 53.04 53.1888 53.072 53.4448 53.072C53.9568 53.072 54.3248 52.928 54.5488 52.64C54.7728 52.32 54.8848 51.824 54.8848 51.152V46.688C54.8848 44.704 55.2528 43.28 55.9888 42.416C56.7248 41.52 57.7808 40.912 59.1568 40.592L59.2048 40.448L53.6848 38.432V36.848C53.6848 35.536 54.1008 34.304 54.9328 33.152C55.7968 31.968 57.0448 31.024 58.6768 30.32C60.3088 29.584 62.2608 29.216 64.5328 29.216C66.5168 29.216 68.3408 29.536 70.0048 30.176C71.6688 30.784 72.9968 31.76 73.9888 33.104C75.0128 34.416 75.5248 36.144 75.5248 38.288V56H71.2528V38.72C71.2528 36.576 70.5968 35.056 69.2848 34.16C67.9728 33.232 66.3728 32.768 64.4848 32.768C62.5008 32.768 60.9328 33.184 59.7808 34.016C58.6288 34.816 58.0528 35.84 58.0528 37.088L63.5248 39.68L63.1407 41.984C61.9568 41.984 60.9968 42.368 60.2608 43.136C59.5248 43.904 59.1568 45.136 59.1568 46.832V51.488C59.1568 53.44 58.7248 54.768 57.8608 55.472C56.9968 56.144 55.9408 56.48 54.6928 56.48ZM90.7186 56V37.328C90.7186 35.76 90.3506 34.608 89.6146 33.872C88.9106 33.136 87.7106 32.768 86.0146 32.768C84.8626 32.768 83.7746 32.928 82.7506 33.248C81.7586 33.536 80.7986 33.952 79.8706 34.496V30.656C80.5106 30.336 81.4226 30.016 82.6066 29.696C83.7906 29.376 85.1986 29.216 86.8306 29.216C88.4946 29.216 89.9346 29.456 91.1506 29.936C92.3666 30.416 93.3106 31.216 93.9826 32.336C94.6546 33.424 94.9906 34.88 94.9906 36.704V56H90.7186ZM105.611 56L100.859 29.696H105.227L107.099 41.12C107.259 42.048 107.419 43.248 107.579 44.72C107.739 46.192 107.931 47.936 108.155 49.952H108.299C108.587 48.576 108.859 47.344 109.115 46.256C109.403 45.168 109.659 44.192 109.883 43.328C110.139 42.432 110.363 41.648 110.555 40.976L113.771 29.696H117.275L120.539 40.976C120.731 41.648 120.939 42.432 121.163 43.328C121.419 44.192 121.675 45.168 121.931 46.256C122.219 47.344 122.507 48.576 122.795 49.952H122.987C123.179 47.936 123.355 46.192 123.515 44.72C123.675 43.248 123.835 42.048 123.995 41.12L125.915 29.696H130.283L125.531 56H121.355L116.939 41.696C116.715 40.896 116.491 40.064 116.267 39.2C116.075 38.336 115.883 37.2 115.691 35.792H115.499C115.371 36.72 115.227 37.536 115.067 38.24C114.907 38.944 114.747 39.568 114.587 40.112C114.427 40.656 114.267 41.184 114.107 41.696L109.787 56H105.611ZM145.466 56.48C142.01 56.48 139.418 55.584 137.69 53.792C135.994 51.968 135.146 49.12 135.146 45.248C135.146 44.608 135.162 43.92 135.194 43.184C135.258 42.416 135.322 41.664 135.386 40.928H145.466V44.288H139.418V45.248C139.418 47.264 139.642 48.848 140.09 50C140.538 51.12 141.194 51.904 142.058 52.352C142.954 52.8 144.058 53.024 145.37 53.024C146.81 53.024 148.058 52.752 149.114 52.208C150.17 51.664 150.986 50.672 151.562 49.232C152.138 47.792 152.426 45.728 152.426 43.04C152.426 40.672 152.17 38.736 151.658 37.232C151.146 35.728 150.298 34.608 149.114 33.872C147.962 33.136 146.394 32.768 144.41 32.768C143.386 32.768 142.394 32.864 141.434 33.056C140.474 33.216 139.546 33.472 138.65 33.824C137.754 34.144 136.874 34.56 136.01 35.072V31.088C136.65 30.736 137.434 30.432 138.362 30.176C139.29 29.888 140.314 29.664 141.434 29.504C142.554 29.312 143.722 29.216 144.938 29.216C147.754 29.216 150.026 29.792 151.754 30.944C153.514 32.064 154.794 33.664 155.594 35.744C156.394 37.792 156.794 40.224 156.794 43.04C156.794 45.856 156.426 48.272 155.69 50.288C154.954 52.304 153.754 53.84 152.09 54.896C150.458 55.952 148.25 56.48 145.466 56.48ZM171.156 56V37.328C171.156 35.76 170.788 34.608 170.052 33.872C169.348 33.136 168.148 32.768 166.452 32.768C165.3 32.768 164.212 32.928 163.188 33.248C162.196 33.536 161.236 33.952 160.308 34.496V30.656C160.948 30.336 161.86 30.016 163.044 29.696C164.228 29.376 165.636 29.216 167.268 29.216C168.932 29.216 170.372 29.456 171.588 29.936C172.804 30.416 173.748 31.216 174.42 32.336C175.092 33.424 175.428 34.88 175.428 36.704V56H171.156ZM182.976 56V46.88C182.976 44.864 183.424 43.408 184.32 42.512C185.216 41.584 186.352 40.944 187.728 40.592L187.776 40.448L182.496 38.432V36.848C182.496 35.536 182.928 34.304 183.792 33.152C184.656 31.968 185.888 31.024 187.488 30.32C189.12 29.584 191.056 29.216 193.296 29.216C195.248 29.216 197.056 29.536 198.72 30.176C200.384 30.784 201.712 31.76 202.704 33.104C203.728 34.416 204.24 36.144 204.24 38.288V56H199.968V38.72C199.968 36.576 199.312 35.056 198 34.16C196.72 33.232 195.136 32.768 193.248 32.768C191.296 32.768 189.744 33.184 188.592 34.016C187.44 34.816 186.864 35.84 186.864 37.088L192.048 39.68L191.664 41.984C190.48 41.984 189.44 42.384 188.544 43.184C187.68 43.952 187.248 45.184 187.248 46.88V56H182.976ZM219.437 56V37.328C219.437 35.76 219.069 34.608 218.333 33.872C217.629 33.136 216.429 32.768 214.733 32.768C213.581 32.768 212.493 32.928 211.469 33.248C210.477 33.536 209.517 33.952 208.589 34.496V30.656C209.229 30.336 210.141 30.016 211.325 29.696C212.509 29.376 213.917 29.216 215.549 29.216C217.213 29.216 218.653 29.456 219.869 29.936C221.085 30.416 222.029 31.216 222.701 32.336C223.373 33.424 223.709 34.88 223.709 36.704V56H219.437ZM231.497 56V39.2C231.497 35.968 232.361 33.504 234.089 31.808C235.817 30.08 238.569 29.216 242.345 29.216C244.137 29.216 245.673 29.44 246.953 29.888C248.233 30.304 249.241 31.024 249.977 32.048C251.129 32.624 251.945 33.536 252.425 34.784C252.937 36.032 253.193 37.504 253.193 39.2V56H248.921V39.2C248.921 37.056 248.361 35.456 247.241 34.4C246.153 33.312 244.521 32.768 242.345 32.768C240.169 32.768 238.521 33.312 237.401 34.4C236.313 35.456 235.769 37.056 235.769 39.2V44.528L235.913 44.576C236.649 43.328 237.513 42.512 238.505 42.128C239.529 41.712 240.969 41.504 242.825 41.504H244.409V45.008H242.825C240.905 45.008 239.433 45.28 238.409 45.824C237.385 46.368 236.681 47.088 236.297 47.984C235.945 48.848 235.769 49.824 235.769 50.912V56H231.497ZM249.977 33.392L247.577 31.136C248.409 31.008 249.193 30.688 249.929 30.176C250.665 29.664 251.033 28.928 251.033 27.968H255.209C255.209 28.96 254.969 29.84 254.489 30.608C254.009 31.344 253.369 31.952 252.569 32.432C251.801 32.88 250.937 33.2 249.977 33.392ZM267.59 56.48C266.726 56.48 265.894 56.336 265.094 56.048C264.294 55.76 263.638 55.248 263.126 54.512C262.614 53.776 262.358 52.752 262.358 51.44V29.696H266.63V50.912C266.63 51.648 266.79 52.176 267.11 52.496C267.43 52.816 267.942 52.976 268.646 52.976C268.934 52.976 269.238 52.944 269.558 52.88C269.878 52.816 270.182 52.736 270.47 52.64L271.046 55.76C270.438 56.048 269.846 56.24 269.27 56.336C268.694 56.432 268.134 56.48 267.59 56.48ZM285.839 56.48C282.063 56.48 279.359 55.616 277.727 53.888C276.095 52.16 275.279 49.696 275.279 46.496V29.696H279.551V46.544C279.551 48.688 280.063 50.288 281.087 51.344C282.111 52.4 283.695 52.928 285.839 52.928C288.015 52.928 289.615 52.4 290.639 51.344C291.695 50.288 292.223 48.688 292.223 46.544V20.24H296.495V46.496C296.495 49.696 295.663 52.16 293.999 53.888C292.367 55.616 289.647 56.48 285.839 56.48ZM285.237 26.24C284.373 26.24 283.637 26.064 283.029 25.712C282.389 25.328 281.877 24.768 281.493 24.032L279.861 26.096C278.005 26.096 276.549 25.648 275.493 24.752C274.437 23.824 273.909 22.496 273.909 20.768C273.909 18.944 274.453 17.6 275.541 16.736C276.597 15.84 277.829 15.392 279.237 15.392H289.509V18.272H279.861C279.125 18.272 278.517 18.48 278.037 18.896C277.525 19.312 277.269 19.984 277.269 20.912C277.269 21.584 277.445 22.144 277.797 22.592C278.149 23.04 278.741 23.264 279.573 23.264L281.493 20.864H282.693C282.725 21.696 282.917 22.336 283.269 22.784C283.589 23.2 284.053 23.408 284.661 23.408C285.205 23.408 285.653 23.232 286.005 22.88C286.325 22.496 286.485 22.016 286.485 21.44V20.864H289.557V21.536C289.557 23.104 289.173 24.288 288.405 25.088C287.605 25.856 286.549 26.24 285.237 26.24ZM313.413 56.48C311.525 56.48 309.893 56.16 308.517 55.52C307.173 54.848 306.133 53.84 305.397 52.496C304.693 51.152 304.341 49.408 304.341 47.264V29.696H308.613V47.024C308.613 48.944 309.093 50.4 310.053 51.392C311.045 52.384 312.469 52.88 314.325 52.88C316.565 52.88 318.293 52.16 319.509 50.72C320.757 49.28 321.381 47.344 321.381 44.912V29.696H325.653V56H322.101L321.909 52.112H321.669C321.093 53.392 320.085 54.448 318.645 55.28C317.237 56.08 315.493 56.48 313.413 56.48ZM343.091 56.48C339.635 56.48 337.043 55.584 335.315 53.792C333.619 51.968 332.771 49.12 332.771 45.248C332.771 44.608 332.787 43.92 332.819 43.184C332.883 42.416 332.947 41.664 333.011 40.928H343.091V44.288H337.043V45.248C337.043 47.264 337.267 48.848 337.715 50C338.163 51.12 338.819 51.904 339.683 52.352C340.579 52.8 341.683 53.024 342.995 53.024C344.435 53.024 345.683 52.752 346.739 52.208C347.795 51.664 348.611 50.672 349.187 49.232C349.763 47.792 350.051 45.728 350.051 43.04C350.051 40.672 349.795 38.736 349.283 37.232C348.771 35.728 347.923 34.608 346.739 33.872C345.587 33.136 344.019 32.768 342.035 32.768C341.011 32.768 340.019 32.864 339.059 33.056C338.099 33.216 337.171 33.472 336.275 33.824C335.379 34.144 334.499 34.56 333.635 35.072V31.088C334.275 30.736 335.059 30.432 335.987 30.176C336.915 29.888 337.939 29.664 339.059 29.504C340.179 29.312 341.347 29.216 342.563 29.216C345.379 29.216 347.651 29.792 349.379 30.944C351.139 32.064 352.419 33.664 353.219 35.744C354.019 37.792 354.419 40.224 354.419 43.04C354.419 45.856 354.051 48.272 353.315 50.288C352.579 52.304 351.379 53.84 349.715 54.896C348.083 55.952 345.875 56.48 343.091 56.48ZM371.469 56.432C368.877 56.432 366.797 56.096 365.229 55.424C363.693 54.752 362.573 53.808 361.869 52.592C361.197 51.376 360.861 49.936 360.861 48.272C360.861 46.8 361.069 45.632 361.485 44.768C361.933 43.872 362.477 43.216 363.117 42.8C363.789 42.384 364.477 42.112 365.181 41.984V41.792C364.541 41.6 363.869 41.28 363.165 40.832C362.461 40.384 361.869 39.76 361.389 38.96C360.941 38.16 360.717 37.152 360.717 35.936C360.717 34.816 360.973 33.76 361.485 32.768C361.997 31.776 362.829 30.96 363.981 30.32C365.133 29.68 366.653 29.36 368.541 29.36C369.309 29.36 370.109 29.424 370.941 29.552C371.773 29.648 372.413 29.824 372.861 30.08L372.093 33.392C371.741 33.264 371.277 33.152 370.701 33.056C370.157 32.928 369.581 32.864 368.973 32.864C367.629 32.864 366.637 33.184 365.997 33.824C365.357 34.432 365.037 35.248 365.037 36.272C365.037 37.392 365.309 38.24 365.853 38.816C366.429 39.392 367.149 39.792 368.013 40.016C368.909 40.208 369.837 40.304 370.797 40.304H371.709V43.424H370.797C368.877 43.424 367.453 43.776 366.525 44.48C365.629 45.152 365.181 46.288 365.181 47.888C365.181 48.816 365.357 49.664 365.709 50.432C366.093 51.2 366.733 51.808 367.629 52.256C368.557 52.704 369.837 52.928 371.469 52.928C373.101 52.928 374.365 52.704 375.261 52.256C376.189 51.808 376.845 51.168 377.229 50.336C377.613 49.472 377.805 48.448 377.805 47.264V29.696H382.077V46.976C382.077 50.336 381.213 52.752 379.485 54.224C377.789 55.696 375.117 56.432 371.469 56.432ZM377.784 25.52V15.392H382.008V25.52H377.784ZM397.281 56V37.328C397.281 35.76 396.913 34.608 396.177 33.872C395.473 33.136 394.273 32.768 392.577 32.768C391.425 32.768 390.337 32.928 389.313 33.248C388.321 33.536 387.361 33.952 386.433 34.496V30.656C387.073 30.336 387.985 30.016 389.169 29.696C390.353 29.376 391.761 29.216 393.393 29.216C395.057 29.216 396.497 29.456 397.713 29.936C398.929 30.416 399.873 31.216 400.545 32.336C401.217 33.424 401.553 34.88 401.553 36.704V56H397.281ZM413.661 56L405.453 29.696H409.773L416.877 52.304H417.453C418.221 52.304 418.973 52.128 419.709 51.776C420.445 51.392 421.069 50.912 421.581 50.336C422.541 49.28 423.245 47.952 423.693 46.352C424.141 44.72 424.365 43.12 424.365 41.552C424.365 38.896 423.757 36.816 422.541 35.312C421.357 33.776 419.709 33.008 417.597 33.008C417.181 33.008 416.765 33.04 416.349 33.104C415.965 33.168 415.645 33.248 415.389 33.344L414.333 29.936C415.005 29.744 415.629 29.616 416.205 29.552C416.813 29.488 417.357 29.456 417.837 29.456C419.437 29.456 420.861 29.696 422.109 30.176C423.389 30.624 424.477 31.296 425.373 32.192C426.493 33.28 427.309 34.64 427.821 36.272C428.365 37.904 428.637 39.712 428.637 41.696C428.637 44.192 428.253 46.416 427.485 48.368C426.717 50.288 425.757 51.824 424.605 52.976C423.677 53.904 422.541 54.64 421.197 55.184C419.853 55.728 418.141 56 416.061 56H413.661ZM436.514 34.496V25.904C436.514 24.688 436.626 23.712 436.85 22.976C437.074 22.208 437.378 21.584 437.762 21.104C438.146 20.624 438.562 20.224 439.01 19.904L438.962 19.712H430.61L431.714 16.352H445.25V19.712C444.066 19.712 443.026 20.096 442.13 20.864C441.234 21.632 440.786 23.04 440.786 25.088V34.496H436.514ZM441.746 56.48C440.882 56.48 440.05 56.336 439.25 56.048C438.45 55.76 437.794 55.248 437.282 54.512C436.77 53.776 436.514 52.752 436.514 51.44V29.696H440.786V50.912C440.786 51.648 440.946 52.176 441.266 52.496C441.586 52.816 442.098 52.976 442.802 52.976C443.09 52.976 443.394 52.944 443.714 52.88C444.034 52.816 444.338 52.736 444.626 52.64L445.202 55.76C444.594 56.048 444.002 56.24 443.426 56.336C442.85 56.432 442.29 56.48 441.746 56.48ZM456.624 56.48C454.736 56.48 452.976 56.304 451.344 55.952C449.744 55.568 448.384 55.12 447.264 54.608L448.512 51.152C449.184 51.408 449.952 51.68 450.816 51.968C451.68 52.256 452.608 52.496 453.6 52.688C454.624 52.848 455.664 52.928 456.72 52.928C458.416 52.928 459.824 52.608 460.944 51.968C462.064 51.328 462.624 50.4 462.624 49.184C462.624 48.448 462.416 47.824 462 47.312C461.616 46.768 461.008 46.272 460.176 45.824C459.344 45.376 458.272 44.944 456.96 44.528C454.944 43.888 453.232 43.216 451.824 42.512C450.448 41.776 449.392 40.912 448.656 39.92C447.952 38.896 447.6 37.632 447.6 36.128C447.6 34.784 447.952 33.6 448.656 32.576C449.392 31.52 450.512 30.704 452.016 30.128C453.552 29.52 455.504 29.216 457.872 29.216C459.408 29.216 460.848 29.36 462.192 29.648C463.568 29.904 464.64 30.272 465.408 30.752V34.352C464.864 34.096 464.176 33.84 463.344 33.584C462.544 33.328 461.664 33.12 460.704 32.96C459.744 32.8 458.752 32.72 457.728 32.72C455.584 32.72 454.064 33.056 453.168 33.728C452.304 34.368 451.872 35.104 451.872 35.936C451.872 36.64 452.064 37.232 452.448 37.712C452.864 38.192 453.552 38.656 454.512 39.104C455.504 39.552 456.832 40.064 458.496 40.64C460.032 41.152 461.44 41.744 462.72 42.416C464 43.088 465.008 43.936 465.744 44.96C466.512 45.952 466.896 47.232 466.896 48.8C466.896 50.144 466.56 51.408 465.888 52.592C465.248 53.744 464.176 54.688 462.672 55.424C461.168 56.128 459.152 56.48 456.624 56.48Z" fill="black"/>
<path d="M45.8 125.632C45.8 130.336 42.344 133.024 37.64 133.024C31.928 133.024 28.088 129.664 24.392 119.488L27.8 118.096C30.392 125.584 33.128 129.52 37.304 129.52C40.136 129.52 42.008 127.936 42.008 125.2C42.008 122.992 40.52 121.264 38.648 119.92C37.448 120.256 36.008 120.496 34.376 120.64L33.608 117.232C39.608 116.464 41.192 115.168 41.192 112.528C41.192 110.416 39.8 109.072 37.208 109.072C35.048 109.072 32.984 109.744 30.92 110.992L29.672 107.632C31.88 106.384 34.376 105.664 37.352 105.664C42.824 105.664 45.032 108.88 45.032 112.576C45.032 115.072 44.12 117.088 41.96 118.48L42.056 118.576C43.592 118.96 45.272 119.104 46.76 119.104C48.248 119.104 49.832 118.96 51.512 118.528V109.552H48.008V106.144H72.776V109.552H67.832V136H63.944V109.552H55.4V136H51.512V122.08C50.216 122.416 48.872 122.512 47.528 122.512C46.76 122.512 45.848 122.464 44.936 122.32C45.512 123.328 45.8 124.48 45.8 125.632ZM103.422 109.552V136H99.5341V118.24H92.9581C91.6621 118.24 90.7981 118.192 90.2221 118.096C92.5261 119.968 94.0621 122.704 94.0621 125.536C94.0621 130 90.7981 132.16 86.9581 132.16C81.8701 132.16 77.5981 128.176 73.5661 116.752L76.9741 115.552C79.9021 124.144 83.0221 128.656 86.7661 128.656C88.8301 128.656 90.2701 127.648 90.2701 125.104C90.2701 122.272 88.0621 119.728 85.1821 117.904L86.5741 114.832H99.5341V109.552H72.0781V106.144H108.366V109.552H103.422ZM157.662 109.552H142.062V118.816C143.406 117.616 145.326 116.8 147.678 116.8C152.238 116.8 154.926 119.728 154.926 124.48C154.926 127.84 153.726 130.864 150.894 133.984L147.534 131.872C149.646 129.712 151.086 127.36 151.086 124.432C151.086 121.648 149.694 120.16 147.246 120.16C145.23 120.16 143.262 121.552 142.062 123.712V136H138.174V127.84C136.446 129.376 134.142 130.336 131.262 130.336C126.366 130.336 122.286 127.552 122.286 122.032C122.286 116.8 125.934 113.728 132.174 113.728C133.806 113.728 135.294 113.92 136.494 114.208L136.158 117.712C135.054 117.424 133.71 117.232 132.27 117.232C128.334 117.232 126.174 118.96 126.174 122.176C126.174 125.344 128.382 126.88 131.262 126.88C134.19 126.88 136.734 125.248 138.174 123.184V109.552H120.078V106.144H157.662V109.552ZM165.082 109.552V136H161.194V109.552H156.922V106.144H170.026V109.552H165.082ZM206.151 109.552V136H202.263V124H191.655V125.776C191.655 127.888 190.551 128.752 189.351 128.752C186.903 128.752 183.591 125.104 183.591 122.656C183.591 121.504 184.359 120.592 186.519 120.592H187.767V109.552H181.719V106.144H211.095V109.552H206.151ZM202.263 109.552H191.655V120.592H202.263V109.552ZM218.566 109.552V136H214.678V109.552H210.406V106.144H214.438C211.414 102.784 210.118 102.256 207.814 102.256C206.326 102.256 204.79 102.688 203.542 103.264L202.342 99.904C203.782 99.28 205.414 98.896 206.95 98.896C209.974 98.896 211.51 100 214.198 102.784L214.39 102.688C211.702 97.36 210.406 96.304 207.718 96.304C206.614 96.304 205.558 96.544 204.31 97.024L203.206 93.712C204.502 93.232 206.038 92.992 207.574 92.992C212.854 92.992 214.63 95.536 218.182 106.144H223.51V109.552H218.566ZM236.604 136.672C231.804 131.968 227.916 127.12 226.188 123.952C225.276 122.32 224.844 120.88 224.844 119.68C224.844 118 225.804 117.088 227.436 117.088C228.828 117.088 230.124 117.952 231.372 119.392C233.1 118.192 233.676 116.032 233.676 113.92C233.676 112.144 233.292 110.56 232.86 109.552H222.828V106.144H255.948V109.552H251.004V136H247.116V123.712C245.484 124.096 243.804 124.288 242.028 124.288C239.484 124.288 236.46 123.808 233.772 122.416C232.812 123.136 231.564 123.76 230.124 124.24C232.428 127.36 235.692 130.528 239.532 134.08L236.604 136.672ZM241.98 120.832C243.804 120.832 245.436 120.64 247.116 120.16V109.552H236.796C237.324 110.944 237.564 112.48 237.564 114.4C237.564 116.512 237.084 118.336 236.076 119.872C238.044 120.592 239.82 120.832 241.98 120.832ZM279.698 109.552V136H275.81V124H265.202V125.776C265.202 127.888 264.098 128.752 262.898 128.752C260.45 128.752 257.138 125.104 257.138 122.656C257.138 121.504 257.906 120.592 260.066 120.592H261.314V109.552H255.266V106.144H284.642V109.552H279.698ZM275.81 109.552H265.202V120.592H275.81V109.552ZM333.912 109.552H318.312V118.816C319.656 117.616 321.576 116.8 323.928 116.8C328.488 116.8 331.176 119.728 331.176 124.48C331.176 127.84 329.976 130.864 327.144 133.984L323.784 131.872C325.896 129.712 327.336 127.36 327.336 124.432C327.336 121.648 325.944 120.16 323.496 120.16C321.48 120.16 319.512 121.552 318.312 123.712V136H314.424V127.84C312.696 129.376 310.392 130.336 307.512 130.336C302.616 130.336 298.536 127.552 298.536 122.032C298.536 116.8 302.184 113.728 308.424 113.728C310.056 113.728 311.544 113.92 312.744 114.208L312.408 117.712C311.304 117.424 309.96 117.232 308.52 117.232C304.584 117.232 302.424 118.96 302.424 122.176C302.424 125.344 304.632 126.88 307.512 126.88C310.44 126.88 312.984 125.248 314.424 123.184V109.552H296.328V106.144H333.912V109.552ZM314.466 106.48C311.25 102.832 309.954 102.256 307.554 102.256C306.066 102.256 304.53 102.688 303.282 103.264L302.082 99.904C303.522 99.28 305.154 98.896 306.69 98.896C309.714 98.896 311.25 100 313.938 102.784L314.13 102.688C311.442 97.36 310.146 96.304 307.458 96.304C306.354 96.304 305.298 96.544 304.05 97.024L302.946 93.712C304.242 93.232 305.778 92.992 307.314 92.992C312.594 92.992 314.37 95.536 318.018 106.48H314.466ZM346.948 136.672C342.148 131.968 338.26 127.12 336.532 123.952C335.62 122.32 335.188 120.88 335.188 119.68C335.188 118 336.148 117.088 337.78 117.088C339.172 117.088 340.468 117.952 341.716 119.392C343.444 118.192 344.02 116.032 344.02 113.92C344.02 112.144 343.636 110.56 343.204 109.552H333.172V106.144H366.292V109.552H361.348V136H357.46V123.712C355.828 124.096 354.148 124.288 352.372 124.288C349.828 124.288 346.804 123.808 344.116 122.416C343.156 123.136 341.908 123.76 340.468 124.24C342.772 127.36 346.036 130.528 349.876 134.08L346.948 136.672ZM352.324 120.832C354.148 120.832 355.78 120.64 357.46 120.16V109.552H347.14C347.668 110.944 347.908 112.48 347.908 114.4C347.908 116.512 347.428 118.336 346.42 119.872C348.388 120.592 350.164 120.832 352.324 120.832ZM373.769 109.552V136H369.881V109.552H365.609V106.144H378.713V109.552H373.769ZM406.39 132.928C408.646 131.968 409.846 130.528 409.846 128.992C409.846 126.88 408.262 125.344 404.374 125.344C399.958 125.344 397.558 127.312 397.558 130.528C397.558 134.368 401.686 136.72 408.79 139.552L406.87 142.816C399.382 139.792 393.718 136.432 393.718 130.384C393.718 127.696 394.774 125.632 396.55 124.24C394.822 122.704 393.718 121.072 393.718 119.008C393.718 115.552 396.118 113.68 401.11 113.68H407.734V109.552H390.406V106.144H416.566V109.552H411.622V117.088H401.638C398.806 117.088 397.558 117.904 397.558 119.632C397.558 120.832 398.47 122.032 399.43 122.704C400.918 122.176 402.646 121.936 404.47 121.936C410.998 121.936 413.638 125.2 413.638 129.04C413.638 131.728 412.486 133.936 409.126 135.712L406.39 132.928ZM407.794 106.48C404.578 102.832 403.282 102.256 400.882 102.256C399.394 102.256 397.858 102.688 396.61 103.264L395.41 99.904C396.85 99.28 398.482 98.896 400.018 98.896C403.042 98.896 404.578 100 407.266 102.784L407.458 102.688C404.77 97.36 403.474 96.304 400.786 96.304C399.682 96.304 398.626 96.544 397.378 97.024L396.274 93.712C397.57 93.232 399.106 92.992 400.642 92.992C405.922 92.992 407.698 95.536 411.346 106.48H407.794ZM425.65 127.12C424.354 126.016 423.778 124.672 423.778 123.232C423.778 117.136 432.466 116.608 432.466 111.52C432.466 109.12 430.594 107.056 426.802 107.056C423.202 107.056 420.946 108.64 419.17 110.992L416.77 108.4C419.074 105.424 422.626 103.504 427.186 103.504C433.042 103.504 436.594 106.816 436.594 110.944C436.594 118.192 427.282 118.816 427.282 123.52C427.282 124.288 427.762 125.248 428.578 125.872L425.65 127.12ZM426.658 136.48C425.218 136.48 424.018 135.28 424.018 133.84C424.018 132.4 425.218 131.2 426.658 131.2C428.098 131.2 429.298 132.4 429.298 133.84C429.298 135.28 428.098 136.48 426.658 136.48Z" fill="black"/>
</svg>
