<svg width="718" height="539" viewBox="0 0 718 539" fill="none" xmlns="http://www.w3.org/2000/svg">
<path d="M302.892 94.1338C293.317 79.0331 295.759 61.1454 311.67 51.0572C325.859 42.0613 344.122 45.5432 353.825 60.8465C363.013 75.3391 359.054 92.626 342.434 103.164L339.089 105.284L316.985 70.4212C313.003 74.2249 311.546 81.1159 316.044 88.2102C318.229 91.656 323.54 96.6716 327.91 97.7373L322.358 110.493C314.915 108.392 307.647 101.633 302.892 94.1338ZM339.778 83.9609C342.967 81.3708 346.327 75.6886 341.764 68.493C337.459 61.7028 330.924 62.152 326.991 63.7929L339.778 83.9609Z" fill="black"/>
<path d="M424.89 89.2298C421.039 91.6715 416.006 90.4575 413.629 86.7076C411.251 82.9578 412.3 77.8884 416.151 75.4467C419.901 73.0692 424.933 74.2832 427.311 78.0331C429.688 81.7829 428.64 86.8523 424.89 89.2298ZM411.268 67.7443C407.416 70.186 402.448 69.0733 400.071 65.3235C397.629 61.4723 398.742 56.5042 402.593 54.0625C406.343 51.685 411.311 52.7977 413.753 56.6489C416.13 60.3987 415.017 65.3668 411.268 67.7443ZM351.02 112.336C341.574 97.4385 344.475 79.8277 360.184 69.868C374.373 60.8721 392.443 64.0499 401.889 78.9478C411.142 93.5418 406.493 110.413 390.481 120.566L387.643 122.365L364.575 85.9816C358.907 90.712 356.887 98.955 362.156 107.265C364.79 111.421 370.277 116.041 375.309 117.255L370.597 128.199C363.054 126.162 355.839 119.937 351.02 112.336ZM388.455 104.373C392.924 101.114 397.05 93.9508 391.653 85.4377C386.577 77.4313 378.412 77.7767 373.162 80.2529L388.455 104.373Z" fill="black"/>
<path d="M524.873 467.081C517.697 457.614 517.387 448.663 519.444 442.437L531.792 444.822C530.28 449.582 530.763 454.787 533.952 458.995C538.591 465.115 545.705 466.951 553.2 463.529L539.064 444.881L548.436 437.777L562.499 456.33C567.628 450.183 567.759 443.007 563.12 436.886C559.931 432.678 555.145 430.735 550.153 430.904L551.194 418.371C557.649 418.146 566.182 420.862 573.359 430.33C584.087 444.484 581.874 462.423 567.721 473.151C553.472 483.952 535.602 481.235 524.873 467.081Z" fill="black"/>
<path d="M298.894 418.134C289.319 403.033 293.085 385.442 308.186 375.868C323.185 366.358 340.702 370.455 350.276 385.556C356.638 395.589 356.135 404.433 353.732 410.503L340.494 407.104C342.462 402.588 342.037 397.884 339.21 393.425C334.262 385.621 325.117 383.747 316.604 389.144C308.091 394.542 305.784 403.677 310.731 411.481C313.559 415.94 317.834 418.202 322.555 418.477L320.085 431.836C313.468 431.485 305.255 428.167 298.894 418.134Z" fill="black"/>
<path d="M292.673 418.496C281.319 400.587 285.785 379.725 303.693 368.371C321.481 357.093 342.255 361.952 353.61 379.86" stroke="black" stroke-width="2"/>
<path d="M363.089 180.417L363.157 179.419L362.292 179.36L362.111 180.209L363.089 180.417ZM374.822 181.219L375.813 181.355L375.958 180.294L374.891 180.221L374.822 181.219ZM383.846 184.023L383.311 183.178L382.466 183.714L383.002 184.558L383.846 184.023ZM393.778 177.726L394.623 177.19L394.088 176.346L393.243 176.881L393.778 177.726ZM395.292 169.804L394.341 169.494L394.005 170.525L395.06 170.777L395.292 169.804ZM398.909 158.701L399.127 157.725L398.24 157.526L397.958 158.391L398.909 158.701ZM420.189 174.337L419.345 174.872L419.348 174.878L420.189 174.337ZM402.326 201.292L403.078 200.632L401.447 201.769L402.326 201.292ZM370.588 207.632C364.266 197.661 362.492 188.029 364.067 180.625L362.111 180.209C360.402 188.244 362.369 198.405 368.899 208.703L370.588 207.632ZM363.021 181.415L374.754 182.217L374.891 180.221L363.157 179.419L363.021 181.415ZM373.832 181.083C372.831 188.383 375.321 196.198 379.135 202.213L380.824 201.142C377.184 195.402 374.894 188.059 375.813 181.355L373.832 181.083ZM379.135 202.213C381.269 205.58 383.516 207.928 385.727 209.165C387.973 210.421 390.256 210.555 392.21 209.316L391.139 207.627C389.952 208.379 388.476 208.411 386.703 207.419C384.896 206.408 382.866 204.364 380.824 201.142L379.135 202.213ZM392.21 209.316C394.496 207.867 395.269 205.502 394.93 202.758C394.598 200.072 393.204 196.914 391.052 193.521L389.363 194.591C391.453 197.887 392.667 200.748 392.945 203.003C393.217 205.2 392.603 206.698 391.139 207.627L392.21 209.316ZM391.052 193.521L384.691 183.487L383.002 184.558L389.363 194.591L391.052 193.521ZM384.382 184.867L394.314 178.57L393.243 176.881L383.311 183.178L384.382 184.867ZM392.934 178.261L399.295 188.294L400.984 187.223L394.623 177.19L392.934 178.261ZM399.295 188.294C401.448 191.69 403.601 194.071 405.758 195.301C406.85 195.924 407.967 196.265 409.094 196.268C410.226 196.271 411.303 195.932 412.307 195.295L411.236 193.606C410.517 194.062 409.809 194.269 409.099 194.268C408.384 194.266 407.604 194.051 406.749 193.564C405.012 192.574 403.073 190.517 400.984 187.223L399.295 188.294ZM412.307 195.295C414.227 194.078 414.853 191.81 414.609 189.33C414.362 186.838 413.234 183.909 411.349 180.936L409.66 182.007C411.437 184.811 412.412 187.44 412.618 189.527C412.826 191.627 412.254 192.961 411.236 193.606L412.307 195.295ZM411.349 180.936C407.189 174.375 402.015 170.376 395.523 168.831L395.06 170.777C400.952 172.179 405.723 175.799 409.66 182.007L411.349 180.936ZM396.243 170.114L399.86 159.011L397.958 158.391L394.341 169.494L396.243 170.114ZM398.69 159.677C406.211 161.361 413.83 166.174 419.345 174.872L421.034 173.801C415.239 164.662 407.174 159.527 399.127 157.725L398.69 159.677ZM419.348 174.878C424.201 182.421 426.628 189.03 426.877 194.322C427.123 199.561 425.244 203.48 421.44 205.892L422.511 207.581C427.018 204.723 429.148 200.062 428.874 194.228C428.603 188.447 425.981 181.492 421.03 173.796L419.348 174.878ZM421.44 205.892C418.608 207.687 415.301 207.809 412.025 206.748C408.737 205.683 405.542 203.441 403.078 200.632L401.574 201.951C404.236 204.986 407.724 207.458 411.409 208.651C415.105 209.847 419.06 209.769 422.511 207.581L421.44 205.892ZM401.447 201.769C403.064 204.746 404.129 208.683 403.914 212.4C403.7 216.094 402.235 219.49 398.875 221.62L399.946 223.309C403.984 220.749 405.669 216.676 405.91 212.516C406.15 208.378 404.974 204.074 403.205 200.815L401.447 201.769ZM398.875 221.62C394.906 224.136 390.172 224.246 385.241 221.932C380.282 219.604 375.148 214.825 370.588 207.632L368.899 208.703C373.591 216.104 378.983 221.204 384.391 223.742C389.826 226.293 395.3 226.255 399.946 223.309L398.875 221.62Z" fill="black"/>
<path d="M380.651 295.412C372.362 286.735 368.585 277.398 368.68 269.507L380.343 267.99C380.776 275.045 384.606 282.007 389.414 287.039C394.803 292.679 399.526 293.975 402.216 291.405C405.426 288.338 403.42 283.284 397.948 277.558L389.742 268.968L398.244 260.844L406.451 269.434C411.922 275.161 416.22 276.532 419.17 273.713C421.686 271.309 420.105 266.181 415.38 261.235C410.158 255.769 404.534 253.01 398.174 252.78L399.541 241.183C407.516 241.365 416.182 244.703 423.476 252.338" stroke="black" stroke-width="2"/>
<path d="M301.411 265.786L280.572 277.075L287.56 228.252L246.854 212.943L267.429 201.797L299.452 214.303L286.948 191.223L303.83 182.077L316.334 205.158L323.35 171.503L343.925 160.357L334.513 202.816L379.226 223.631L358.388 234.92L328.084 219.605L326.837 224.546L338.34 245.78L321.458 254.926L309.955 233.691L305.135 232.037L301.411 265.786Z" fill="black"/>
<path d="M133.76 90.2301L112.565 98.7936L109.194 90.4489C106.316 99.1829 98.3537 106.865 87.8395 111.113C74.9887 116.305 56.2951 113.763 49.0127 95.7382C41.3933 76.8792 53.6811 63.5668 66.5318 58.3747C77.213 54.0593 88.1419 53.7206 96.0448 57.9048L91.6619 47.0567C88.3579 38.8789 79.1906 36.3704 68.5095 40.6859C59.831 44.1922 53.1013 50.5998 48.821 59.7063L35.0787 48.757C41.419 36.1002 52.4846 26.9702 65.1685 21.8455C83.5267 14.4283 103.35 14.9613 112.722 38.1594L133.76 90.2301ZM90.5521 93.3213C97.3947 90.5567 103.126 85.523 104.743 79.434L100.697 69.4204C95.3047 66.1634 87.6849 66.5241 80.8423 69.2887C72.4976 72.6601 67.4082 79.7639 70.5774 87.6079C73.6117 95.1181 82.2074 96.6927 90.5521 93.3213Z" fill="black"/>
<path d="M258.623 137.935L231.551 124.731C233.121 120.69 232.766 117.313 222.177 110.279L198.838 94.6236L220.564 50.0794L258.206 68.4384L260.994 62.722L288.712 76.2414L280.611 92.8511L267.345 86.3808L253.458 114.855L266.724 121.325L258.623 137.935ZM220.287 87.3279L230.713 94.1483C235.682 97.373 238.831 101.045 240.32 105.109L250.104 85.0481L226.916 73.7381L220.287 87.3279Z" fill="black"/>
<path d="M116.071 96.1744L116.446 97.1016L117.373 96.727L116.998 95.7998L116.071 96.1744ZM94.8755 104.738L93.9483 105.113L94.3229 106.04L95.2501 105.665L94.8755 104.738ZM91.5041 96.3933L92.4312 96.0187L91.4086 93.4875L90.5543 96.0803L91.5041 96.3933ZM78.3554 63.8491L77.8874 64.7329L80.309 66.015L79.2825 63.4745L78.3554 63.8491ZM31.1316 65.6506L30.5084 66.4327L31.4982 67.2214L32.0366 66.076L31.1316 65.6506ZM17.3892 54.7013L16.4951 54.2534L16.132 54.9782L16.7661 55.4834L17.3892 54.7013ZM87.0537 85.3783L88.0202 85.6349L88.1058 85.3128L87.9809 85.0037L87.0537 85.3783ZM83.008 75.3647L83.9352 74.9901L83.8103 74.6811L83.525 74.5087L83.008 75.3647ZM115.696 95.2472L94.5009 103.811L95.2501 105.665L116.446 97.1016L115.696 95.2472ZM95.8027 104.363L92.4312 96.0187L90.5769 96.7679L93.9483 105.113L95.8027 104.363ZM90.5543 96.0803C87.7902 104.469 80.0882 111.963 69.7754 116.13L70.5246 117.984C81.2403 113.655 89.4624 105.785 92.4538 96.7062L90.5543 96.0803ZM69.7754 116.13C63.5425 118.648 55.8941 119.286 48.9459 117.121C42.0289 114.967 35.7742 110.029 32.2505 101.308L30.3961 102.057C34.1547 111.36 40.888 116.706 48.3511 119.031C55.7829 121.346 63.9068 120.658 70.5246 117.984L69.7754 116.13ZM32.2505 101.308C28.5553 92.1619 29.7026 84.4452 33.2684 78.3827C36.8579 72.2802 42.9455 67.7801 49.217 65.2463L48.4678 63.3919C41.8885 66.0501 35.4069 70.8022 31.5445 77.3687C27.6587 83.9752 26.4718 92.3442 30.3961 102.057L32.2505 101.308ZM49.217 65.2463C59.7295 60.9989 70.3309 60.7321 77.8874 64.7329L78.8233 62.9653C70.574 58.5977 59.3176 59.0083 48.4678 63.3919L49.217 65.2463ZM79.2825 63.4745L74.8996 52.6264L73.0453 53.3757L77.4282 64.2237L79.2825 63.4745ZM74.8996 52.6264C73.1288 48.2435 69.7629 45.3575 65.4276 44.1664C61.1217 42.9834 55.93 43.4871 50.4454 45.703L51.1946 47.5574C56.3913 45.4578 61.1237 45.0581 64.8977 46.0949C68.6424 47.1237 71.5121 49.5808 73.0453 53.3757L74.8996 52.6264ZM50.4454 45.703C41.5219 49.3083 34.6088 55.9018 30.2265 65.2252L32.0366 66.076C36.2149 57.1863 42.7612 50.9647 51.1946 47.5574L50.4454 45.703ZM31.7547 64.8685L18.0124 53.9192L16.7661 55.4834L30.5084 66.4327L31.7547 64.8685ZM18.2833 55.1492C24.4986 42.742 35.3601 33.7648 47.8536 28.7171L47.1044 26.8627C34.2303 32.0642 22.9605 41.3471 16.4951 54.2534L18.2833 55.1492ZM47.8536 28.7171C56.933 25.0488 66.2479 23.4021 74.3831 25.4362C82.4534 27.4541 89.5224 33.1339 94.1058 44.4784L95.9602 43.7291C91.171 31.8755 83.6421 25.6897 74.8682 23.4959C66.1591 21.3183 56.3833 23.1138 47.1044 26.8627L47.8536 28.7171ZM94.1058 44.4784L115.144 96.549L116.998 95.7998L95.9602 43.7291L94.1058 44.4784ZM73.2373 100.193C80.2395 97.3637 86.2921 92.1437 88.0202 85.6349L86.0872 85.1217C84.5819 90.791 79.171 95.6383 72.488 98.3384L73.2373 100.193ZM87.9809 85.0037L83.9352 74.9901L82.0808 75.7393L86.1265 85.7529L87.9809 85.0037ZM83.525 74.5087C77.7605 71.0272 69.7805 71.4767 62.7782 74.3058L63.5275 76.1602C70.2104 73.4601 77.4699 73.1882 82.491 76.2207L83.525 74.5087ZM62.7782 74.3058C58.4576 76.0515 54.9039 78.7923 52.8467 82.1984C50.7716 85.6342 50.2533 89.7008 51.9607 93.9269L53.8151 93.1776C52.3534 89.5597 52.7952 86.1524 54.5587 83.2324C56.3401 80.2828 59.5035 77.786 63.5275 76.1602L62.7782 74.3058ZM51.9607 93.9269C53.6064 98.0001 56.7821 100.475 60.6367 101.459C64.4604 102.434 68.9164 101.939 73.2373 100.193L72.488 98.3384C68.4642 99.9641 64.4501 100.367 61.1311 99.5206C57.8431 98.6819 55.2037 96.6146 53.8151 93.1776L51.9607 93.9269Z" fill="black"/>
<path d="M461.84 275.928L445.75 284.645L411.24 220.942L427.99 211.868L448.853 250.38L454.236 197.65L471.118 188.504L505.628 252.207L488.878 261.281L467.229 221.318L461.84 275.928Z" fill="black"/>
<path d="M627.075 303.751L590.991 316.885L569.598 258.107L549.864 265.289L546.478 255.986L576.783 244.956L586.377 271.314L611.89 262.029C625.985 256.898 636.854 263.956 640.907 275.092C645.012 286.368 641.03 298.672 627.075 303.751ZM614.148 271.742L589.763 280.617L598.177 303.734L622.562 294.858C630.173 292.088 632.516 285.808 630.054 279.042C627.643 272.417 621.9 268.92 614.148 271.742Z" fill="black"/>
<path d="M648.476 365.821L636.072 370.335L644.508 336.936C633.897 339.361 623.746 334.276 619.59 322.859C615.383 311.301 619.75 299.176 633.563 294.149L669.507 281.066L694.286 349.147L683.714 352.995L674.121 326.636L655.515 333.408L648.476 365.821ZM646.491 326.158L670.735 317.334L662.321 294.217L638.077 303.041C630.606 305.76 627.981 312.143 630.444 318.909C632.906 325.675 638.738 328.979 646.491 326.158Z" fill="black"/>
<path d="M470.84 215.928L454.75 224.645L420.24 160.942L436.99 151.868L457.853 190.38L463.236 137.65L480.118 128.504L514.628 192.207L497.878 201.281L476.229 161.318L470.84 215.928ZM463.542 114.282C462.125 124.262 456.245 133.248 446.749 138.392C437.385 143.465 426.515 143.554 417.249 139.361L421.277 129.161C427.553 132.244 434.675 132.48 441.533 128.764C448.128 125.192 451.892 119.229 452.798 112.085L463.542 114.282Z" fill="black"/>
<path d="M352.342 469.04L357.77 455.807C359.351 456.982 361.215 457.81 363.362 458.291C368.338 459.408 372.164 458.114 374.84 454.41L380.159 447.148L367.235 369.075L383.628 372.753L392.379 430.366L424.902 382.012L441.441 385.723L388.623 461.498C382.085 470.998 372.793 474.499 360.747 472.001C357.527 471.279 354.726 470.292 352.342 469.04Z" fill="black"/>
<path d="M369.033 350.944L388.938 355.409L396.348 408.724L425.822 363.684L445.873 368.182" stroke="black" stroke-width="2"/>
<path d="M506.224 313.429L496.332 318.788L461.822 255.085L471.714 249.726L486.075 276.236L519.312 258.231L504.95 231.721L514.842 226.362L549.352 290.065L539.46 295.424L524.027 266.935L490.791 284.941L506.224 313.429Z" fill="black"/>
<path d="M534.002 122.921L513.031 134.281L482.86 118.895L479.64 131.217L488.5 147.571L471.75 156.645L437.24 92.942L453.99 83.8679L469.351 112.224L478.126 70.7927L498.7 59.6467L489.157 102.177L534.002 122.921Z" fill="black"/>
<path d="M427 284.08L427 274.944L462 274.944L462 284.455L440.841 284.455L462 299.358L462 308.944L427 308.944L427 299.433L448.957 299.433L427 284.08Z" fill="black"/>
<path d="M276.684 116.656C281.439 124.156 288.708 130.914 296.15 133.016L301.702 120.26C297.333 119.194 292.021 114.179 289.837 110.733C285.339 103.639 286.795 96.7475 290.777 92.9438L301.829 110.375L312.881 127.807" stroke="black" stroke-width="2"/>
<path d="M321.683 131.656C326.438 139.156 333.707 145.914 341.149 148.016L346.702 135.26C342.332 134.194 337.02 129.179 334.836 125.733C330.338 118.639 331.794 111.747 335.776 107.944L346.828 125.375L357.88 142.807" stroke="black" stroke-width="2"/>
<path d="M137.37 179.961C147.858 173.422 148.076 160.842 141.727 150.659C135.568 140.782 124.177 135.44 113.689 141.979C103.2 148.518 102.881 161.162 109.04 171.039C115.389 181.222 126.882 186.5 137.37 179.961ZM141.624 186.784C126.553 196.18 109.922 190.145 99.7637 173.853C84.8438 149.923 87.3408 134.649 103.051 121.743C112.829 113.383 115.059 110.155 113.789 108.118L121.223 103.484C126.238 111.528 116.574 120.523 108.922 126.85C95.6306 137.965 95.1883 147.009 98.6633 156.438C98.7354 148.615 101.899 139.855 110.657 134.395C124.607 125.696 140.971 131.756 149.669 145.707C158.494 159.861 156.796 177.324 141.624 186.784Z" fill="black"/>
<path d="M114.193 108.48C124.125 99.9884 126.39 96.7089 125.1 94.6401L132.651 89.9321C137.746 98.1038 127.929 107.241 120.157 113.667C106.655 124.959 106.206 134.145 109.736 143.723C109.809 135.777 113.023 126.878 121.919 121.332C136.09 112.496 152.712 118.652 161.548 132.823" stroke="black" stroke-width="2"/>
<path d="M154.172 69.447C165.971 75.0625 169.889 75.796 171.253 73.7757L178.627 78.7561C173.237 86.7364 160.895 81.4895 151.861 77.0062C136.051 69.2705 127.478 72.5998 120.166 79.7234C127.454 76.5553 136.891 75.8682 145.578 81.7355C159.417 91.0823 160.562 108.771 151.215 122.61" stroke="black" stroke-width="2"/>
<path d="M357.67 254.848C347.423 248.602 341.368 240.553 339.426 232.904L350.303 228.433C352.54 235.137 358.036 240.877 363.978 244.5C370.638 248.56 375.536 248.594 377.473 245.418C379.784 241.627 376.542 237.262 369.78 233.139L359.636 226.955L365.758 216.914L375.901 223.098C382.664 227.22 387.169 227.437 389.293 223.954C391.105 220.982 388.255 216.435 382.415 212.874C375.96 208.939 369.815 207.722 363.61 209.14L361.943 197.583C369.694 195.703 378.928 196.694 387.944 202.191C403.478 211.52 409.002 222.055 403.88 230.457C400.007 236.81 391.031 237.24 383.849 234.267C389.644 238.362 395.16 247.066 390.6 254.545C385.291 263.254 372.424 263.843 357.67 254.848Z" fill="black"/>
<path d="M339.426 232.904L339.045 231.979L338.243 232.309L338.456 233.15L339.426 232.904ZM350.303 228.433L351.251 228.116L350.913 227.101L349.923 227.508L350.303 228.433ZM359.636 226.955L358.782 226.435L358.262 227.288L359.116 227.809L359.636 226.955ZM365.758 216.914L366.278 216.06L365.424 215.539L364.904 216.393L365.758 216.914ZM363.61 209.14L362.621 209.283L362.776 210.356L363.833 210.115L363.61 209.14ZM361.943 197.583L361.707 196.611L360.823 196.825L360.953 197.725L361.943 197.583ZM387.944 202.191L387.424 203.045L387.429 203.048L387.944 202.191ZM383.849 234.267L384.231 233.343L383.272 235.084L383.849 234.267ZM358.19 253.994C348.109 247.849 342.258 239.995 340.395 232.658L338.456 233.15C340.478 241.112 346.738 249.355 357.149 255.702L358.19 253.994ZM339.806 233.829L350.683 229.358L349.923 227.508L339.045 231.979L339.806 233.829ZM349.354 228.749C351.687 235.739 357.376 241.646 363.458 245.353L364.499 243.646C358.695 240.108 353.394 234.536 351.251 228.116L349.354 228.749ZM363.458 245.353C366.861 247.428 369.915 248.54 372.445 248.671C375.015 248.804 377.122 247.914 378.326 245.938L376.619 244.897C375.887 246.098 374.577 246.779 372.549 246.674C370.48 246.567 367.756 245.631 364.499 243.646L363.458 245.353ZM378.326 245.938C379.735 243.628 379.383 241.164 377.865 238.854C376.379 236.592 373.731 234.377 370.3 232.285L369.259 233.993C372.591 236.024 374.946 238.053 376.193 239.952C377.409 241.802 377.521 243.417 376.619 244.897L378.326 245.938ZM370.3 232.285L360.157 226.101L359.116 227.809L369.259 233.993L370.3 232.285ZM360.49 227.476L366.611 217.434L364.904 216.393L358.782 226.435L360.49 227.476ZM365.237 217.768L375.381 223.952L376.422 222.244L366.278 216.06L365.237 217.768ZM375.381 223.952C378.813 226.044 381.798 227.228 384.277 227.376C385.532 227.451 386.684 227.263 387.696 226.767C388.712 226.269 389.528 225.489 390.147 224.474L388.439 223.433C387.996 224.16 387.453 224.659 386.816 224.971C386.174 225.286 385.379 225.439 384.397 225.38C382.401 225.26 379.752 224.274 376.422 222.244L375.381 223.952ZM390.147 224.474C391.331 222.532 390.889 220.221 389.572 218.106C388.249 215.98 385.941 213.853 382.936 212.02L381.895 213.728C384.729 215.456 386.766 217.383 387.874 219.163C388.99 220.955 389.067 222.404 388.439 223.433L390.147 224.474ZM382.936 212.02C376.302 207.976 369.893 206.679 363.388 208.165L363.833 210.115C369.737 208.766 375.618 209.901 381.895 213.728L382.936 212.02ZM364.6 208.997L362.932 197.44L360.953 197.725L362.621 209.283L364.6 208.997ZM362.178 198.554C369.668 196.738 378.63 197.684 387.424 203.045L388.465 201.337C379.225 195.704 369.72 194.667 361.707 196.611L362.178 198.554ZM387.429 203.048C395.118 207.666 400.219 212.52 402.783 217.156C405.321 221.745 405.37 226.091 403.026 229.936L404.734 230.978C407.512 226.421 407.36 221.299 404.533 216.188C401.732 211.123 396.304 206.045 388.459 201.333L387.429 203.048ZM403.026 229.936C401.281 232.8 398.368 234.372 394.961 234.87C391.541 235.37 387.684 234.772 384.231 233.343L383.466 235.191C387.196 236.735 391.418 237.409 395.25 236.849C399.094 236.287 402.606 234.467 404.734 230.978L403.026 229.936ZM383.272 235.084C386.039 237.039 388.736 240.098 390.187 243.527C391.629 246.935 391.817 250.628 389.746 254.025L391.454 255.066C393.943 250.983 393.653 246.585 392.029 242.747C390.413 238.931 387.455 235.591 384.426 233.451L383.272 235.084ZM389.746 254.025C387.301 258.037 383.104 260.23 377.657 260.336C372.18 260.442 365.462 258.428 358.19 253.994L357.149 255.702C364.631 260.263 371.724 262.452 377.696 262.336C383.699 262.219 388.591 259.763 391.454 255.066L389.746 254.025Z" fill="#569DFD"/>
<path d="M535.539 333.803L538.1 335.364L530.553 347.745C524.671 357.393 527.482 362.387 534.825 366.863C539.522 369.726 546.521 371.885 550.517 371.862L563.374 350.772L565.936 352.334L540.794 393.574L538.232 392.013L549.216 373.996C544.57 373.741 537.86 371.876 533.42 369.169C523.942 363.391 521.432 356.942 527.991 346.183L535.539 333.803Z" fill="black"/>
<path d="M542.539 336.803L545.1 338.364L537.553 350.745C531.671 360.393 534.482 365.387 541.825 369.863C546.522 372.726 553.521 374.885 557.517 374.862L570.374 353.772L572.936 355.334L547.794 396.574L545.232 395.013L556.216 376.996C551.57 376.741 544.86 374.876 540.42 372.169C530.942 366.391 528.432 359.942 534.991 349.183L542.539 336.803Z" fill="black"/>
<path d="M598.798 173.908L593.013 180.802L558.174 151.567L580.902 195.234L578.742 197.808L531.716 183.097L566.555 212.332L560.77 219.226L516.37 181.969L524.007 172.869L568.332 186.879L546.685 145.843L554.399 136.651L598.798 173.908Z" fill="black"/>
<path d="M598.798 173.908L599.564 174.551L600.207 173.785L599.441 173.142L598.798 173.908ZM593.013 180.802L592.37 181.568L593.136 182.211L593.779 181.445L593.013 180.802ZM558.174 151.567L558.816 150.801L557.287 152.029L558.174 151.567ZM580.902 195.234L581.668 195.877L582.098 195.365L581.789 194.772L580.902 195.234ZM578.742 197.808L578.444 198.762L579.08 198.961L579.508 198.451L578.742 197.808ZM531.716 183.097L532.014 182.143L531.073 183.863L531.716 183.097ZM566.555 212.332L567.321 212.975L567.964 212.209L567.198 211.566L566.555 212.332ZM560.77 219.226L560.127 219.992L560.893 220.635L561.536 219.869L560.77 219.226ZM516.37 181.969L515.604 181.326L514.962 182.092L515.728 182.735L516.37 181.969ZM524.007 172.869L524.308 171.915L523.671 171.714L523.241 172.226L524.007 172.869ZM568.332 186.879L568.03 187.832L570.353 188.566L569.216 186.412L568.332 186.879ZM546.685 145.843L545.919 145.2L545.487 145.715L545.801 146.31L546.685 145.843ZM554.399 136.651L555.042 135.885L554.276 135.242L553.633 136.008L554.399 136.651ZM598.032 173.265L592.247 180.159L593.779 181.445L599.564 174.551L598.032 173.265ZM593.655 180.036L558.816 150.801L557.531 152.333L592.37 181.568L593.655 180.036ZM557.287 152.029L580.015 195.696L581.789 194.772L559.061 151.106L557.287 152.029ZM580.136 194.591L577.976 197.165L579.508 198.451L581.668 195.877L580.136 194.591ZM579.041 196.854L532.014 182.143L531.417 184.052L578.444 198.762L579.041 196.854ZM531.073 183.863L565.912 213.098L567.198 211.566L532.359 182.331L531.073 183.863ZM565.789 211.689L560.004 218.583L561.536 219.869L567.321 212.975L565.789 211.689ZM561.412 218.46L517.013 181.203L515.728 182.735L560.127 219.992L561.412 218.46ZM517.136 182.612L524.773 173.512L523.241 172.226L515.604 181.326L517.136 182.612ZM523.706 173.822L568.03 187.832L568.633 185.925L524.308 171.915L523.706 173.822ZM569.216 186.412L547.57 145.377L545.801 146.31L567.447 187.346L569.216 186.412ZM547.451 146.486L555.165 137.294L553.633 136.008L545.919 145.2L547.451 146.486ZM553.756 137.417L598.155 174.674L599.441 173.142L555.042 135.885L553.756 137.417Z" fill="#569DFD"/>
<path d="M598.845 182.411L593.06 189.305L558.22 160.07L580.949 203.737L578.789 206.311L531.763 191.6L566.602 220.835L560.816 227.729L516.417 190.472L524.054 181.372L568.379 195.382L546.732 154.346L554.446 145.154L598.845 182.411Z" fill="black"/>
<path d="M598.845 182.411L599.611 183.053L600.254 182.287L599.488 181.645L598.845 182.411ZM593.06 189.305L592.417 190.071L593.183 190.714L593.826 189.948L593.06 189.305ZM558.22 160.07L558.863 159.304L557.333 160.532L558.22 160.07ZM580.949 203.737L581.715 204.38L582.145 203.868L581.836 203.275L580.949 203.737ZM578.789 206.311L578.491 207.265L579.127 207.464L579.555 206.954L578.789 206.311ZM531.763 191.6L532.061 190.646L531.12 192.366L531.763 191.6ZM566.602 220.835L567.368 221.478L568.011 220.712L567.245 220.069L566.602 220.835ZM560.816 227.729L560.174 228.495L560.94 229.138L561.583 228.372L560.816 227.729ZM516.417 190.472L515.651 189.829L515.009 190.595L515.775 191.238L516.417 190.472ZM524.054 181.372L524.355 180.418L523.718 180.217L523.288 180.729L524.054 181.372ZM568.379 195.382L568.077 196.335L570.4 197.069L569.263 194.915L568.379 195.382ZM546.732 154.346L545.966 153.703L545.534 154.218L545.847 154.813L546.732 154.346ZM554.446 145.154L555.088 144.388L554.322 143.745L553.68 144.511L554.446 145.154ZM598.079 181.768L592.294 188.662L593.826 189.948L599.611 183.053L598.079 181.768ZM593.702 188.539L558.863 159.304L557.578 160.836L592.417 190.071L593.702 188.539ZM557.333 160.532L580.062 204.199L581.836 203.275L559.107 159.609L557.333 160.532ZM580.183 203.094L578.023 205.668L579.555 206.954L581.715 204.38L580.183 203.094ZM579.088 205.356L532.061 190.646L531.464 192.554L578.491 207.265L579.088 205.356ZM531.12 192.366L565.959 221.601L567.245 220.069L532.405 190.834L531.12 192.366ZM565.836 220.192L560.05 227.086L561.583 228.372L567.368 221.478L565.836 220.192ZM561.459 226.963L517.06 189.706L515.775 191.238L560.174 228.495L561.459 226.963ZM517.183 191.115L524.82 182.015L523.288 180.729L515.651 189.829L517.183 191.115ZM523.752 182.325L568.077 196.335L568.68 194.428L524.355 180.418L523.752 182.325ZM569.263 194.915L547.616 153.88L545.847 154.813L567.494 195.848L569.263 194.915ZM547.498 154.989L555.212 145.797L553.68 144.511L545.966 153.703L547.498 154.989ZM553.803 145.92L598.202 183.177L599.488 181.645L555.088 144.388L553.803 145.92Z" fill="#569DFD"/>
<path d="M598.845 190.411L593.06 197.305L558.22 168.07L580.949 211.737L578.789 214.311L531.763 199.6L566.602 228.835L560.816 235.729L516.417 198.472L524.054 189.372L568.379 203.382L546.732 162.346L554.446 153.154L598.845 190.411Z" fill="black"/>
<path d="M598.845 190.411L599.611 191.053L600.254 190.287L599.488 189.645L598.845 190.411ZM593.06 197.305L592.417 198.071L593.183 198.714L593.826 197.948L593.06 197.305ZM558.22 168.07L558.863 167.304L557.333 168.532L558.22 168.07ZM580.949 211.737L581.715 212.38L582.145 211.868L581.836 211.275L580.949 211.737ZM578.789 214.311L578.491 215.265L579.127 215.464L579.555 214.954L578.789 214.311ZM531.763 199.6L532.061 198.646L531.12 200.366L531.763 199.6ZM566.602 228.835L567.368 229.478L568.011 228.712L567.245 228.069L566.602 228.835ZM560.816 235.729L560.174 236.495L560.94 237.138L561.583 236.372L560.816 235.729ZM516.417 198.472L515.651 197.829L515.009 198.595L515.775 199.238L516.417 198.472ZM524.054 189.372L524.355 188.418L523.718 188.217L523.288 188.729L524.054 189.372ZM568.379 203.382L568.077 204.335L570.4 205.069L569.263 202.915L568.379 203.382ZM546.732 162.346L545.966 161.703L545.534 162.218L545.847 162.813L546.732 162.346ZM554.446 153.154L555.088 152.388L554.322 151.745L553.68 152.511L554.446 153.154ZM598.079 189.768L592.294 196.662L593.826 197.948L599.611 191.053L598.079 189.768ZM593.702 196.539L558.863 167.304L557.578 168.836L592.417 198.071L593.702 196.539ZM557.333 168.532L580.062 212.199L581.836 211.275L559.107 167.609L557.333 168.532ZM580.183 211.094L578.023 213.668L579.555 214.954L581.715 212.38L580.183 211.094ZM579.088 213.356L532.061 198.646L531.464 200.554L578.491 215.265L579.088 213.356ZM531.12 200.366L565.959 229.601L567.245 228.069L532.405 198.834L531.12 200.366ZM565.836 228.192L560.05 235.086L561.583 236.372L567.368 229.478L565.836 228.192ZM561.459 234.963L517.06 197.706L515.775 199.238L560.174 236.495L561.459 234.963ZM517.183 199.115L524.82 190.015L523.288 188.729L515.651 197.829L517.183 199.115ZM523.752 190.325L568.077 204.335L568.68 202.428L524.355 188.418L523.752 190.325ZM569.263 202.915L547.616 161.88L545.847 162.813L567.494 203.848L569.263 202.915ZM547.498 162.989L555.212 153.797L553.68 152.511L545.966 161.703L547.498 162.989ZM553.803 153.92L598.202 191.177L599.488 189.645L555.088 152.388L553.803 153.92Z" fill="#569DFD"/>
<path d="M598.798 198.908L593.013 205.802L558.174 176.567L580.902 220.234L578.742 222.808L531.716 208.097L566.555 237.332L560.77 244.226L516.37 206.969L524.007 197.869L568.332 211.879L546.685 170.843L554.399 161.651L598.798 198.908Z" fill="black"/>
<path d="M598.798 198.908L599.564 199.551L600.207 198.785L599.441 198.142L598.798 198.908ZM593.013 205.802L592.37 206.568L593.136 207.211L593.779 206.445L593.013 205.802ZM558.174 176.567L558.816 175.801L557.287 177.029L558.174 176.567ZM580.902 220.234L581.668 220.877L582.098 220.365L581.789 219.772L580.902 220.234ZM578.742 222.808L578.444 223.762L579.08 223.961L579.508 223.451L578.742 222.808ZM531.716 208.097L532.014 207.143L531.073 208.863L531.716 208.097ZM566.555 237.332L567.321 237.975L567.964 237.209L567.198 236.566L566.555 237.332ZM560.77 244.226L560.127 244.992L560.893 245.635L561.536 244.869L560.77 244.226ZM516.37 206.969L515.604 206.326L514.962 207.092L515.728 207.735L516.37 206.969ZM524.007 197.869L524.308 196.915L523.671 196.714L523.241 197.226L524.007 197.869ZM568.332 211.879L568.03 212.832L570.353 213.566L569.216 211.412L568.332 211.879ZM546.685 170.843L545.919 170.2L545.487 170.715L545.801 171.31L546.685 170.843ZM554.399 161.651L555.042 160.885L554.276 160.242L553.633 161.008L554.399 161.651ZM598.032 198.265L592.247 205.159L593.779 206.445L599.564 199.551L598.032 198.265ZM593.655 205.036L558.816 175.801L557.531 177.333L592.37 206.568L593.655 205.036ZM557.287 177.029L580.015 220.696L581.789 219.772L559.061 176.106L557.287 177.029ZM580.136 219.591L577.976 222.165L579.508 223.451L581.668 220.877L580.136 219.591ZM579.041 221.854L532.014 207.143L531.417 209.052L578.444 223.762L579.041 221.854ZM531.073 208.863L565.912 238.098L567.198 236.566L532.359 207.331L531.073 208.863ZM565.789 236.689L560.004 243.583L561.536 244.869L567.321 237.975L565.789 236.689ZM561.412 243.46L517.013 206.203L515.728 207.735L560.127 244.992L561.412 243.46ZM517.136 207.612L524.773 198.512L523.241 197.226L515.604 206.326L517.136 207.612ZM523.706 198.822L568.03 212.832L568.633 210.925L524.308 196.915L523.706 198.822ZM569.216 211.412L547.57 170.377L545.801 171.31L567.447 212.346L569.216 211.412ZM547.451 171.486L555.165 162.294L553.633 161.008L545.919 170.2L547.451 171.486ZM553.756 162.417L598.155 199.674L599.441 198.142L555.042 160.885L553.756 162.417Z" fill="#569DFD"/>
<path d="M492.208 144.327L499.079 136.521C502.007 139.098 506.376 137.615 515.233 129.824L533.021 114.308L562.37 140.143L530.456 176.398L520.923 168.006L545.503 140.084L534.019 129.974L523.699 139.275C511.164 150.489 501.44 152.454 492.208 144.327Z" fill="black"/>
<path d="M492.208 144.327L491.457 143.666L490.796 144.417L491.547 145.078L492.208 144.327ZM499.079 136.521L499.74 135.77L498.99 135.11L498.329 135.86L499.079 136.521ZM515.233 129.824L514.576 129.07L514.572 129.073L515.233 129.824ZM533.021 114.308L533.682 113.557L533.024 112.978L532.364 113.554L533.021 114.308ZM562.37 140.143L563.121 140.804L563.781 140.053L563.031 139.393L562.37 140.143ZM530.456 176.398L529.795 177.148L530.546 177.809L531.207 177.058L530.456 176.398ZM520.923 168.006L520.173 167.345L519.512 168.096L520.263 168.757L520.923 168.006ZM545.503 140.084L546.254 140.744L546.914 139.994L546.164 139.333L545.503 140.084ZM534.019 129.974L534.679 129.224L534.011 128.635L533.349 129.231L534.019 129.974ZM523.699 139.275L524.366 140.021L524.369 140.018L523.699 139.275ZM492.958 144.988L499.83 137.182L498.329 135.86L491.457 143.666L492.958 144.988ZM498.419 137.271C499.289 138.038 500.301 138.526 501.488 138.652C502.657 138.775 503.922 138.54 505.303 137.989C508.038 136.899 511.453 134.481 515.893 130.575L514.572 129.073C510.156 132.958 506.958 135.177 504.562 136.131C503.378 136.603 502.449 136.742 501.698 136.663C500.966 136.585 500.333 136.292 499.74 135.77L498.419 137.271ZM515.89 130.578L533.679 115.062L532.364 113.554L514.576 129.07L515.89 130.578ZM532.36 115.059L561.709 140.894L563.031 139.393L533.682 113.557L532.36 115.059ZM561.619 139.483L529.705 175.737L531.207 177.058L563.121 140.804L561.619 139.483ZM531.117 175.647L521.584 167.256L520.263 168.757L529.795 177.148L531.117 175.647ZM521.674 168.667L546.254 140.744L544.752 139.423L520.173 167.345L521.674 168.667ZM546.164 139.333L534.679 129.224L533.358 130.725L544.842 140.834L546.164 139.333ZM533.349 129.231L523.03 138.533L524.369 140.018L534.688 130.717L533.349 129.231ZM523.033 138.53C516.816 144.091 511.423 147.238 506.547 148.068C501.746 148.886 497.302 147.48 492.868 143.577L491.547 145.078C496.346 149.302 501.38 150.977 506.883 150.04C512.311 149.116 518.047 145.673 524.366 140.021L523.033 138.53Z" fill="#569DFD"/>
<path d="M492.208 144.327L499.079 136.521C502.007 139.098 506.376 137.615 515.233 129.824L533.021 114.308L562.37 140.143L530.456 176.398L520.923 168.006L545.503 140.084L534.019 129.974L523.699 139.275C511.164 150.489 501.44 152.454 492.208 144.327Z" fill="black"/>
<path d="M492.208 144.327L491.457 143.666L490.796 144.417L491.547 145.078L492.208 144.327ZM499.079 136.521L499.74 135.77L498.99 135.11L498.329 135.86L499.079 136.521ZM515.233 129.824L514.576 129.07L514.572 129.073L515.233 129.824ZM533.021 114.308L533.682 113.557L533.024 112.978L532.364 113.554L533.021 114.308ZM562.37 140.143L563.121 140.804L563.781 140.053L563.031 139.393L562.37 140.143ZM530.456 176.398L529.795 177.148L530.546 177.809L531.207 177.058L530.456 176.398ZM520.923 168.006L520.173 167.345L519.512 168.096L520.263 168.757L520.923 168.006ZM545.503 140.084L546.254 140.744L546.914 139.994L546.164 139.333L545.503 140.084ZM534.019 129.974L534.679 129.224L534.011 128.635L533.349 129.231L534.019 129.974ZM523.699 139.275L524.366 140.021L524.369 140.018L523.699 139.275ZM492.958 144.988L499.83 137.182L498.329 135.86L491.457 143.666L492.958 144.988ZM498.419 137.271C499.289 138.038 500.301 138.526 501.488 138.652C502.657 138.775 503.922 138.54 505.303 137.989C508.038 136.899 511.453 134.481 515.893 130.575L514.572 129.073C510.156 132.958 506.958 135.177 504.562 136.131C503.378 136.603 502.449 136.742 501.698 136.663C500.966 136.585 500.333 136.292 499.74 135.77L498.419 137.271ZM515.89 130.578L533.679 115.062L532.364 113.554L514.576 129.07L515.89 130.578ZM532.36 115.059L561.709 140.894L563.031 139.393L533.682 113.557L532.36 115.059ZM561.619 139.483L529.705 175.737L531.207 177.058L563.121 140.804L561.619 139.483ZM531.117 175.647L521.584 167.256L520.263 168.757L529.795 177.148L531.117 175.647ZM521.674 168.667L546.254 140.744L544.752 139.423L520.173 167.345L521.674 168.667ZM546.164 139.333L534.679 129.224L533.358 130.725L544.842 140.834L546.164 139.333ZM533.349 129.231L523.03 138.533L524.369 140.018L534.688 130.717L533.349 129.231ZM523.033 138.53C516.816 144.091 511.423 147.238 506.547 148.068C501.746 148.886 497.302 147.48 492.868 143.577L491.547 145.078C496.346 149.302 501.38 150.977 506.883 150.04C512.311 149.116 518.047 145.673 524.366 140.021L523.033 138.53Z" fill="#569DFD"/>
<path d="M567.576 301.446L573.59 299.257L581.85 321.951L549.101 333.87L540.842 311.177L546.809 309.005L553.17 326.483L560.594 323.781L554.232 306.303L560.199 304.131L566.561 321.609L573.937 318.924L567.576 301.446Z" fill="black"/>
<path d="M598.576 323.446L604.59 321.257L610.952 338.735L613.771 337.709L617.772 348.704L611.758 350.893L609.655 345.114L580.101 355.87L571.842 333.177L577.809 331.005L584.17 348.483L591.594 345.781L585.232 328.303L591.199 326.131L597.561 343.609L604.937 340.924L598.576 323.446Z" fill="black"/>
<path d="M581.853 242.185L587.82 240.014L590.659 247.813L598.412 244.991C603.674 243.076 607.553 245.548 609.007 249.542C610.478 253.583 608.907 258.039 603.833 259.885L590.113 264.879L581.853 242.185ZM599.332 250.297L592.472 252.793L594.25 257.68L601.11 255.183C602.802 254.567 603.412 253.175 602.899 251.765C602.386 250.355 601.023 249.681 599.332 250.297ZM620.7 253.746L614.686 255.935L606.426 233.242L612.44 231.053L620.7 253.746Z" fill="black"/>
<path d="M494.2 458.741L500.446 457.594L501.945 465.758L510.059 464.268C515.567 463.257 518.98 466.342 519.747 470.522C520.524 474.751 518.232 478.883 512.921 479.858L498.561 482.494L494.2 458.741ZM510.082 469.653L502.902 470.971L503.841 476.085L511.021 474.767C512.791 474.442 513.625 473.171 513.354 471.695C513.083 470.22 511.852 469.328 510.082 469.653Z" fill="black"/>
<path d="M337.959 466.43L330.826 464.112L343.712 424.453L330.397 420.127L332.436 413.85L366.294 424.851L364.255 431.128L350.845 426.771L337.959 466.43Z" fill="black"/>
<path d="M337.959 466.43L337.65 467.381L338.601 467.69L338.91 466.739L337.959 466.43ZM330.826 464.112L329.875 463.803L329.566 464.754L330.517 465.063L330.826 464.112ZM343.712 424.453L344.663 424.762L344.972 423.811L344.021 423.502L343.712 424.453ZM330.397 420.127L329.446 419.818L329.137 420.769L330.088 421.078L330.397 420.127ZM332.436 413.85L332.745 412.899L331.794 412.59L331.485 413.541L332.436 413.85ZM366.294 424.851L367.245 425.16L367.554 424.209L366.603 423.9L366.294 424.851ZM364.255 431.128L363.946 432.079L364.897 432.388L365.206 431.437L364.255 431.128ZM350.845 426.771L351.154 425.82L350.203 425.511L349.894 426.462L350.845 426.771ZM338.268 465.479L331.135 463.161L330.517 465.063L337.65 467.381L338.268 465.479ZM331.777 464.421L344.663 424.762L342.761 424.144L329.875 463.803L331.777 464.421ZM344.021 423.502L330.706 419.176L330.088 421.078L343.403 425.404L344.021 423.502ZM331.348 420.436L333.387 414.159L331.485 413.541L329.446 419.818L331.348 420.436ZM332.127 414.801L365.985 425.802L366.603 423.9L332.745 412.899L332.127 414.801ZM365.343 424.542L363.303 430.819L365.206 431.437L367.245 425.16L365.343 424.542ZM364.564 430.177L351.154 425.82L350.536 427.722L363.946 432.079L364.564 430.177ZM349.894 426.462L337.008 466.121L338.91 466.739L351.796 427.08L349.894 426.462Z" fill="#569DFD"/>
<path d="M581.912 417.995C578.366 404.762 585.696 393.48 597.801 389.202L595.394 380.218L574.53 385.809L572.589 378.564L619.243 366.063L621.184 373.308L601.769 378.51L604.202 387.59C616.304 386.004 627.468 392.123 630.884 404.873C634.715 419.169 626.181 430.98 612.658 434.603C599.135 438.227 585.742 432.291 581.912 417.995ZM588.384 416.261C591.075 426.307 601.051 429.535 610.613 426.972C620.08 424.436 627.104 416.653 624.413 406.607C621.773 396.755 611.771 393.43 602.305 395.966C592.743 398.529 585.744 406.409 588.384 416.261Z" fill="black"/>
<path d="M531.302 432.734L529.979 420.505L491.901 424.627L486.702 376.608L494.159 375.801L498.647 417.259L523.701 414.546L519.212 373.088L526.669 372.281L531.157 413.739L536.725 413.136L538.759 431.926L531.302 432.734Z" fill="black"/>
<path d="M415.02 470.617C417.987 467.588 422.39 466.638 427.268 467.833L412.583 453.444L416.782 449.158L431.41 463.492C430.178 459.148 430.865 454.446 433.945 451.303C439.656 445.475 449.173 446.736 458.144 455.527C467.058 464.261 468.626 473.862 462.915 479.691C459.948 482.719 455.545 483.669 450.723 482.417L465.408 496.807L461.209 501.092L446.581 486.758C447.813 491.102 447.07 495.861 443.99 499.004C438.279 504.832 428.762 503.571 419.791 494.781C410.877 486.046 409.309 476.445 415.02 470.617ZM420.024 473.168C415.825 477.454 417.932 484.447 424.047 490.438C430.161 496.429 437.138 498.338 441.338 494.053C443.913 491.424 444.433 486.893 443.153 483.399L430.696 471.193C427.176 469.984 422.6 470.54 420.024 473.168ZM457.911 477.139C462.11 472.854 460.003 465.86 453.889 459.869C447.775 453.878 440.797 451.969 436.597 456.255C434.078 458.826 433.558 463.357 434.838 466.851L447.295 479.057C450.815 480.266 455.391 479.711 457.911 477.139Z" fill="black"/>
<path d="M248.952 474.391L237.774 480.42L220.115 447.679L202.512 457.173L220.172 489.914L208.994 495.943L186.065 453.432L226.023 431.88L248.952 474.391Z" fill="black"/>
<path d="M248.952 474.391L249.427 475.271L250.307 474.796L249.832 473.916L248.952 474.391ZM237.774 480.42L236.894 480.895L237.369 481.775L238.249 481.3L237.774 480.42ZM220.115 447.679L220.995 447.204L220.52 446.324L219.64 446.799L220.115 447.679ZM202.512 457.173L202.037 456.293L201.157 456.768L201.632 457.648L202.512 457.173ZM220.172 489.914L220.646 490.794L221.526 490.32L221.052 489.439L220.172 489.914ZM208.994 495.943L208.114 496.418L208.588 497.298L209.469 496.823L208.994 495.943ZM186.065 453.432L185.59 452.552L184.71 453.027L185.185 453.907L186.065 453.432ZM226.023 431.88L226.904 431.405L226.429 430.525L225.549 431L226.023 431.88ZM248.477 473.511L237.3 479.54L238.249 481.3L249.427 475.271L248.477 473.511ZM238.655 479.945L220.995 447.204L219.235 448.153L236.894 480.895L238.655 479.945ZM219.64 446.799L202.037 456.293L202.987 458.053L220.59 448.559L219.64 446.799ZM201.632 457.648L219.291 490.389L221.052 489.439L203.392 456.698L201.632 457.648ZM219.697 489.034L208.519 495.063L209.469 496.823L220.646 490.794L219.697 489.034ZM209.874 495.468L186.945 452.958L185.185 453.907L208.114 496.418L209.874 495.468ZM186.54 454.312L226.498 432.76L225.549 431L185.59 452.552L186.54 454.312ZM225.143 432.355L248.072 474.866L249.832 473.916L226.904 431.405L225.143 432.355Z" fill="#569DFD"/>
<path d="M512.471 439.453L503.866 447.527L482.57 443.1L485.562 464.702L477.03 472.708L472.967 442.512L444.709 436.803L453.314 428.728L472.922 432.818L470.013 413.058L478.618 404.984L482.52 433.548L512.471 439.453Z" fill="black"/>
<path d="M286.29 483.003C280.447 486.072 273.871 486.026 267.907 483.059L279.86 505.81L273.221 509.299L242.198 450.253L248.837 446.764L252.186 453.138C253.005 447.172 256.689 441.283 262.708 438.121C273.951 432.214 286.206 436.619 293.509 450.517C300.765 464.327 297.533 477.096 286.29 483.003ZM281.492 477.955C290.079 473.444 291.492 463.664 286.515 454.192C281.538 444.72 272.73 440.424 264.143 444.935C258.92 447.68 255.325 453.522 254.977 458.45L265.116 477.748C269.371 480.257 276.269 480.699 281.492 477.955Z" fill="black"/>
<path d="M286.907 472.996C292.839 475.828 298.637 475.756 304.303 472.78C309.91 469.834 313.4 465.44 314.773 459.597C316.174 453.664 315.061 447.246 311.433 440.341C307.805 433.436 303.167 428.907 297.517 426.754C291.926 424.571 286.328 424.952 280.721 427.898C274.997 430.905 271.632 435.61 270.628 442.012M297.233 465.989C300.892 464.066 303.116 461.203 303.904 457.4C304.692 453.597 303.986 449.601 301.784 445.411C299.582 441.22 296.708 438.401 293.16 436.951C289.581 435.443 285.962 435.65 282.303 437.572C280.178 438.689 278.378 440.35 276.901 442.557C275.425 444.763 274.574 446.942 274.349 449.094L283.233 466.002C285.132 467.037 287.409 467.573 290.064 467.609C292.719 467.645 295.108 467.105 297.233 465.989Z" stroke="black" stroke-width="2"/>
<path d="M216.436 127.521L221.665 157.305L164.578 167.328L159.432 138.016C157.793 128.679 162.269 121.557 171.369 119.96C178.225 118.756 183.72 122.299 185.968 126.778C186.509 120.835 191.748 115.285 198.13 114.165C207.704 112.484 214.693 117.592 216.436 127.521ZM211.109 129.796C209.905 122.941 205.3 119.607 198.799 120.748C193.362 121.703 188.687 126.301 189.953 133.51L193.874 155.849L215.031 152.134L211.109 129.796ZM184.557 134.701C183.395 128.082 178.518 125.284 173.081 126.238C167.171 127.276 163.914 131.625 165.056 138.125L168.936 160.227L188.438 156.803L184.557 134.701Z" fill="black"/>
<path d="M230.224 165.295L230.717 165.208L230.63 164.716L225.401 134.931C224.512 129.87 222.276 125.983 218.987 123.583C215.696 121.18 211.411 120.31 206.517 121.169C200.441 122.236 195.357 127.183 194.161 132.796C191.487 128.753 186.188 125.835 179.756 126.964C175.09 127.783 171.565 130.03 169.427 133.31C167.292 136.585 166.575 140.834 167.412 145.599L172.558 174.911L172.645 175.404L173.137 175.317L230.224 165.295ZM207.358 128.738C210.505 128.185 213.136 128.724 215.118 130.174C217.102 131.627 218.504 134.044 219.089 137.379L222.925 159.225L202.753 162.767L198.918 140.921C198.308 137.447 199.131 134.64 200.729 132.588C202.334 130.527 204.747 129.196 207.358 128.738ZM181.64 134.228C184.251 133.769 186.692 134.217 188.611 135.539C190.527 136.858 191.976 139.084 192.537 142.285L196.331 163.894L177.815 167.145L174.021 145.536C173.467 142.385 173.988 139.813 175.307 137.915C176.626 136.017 178.788 134.729 181.64 134.228Z" fill="black" stroke="#569DFD"/>
</svg>
