<svg width="28" height="32" viewBox="0 0 28 32" fill="none" xmlns="http://www.w3.org/2000/svg">
<path fill-rule="evenodd" clip-rule="evenodd" d="M4.66255e-08 1.06667L0 0L28 -1.22392e-06L28 1.06667L4.66255e-08 1.06667ZM3.26378e-07 7.46667L2.33127e-07 5.33333L28 5.33333L28 7.46667L3.26378e-07 7.46667ZM6.06131e-07 13.8667L5.1288e-07 11.7333L28 11.7333L28 13.8667L6.06131e-07 13.8667ZM8.85884e-07 20.2667L7.92633e-07 18.1333L28 18.1333L28 20.2667L8.85884e-07 20.2667ZM1.16564e-06 26.6667L1.07239e-06 24.5333L28 24.5333L28 26.6667L1.16564e-06 26.6667ZM1.39876e-06 32L1.35214e-06 30.9333L28 30.9333L28 32L1.39876e-06 32Z" fill="black"/>
</svg>
