<svg width="376" height="54" viewBox="0 0 376 54" fill="none" xmlns="http://www.w3.org/2000/svg">
<path d="M10.4081 25.352V24.536C10.4081 23.608 10.3121 22.824 10.1201 22.184C9.92813 21.512 9.56013 20.84 9.01613 20.168C8.47213 19.496 7.65613 18.712 6.56813 17.816C5.41613 16.856 4.40813 15.96 3.54413 15.128C2.71213 14.264 2.05613 13.336 1.57613 12.344C1.12813 11.32 0.904125 10.088 0.904125 8.648C0.904125 6.056 1.73613 4.008 3.40013 2.504C5.06413 0.999998 7.41613 0.247998 10.4561 0.247998C12.3761 0.247998 14.1041 0.471998 15.6401 0.919998C17.2081 1.368 18.6321 1.928 19.9121 2.6L18.4241 5.96C17.3361 5.416 16.1841 4.952 14.9681 4.568C13.7521 4.152 12.3441 3.944 10.7441 3.944C8.88813 3.944 7.44813 4.36 6.42413 5.192C5.43213 6.024 4.93613 7.208 4.93613 8.744C4.93613 9.704 5.08013 10.52 5.36813 11.192C5.65613 11.864 6.15213 12.552 6.85613 13.256C7.56013 13.96 8.52013 14.84 9.73613 15.896C10.7921 16.76 11.6081 17.592 12.1841 18.392C12.7601 19.192 13.1601 20.04 13.3841 20.936C13.6401 21.8 13.7681 22.84 13.7681 24.056V25.352H10.4081ZM11.8961 35.672C11.0961 35.672 10.4081 35.416 9.83213 34.904C9.25613 34.392 8.96813 33.56 8.96813 32.408C8.96813 31.224 9.25613 30.392 9.83213 29.912C10.4081 29.432 11.0961 29.192 11.8961 29.192C12.7601 29.192 13.4641 29.432 14.0081 29.912C14.5841 30.392 14.8721 31.224 14.8721 32.408C14.8721 33.56 14.5841 34.392 14.0081 34.904C13.4641 35.416 12.7601 35.672 11.8961 35.672ZM24.6926 53.864C24.1486 51.752 23.6686 49.688 23.2526 47.672C22.8686 45.656 22.5806 43.8 22.3886 42.104C22.1966 40.408 22.1006 39.016 22.1006 37.928C22.1006 35.976 22.4526 34.36 23.1566 33.08C23.8606 31.768 24.8046 30.76 25.9886 30.056C27.1726 29.32 28.4846 28.824 29.9246 28.568C31.3966 28.312 32.9006 28.232 34.4366 28.328C36.0046 28.392 37.4766 28.584 38.8526 28.904C38.9486 27.816 38.8846 26.776 38.6606 25.784C38.4686 24.76 38.1326 23.864 37.6526 23.096C37.2046 22.296 36.6286 21.672 35.9246 21.224C35.2206 20.776 34.4206 20.552 33.5246 20.552C32.7246 20.552 31.9726 20.728 31.2686 21.08C30.5646 21.432 29.8926 21.976 29.2526 22.712C28.6446 23.416 28.0526 24.296 27.4766 25.352L24.5006 23.72C25.3326 21.992 26.2446 20.616 27.2366 19.592C28.2606 18.568 29.3326 17.832 30.4526 17.384C31.5726 16.904 32.6766 16.664 33.7646 16.664C35.3966 16.664 36.7726 17.016 37.8926 17.72C39.0126 18.392 39.8926 19.288 40.5326 20.408C41.2046 21.496 41.6846 22.68 41.9726 23.96C42.2926 25.208 42.4526 26.408 42.4526 27.56C42.4526 28.36 42.3566 29.16 42.1646 29.96C41.9726 30.76 41.7326 31.48 41.4446 32.12C41.1886 32.76 40.9326 33.256 40.6766 33.608C38.9486 33.096 37.3326 32.728 35.8286 32.504C34.3246 32.28 32.9646 32.216 31.7486 32.312C30.5646 32.376 29.5406 32.632 28.6766 33.08C27.8126 33.528 27.1566 34.168 26.7086 35C26.2606 35.832 26.0366 36.888 26.0366 38.168C26.0366 39.352 26.1326 40.76 26.3246 42.392C26.5166 44.024 26.7886 45.736 27.1406 47.528C27.4926 49.352 27.9086 51.144 28.3886 52.904L24.6926 53.864ZM47.1746 46.04L46.3106 42.104C48.2306 41.848 49.9906 41.48 51.5906 41C53.2226 40.552 54.6146 39.896 55.7666 39.032C56.9506 38.168 57.8626 37.032 58.5026 35.624C59.1426 34.216 59.4626 32.456 59.4626 30.344C59.4626 28.168 59.0626 26.36 58.2626 24.92C57.4626 23.48 56.4226 22.76 55.1426 22.76C54.4706 22.76 53.8466 23.016 53.2706 23.528C52.6946 24.04 52.2146 24.728 51.8306 25.592C51.4786 26.456 51.3026 27.4 51.3026 28.424C51.3026 29 51.4306 29.48 51.6866 29.864C51.9426 30.216 52.3106 30.504 52.7906 30.728C53.3026 30.92 53.9426 31.064 54.7106 31.16C55.4786 31.256 56.3746 31.304 57.3986 31.304H67.5266C68.1986 31.304 68.6786 31.496 68.9666 31.88C69.2866 32.232 69.4466 32.664 69.4466 33.176C69.4466 33.688 69.2226 34.168 68.7746 34.616C68.3266 35.032 67.7506 35.24 67.0466 35.24H55.5746C54.1346 35.24 52.7906 35.032 51.5426 34.616C50.3266 34.2 49.3346 33.56 48.5666 32.696C47.8306 31.8 47.4626 30.632 47.4626 29.192C47.4626 27.848 47.6706 26.568 48.0866 25.352C48.5026 24.104 49.0626 23 49.7666 22.04C50.5026 21.048 51.3506 20.264 52.3106 19.688C53.3026 19.112 54.3746 18.824 55.5266 18.824C56.9986 18.824 58.3106 19.256 59.4626 20.12C60.6146 20.984 61.5266 22.296 62.1986 24.056C62.8706 25.784 63.2066 27.976 63.2066 30.632C63.2066 33.608 62.5986 36.168 61.3826 38.312C60.1986 40.488 58.4066 42.216 56.0066 43.496C53.6386 44.776 50.6946 45.624 47.1746 46.04ZM67.0312 35.24L67.5113 31.304C69.1113 31.304 70.3593 31.192 71.2553 30.968C72.1513 30.712 72.8233 30.248 73.2713 29.576C73.7513 28.872 74.1353 27.864 74.4233 26.552C74.7113 25.24 75.0633 23.528 75.4793 21.416L79.2233 22.136C79.0953 22.712 78.9513 23.352 78.7913 24.056C78.6313 24.76 78.4873 25.464 78.3593 26.168C78.2633 26.84 78.2153 27.432 78.2153 27.944C78.2153 28.424 78.2473 28.872 78.3113 29.288C78.3753 29.704 78.6153 30.056 79.0312 30.344C79.4473 30.632 80.1513 30.872 81.1432 31.064C82.1353 31.224 83.5593 31.304 85.4153 31.304C86.0873 31.304 86.5673 31.496 86.8553 31.88C87.1753 32.232 87.3353 32.664 87.3353 33.176C87.3353 33.688 87.1113 34.168 86.6633 34.616C86.2153 35.032 85.6393 35.24 84.9353 35.24C82.9833 35.24 81.4313 35.144 80.2793 34.952C79.1273 34.728 78.2473 34.408 77.6393 33.992C77.0633 33.576 76.6473 33.064 76.3913 32.456C76.1673 31.816 75.9913 31.08 75.8633 30.248L77.3033 30.344C76.7913 31.368 76.2313 32.2 75.6233 32.84C75.0473 33.48 74.3753 33.976 73.6073 34.328C72.8393 34.68 71.9113 34.92 70.8233 35.048C69.7673 35.176 68.5033 35.24 67.0312 35.24ZM79.1273 44.312C78.4553 44.312 77.8793 44.072 77.3993 43.592C76.9513 43.144 76.7273 42.6 76.7273 41.96C76.7273 41.32 76.9513 40.76 77.3993 40.28C77.8793 39.8 78.4553 39.56 79.1273 39.56C79.7673 39.56 80.3113 39.8 80.7593 40.28C81.2393 40.76 81.4793 41.32 81.4793 41.96C81.4793 42.6 81.2393 43.144 80.7593 43.592C80.3113 44.072 79.7673 44.312 79.1273 44.312ZM72.5513 44.312C71.8793 44.312 71.3033 44.072 70.8233 43.592C70.3753 43.144 70.1513 42.6 70.1513 41.96C70.1513 41.32 70.3753 40.76 70.8233 40.28C71.3033 39.8 71.8793 39.56 72.5513 39.56C73.1913 39.56 73.7353 39.8 74.1833 40.28C74.6633 40.76 74.9033 41.32 74.9033 41.96C74.9033 42.6 74.6633 43.144 74.1833 43.592C73.7353 44.072 73.1913 44.312 72.5513 44.312ZM84.9375 35.24L85.3695 31.304C87.1935 31.304 88.4735 31.128 89.2095 30.776C89.9455 30.424 90.3615 29.8 90.4575 28.904C90.5855 28.008 90.6175 26.76 90.5535 25.16L89.6415 0.727998H93.5295L94.4895 24.728C94.5535 26.424 94.4895 27.928 94.2975 29.24C94.1375 30.552 93.7215 31.656 93.0495 32.552C92.4095 33.448 91.4335 34.12 90.1215 34.568C88.8415 35.016 87.1135 35.24 84.9375 35.24ZM101.822 35L100.862 0.727998H104.75L105.71 35H101.822ZM136.243 46.136C134.419 46.136 132.691 45.88 131.059 45.368C129.427 44.888 127.971 44.168 126.691 43.208C125.443 42.248 124.451 41.08 123.715 39.704C123.011 38.36 122.659 36.808 122.659 35.048C122.659 34.28 122.723 33.464 122.851 32.6C123.011 31.704 123.235 30.76 123.523 29.768C123.843 28.744 124.227 27.672 124.675 26.552L128.131 27.896C127.811 28.792 127.523 29.64 127.267 30.44C127.043 31.24 126.867 31.992 126.739 32.696C126.643 33.4 126.595 34.072 126.595 34.712C126.595 36.344 127.027 37.72 127.891 38.84C128.787 39.96 129.971 40.792 131.443 41.336C132.947 41.912 134.595 42.2 136.387 42.2C138.563 42.2 140.387 41.944 141.859 41.432C143.331 40.952 144.499 40.296 145.363 39.464C146.227 38.664 146.835 37.752 147.187 36.728C147.571 35.736 147.763 34.744 147.763 33.752C147.763 32.344 147.651 31.016 147.427 29.768C147.235 28.52 146.963 27.304 146.611 26.12C146.291 24.904 145.939 23.672 145.555 22.424L149.443 21.368C149.955 23.192 150.307 24.52 150.499 25.352C150.723 26.152 150.899 26.808 151.027 27.32C151.379 28.504 151.779 29.384 152.227 29.96C152.707 30.504 153.251 30.872 153.859 31.064C154.499 31.224 155.219 31.304 156.019 31.304C156.659 31.304 157.219 31.224 157.699 31.064C158.211 30.904 158.675 30.52 159.091 29.912C159.539 29.304 159.923 28.328 160.243 26.984C160.595 25.64 160.915 23.8 161.203 21.464L164.851 22.136C164.755 22.712 164.643 23.416 164.515 24.248C164.387 25.08 164.259 25.912 164.131 26.744C164.035 27.544 163.987 28.216 163.987 28.76C163.987 29.208 164.083 29.64 164.275 30.056C164.499 30.44 164.915 30.744 165.523 30.968C166.163 31.192 167.107 31.304 168.355 31.304C169.955 31.304 171.107 30.968 171.811 30.296C172.547 29.624 172.915 28.6 172.915 27.224C172.915 26.488 172.899 25.72 172.867 24.92C172.835 24.088 172.771 23.176 172.675 22.184C172.611 21.16 172.499 19.992 172.339 18.68L175.843 18.44C176.035 21.032 176.243 23.16 176.467 24.824C176.723 26.488 177.075 27.8 177.523 28.76C178.003 29.688 178.643 30.344 179.443 30.728C180.243 31.112 181.299 31.304 182.611 31.304C183.283 31.304 183.763 31.496 184.051 31.88C184.371 32.232 184.531 32.664 184.531 33.176C184.531 33.688 184.307 34.168 183.859 34.616C183.411 35.032 182.835 35.24 182.131 35.24C180.691 35.24 179.443 34.984 178.387 34.472C177.363 33.96 176.531 33.272 175.891 32.408C175.283 31.512 174.867 30.552 174.643 29.528L175.507 29.816C175.155 31.256 174.595 32.376 173.827 33.176C173.091 33.944 172.211 34.488 171.187 34.808C170.163 35.096 169.075 35.24 167.923 35.24C166.515 35.24 165.363 35.064 164.467 34.712C163.571 34.36 162.867 33.832 162.355 33.128C161.875 32.392 161.555 31.464 161.395 30.344H163.027C162.515 31.496 161.939 32.44 161.299 33.176C160.659 33.88 159.891 34.408 158.995 34.76C158.131 35.08 157.059 35.24 155.779 35.24C154.787 35.24 153.939 35.112 153.235 34.856C152.531 34.568 151.939 34.216 151.459 33.8C151.011 33.352 150.659 32.856 150.403 32.312C150.147 31.736 149.955 31.16 149.827 30.584L151.795 33.032C151.667 34.632 151.331 36.2 150.787 37.736C150.275 39.304 149.443 40.712 148.291 41.96C147.139 43.24 145.587 44.248 143.635 44.984C141.683 45.752 139.219 46.136 136.243 46.136ZM182.109 35.24L182.589 31.304C183.389 31.304 184.205 31.304 185.037 31.304C185.901 31.272 186.749 31.224 187.581 31.16C188.413 31.096 189.213 31.016 189.981 30.92C190.749 30.824 191.437 30.68 192.045 30.488C193.165 30.136 194.189 29.672 195.117 29.096C196.077 28.52 196.845 27.816 197.421 26.984C198.029 26.152 198.333 25.192 198.333 24.104C198.333 23.368 198.157 22.616 197.805 21.848C197.453 21.048 196.973 20.376 196.365 19.832C195.757 19.288 195.053 19.016 194.253 19.016C193.485 19.016 192.765 19.272 192.093 19.784C191.453 20.296 190.925 20.968 190.509 21.8C190.125 22.6 189.933 23.432 189.933 24.296C189.933 25.32 190.189 26.248 190.701 27.08C191.245 27.88 191.901 28.568 192.669 29.144C193.437 29.72 194.205 30.184 194.973 30.536L190.413 31.88C189.901 31.496 189.293 30.968 188.589 30.296C187.917 29.592 187.309 28.728 186.765 27.704C186.253 26.68 185.997 25.512 185.997 24.2C185.997 22.92 186.221 21.736 186.669 20.648C187.149 19.528 187.773 18.552 188.541 17.72C189.341 16.888 190.237 16.248 191.229 15.8C192.253 15.32 193.309 15.08 194.397 15.08C195.965 15.08 197.341 15.512 198.525 16.376C199.709 17.24 200.621 18.344 201.261 19.688C201.933 21 202.269 22.376 202.269 23.816C202.269 25.192 202.013 26.44 201.501 27.56C200.989 28.648 200.285 29.624 199.389 30.488C198.525 31.352 197.501 32.088 196.317 32.696C195.165 33.304 193.933 33.8 192.621 34.184C191.885 34.408 191.085 34.584 190.221 34.712C189.389 34.84 188.509 34.936 187.581 35C186.653 35.096 185.725 35.16 184.797 35.192C183.869 35.224 182.973 35.24 182.109 35.24ZM205.869 35.24C204.269 35.24 202.605 35.144 200.877 34.952C199.181 34.728 197.565 34.456 196.029 34.136C194.525 33.784 193.277 33.4 192.285 32.984L195.597 30.584C196.557 30.712 197.693 30.84 199.005 30.968C200.317 31.064 201.629 31.144 202.941 31.208C204.253 31.272 205.389 31.304 206.349 31.304C207.021 31.304 207.501 31.496 207.789 31.88C208.109 32.232 208.269 32.664 208.269 33.176C208.269 33.688 208.045 34.168 207.597 34.616C207.149 35.032 206.573 35.24 205.869 35.24ZM197.325 10.136C196.653 10.136 196.077 9.912 195.597 9.464C195.149 8.984 194.925 8.424 194.925 7.784C194.925 7.144 195.149 6.584 195.597 6.104C196.077 5.624 196.653 5.384 197.325 5.384C197.965 5.384 198.509 5.624 198.957 6.104C199.437 6.584 199.677 7.144 199.677 7.784C199.677 8.424 199.437 8.984 198.957 9.464C198.509 9.912 197.965 10.136 197.325 10.136ZM190.749 10.136C190.077 10.136 189.501 9.912 189.021 9.464C188.573 8.984 188.349 8.424 188.349 7.784C188.349 7.144 188.573 6.584 189.021 6.104C189.501 5.624 190.077 5.384 190.749 5.384C191.389 5.384 191.933 5.624 192.381 6.104C192.861 6.584 193.101 7.144 193.101 7.784C193.101 8.424 192.861 8.984 192.381 9.464C191.933 9.912 191.389 10.136 190.749 10.136ZM239.955 35.24C239.123 35.24 238.067 35.16 236.787 35C235.539 34.808 234.259 34.488 232.947 34.04C231.667 33.592 230.579 32.968 229.683 32.168L233.619 30.2C234.739 30.648 235.891 30.952 237.075 31.112C238.291 31.24 239.411 31.304 240.435 31.304C241.107 31.304 241.587 31.496 241.875 31.88C242.195 32.232 242.355 32.664 242.355 33.176C242.355 33.688 242.131 34.168 241.683 34.616C241.235 35.032 240.659 35.24 239.955 35.24ZM205.875 35.24L206.355 31.304H216.387C219.171 31.304 221.571 31.192 223.587 30.968C225.635 30.712 227.315 30.344 228.627 29.864C229.939 29.384 230.915 28.776 231.555 28.04C232.195 27.272 232.515 26.376 232.515 25.352C232.515 24.808 232.339 24.216 231.987 23.576C231.635 22.936 231.091 22.392 230.355 21.944C229.619 21.464 228.643 21.224 227.427 21.224C225.891 21.224 224.355 21.624 222.819 22.424C221.315 23.224 219.875 24.232 218.499 25.448C217.155 26.632 215.955 27.848 214.899 29.096C213.843 30.344 212.995 31.432 212.355 32.36L208.179 32.216C209.203 30.552 210.419 28.856 211.827 27.128C213.267 25.368 214.835 23.752 216.531 22.28C218.259 20.776 220.067 19.576 221.955 18.68C223.843 17.752 225.763 17.288 227.715 17.288C229.475 17.288 230.979 17.656 232.227 18.392C233.507 19.096 234.483 20.056 235.155 21.272C235.859 22.488 236.211 23.864 236.211 25.4C236.211 26.904 235.667 28.424 234.579 29.96C233.491 31.464 231.619 32.648 228.963 33.512C227.619 33.96 226.083 34.312 224.355 34.568C222.627 34.824 220.659 35 218.451 35.096C216.243 35.192 213.731 35.24 210.915 35.24H205.875ZM210.435 30.488L209.475 0.727998H213.363L214.323 27.128L210.435 30.488ZM239.953 35.24L240.385 31.304C242.209 31.304 243.489 31.128 244.225 30.776C244.961 30.424 245.377 29.8 245.473 28.904C245.601 28.008 245.633 26.76 245.569 25.16L244.657 0.727998H248.545L249.505 24.728C249.569 26.424 249.505 27.928 249.313 29.24C249.153 30.552 248.737 31.656 248.065 32.552C247.425 33.448 246.449 34.12 245.137 34.568C243.857 35.016 242.129 35.24 239.953 35.24ZM256.838 35L255.878 0.727998H259.766L260.726 35H256.838ZM279.018 46.04L278.154 42.104C280.074 41.848 281.834 41.48 283.434 41C285.066 40.552 286.458 39.896 287.61 39.032C288.794 38.168 289.706 37.032 290.346 35.624C290.986 34.216 291.306 32.456 291.306 30.344C291.306 28.168 290.906 26.36 290.106 24.92C289.306 23.48 288.266 22.76 286.986 22.76C286.314 22.76 285.69 23.016 285.114 23.528C284.538 24.04 284.058 24.728 283.674 25.592C283.322 26.456 283.146 27.4 283.146 28.424C283.146 29 283.274 29.48 283.53 29.864C283.786 30.216 284.154 30.504 284.634 30.728C285.146 30.92 285.786 31.064 286.554 31.16C287.322 31.256 288.218 31.304 289.242 31.304H299.37C300.042 31.304 300.522 31.496 300.81 31.88C301.13 32.232 301.29 32.664 301.29 33.176C301.29 33.688 301.066 34.168 300.618 34.616C300.17 35.032 299.594 35.24 298.89 35.24H287.418C285.978 35.24 284.634 35.032 283.386 34.616C282.17 34.2 281.178 33.56 280.41 32.696C279.674 31.8 279.306 30.632 279.306 29.192C279.306 27.848 279.514 26.568 279.93 25.352C280.346 24.104 280.906 23 281.61 22.04C282.346 21.048 283.194 20.264 284.154 19.688C285.146 19.112 286.218 18.824 287.37 18.824C288.842 18.824 290.154 19.256 291.306 20.12C292.458 20.984 293.37 22.296 294.042 24.056C294.714 25.784 295.05 27.976 295.05 30.632C295.05 33.608 294.442 36.168 293.226 38.312C292.042 40.488 290.25 42.216 287.85 43.496C285.482 44.776 282.538 45.624 279.018 46.04ZM317.355 35.384C316.043 35.384 314.699 35.208 313.323 34.856C311.947 34.472 310.619 33.944 309.339 33.272C308.091 32.6 306.955 31.784 305.931 30.824C304.939 29.832 304.139 28.728 303.531 27.512C302.955 26.296 302.667 24.984 302.667 23.576C302.667 22.136 302.955 20.808 303.531 19.592C304.139 18.376 304.987 17.4 306.075 16.664C307.195 15.896 308.491 15.512 309.963 15.512C311.403 15.512 312.635 15.912 313.659 16.712C314.683 17.48 315.467 18.488 316.011 19.736C316.587 20.952 316.875 22.232 316.875 23.576C316.875 25.432 316.347 27.096 315.291 28.568C314.267 30.008 312.875 31.224 311.115 32.216C309.355 33.208 307.419 33.96 305.307 34.472C303.195 34.984 301.051 35.24 298.875 35.24L299.355 31.304C301.083 31.304 302.619 31.192 303.963 30.968C305.339 30.712 306.523 30.376 307.515 29.96C308.987 29.384 310.139 28.696 310.971 27.896C311.835 27.064 312.443 26.216 312.795 25.352C313.147 24.488 313.323 23.704 313.323 23C313.323 22.328 313.179 21.688 312.891 21.08C312.635 20.44 312.251 19.928 311.739 19.544C311.259 19.128 310.667 18.92 309.963 18.92C309.259 18.92 308.619 19.128 308.043 19.544C307.499 19.928 307.067 20.44 306.747 21.08C306.427 21.72 306.267 22.392 306.267 23.096C306.267 24.44 306.603 25.64 307.275 26.696C307.979 27.72 308.875 28.6 309.963 29.336C311.083 30.072 312.267 30.632 313.515 31.016C314.795 31.4 316.011 31.592 317.163 31.592C318.251 31.592 319.051 31.416 319.563 31.064C320.075 30.68 320.331 30.056 320.331 29.192C320.331 29.032 320.283 28.744 320.187 28.328C320.123 27.88 319.867 27.272 319.419 26.504C319.003 25.736 318.283 24.792 317.259 23.672C316.235 22.52 314.795 21.16 312.939 19.592C311.083 17.992 308.683 16.136 305.739 14.024L307.995 11.048C311.067 13.288 313.595 15.272 315.579 17C317.595 18.696 319.179 20.184 320.331 21.464C321.515 22.712 322.379 23.816 322.923 24.776C323.499 25.704 323.867 26.536 324.027 27.272C324.187 27.976 324.267 28.648 324.267 29.288C324.267 30.344 324.027 31.336 323.547 32.264C323.099 33.192 322.363 33.944 321.339 34.52C320.347 35.096 319.019 35.384 317.355 35.384ZM352.781 35.24C350.221 35.24 348.253 34.952 346.877 34.376C345.533 33.8 344.605 32.904 344.093 31.688C343.581 30.472 343.293 28.904 343.229 26.984L342.269 0.727998H346.205L347.165 25.448C347.229 27.016 347.373 28.232 347.597 29.096C347.853 29.928 348.397 30.504 349.229 30.824C350.093 31.144 351.437 31.304 353.261 31.304C353.933 31.304 354.413 31.496 354.701 31.88C355.021 32.232 355.181 32.664 355.181 33.176C355.181 33.688 354.957 34.168 354.509 34.616C354.061 35.032 353.485 35.24 352.781 35.24ZM352.781 35.24L353.261 31.304C354.157 31.304 354.909 31.112 355.517 30.728C356.125 30.344 356.717 29.704 357.293 28.808C357.869 27.912 358.493 26.712 359.165 25.208C360.093 23.16 361.005 21.608 361.901 20.552C362.829 19.496 363.741 18.776 364.637 18.392C365.565 18.008 366.477 17.816 367.373 17.816C368.461 17.816 369.469 18.104 370.397 18.68C371.325 19.224 372.141 19.96 372.845 20.888C373.549 21.816 374.093 22.84 374.477 23.96C374.893 25.048 375.101 26.136 375.101 27.224C375.101 29.144 374.765 30.68 374.093 31.832C373.421 32.952 372.557 33.768 371.501 34.28C370.477 34.76 369.405 35 368.285 35C367.293 35 366.013 34.808 364.445 34.424C362.909 34.04 360.957 33.064 358.589 31.496L360.461 28.472C362.029 29.464 363.437 30.152 364.685 30.536C365.965 30.888 367.021 31.064 367.853 31.064C368.781 31.064 369.517 30.936 370.061 30.68C370.605 30.392 371.005 29.992 371.261 29.48C371.517 28.968 371.645 28.392 371.645 27.752C371.645 26.824 371.421 25.896 370.973 24.968C370.525 24.04 369.949 23.272 369.245 22.664C368.573 22.056 367.853 21.752 367.085 21.752C366.509 21.752 365.949 21.912 365.405 22.232C364.861 22.552 364.301 23.144 363.725 24.008C363.149 24.872 362.493 26.12 361.757 27.752C360.989 29.48 360.253 30.856 359.549 31.88C358.877 32.872 358.189 33.608 357.485 34.088C356.781 34.568 356.045 34.872 355.277 35C354.541 35.16 353.709 35.24 352.781 35.24Z" fill="black"/>
</svg>
