<svg width="413" height="50" viewBox="0 0 413 50" fill="none" xmlns="http://www.w3.org/2000/svg">
<path d="M21.8 32.632C21.8 37.336 18.344 40.024 13.64 40.024C7.928 40.024 4.088 36.664 0.392 26.488L3.8 25.096C6.392 32.584 9.128 36.52 13.304 36.52C16.136 36.52 18.008 34.936 18.008 32.2C18.008 29.992 16.52 28.264 14.648 26.92C13.448 27.256 12.008 27.496 10.376 27.64L9.608 24.232C15.608 23.464 17.192 22.168 17.192 19.528C17.192 17.416 15.8 16.072 13.208 16.072C11.048 16.072 8.984 16.744 6.92 17.992L5.672 14.632C7.88 13.384 10.376 12.664 13.352 12.664C18.824 12.664 21.032 15.88 21.032 19.576C21.032 22.072 20.12 24.088 17.96 25.48L18.056 25.576C19.592 25.96 21.272 26.104 22.76 26.104C24.248 26.104 25.832 25.96 27.512 25.528V16.552H24.008V13.144H48.776V16.552H43.832V43H39.944V16.552H31.4V43H27.512V29.08C26.216 29.416 24.872 29.512 23.528 29.512C22.76 29.512 21.848 29.464 20.936 29.32C21.512 30.328 21.8 31.48 21.8 32.632ZM79.4221 16.552V43H75.5341V25.24H68.9581C67.6621 25.24 66.7981 25.192 66.2221 25.096C68.5261 26.968 70.0621 29.704 70.0621 32.536C70.0621 37 66.7981 39.16 62.9581 39.16C57.8701 39.16 53.5981 35.176 49.5661 23.752L52.9741 22.552C55.9021 31.144 59.0221 35.656 62.7661 35.656C64.8301 35.656 66.2701 34.648 66.2701 32.104C66.2701 29.272 64.0621 26.728 61.1821 24.904L62.5741 21.832H75.5341V16.552H48.0781V13.144H84.3661V16.552H79.4221ZM133.662 16.552H118.062V25.816C119.406 24.616 121.326 23.8 123.678 23.8C128.238 23.8 130.926 26.728 130.926 31.48C130.926 34.84 129.726 37.864 126.894 40.984L123.534 38.872C125.646 36.712 127.086 34.36 127.086 31.432C127.086 28.648 125.694 27.16 123.246 27.16C121.23 27.16 119.262 28.552 118.062 30.712V43H114.174V34.84C112.446 36.376 110.142 37.336 107.262 37.336C102.366 37.336 98.2861 34.552 98.2861 29.032C98.2861 23.8 101.934 20.728 108.174 20.728C109.806 20.728 111.294 20.92 112.494 21.208L112.158 24.712C111.054 24.424 109.71 24.232 108.27 24.232C104.334 24.232 102.174 25.96 102.174 29.176C102.174 32.344 104.382 33.88 107.262 33.88C110.19 33.88 112.734 32.248 114.174 30.184V16.552H96.0781V13.144H133.662V16.552ZM141.082 16.552V43H137.194V16.552H132.922V13.144H146.026V16.552H141.082ZM182.151 16.552V43H178.263V31H167.655V32.776C167.655 34.888 166.551 35.752 165.351 35.752C162.903 35.752 159.591 32.104 159.591 29.656C159.591 28.504 160.359 27.592 162.519 27.592H163.767V16.552H157.719V13.144H187.095V16.552H182.151ZM178.263 16.552H167.655V27.592H178.263V16.552ZM194.566 16.552V43H190.678V16.552H186.406V13.144H190.438C187.414 9.784 186.118 9.256 183.814 9.256C182.326 9.256 180.79 9.688 179.542 10.264L178.342 6.904C179.782 6.28 181.414 5.896 182.95 5.896C185.974 5.896 187.51 7 190.198 9.784L190.39 9.688C187.702 4.36 186.406 3.304 183.718 3.304C182.614 3.304 181.558 3.544 180.31 4.024L179.206 0.711998C180.502 0.231998 182.038 -0.00800133 183.574 -0.00800133C188.854 -0.00800133 190.63 2.536 194.182 13.144H199.51V16.552H194.566ZM212.604 43.672C207.804 38.968 203.916 34.12 202.188 30.952C201.276 29.32 200.844 27.88 200.844 26.68C200.844 25 201.804 24.088 203.436 24.088C204.828 24.088 206.124 24.952 207.372 26.392C209.1 25.192 209.676 23.032 209.676 20.92C209.676 19.144 209.292 17.56 208.86 16.552H198.828V13.144H231.948V16.552H227.004V43H223.116V30.712C221.484 31.096 219.804 31.288 218.028 31.288C215.484 31.288 212.46 30.808 209.772 29.416C208.812 30.136 207.564 30.76 206.124 31.24C208.428 34.36 211.692 37.528 215.532 41.08L212.604 43.672ZM217.98 27.832C219.804 27.832 221.436 27.64 223.116 27.16V16.552H212.796C213.324 17.944 213.564 19.48 213.564 21.4C213.564 23.512 213.084 25.336 212.076 26.872C214.044 27.592 215.82 27.832 217.98 27.832ZM255.698 16.552V43H251.81V31H241.202V32.776C241.202 34.888 240.098 35.752 238.898 35.752C236.45 35.752 233.138 32.104 233.138 29.656C233.138 28.504 233.906 27.592 236.066 27.592H237.314V16.552H231.266V13.144H260.642V16.552H255.698ZM251.81 16.552H241.202V27.592H251.81V16.552ZM309.912 16.552H294.312V25.816C295.656 24.616 297.576 23.8 299.928 23.8C304.488 23.8 307.176 26.728 307.176 31.48C307.176 34.84 305.976 37.864 303.144 40.984L299.784 38.872C301.896 36.712 303.336 34.36 303.336 31.432C303.336 28.648 301.944 27.16 299.496 27.16C297.48 27.16 295.512 28.552 294.312 30.712V43H290.424V34.84C288.696 36.376 286.392 37.336 283.512 37.336C278.616 37.336 274.536 34.552 274.536 29.032C274.536 23.8 278.184 20.728 284.424 20.728C286.056 20.728 287.544 20.92 288.744 21.208L288.408 24.712C287.304 24.424 285.96 24.232 284.52 24.232C280.584 24.232 278.424 25.96 278.424 29.176C278.424 32.344 280.632 33.88 283.512 33.88C286.44 33.88 288.984 32.248 290.424 30.184V16.552H272.328V13.144H309.912V16.552ZM290.466 13.48C287.25 9.832 285.954 9.256 283.554 9.256C282.066 9.256 280.53 9.688 279.282 10.264L278.082 6.904C279.522 6.28 281.154 5.896 282.69 5.896C285.714 5.896 287.25 7 289.938 9.784L290.13 9.688C287.442 4.36 286.146 3.304 283.458 3.304C282.354 3.304 281.298 3.544 280.05 4.024L278.946 0.711998C280.242 0.231998 281.778 -0.00800133 283.314 -0.00800133C288.594 -0.00800133 290.37 2.536 294.018 13.48H290.466ZM322.948 43.672C318.148 38.968 314.26 34.12 312.532 30.952C311.62 29.32 311.188 27.88 311.188 26.68C311.188 25 312.148 24.088 313.78 24.088C315.172 24.088 316.468 24.952 317.716 26.392C319.444 25.192 320.02 23.032 320.02 20.92C320.02 19.144 319.636 17.56 319.204 16.552H309.172V13.144H342.292V16.552H337.348V43H333.46V30.712C331.828 31.096 330.148 31.288 328.372 31.288C325.828 31.288 322.804 30.808 320.116 29.416C319.156 30.136 317.908 30.76 316.468 31.24C318.772 34.36 322.036 37.528 325.876 41.08L322.948 43.672ZM328.324 27.832C330.148 27.832 331.78 27.64 333.46 27.16V16.552H323.14C323.668 17.944 323.908 19.48 323.908 21.4C323.908 23.512 323.428 25.336 322.42 26.872C324.388 27.592 326.164 27.832 328.324 27.832ZM349.769 16.552V43H345.881V16.552H341.609V13.144H354.713V16.552H349.769ZM382.39 39.928C384.646 38.968 385.846 37.528 385.846 35.992C385.846 33.88 384.262 32.344 380.374 32.344C375.958 32.344 373.558 34.312 373.558 37.528C373.558 41.368 377.686 43.72 384.79 46.552L382.87 49.816C375.382 46.792 369.718 43.432 369.718 37.384C369.718 34.696 370.774 32.632 372.55 31.24C370.822 29.704 369.718 28.072 369.718 26.008C369.718 22.552 372.118 20.68 377.11 20.68H383.734V16.552H366.406V13.144H392.566V16.552H387.622V24.088H377.638C374.806 24.088 373.558 24.904 373.558 26.632C373.558 27.832 374.47 29.032 375.43 29.704C376.918 29.176 378.646 28.936 380.47 28.936C386.998 28.936 389.638 32.2 389.638 36.04C389.638 38.728 388.486 40.936 385.126 42.712L382.39 39.928ZM383.794 13.48C380.578 9.832 379.282 9.256 376.882 9.256C375.394 9.256 373.858 9.688 372.61 10.264L371.41 6.904C372.85 6.28 374.482 5.896 376.018 5.896C379.042 5.896 380.578 7 383.266 9.784L383.458 9.688C380.77 4.36 379.474 3.304 376.786 3.304C375.682 3.304 374.626 3.544 373.378 4.024L372.274 0.711998C373.57 0.231998 375.106 -0.00800133 376.642 -0.00800133C381.922 -0.00800133 383.698 2.536 387.346 13.48H383.794ZM401.65 34.12C400.354 33.016 399.778 31.672 399.778 30.232C399.778 24.136 408.466 23.608 408.466 18.52C408.466 16.12 406.594 14.056 402.802 14.056C399.202 14.056 396.946 15.64 395.17 17.992L392.77 15.4C395.074 12.424 398.626 10.504 403.186 10.504C409.042 10.504 412.594 13.816 412.594 17.944C412.594 25.192 403.282 25.816 403.282 30.52C403.282 31.288 403.762 32.248 404.578 32.872L401.65 34.12ZM402.658 43.48C401.218 43.48 400.018 42.28 400.018 40.84C400.018 39.4 401.218 38.2 402.658 38.2C404.098 38.2 405.298 39.4 405.298 40.84C405.298 42.28 404.098 43.48 402.658 43.48Z" fill="black"/>
</svg>
