<svg width="442" height="42" viewBox="0 0 442 42" fill="none" xmlns="http://www.w3.org/2000/svg">
<path d="M17.296 41V23.48C17.296 21.4 16.816 19.928 15.856 19.064C14.928 18.168 13.36 17.72 11.152 17.72C9.552 17.72 8.016 17.944 6.544 18.392C5.104 18.808 3.728 19.4 2.416 20.168V16.184C3.344 15.704 4.592 15.256 6.16 14.84C7.76 14.424 9.552 14.216 11.536 14.216C13.232 14.216 14.672 14.408 15.856 14.792C17.072 15.176 17.968 15.88 18.544 16.904C19.664 17.416 20.432 18.216 20.848 19.304C21.296 20.392 21.52 21.704 21.52 23.24V41H17.296ZM9.04 41.48C6.224 41.48 4.064 40.84 2.56 39.56C1.088 38.248 0.352 36.376 0.352 33.944C0.352 31.288 1.312 29.24 3.232 27.8C5.184 26.36 8.336 25.512 12.688 25.256L18.16 24.92V28.472L13.264 28.808C10 29.032 7.744 29.544 6.496 30.344C5.28 31.144 4.672 32.312 4.672 33.848C4.672 35.288 5.12 36.344 6.016 37.016C6.944 37.688 8.224 38.024 9.856 38.024C10.4 38.024 10.896 37.992 11.344 37.928C11.792 37.832 12.224 37.72 12.64 37.592L13.312 40.808C12.704 41.032 12.032 41.192 11.296 41.288C10.592 41.416 9.84 41.48 9.04 41.48ZM18.4 18.392L16 16.136C16.832 16.008 17.616 15.688 18.352 15.176C19.088 14.664 19.456 13.928 19.456 12.968H23.632C23.632 13.96 23.392 14.84 22.912 15.608C22.464 16.344 21.84 16.952 21.04 17.432C20.24 17.88 19.36 18.2 18.4 18.392ZM29.6928 41.48C29.1168 41.48 28.5568 41.416 28.0128 41.288C27.4688 41.192 26.9248 41.016 26.3808 40.76L26.8608 37.784C27.0848 37.848 27.3408 37.912 27.6288 37.976C27.9168 38.04 28.1888 38.072 28.4448 38.072C28.9568 38.072 29.3248 37.928 29.5488 37.64C29.7728 37.32 29.8848 36.824 29.8848 36.152V31.688C29.8848 29.704 30.2528 28.28 30.9888 27.416C31.7248 26.52 32.7808 25.912 34.1568 25.592L34.2048 25.448L28.6848 23.432V21.848C28.6848 20.536 29.1008 19.304 29.9328 18.152C30.7968 16.968 32.0448 16.024 33.6768 15.32C35.3088 14.584 37.2608 14.216 39.5328 14.216C41.5168 14.216 43.3408 14.536 45.0048 15.176C46.6688 15.784 47.9968 16.76 48.9888 18.104C50.0128 19.416 50.5248 21.144 50.5248 23.288V41H46.2528V23.72C46.2528 21.576 45.5968 20.056 44.2848 19.16C42.9728 18.232 41.3728 17.768 39.4848 17.768C37.5008 17.768 35.9328 18.184 34.7808 19.016C33.6288 19.816 33.0528 20.84 33.0528 22.088L38.5248 24.68L38.1407 26.984C36.9568 26.984 35.9968 27.368 35.2608 28.136C34.5248 28.904 34.1568 30.136 34.1568 31.832V36.488C34.1568 38.44 33.7248 39.768 32.8608 40.472C31.9968 41.144 30.9408 41.48 29.6928 41.48ZM65.7186 41V22.328C65.7186 20.76 65.3506 19.608 64.6146 18.872C63.9106 18.136 62.7106 17.768 61.0146 17.768C59.8626 17.768 58.7746 17.928 57.7506 18.248C56.7586 18.536 55.7986 18.952 54.8706 19.496V15.656C55.5106 15.336 56.4226 15.016 57.6066 14.696C58.7906 14.376 60.1986 14.216 61.8306 14.216C63.4946 14.216 64.9346 14.456 66.1506 14.936C67.3666 15.416 68.3106 16.216 68.9826 17.336C69.6546 18.424 69.9906 19.88 69.9906 21.704V41H65.7186ZM80.6106 41L75.8586 14.696H80.2266L82.0986 26.12C82.2586 27.048 82.4186 28.248 82.5786 29.72C82.7386 31.192 82.9306 32.936 83.1546 34.952H83.2986C83.5866 33.576 83.8586 32.344 84.1146 31.256C84.4026 30.168 84.6586 29.192 84.8826 28.328C85.1386 27.432 85.3626 26.648 85.5546 25.976L88.7706 14.696H92.2746L95.5386 25.976C95.7306 26.648 95.9386 27.432 96.1626 28.328C96.4186 29.192 96.6746 30.168 96.9306 31.256C97.2186 32.344 97.5066 33.576 97.7946 34.952H97.9866C98.1786 32.936 98.3546 31.192 98.5146 29.72C98.6746 28.248 98.8346 27.048 98.9946 26.12L100.915 14.696H105.283L100.531 41H96.3546L91.9386 26.696C91.7146 25.896 91.4906 25.064 91.2666 24.2C91.0746 23.336 90.8826 22.2 90.6906 20.792H90.4986C90.3706 21.72 90.2266 22.536 90.0666 23.24C89.9066 23.944 89.7466 24.568 89.5866 25.112C89.4266 25.656 89.2666 26.184 89.1066 26.696L84.7866 41H80.6106ZM120.466 41.48C117.01 41.48 114.418 40.584 112.69 38.792C110.994 36.968 110.146 34.12 110.146 30.248C110.146 29.608 110.162 28.92 110.194 28.184C110.258 27.416 110.322 26.664 110.386 25.928H120.466V29.288H114.418V30.248C114.418 32.264 114.642 33.848 115.09 35C115.538 36.12 116.194 36.904 117.058 37.352C117.954 37.8 119.058 38.024 120.37 38.024C121.81 38.024 123.058 37.752 124.114 37.208C125.17 36.664 125.986 35.672 126.562 34.232C127.138 32.792 127.426 30.728 127.426 28.04C127.426 25.672 127.17 23.736 126.658 22.232C126.146 20.728 125.298 19.608 124.114 18.872C122.962 18.136 121.394 17.768 119.41 17.768C118.386 17.768 117.394 17.864 116.434 18.056C115.474 18.216 114.546 18.472 113.65 18.824C112.754 19.144 111.874 19.56 111.01 20.072V16.088C111.65 15.736 112.434 15.432 113.362 15.176C114.29 14.888 115.314 14.664 116.434 14.504C117.554 14.312 118.722 14.216 119.938 14.216C122.754 14.216 125.026 14.792 126.754 15.944C128.514 17.064 129.794 18.664 130.594 20.744C131.394 22.792 131.794 25.224 131.794 28.04C131.794 30.856 131.426 33.272 130.69 35.288C129.954 37.304 128.754 38.84 127.09 39.896C125.458 40.952 123.25 41.48 120.466 41.48ZM146.156 41V22.328C146.156 20.76 145.788 19.608 145.052 18.872C144.348 18.136 143.148 17.768 141.452 17.768C140.3 17.768 139.212 17.928 138.188 18.248C137.196 18.536 136.236 18.952 135.308 19.496V15.656C135.948 15.336 136.86 15.016 138.044 14.696C139.228 14.376 140.636 14.216 142.268 14.216C143.932 14.216 145.372 14.456 146.588 14.936C147.804 15.416 148.748 16.216 149.42 17.336C150.092 18.424 150.428 19.88 150.428 21.704V41H146.156ZM157.976 41V31.88C157.976 29.864 158.424 28.408 159.32 27.512C160.216 26.584 161.352 25.944 162.728 25.592L162.776 25.448L157.496 23.432V21.848C157.496 20.536 157.928 19.304 158.792 18.152C159.656 16.968 160.888 16.024 162.488 15.32C164.12 14.584 166.056 14.216 168.296 14.216C170.248 14.216 172.056 14.536 173.72 15.176C175.384 15.784 176.712 16.76 177.704 18.104C178.728 19.416 179.24 21.144 179.24 23.288V41H174.968V23.72C174.968 21.576 174.312 20.056 173 19.16C171.72 18.232 170.136 17.768 168.248 17.768C166.296 17.768 164.744 18.184 163.592 19.016C162.44 19.816 161.864 20.84 161.864 22.088L167.048 24.68L166.664 26.984C165.48 26.984 164.44 27.384 163.544 28.184C162.68 28.952 162.248 30.184 162.248 31.88V41H157.976ZM194.437 41V22.328C194.437 20.76 194.069 19.608 193.333 18.872C192.629 18.136 191.429 17.768 189.733 17.768C188.581 17.768 187.493 17.928 186.469 18.248C185.477 18.536 184.517 18.952 183.589 19.496V15.656C184.229 15.336 185.141 15.016 186.325 14.696C187.509 14.376 188.917 14.216 190.549 14.216C192.213 14.216 193.653 14.456 194.869 14.936C196.085 15.416 197.029 16.216 197.701 17.336C198.373 18.424 198.709 19.88 198.709 21.704V41H194.437ZM206.497 41V24.2C206.497 20.968 207.361 18.504 209.089 16.808C210.817 15.08 213.569 14.216 217.345 14.216C219.137 14.216 220.673 14.44 221.953 14.888C223.233 15.304 224.241 16.024 224.977 17.048C226.129 17.624 226.945 18.536 227.425 19.784C227.937 21.032 228.193 22.504 228.193 24.2V41H223.921V24.2C223.921 22.056 223.361 20.456 222.241 19.4C221.153 18.312 219.521 17.768 217.345 17.768C215.169 17.768 213.521 18.312 212.401 19.4C211.313 20.456 210.769 22.056 210.769 24.2V29.528L210.913 29.576C211.649 28.328 212.513 27.512 213.505 27.128C214.529 26.712 215.969 26.504 217.825 26.504H219.409V30.008H217.825C215.905 30.008 214.433 30.28 213.409 30.824C212.385 31.368 211.681 32.088 211.297 32.984C210.945 33.848 210.769 34.824 210.769 35.912V41H206.497ZM224.977 18.392L222.577 16.136C223.409 16.008 224.193 15.688 224.929 15.176C225.665 14.664 226.033 13.928 226.033 12.968H230.209C230.209 13.96 229.969 14.84 229.489 15.608C229.009 16.344 228.369 16.952 227.569 17.432C226.801 17.88 225.937 18.2 224.977 18.392ZM242.59 41.48C241.726 41.48 240.894 41.336 240.094 41.048C239.294 40.76 238.638 40.248 238.126 39.512C237.614 38.776 237.358 37.752 237.358 36.44V14.696H241.63V35.912C241.63 36.648 241.79 37.176 242.11 37.496C242.43 37.816 242.942 37.976 243.646 37.976C243.934 37.976 244.238 37.944 244.558 37.88C244.878 37.816 245.182 37.736 245.47 37.64L246.046 40.76C245.438 41.048 244.846 41.24 244.27 41.336C243.694 41.432 243.134 41.48 242.59 41.48ZM260.839 41.48C257.063 41.48 254.359 40.616 252.727 38.888C251.095 37.16 250.279 34.696 250.279 31.496V14.696H254.551V31.544C254.551 33.688 255.063 35.288 256.087 36.344C257.111 37.4 258.695 37.928 260.839 37.928C263.015 37.928 264.615 37.4 265.639 36.344C266.695 35.288 267.223 33.688 267.223 31.544V5.24H271.495V31.496C271.495 34.696 270.663 37.16 268.999 38.888C267.367 40.616 264.647 41.48 260.839 41.48ZM260.237 11.24C259.373 11.24 258.637 11.064 258.029 10.712C257.389 10.328 256.877 9.768 256.493 9.032L254.861 11.096C253.005 11.096 251.549 10.648 250.493 9.752C249.437 8.824 248.909 7.496 248.909 5.768C248.909 3.944 249.453 2.6 250.541 1.736C251.597 0.839999 252.829 0.391999 254.237 0.391999H264.509V3.272H254.861C254.125 3.272 253.517 3.48 253.037 3.896C252.525 4.312 252.269 4.984 252.269 5.912C252.269 6.584 252.445 7.144 252.797 7.592C253.149 8.04 253.741 8.264 254.573 8.264L256.493 5.864H257.693C257.725 6.696 257.917 7.336 258.269 7.784C258.589 8.2 259.053 8.408 259.661 8.408C260.205 8.408 260.653 8.232 261.005 7.88C261.325 7.496 261.485 7.016 261.485 6.44V5.864H264.557V6.536C264.557 8.104 264.173 9.288 263.405 10.088C262.605 10.856 261.549 11.24 260.237 11.24ZM288.413 41.48C286.525 41.48 284.893 41.16 283.517 40.52C282.173 39.848 281.133 38.84 280.397 37.496C279.693 36.152 279.341 34.408 279.341 32.264V14.696H283.613V32.024C283.613 33.944 284.093 35.4 285.053 36.392C286.045 37.384 287.469 37.88 289.325 37.88C291.565 37.88 293.293 37.16 294.509 35.72C295.757 34.28 296.381 32.344 296.381 29.912V14.696H300.653V41H297.101L296.909 37.112H296.669C296.093 38.392 295.085 39.448 293.645 40.28C292.237 41.08 290.493 41.48 288.413 41.48ZM318.091 41.48C314.635 41.48 312.043 40.584 310.315 38.792C308.619 36.968 307.771 34.12 307.771 30.248C307.771 29.608 307.787 28.92 307.819 28.184C307.883 27.416 307.947 26.664 308.011 25.928H318.091V29.288H312.043V30.248C312.043 32.264 312.267 33.848 312.715 35C313.163 36.12 313.819 36.904 314.683 37.352C315.579 37.8 316.683 38.024 317.995 38.024C319.435 38.024 320.683 37.752 321.739 37.208C322.795 36.664 323.611 35.672 324.187 34.232C324.763 32.792 325.051 30.728 325.051 28.04C325.051 25.672 324.795 23.736 324.283 22.232C323.771 20.728 322.923 19.608 321.739 18.872C320.587 18.136 319.019 17.768 317.035 17.768C316.011 17.768 315.019 17.864 314.059 18.056C313.099 18.216 312.171 18.472 311.275 18.824C310.379 19.144 309.499 19.56 308.635 20.072V16.088C309.275 15.736 310.059 15.432 310.987 15.176C311.915 14.888 312.939 14.664 314.059 14.504C315.179 14.312 316.347 14.216 317.563 14.216C320.379 14.216 322.651 14.792 324.379 15.944C326.139 17.064 327.419 18.664 328.219 20.744C329.019 22.792 329.419 25.224 329.419 28.04C329.419 30.856 329.051 33.272 328.315 35.288C327.579 37.304 326.379 38.84 324.715 39.896C323.083 40.952 320.875 41.48 318.091 41.48ZM346.469 41.432C343.877 41.432 341.797 41.096 340.229 40.424C338.693 39.752 337.573 38.808 336.869 37.592C336.197 36.376 335.861 34.936 335.861 33.272C335.861 31.8 336.069 30.632 336.485 29.768C336.933 28.872 337.477 28.216 338.117 27.8C338.789 27.384 339.477 27.112 340.181 26.984V26.792C339.541 26.6 338.869 26.28 338.165 25.832C337.461 25.384 336.869 24.76 336.389 23.96C335.941 23.16 335.717 22.152 335.717 20.936C335.717 19.816 335.973 18.76 336.485 17.768C336.997 16.776 337.829 15.96 338.981 15.32C340.133 14.68 341.653 14.36 343.541 14.36C344.309 14.36 345.109 14.424 345.941 14.552C346.773 14.648 347.413 14.824 347.861 15.08L347.093 18.392C346.741 18.264 346.277 18.152 345.701 18.056C345.157 17.928 344.581 17.864 343.973 17.864C342.629 17.864 341.637 18.184 340.997 18.824C340.357 19.432 340.037 20.248 340.037 21.272C340.037 22.392 340.309 23.24 340.853 23.816C341.429 24.392 342.149 24.792 343.013 25.016C343.909 25.208 344.837 25.304 345.797 25.304H346.709V28.424H345.797C343.877 28.424 342.453 28.776 341.525 29.48C340.629 30.152 340.181 31.288 340.181 32.888C340.181 33.816 340.357 34.664 340.709 35.432C341.093 36.2 341.733 36.808 342.629 37.256C343.557 37.704 344.837 37.928 346.469 37.928C348.101 37.928 349.365 37.704 350.261 37.256C351.189 36.808 351.845 36.168 352.229 35.336C352.613 34.472 352.805 33.448 352.805 32.264V14.696H357.077V31.976C357.077 35.336 356.213 37.752 354.485 39.224C352.789 40.696 350.117 41.432 346.469 41.432ZM352.784 10.52V0.391999H357.008V10.52H352.784ZM372.281 41V22.328C372.281 20.76 371.913 19.608 371.177 18.872C370.473 18.136 369.273 17.768 367.577 17.768C366.425 17.768 365.337 17.928 364.313 18.248C363.321 18.536 362.361 18.952 361.433 19.496V15.656C362.073 15.336 362.985 15.016 364.169 14.696C365.353 14.376 366.761 14.216 368.393 14.216C370.057 14.216 371.497 14.456 372.713 14.936C373.929 15.416 374.873 16.216 375.545 17.336C376.217 18.424 376.553 19.88 376.553 21.704V41H372.281ZM388.661 41L380.453 14.696H384.773L391.877 37.304H392.453C393.221 37.304 393.973 37.128 394.709 36.776C395.445 36.392 396.069 35.912 396.581 35.336C397.541 34.28 398.245 32.952 398.693 31.352C399.141 29.72 399.365 28.12 399.365 26.552C399.365 23.896 398.757 21.816 397.541 20.312C396.357 18.776 394.709 18.008 392.597 18.008C392.181 18.008 391.765 18.04 391.349 18.104C390.965 18.168 390.645 18.248 390.389 18.344L389.333 14.936C390.005 14.744 390.629 14.616 391.205 14.552C391.813 14.488 392.357 14.456 392.837 14.456C394.437 14.456 395.861 14.696 397.109 15.176C398.389 15.624 399.477 16.296 400.373 17.192C401.493 18.28 402.309 19.64 402.821 21.272C403.365 22.904 403.637 24.712 403.637 26.696C403.637 29.192 403.253 31.416 402.485 33.368C401.717 35.288 400.757 36.824 399.605 37.976C398.677 38.904 397.541 39.64 396.197 40.184C394.853 40.728 393.141 41 391.061 41H388.661ZM411.514 19.496V10.904C411.514 9.688 411.626 8.712 411.85 7.976C412.074 7.208 412.378 6.584 412.762 6.104C413.146 5.624 413.562 5.224 414.01 4.904L413.962 4.712H405.61L406.714 1.352H420.25V4.712C419.066 4.712 418.026 5.096 417.13 5.864C416.234 6.632 415.786 8.04 415.786 10.088V19.496H411.514ZM416.746 41.48C415.882 41.48 415.05 41.336 414.25 41.048C413.45 40.76 412.794 40.248 412.282 39.512C411.77 38.776 411.514 37.752 411.514 36.44V14.696H415.786V35.912C415.786 36.648 415.946 37.176 416.266 37.496C416.586 37.816 417.098 37.976 417.802 37.976C418.09 37.976 418.394 37.944 418.714 37.88C419.034 37.816 419.338 37.736 419.626 37.64L420.202 40.76C419.594 41.048 419.002 41.24 418.426 41.336C417.85 41.432 417.29 41.48 416.746 41.48ZM431.624 41.48C429.736 41.48 427.976 41.304 426.344 40.952C424.744 40.568 423.384 40.12 422.264 39.608L423.512 36.152C424.184 36.408 424.952 36.68 425.816 36.968C426.68 37.256 427.608 37.496 428.6 37.688C429.624 37.848 430.664 37.928 431.72 37.928C433.416 37.928 434.824 37.608 435.944 36.968C437.064 36.328 437.624 35.4 437.624 34.184C437.624 33.448 437.416 32.824 437 32.312C436.616 31.768 436.008 31.272 435.176 30.824C434.344 30.376 433.272 29.944 431.96 29.528C429.944 28.888 428.232 28.216 426.824 27.512C425.448 26.776 424.392 25.912 423.656 24.92C422.952 23.896 422.6 22.632 422.6 21.128C422.6 19.784 422.952 18.6 423.656 17.576C424.392 16.52 425.512 15.704 427.016 15.128C428.552 14.52 430.504 14.216 432.872 14.216C434.408 14.216 435.848 14.36 437.192 14.648C438.568 14.904 439.64 15.272 440.408 15.752V19.352C439.864 19.096 439.176 18.84 438.344 18.584C437.544 18.328 436.664 18.12 435.704 17.96C434.744 17.8 433.752 17.72 432.728 17.72C430.584 17.72 429.064 18.056 428.168 18.728C427.304 19.368 426.872 20.104 426.872 20.936C426.872 21.64 427.064 22.232 427.448 22.712C427.864 23.192 428.552 23.656 429.512 24.104C430.504 24.552 431.832 25.064 433.496 25.64C435.032 26.152 436.44 26.744 437.72 27.416C439 28.088 440.008 28.936 440.744 29.96C441.512 30.952 441.896 32.232 441.896 33.8C441.896 35.144 441.56 36.408 440.888 37.592C440.248 38.744 439.176 39.688 437.672 40.424C436.168 41.128 434.152 41.48 431.624 41.48Z" fill="black"/>
</svg>
